<svg width="441" height="130" viewBox="0 0 441 130" fill="none" xmlns="http://www.w3.org/2000/svg">
<path d="M427.492 31.6423C425.635 32.1533 423.777 32.6703 421.938 33.1424C404.9 36.7347 387.844 37.7226 370.323 38.2813C361.561 38.558 352.683 38.7276 343.619 39.058C339.088 39.223 334.509 39.4061 329.876 39.6868C325.244 39.9588 320.552 40.3318 315.801 40.7835C309.136 41.7825 302.241 42.3025 295.238 42.5061C288.236 42.6814 281.128 42.5149 274.028 42.2041C270.477 42.0571 266.931 41.8225 263.399 41.5915C259.867 41.3435 256.353 41.0959 252.868 40.8498C249.384 40.5896 245.929 40.3338 242.517 40.0802C239.106 39.8294 235.741 39.6029 232.429 39.4169C263.93 38.9152 296.15 39.6358 328.104 38.3626C360.046 37.1248 391.721 33.8343 421.847 25.463C415.796 19.5036 408.593 14.7093 400.161 14.5885C379.839 16.6198 359.761 17.8134 339.857 18.3336C339.789 20.8547 339.658 25.7841 339.593 28.2627C332.541 27.0994 325.543 26.3667 318.581 25.9493C311.62 25.4953 304.695 25.3452 297.79 25.3974C283.982 25.4508 270.257 26.2541 256.526 26.7913C249.657 27.0912 242.795 27.2778 235.923 27.3253C232.487 27.3449 229.049 27.3367 225.608 27.2529C222.169 27.1605 218.728 27.0151 215.282 26.8028C211.836 26.5878 208.389 26.3055 204.937 25.9396C201.488 25.5536 198.035 25.0811 194.576 24.5139C191.12 23.9464 187.66 23.2781 184.195 22.4983C180.732 21.7012 177.267 20.7866 173.8 19.7457C175.902 18.5651 174.859 16.4445 174.563 14.8006C174.426 14.7861 174.292 14.7713 174.163 14.7584C174.292 14.7713 174.423 14.7865 174.563 14.8006C174.291 13.3583 174.602 12.2807 178.103 12.5385C174.601 12.2779 174.29 13.3555 174.563 14.8006C202.177 18.0623 229.041 19.7326 255.941 20.2123C282.843 20.6889 309.779 19.9891 337.584 18.3835C332.194 18.5035 326.814 18.5857 321.446 18.6381C318.76 18.6702 316.08 18.6677 313.403 18.6593C310.724 18.6426 308.048 18.6283 305.375 18.6136C294.677 18.5502 284.025 18.2359 273.385 17.8775C268.069 17.6783 262.758 17.4276 257.45 17.171L249.489 16.7677L241.534 16.2904C236.232 15.9599 230.93 15.6321 225.63 15.2565C220.331 14.8579 215.03 14.4598 209.727 14.0621C188.519 12.3664 167.273 10.3864 145.866 8.22696C124.476 6.02582 102.891 3.80712 80.979 1.5529C77.2519 1.16669 69.7822 0.388009 66.049 -0.000154651C50.3222 5.83246 35.0322 6.64782 20.1032 4.81649C21.2109 11.2489 17.2591 20.216 16.8494 27.4096C16.6459 31.0062 17.3338 34.16 20.0055 36.3353C21.3395 37.4204 23.1691 38.2729 25.6308 38.7892C28.0925 39.3056 31.1835 39.5059 35.0368 39.321C34.7485 41.8029 34.1698 46.7727 33.8814 49.2546C29.9073 50.3697 26.1856 51.865 22.7641 53.6581C19.3458 55.4339 16.2328 57.5039 13.4763 59.7878C7.96882 64.3549 3.89621 69.7626 1.73782 75.3282C0.665442 78.1086 0.0695122 80.9288 0.0058313 83.7022C-0.0606598 86.476 0.413524 89.2019 1.49542 91.7918C3.65402 96.9752 8.2162 101.624 15.6456 105.046C32.4353 112.064 52.792 114.334 74.1474 115.866C95.5156 117.387 117.877 118.151 138.984 122.393C146.689 123.63 154.397 124.906 162.119 125.967C165.981 126.508 169.845 127.018 173.711 127.486C177.578 127.965 181.45 128.342 185.326 128.691C189.202 129.033 193.083 129.316 196.967 129.529C200.851 129.733 204.742 129.835 208.633 129.866C212.527 129.892 216.425 129.833 220.328 129.669C224.23 129.488 228.139 129.194 232.048 128.791C234.74 128.471 237.446 128.192 240.16 127.948C241.516 127.833 242.876 127.718 244.239 127.605C245.602 127.492 246.965 127.385 248.333 127.285C253.801 126.89 259.309 126.607 264.84 126.397C270.372 126.178 275.928 125.984 281.497 125.839C284.28 125.768 287.069 125.696 289.858 125.627C292.648 125.544 295.438 125.458 298.228 125.374C303.809 125.196 309.388 124.999 314.953 124.734C320.516 124.437 326.067 124.078 331.585 123.609C342.622 122.692 353.542 121.238 364.216 118.99C371.969 117.919 382.571 119.384 392.224 120.162C401.876 120.943 410.579 121.048 414.468 117.338C420.039 113.801 420.286 108.477 419.476 102.531C394.178 103.166 368.956 102.967 343.984 103.36C313.311 105.284 282.577 107.207 251.671 110.597C281.992 105.288 312.782 103.833 343.984 103.36C368.929 101.774 393.849 100.164 418.711 97.7299C417.834 92.6164 417.001 87.2832 418.542 82.358C418.542 82.358 426.194 82.4255 430.02 82.4579C445.371 70.0478 441.481 52.5076 433.967 39.9608C432.041 37.4053 429.886 34.528 427.484 31.649L427.492 31.6423Z" fill="#EFBF04"/>
</svg>
