<?xml version="1.0" encoding="UTF-8"?>
<svg id="Layer_2" data-name="Layer 2" xmlns="http://www.w3.org/2000/svg" viewBox="0 0 86.65 42.21">
  <g id="Icon">
    <g>
      <path d="m7.65,13.92c-.05.19-.11.39-.16.58.1-.4.24-.93.4-1.56-1.69,6.11-3.72,14.2-4.97,19.43-.05.21-.1.41-.15.6-.02.08-.03.15-.05.22.35,0,.6,0,.79,0,.07-.01-.1-.04-.42-.08-.05-.02-.12-.03-.2-.05.02-.05.03-.11.05-.17.1-.37.21-.78.29-1.06.76-2.69,1.66-5.98,2.64-9.61-.19.7-.4,1.43-.59,2.13.28-1.06.56-2.1.87-3.26-.04.13-.09.27-.13.4.99-3.61,2.26-8.58,2.83-11.1.57-2.53.23-1.68-.76,1.93l-.44,1.6Z" style="fill: #f1c724;"/>
      <path d="m5.65,20.61c.59-2.15,1.16-4.23,1.73-6.31l.12-.41-.1.12v.04c-.46,1.97-1.27,5.19-2.03,8.16l-.26,1.06c-.12.51-.2.85-.21.96-.03.26.23-.66.6-2.04l.42-1.59c1.04-3.87,2.63-9.97,3.08-12.16.1-.49-.04-.08-.1.02,0-.16-.42,1.29-.92,3.23-.51,1.94-.91,3.61-.9,3.76-.09.33-.18.67-.27.99.06-.26.12-.52.19-.78-.11.56-.56,2.33-.88,3.65l-.5,1.97.39-1.09.25-1.03c-.03.08-.06.2-.07.21.49-1.97.95-3.83,1.47-5.95l.66-2.7c.17-.73.12-.67-.1.12l-.33,1.19c.05-.18.1-.36.15-.54-.73,2.75-1.5,5.63-2.23,8.36-.12.43-.25.95-.3,1.18-.04.2.02.01.14-.43Z" style="fill: #f1c724;"/>
      <g>
        <path d="m8.16,10.9c.12-.46.24-.89.41-1.51.04-.15.05-.23.06-.27-.07.23-.15.55-.24.87-.17.62-.25.95-.22.91Z" style="fill: #f1c724;"/>
        <path d="m8.63,9.12c.06-.22.1-.36.1-.36-.03.08-.05.16-.07.24-.02.07-.02.07-.02.07,0,0,0,0-.01.05Z" style="fill: #f1c724;"/>
        <path d="m84.27,27.08c-.17-5.78-.34-11.57-.51-17.38-2.55-.36-5.12-.73-7.68-1.09-.29-.04-.54-.07-.56-.07-.02,0,.21.04.48.08,2.58.37,5.16.73,7.73,1.1.17,5.76.34,11.5.5,17.25,0,.3.02.54.03.58,0,.01,0-.19,0-.47Z" style="fill: #f1c724;"/>
        <path d="m37.12,2.55c.21.02.2.02-.01-.02-.2-.03-.5-.07-.72-.1-.17-.02-.17-.01.01.02.23.03.53.07.72.1Z" style="fill: #f1c724;"/>
        <path d="m39.06,2.32c1.21.16,2.36.31,3.42.44.2.03.4.06.57.08-.07-.02.16,0,.61.06,8.78,1.18,18.05,2.43,27.23,3.66.06,0,.19,0,.39.03.64.06,1.92.23,3.24.42l1,.15c3.19.46,6.36.92,9.53,1.37.03,1.17.07,2.33.1,3.49.03.85.07,1.8.11,2.84.14,3.52.28,7.03.42,10.61,0-.23,0-.36.01-.36.02.07.07.9.1,1.87l.05,1.47c-.04-1.41-.08-2.81-.11-4.22,0-.2,0-.39-.01-.56-.05-1.54-.1-3.1-.15-4.68-.12-3.58-.24-7.1-.36-10.59-10.24-1.38-20.15-2.72-30.04-4.05-.22-.03-.51-.07-.72-.1-.12-.02-.1-.03.13,0,8.07,1.02,15.26,1.94,24.17,3.07,2.23.3,4.45.6,6.67.89.34,9.21.68,18.35,1.04,27.76.07,2.11.13,4.19.2,6.23-10.24-.82-20.03-1.61-30.65-2.47-16.13-1.32-31.32-2.57-47.07-3.86-3.25-.29-6.34-.56-8.92-.78.29-1.07.56-2.07.81-3.01.14-.47.26-.91.38-1.31.22-.76.39-1.27.47-1.46.09-.21.07.02-.04.59-.07.33-.15.7-.24,1.11-.12.52-.26,1.09-.4,1.71.13-.52.27-1.03.4-1.54l.59-2.21c.56-2.09,1.05-3.88,1.39-4.99l.45-1.54c.63-2.04,1.58-5.36,2.13-7.02l-.06.39.11-.4c.37-1.31.64-2.19.76-2.49v.14c0,.29-.12.96-.35,2.03.03-.03.02.1-.04.38.28-.89.44-1.31.32-.58.16-.54.15-.44,0,.21-.06.23-.12.5-.19.77,0,0,0,0,0,0,.09-.31.12-.4.23-.78.14-.54.23-.85.23-.85q.38-1.43.71-2.68c.29-1.01.49-1.72.49-1.72q.39-1.16.38-.97c-.02.07-.03.15-.05.23.26-.94.28-1.01.35-1.27.07-.25.13-.45.13-.45t.08-.2c.02-.05.03-.04.03-.04q-.12.54-.11.55c-.03.14-.07.3-.07.3-.15.62-.22.87-.24.97-.4,1.32-.4,1.32-.4,1.32l-.06.29-.1.3.07-.17-.19.67.22-.76q-.42,1.6-.59,2.23c-.17.66-.32,1.23-.33,1.3.02-.05.03-.06.03-.06q-.45,1.7-.89,3.36c-.04.15-.08.27-.12.39-.05.19-.12.49-.2.81l-.23.87c-.02.07-.03.13-.05.19h0c-.07.3-.12.5-.18.74-.04.15-.04.15-.04.15h0c-.12.52-.3,1.25-.78,3.2-.14.51-.26.99-.39,1.45.04-.14.08-.28.12-.42.08-.27.03-.02.07-.16.98-3.68,2.03-7.6,3.06-11.49.18-.7.36-1.36.4-1.45.04-.09-.08.42-.26,1.14-.84,3.34-1.74,6.88-2.64,10.49-.87,3.3-1.75,6.66-2.6,9.9,1.21.11,2.4.23,3.55.33,2.21.19,4.42.39,6.64.58l-.32-.04,1.72.16.19.02c-.44-.05-.87-.1-1.3-.14-.3-.03-.6-.06-.9-.09-3.28-.3-6.38-.58-9.52-.87l.28-1.01c.18-.68.37-1.37.55-2.06.69-2.56,1.3-4.83,1.97-7.27.17-.63.29-1.07.29-.99,0,.08-.15.67-.31,1.29-.83,3.21-1.71,6.6-2.57,9.9,2.01.18,3.98.36,5.86.53,2.22.21,4.33.42,6.28.6,1.52.14,2.97.27,4.26.39h.07c-.32-.03-.63-.07-.95-.1,1.11.11,1.79.18,2.82.28l-.39-.07c5.68.5,11.73,1.03,17.1,1.5.21.02.41.04.61.05,2.3.17,4.6.35,7.26.55-.91-.08-1.8-.16-2.71-.24,1.97.16,3.9.31,5.98.47,5.66.48,11.98,1.06,14.96,1.42,6.89.57,13.79,1.13,20.68,1.7-.12-3.48-.23-6.96-.35-10.43-.02-.57-.03-1.08-.02-1.18,0-.06.03.32.05.88.13,3.59.26,7.19.39,10.8-3.78-.3-7.57-.61-11.36-.91,3.79.33,7.59.65,11.43.99-.07-2.41-.14-4.83-.22-7.28-.03-.87-.06-1.75-.09-2.63-.03-.87-.05-1.73-.07-2.59-.19-6.16-.38-12.08-.57-18.18-2.18-.3-4.38-.6-6.63-.91-7.55-1.03-14.16-1.93-21.7-2.96-10.59-1.45-20.23-2.77-30.65-4.2-1.39-.19-2.67-.39-2.83-.45-.16-.05.85.06,2.24.25,19.79,2.72,39.24,5.39,59.66,8.19.06,1.78.11,3.58.17,5.38.08,2.48.15,4.92.22,7.34,0-.03.01-.06.01-.06.02,0,.04.23.06.62-.08-2.75-.16-5.53-.24-8.32-.06-1.67-.12-3.33-.18-5.01-5.77-.8-11.59-1.61-17.71-2.46-5.59-.82-10.68-1.56-15.89-2.32-6.59-.91-13.16-1.81-19.81-2.73-.25-.04-.49-.07-.64-.1-.09-.02.05,0,.32.03,4.6.62,9.28,1.24,14,1.88-.74-.12-1.18-.21-1.12-.23.06-.02.64.04,1.53.14l-3.22-.45c-.66-.09-1.18-.18-1.16-.19,0,0,.14,0,.36.03.23.03.51.07.82.11,4.37.62,8.74,1.23,13.1,1.85,5.25.72,10.47,1.45,15.72,2.17-.73-.12-1.26-.22-1.51-.28h0c-.81-.11-1.62-.23-2.43-.34C51.54,4.59,36.35,2.5,21.04.33c-.3-.04-.55-.09-.55-.09,0,0,.23.02.5.06,4.62.65,9.23,1.3,13.82,1.94h-.02c-.18-.03-.22-.04-.01-.02.19.03.53.07.72.1.21.03.19.04.02.02,8.55,1.18,17.04,2.34,25.45,3.5-7.79-1.1-15.58-2.19-23.37-3.29-.85-.11-1.7-.22-2.56-.34-.22-.03-.49-.08-.63-.1-.06-.01.11,0,.35.04l.72.09c-.72-.11-1.35-.2-1.85-.28-.46-.08-.74-.13-.73-.15.09-.02,1.36.13,2.89.35,4.1.57,8.18,1.14,12.27,1.71l1.33.18,1.33.17c-6.35-.91-12.68-1.82-18.98-2.72-.26-.04-.51-.08-.7-.11-.18-.03-.3-.05-.31-.06,0,0,.1,0,.28.02.19.02.43.06.69.09,11.13,1.53,22.37,3.08,33.65,4.63,3.71.47,7.44.94,11.23,1.42-.48-.07-.96-.14-1.44-.2-12.21-1.65-22.76-3.08-34.59-4.69-.3-.04-.54-.08-.58-.09-.03-.01.17.01.47.05,5.77.78,11.1,1.49,16.86,2.26,4.76.64,9.28,1.24,13.74,1.84-9.04-1.23-17.76-2.43-26.72-3.65-.39-.06-.76-.11-1.04-.15-.05,0-.12-.01-.22-.02-1.14-.15-2.36-.31-3.6-.47-.23-.03-.49-.07-.67-.1-.12-.02.02,0,.29.03ZM4.69,33.89c-.09-.01-.16-.02-.23-.03.24.02.51.05.8.08l1.11.14s-.84-.1-1.68-.19Zm-.23-10.32s0,0,0,0c.11-.36.19-.62.19-.62-.08.25-.14.45-.19.61Zm75.42,16.34c-4.78-.41-9.51-.82-14.27-1.23,1.16.09,2.31.19,3.47.28,3.58.32,7.18.63,10.8.95ZM3.65,28.13c-.33,1.14-.61,2.11-.88,3.06-.18.69-.36,1.39-.54,2.11-.02.09-.05.19-.07.28,1.99.17,3.94.34,5.85.51-.29-.04.25,0,.53.03.29.02.57.04.85.07-2.27-.2-4.56-.41-6.88-.61-.09,0-.19-.02-.29-.03.48-1.79.98-3.7,1.44-5.41ZM7.84,11.74c.02-.07.04-.13.06-.2l-.09.44s.01-.1.03-.25Zm.14-.7c-.03.11-.06.22-.09.33.02-.12.05-.23.09-.33Zm-.83,3.07c.06-.19.09-.3.13-.43-.13.43-.13.43-.13.43Zm-1.29,2l-.19,1.23.22-1.34-.03.11Z" style="fill: #f1c724;"/>
      </g>
    </g>
  </g>
</svg>