<?xml version="1.0" encoding="UTF-8"?>
<svg id="Layer_2" data-name="Layer 2" xmlns="http://www.w3.org/2000/svg" viewBox="0 0 657.3 636.35">
  <g id="Icon">
    <path d="m28.08,567.51c-3.07-1.16-6.14-3.36-8.7-6.06-.61-.7-1.29-1.35-1.84-2.09-.56-.74-1.13-1.46-1.67-2.19-.49-.76-.99-1.51-1.49-2.24-.5-.73-.9-1.49-1.38-2.2-2.18-3.46-3.52-7.66-3.99-11.93-.41-4.28.03-8.64,1.18-12.6.43.13.89.95,1.31.37,1.42-2.34,2.33-1.94,3.17-1.64.39.14-.59,1.74.03,1.3-.14.43-.28.94-.41,1.44-.09.5-.17.99-.2,1.37-.06.76.03,1.08.46.26.3-.24.44-.96.68-1.65.25-.69.52-1.38.93-1.54.82-.31,1.11.98,1.93.67.2-.5.59-1.51.79-2.02.64-.3,1.03,1.02,1.25.54,1.05-1.22,1.79-3.11,2.97-4.8.19.13.45.14.62.26.16.12.21.34.04.81-2.36,3.59-3.7,7.82-4,12.05-.28,4.24.5,8.52,2.33,12.24.47.93.95,1.84,1.55,2.68.52.89,1.21,1.66,1.83,2.46,1.36,1.52,2.89,2.89,4.59,4.07,1.72,1.16,3.61,2.14,5.59,2.93,1.97.79,4.1,1.4,6.11,1.76,1.53.37.48,1.24-1.24,1.64.54-.14.43.53.97.38-.07.66-1.29,1.7-3.53,1.4.54.12,1.08.26,1.63.35.51.33-.12.67-.21,1.11-.57-.1-1.12-.25-1.18-.02-.05.22-.15.66-.2.88.58.14,1.75.37,2.34.45-.59-.08-1.17-.21-1.22.02-.04.22-.13.67-.17.89-1.27,0-2.94-.89-4.16-1.06l-.21.65c1.12.62,3.01.85,4.24,1.08-.66.11-.71.32-.8.77-1.96-.17-3.58-1.37-5.6-1.4.6.24,1.21.43,1.82.63-1.61.75-4.36-1.34-6.17-2.06Z" style="fill: #ef1a04;"/>
    <path d="m126.47,522.55c11.55-1.71,23.66-3.99,35.93-7.23,12.29-3.16,24.82-6.98,37.43-10.85,12.6-3.89,25.31-7.74,37.84-11.14,12.5-3.5,24.87-6.38,36.61-9.1,3.53-.8,7.09-1.5,10.67-2.25,3.57-.73,7.18-1.5,10.76-2.17,7.18-1.37,14.44-2.74,21.76-4.03,14.65-2.58,29.55-4.94,44.71-6.28,7.58-.66,15.22-1.06,22.92-.99,7.69.06,15.46.68,23.18,2.14,3.85.78,7.71,1.71,11.47,3.07,1.9.6,3.74,1.46,5.6,2.22,1.81.92,3.65,1.75,5.38,2.86,1.78.99,3.43,2.24,5.09,3.42,1.57,1.33,3.2,2.59,4.61,4.11,1.5,1.41,2.76,3.05,4.08,4.62,1.21,1.64,2.36,3.3,3.35,5.01-.37.2-3.73-3.83-1.17.7,2.49,4.53,3.72,8.13,4.57,10.82.83,2.71,1.17,4.56,1.32,5.81.3,2.5-.19,2.62-.61,2.73-.21.06-1.16-3.48-2.21-6.34-1.03-2.87-2.05-5.1-1.3-2.77-1.38-3.38-3.24-7.24-5.56-10.68-2.25-3.5-5.1-6.38-7.38-8.42-1.21-.95-2.17-1.83-3.01-2.34-.82-.54-1.37-.88-1.58-.98-.21-.1-.08.05.47.5.55.45,1.53,1.17,2.86,2.42.88.83,2.38,2.34,4.1,4.25.41.5.83,1.02,1.27,1.55.44.53.89,1.08,1.3,1.68.43.58.85,1.19,1.25,1.83.42.62.81,1.26,1.18,1.91,3.08,5.19,5.09,10.9,5.5,13.27.41,2.38-.27,1.33-.97.33-.7-1.01-1.39-2-.97.32.74,2.21,1.71,5.57,2.41,9,.71,3.43,1.14,6.9,1.32,9.22-.07,2.33-.49,1.18-.85.07-.38-1.12-.72-2.23-.51.04.3,6.8-.03,14.9-2.82,22.61-.71,1.91-1.59,3.77-2.61,5.55-1.05,1.76-2.29,3.41-3.68,4.93-2.82,3-6.44,5.34-10.48,6.94-.08-.21-1.28.02-1.36-.16-.04-.09.21-.29,1.01-.69.7-.38,1.9-.92,3.68-1.97,3.94-2.2,7.17-5.24,9.5-9.06,1.18-1.9,2.16-3.97,2.94-6.14.77-2.19,1.34-4.47,1.76-6.81,1.61-9.41.65-19.54-1.99-29.03-1.34-4.75-3.13-9.38-5.42-13.63-1.14-2.12-2.41-4.15-3.82-5.99-.76-.87-1.47-1.78-2.25-2.64-.84-.79-1.6-1.67-2.49-2.41-6.97-6.16-16.36-9.6-26.17-11.33-9.85-1.75-20.18-1.95-30.51-1.51-10.35.45-20.75,1.59-31.15,3.02-10.4,1.43-20.81,3.17-31.23,5.01l-15.65,2.81c-5.22.95-10.35,2-15.52,3-20.64,4.18-40.99,9.44-61.18,15.62-10.13,3.12-20.27,6.25-30.39,9.37l-7.68,2.28-3.84,1.13-3.88,1.06c-2.59.7-5.16,1.43-7.76,2.11l-7.84,1.91c-20.94,5.02-42.53,7.54-63.9,8.06-5.35.23-10.69.16-16.03.09-5.34-.09-10.67-.31-15.99-.63-10.64-.64-21.24-1.73-31.75-3.27-4.8-.74-7.48-1.3-8.58-1.6-1.08-.31-.63-.39.9-.32,3.04.15,10.28.87,17.52,1.35-4.82-.35-4.74-1.02-9.56-1.46.05-.34,2.5-.43,7.33-.24,4.83.19,12.03.65,21.63,1.17-4.8-.31-9.58-.72-14.36-1.21-4.75-.72.07-.68.12-1.13,4.77.5,9.54.86,9.56.64.02-.23.05-.68.07-.91-4.76-.33-14.27-1.32-19-1.96,4.73.62,9.49,1.1,9.51.87.02-.23.07-.68.09-.9,4.75.38,10.67.94,16.61,1.34,5.94.4,11.89.67,16.66.61v-.68c-4.74-.17-10.68-.38-16.61-.7-5.93-.32-11.86-.77-16.59-1.26,4.76.25,4.78,0,4.82-.45,14.16,1.04,28.41,2.24,42.61,1.16-4.73.19-9.47.15-14.2.1,2.37-.25,5.63-.37,9.39-.5,1.89-.04,3.9-.14,5.99-.22,2.09-.07,4.27-.15,6.48-.23,4.44-.04,8.98-.5,13.33-.77,4.35-.22,8.43-.86,11.94-1.31Z" style="fill: #ef1a04;"/>
    <path d="m523.06,413.53c13.43-8.42,27.95-17.28,42.84-26.29,26.2-15.82,53.02-32.02,79.34-47.92,2-.31,4.14-.73,6.24-1.15,2.09-.41,4.15-.82,5.81-.97-.07.15-.14.29-.2.43-1.26,2.83-.85,4.69.12,6.24-29.84,23.07-60.08,46.45-90.08,69.64-17.58,13.54-35.03,26.97-51.96,40-.28-.36,3.19-3.88-.83-1.08-15.92,11.38-16.47,10.66-17.03,9.94-.28-.36,11.63-8.94,7.48-6.32,11.63-8.94,30.88-24.03,18.97-15.44-4.15,2.62-19.38,14.9-23.67,17.34-4.3,2.44,3.04-4.06-1.25-1.62-3.88,2.98-11.64,8.95-15.51,11.93-4.15,2.61,3.05-4.06-.83-1.08-5.95,4.29-12.77,9.46-20.04,15.05-1.82,1.4-3.66,2.82-5.53,4.26l-1.46,1.13c-.56.45-1.09.92-1.6,1.42-1.02,1-1.95,2.1-2.77,3.28-3.33,4.74-4.69,10.88-3.67,16.65-.22.04-.24,1.29-.43,1.32-.1.02-.24-.27-.48-1.15-.26-1.11-.65-3.02-.46-6.09.46-5.58,3.04-10.99,7.07-14.87.5-.49,1.03-.96,1.58-1.4l1.4-1.09,2.64-2.04,5.29-4.09c7.06-5.46,14.12-10.92,21.19-16.4,14.14-10.95,28.32-21.92,42.52-32.91,14.2-10.99,28.43-22,42.67-33.02l2.36-1.83.15-.13.27-.23.42-.38c.23-.21.36-.35.41-.42.09-.13-.13-.02-.53.25-.72.48-1.06.72-1.15.81-.1.09.05.02.24-.09-14.17,8.57-28.32,17.13-42.44,25.68-28.69,17.28-57.28,34.49-85.71,51.62-16.85,9.93-4.77,1.56,7.43-6.62-4.06,2.72-4.41,2.14-8.48,4.87-.35-.58,7.43-6.62,24.04-16.94-4.18,2.53-8.36,5.06-12.55,7.6-4.3,2.34-.35-.58-.59-.97,4.19-2.54,8.37-5.07,8.25-5.26-.12-.19-.35-.58-.47-.78-4.18,2.53-12.55,7.6-16.73,10.13,4.18-2.53,8.36-5.06,8.25-5.26-.12-.19-.35-.58-.47-.78,8.25-5.26,21.03-12.47,29.29-17.73l-.35-.58c-8.49,4.87-20.92,12.66-29.29,17.73,4.07-2.73,3.95-2.92,3.72-3.31,12.43-7.79,25.33-14.81,37.52-22.98-4.18,2.53-8.36,5.06-12.54,7.59,7.78-6.03,29.16-17.92,41.59-25.71Z" style="fill: #ef1a04;"/>
    <path d="m82.02,440.03c2.63-4.67,5.17-9.55,7.6-14.61,1.22-2.53,2.4-5.1,3.54-7.72.9-2.1,1.81-4.2,2.72-6.32l.1-.23c.05-.05.16-.03.23-.05l.49-.05.98-.1,1.97-.21,1.97-.2,1.35-.12c12.2-1.06,24.82-.33,37.17,1.98,6.18,1.14,12.25,2.84,18.2,4.76,5.89,2.1,11.7,4.39,17.15,7.25,1.37.7,2.73,1.4,4.1,2.1,1.32.77,2.63,1.55,3.94,2.32,2.65,1.49,5.16,3.16,7.64,4.83,4.93,3.38,9.51,7.05,13.78,10.85,5.14,4.55,9.93,9.59,14.35,15.01,2.2,2.71,4.33,5.51,6.32,8.42.51.72.99,1.46,1.48,2.19l.74,1.12,1.25,2.04c.84,1.35,1.67,2.73,2.51,4.13.4.7.87,1.4,1.22,2.09l-1.8,1.51-3.61,3.03-1.81,1.52-.45.38-.27.21-.54.4c-1.43,1.07-2.84,2.18-4.31,3.21l-4.46,3.02-4.6,2.8c-6.23,3.59-12.77,6.62-19.46,9.15-3.33,1.31-6.74,2.37-10.13,3.46l-5.13,1.45c-1.71.5-3.44.86-5.15,1.29l-2.58.62-2.59.54c-1.73.35-3.45.72-5.18,1.04-3.46.57-6.91,1.22-10.37,1.65-6.9,1.01-13.79,1.59-20.62,2.12-6.74.43-13.42.86-20.04,1.28-.03-.45,4.34-1.4-.08-1.36-17.69.34-17.74-.65-17.78-1.54-.02-.43,13.22-.68,8.8-.9,13.22-.71,35.22-2.44,21.98-2.01-4.43-.15-22.01,1.37-26.45.88-4.44-.45,4.33-1.59-.1-2.04-4.4.23-13.2.63-17.59.77-4.4-.31,4.34-1.51-.05-1.36-6.59,0-14.27.15-22.46.13-8.19-.03-16.92-.22-25.47-1.1.02-.23-1.05-.57-1.03-.77,0-.1.29-.16,1.12-.15.81,0,2.14.05,4.28.19,9.37.68,18.93.78,28.52.62,9.59-.16,19.23-.55,28.88-1.05,9.65-.5,19.33-1.12,29.02-1.78l7.27-.5,7.16-.59c4.76-.46,9.52-.99,14.24-1.69,9.44-1.38,18.78-3.31,27.84-6,9.07-2.67,17.79-6.26,25.97-10.74l1.54-.83,1.49-.9,2.99-1.81,2.9-1.95c.97-.64,1.93-1.3,2.85-2.01l2.79-2.09.16-.12.02-.02.04-.03.07-.06.14-.12.14-.12s-.01-.04-.02-.06l-.22-.32c-5.06-7.89-10.98-15.22-17.66-21.77-3.32-3.29-6.85-6.37-10.55-9.22-3.69-2.86-7.52-5.56-11.56-7.9-7.98-4.84-16.53-8.72-25.43-11.56-8.89-2.84-18.11-4.67-27.43-5.53-4.66-.39-9.34-.57-14.01-.5l-3.5.1-3.49.2-1.74.15-.29.02h.01s.03,0,.04-.03h0s0-.02,0-.02c.04-.09-.05.12-.11.25l-.76,1.71-1.56,3.41c-1.07,2.26-2.15,4.51-3.29,6.73-2.26,4.45-4.67,8.83-7.22,13.12-5.09,8.58-10.73,16.83-16.89,24.64-12.3,15.65-26.62,29.63-42.43,41.5-3.64,2.68-5.78,4.05-6.71,4.56-.91.48-.68.14.37-.82,2.11-1.89,7.31-6.2,12.28-10.74-1.66,1.5-2.6,2.12-3.56,2.72-.95.6-1.89,1.21-3.61,2.65-.21-.27,1.32-1.97,4.55-5.06,3.22-3.1,8.12-7.64,14.46-13.85-3.21,3.07-6.49,6.05-9.86,8.94-3.54,2.69-.44-.52-.74-.86,3.36-2.87,6.6-5.87,6.45-6.03-.15-.17-.46-.5-.62-.67-1.62,1.48-4.06,3.69-6.57,5.83-2.51,2.13-5.06,4.22-6.79,5.57,3.45-2.71,6.79-5.57,6.64-5.74-.15-.17-.44-.52-.59-.69,3.25-2.93,7.34-6.54,11.28-10.33,3.94-3.79,7.74-7.72,10.55-11.08l-.51-.45c-2.97,3.19-6.71,7.15-10.58,10.98-3.86,3.84-7.87,7.53-11.18,10.36,3.15-3.03,2.99-3.21,2.69-3.54,9.55-8.81,19.04-17.87,26.56-28.53-2.67,3.41-5.47,6.72-8.34,9.97,2.46-3.61,7.3-9.41,12.17-15.9,2.42-3.25,4.86-6.66,7.08-9.97,2.21-3.32,4.2-6.54,5.8-9.37Z" style="fill: #efbf04;"/>
    <path d="m160.79,326.29c1.34-1.28,2.68-2.58,4.04-3.88.93-.9,1.87-1.81,2.81-2.72.16-.13.28-.33.47-.4l.62-.11,1.25-.23,1.89-.35c3.87-.69,7.82-1.24,11.83-1.65,8.01-.81,16.25-1.02,24.57-.57,4.16.21,8.34.63,12.51,1.2,2.1.24,4.16.69,6.25,1.06,2.08.39,4.17.77,6.26,1.16,2.06.52,4.12,1.05,6.19,1.57,2.06.55,4.15,1,6.16,1.72l6.09,2,1.52.5,1.49.58,2.98,1.18c15.94,6.23,30.74,15.11,43.86,25.35,6.58,5.1,12.71,10.61,18.41,16.33,1.4,1.45,2.8,2.9,4.19,4.33.68.74,1.35,1.47,2.03,2.2l.51.55.62.69,1.66,1.89,1.66,1.89.41.47c.12.16.37.3.2.52l-.44,1.22c-.56,1.56-1.13,3.11-1.69,4.66-.67,1.83-1.37,3.65-2.08,5.44-6.84,17.22-16.24,33.87-27.96,49.03-11.72,15.15-25.73,28.8-41.41,40.18-1.95,1.43-3.94,2.81-5.95,4.17-1.01.67-2.01,1.36-3.03,2l-1.53.98-.88.55-1.42.87-5.79,3.5-2.99,1.78-.19.11c-.05.01-.07-.11-.11-.15l-.2-.38-.4-.76-.8-1.53-1.6-3.06c-.53-1.03-1.05-2.11-1.6-3.12l-1.2-2.25c-.26-.51-.55-1-.83-1.49-4.42-7.95-9.51-15.49-15.17-22.48-5.66-6.99-11.92-13.4-18.71-19.04-6.79-5.64-14.11-10.49-21.78-14.45.19-.41,5.7,1.63.62-1.21-1.28-.7-2.47-1.36-3.6-1.98-1.15-.57-2.22-1.1-3.22-1.6-2-1-3.77-1.76-5.26-2.47-1.52-.66-2.78-1.22-3.82-1.71-1.06-.46-1.9-.84-2.57-1.18-2.67-1.33-2.57-1.71-2.43-2.16.07-.22,4.36,1.06,7.85,2.38,1.76.62,3.31,1.26,4.1,1.55.79.29.81.24-.53-.43,1.03.43,2.13.83,3.22,1.32,1.1.49,2.22.99,3.36,1.49,2.23,1.12,4.52,2.27,6.78,3.4,2.21,1.21,4.32,2.5,6.33,3.65,1.98,1.19,3.73,2.44,5.31,3.45,1.59.99,2.84,1.97,3.81,2.66.97.7,1.62,1.15,1.87,1.29.49.28-.62-.73-4.16-3.53-1.18-.93-3.31-2.47-5.96-4.26-1.37-.82-2.86-1.72-4.41-2.65-.78-.45-1.55-.97-2.38-1.38-.83-.43-1.66-.86-2.5-1.29-6.62-3.6-13.7-6.2-16.42-7.54-2.76-1.28-1.22-1.13.33-.97,1.54.2,3.1.41.34-.96-2.9-.98-7.27-2.42-11.72-3.54-4.44-1.15-8.93-2.1-11.93-2.65-2.96-.76-1.4-.84.16-.84,1.56.01,3.11.08.09-.5-4.51-.95-9.45-1.77-14.68-2.39-2.62-.32-5.28-.59-8.04-.83-2.76-.26-5.59-.42-8.47-.56-11.52-.49-23.85.06-36.02,1.73-.03-.22-1.56-.25-1.59-.44-.01-.1.34-.24,1.45-.47,1.14-.23,3.04-.57,6.11-.95,13.44-1.45,27.07-1.56,40.57-.32,6.67.58,13.44,1.41,20.14,2.6,6.7,1.21,13.37,2.77,19.94,4.78,6.56,2.01,13.03,4.48,19.26,7.51,3.08,1.58,6.22,3.06,9.16,4.9,1.48.9,3.01,1.72,4.45,2.68l4.31,2.9c1.46.94,2.81,2.02,4.19,3.06,1.36,1.07,2.79,2.06,4.09,3.19l3.95,3.37c1.33,1.11,2.54,2.35,3.81,3.52l1.89,1.78c.62.6,1.21,1.24,1.81,1.85,1.19,1.25,2.41,2.47,3.58,3.75l3.42,3.89c1.14,1.3,2.19,2.67,3.28,4,4.29,5.4,8.25,11.06,11.84,16.93.89,1.48,1.8,2.94,2.63,4.45l1.27,2.25.89,1.65.16.28c.09-.02.13-.07.37-.22l2.9-1.87c1.35-.91,2.72-1.79,4.05-2.73,2.68-1.84,5.31-3.77,7.89-5.75,5.17-3.96,10.14-8.17,14.88-12.63,18.99-17.81,34.36-39.47,44.92-63.27,1.33-2.97,2.57-5.98,3.74-9.01l.69-1.81v-.02s-.83-.92-.83-.92c-4.35-4.82-8.93-9.44-13.76-13.78-9.68-8.65-20.2-16.36-31.48-22.69-11.29-6.29-23.29-11.25-35.71-14.57-6.2-1.73-12.54-2.85-18.89-3.84-6.37-.87-12.8-1.27-19.22-1.31-6.43-.02-12.85.36-19.23,1.15-1.6.19-3.19.42-4.78.66l-2.38.38-.59.1s0,0,0,0c.01,0,.01,0,.02,0h.01s0-.01,0-.01l-.22.21-.46.43-1.83,1.73-3.69,3.44c-9.88,9.13-20.06,17.9-30.52,26.3-20.91,16.8-42.94,32.1-65.83,45.76-5.25,3.09-8.28,4.7-9.57,5.31-1.29.59-.88.19.68-.92,3.13-2.19,10.78-7.16,18.3-12.32-5.02,3.41-5.38,2.83-10.46,6.17-.18-.29,2.2-2.23,7.14-5.77,4.93-3.54,12.42-8.69,22.32-15.65-4.98,3.43-10.01,6.79-15.1,10.07-5.21,3.08-.37-.57-.61-.95,2.54-1.63,5.06-3.3,6.93-4.57,1.87-1.28,3.09-2.16,3.02-2.26-.13-.19-.38-.56-.51-.75-4.97,3.4-15.11,9.93-20.26,13.06,2.56-1.58,5.11-3.18,7-4.42,1.9-1.23,3.12-2.11,3.06-2.2-.12-.19-.37-.57-.49-.76,5-3.35,11.28-7.47,17.48-11.72,6.2-4.25,12.31-8.65,17.05-12.36l-.41-.54c-4.87,3.52-10.93,7.96-17.08,12.27-6.14,4.32-12.36,8.53-17.42,11.78,4.93-3.46,4.78-3.67,4.54-4.04,14.88-10.09,29.86-20.15,43.46-31.95-4.67,3.75-9.4,7.43-14.19,11.03,4.45-4.05,12.71-10.49,21.38-17.63,8.68-7.12,17.76-14.95,24.25-21.17Z" style="fill: #efbf04;"/>
    <path d="m188.02,228.75c13.21-12.46,25.45-27.4,35.56-44.27,2.49-4.24,4.92-8.55,7.14-13,1.1-2.23,2.22-4.46,3.24-6.73.52-1.13,1.05-2.27,1.53-3.42l.85-1.96,1.33-3.19,1.33-3.18.33-.8s.03-.06.07-.04l.11.02.21.04.42.09,1.69.36,3.38.72,3.02.67c2.55.59,5.1,1.2,7.63,1.88,5.08,1.33,10.12,2.82,15.1,4.48,19.96,6.61,39.07,15.8,56.37,26.89,2.16,1.39,4.3,2.8,6.41,4.24l2.08,1.44,2.72,1.93,2.71,1.94,1.35.97.68.49.17.12s.03.04,0,.07l-.06.08-.26.33c-1.35,1.71-2.7,3.41-4.04,5.11-1.14,1.41-2.27,2.82-3.4,4.22-1.58,1.93-3.17,3.85-4.78,5.73-6.42,7.55-13,14.72-19.65,21.48-9.99,10.16-20.71,19.9-32.1,29.01-2.84,2.29-5.74,4.52-8.65,6.73-1.47,1.09-2.93,2.2-4.42,3.27l-2.9,2.11-.31.23-.09.07-.16.13-.29.23-.26.2-.11.09-.03.02h.05s.11-.03.11-.03c.29-.06.54-.09.77-.12l.32-.03h.29s.09-.01.09-.01l.7.02,1.41.04c7.5.23,14.99,1.16,22.33,2.78,7.34,1.62,14.54,3.93,21.46,6.88,3.46,1.48,6.85,3.12,10.15,4.9,1.65.9,3.28,1.83,4.89,2.8l.93.57,1.12.7,2.21,1.44,4.41,2.89-1.94,4.08-.95,2.04-.24.51-.19.44-.38.89-.35.83-.19.49-.38.97c-.25.65-.48,1.3-.71,1.96-.91,2.63-1.67,5.3-2.26,8.01-.6,2.7-1.01,5.45-1.27,8.2-.19,1.37-.18,2.76-.28,4.13-.04,1.38-.03,2.76-.03,4.14.28,11.03,3.17,21.97,8.08,31.79l-9.45,5.92c-6.6-8.57-14.1-16.36-22.17-23.28.3-.37,6.19,3.96.88-1.04-1.38-1.19-2.67-2.31-3.89-3.36-1.2-1.06-2.41-1.95-3.49-2.84-1.1-.86-2.08-1.72-3.05-2.43-.97-.72-1.86-1.38-2.69-2-.82-.62-1.57-1.19-2.26-1.72-.69-.52-1.35-.95-1.93-1.37-1.17-.83-2.09-1.52-2.82-2.08-1.45-1.16-2.15-1.78-2.45-2.19-.3-.41-.19-.61-.07-.81.14-.26,4.93,2.57,8.84,5.07,3.83,2.61,6.9,4.69,3.97,2.42,9.25,6.23,20.32,16.26,26.55,23.17,3.18,3.4,5.26,5.9,5.77,6.39.49.5-.54-1.06-4.14-5.36-2.3-2.94-8.67-9.81-15.81-15.85-1.81-1.48-3.58-3-5.35-4.39-1.79-1.37-3.5-2.68-5.08-3.89-3.26-2.26-5.86-4.26-7.41-5.32-3.02-2.24-1.26-1.56.54-.87,1.79.7,3.6,1.41.55-.86-1.64-.97-3.62-2.27-5.91-3.54-1.15-.62-2.35-1.27-3.58-1.93-1.24-.65-2.46-1.38-3.77-1.95-1.29-.61-2.58-1.21-3.84-1.8-1.27-.58-2.48-1.21-3.71-1.66-2.43-.97-4.63-1.85-6.4-2.55-1.73-.78-2.16-1-1.88-1.09.27-.05,1.25.04,2.18.29,1.87.44,3.74.94.17-.48-10.71-4.2-23.88-7.6-38.25-8.79-7.18-.58-14.64-.66-22.18-.15-7.54.52-15.16,1.59-22.65,3.23-.05-.22-1.93-.04-1.98-.24-.02-.1.41-.29,1.77-.66,1.4-.37,3.74-.97,7.54-1.66,13.56-2.29,27.47-2.77,41.22-1.3,6.87.75,13.71,1.89,20.4,3.7l5.03,1.29,4.94,1.6c1.64.56,3.31,1.02,4.92,1.67l4.83,1.92c12.88,5.17,24.88,12.37,35.87,20.8,10.92,8.53,20.84,18.35,29.33,29.36l-8.7,5.44c-5.66-11.27-8.96-23.78-9.28-36.53,0-1.59-.03-3.19.04-4.78.1-1.59.12-3.19.33-4.77.29-3.18.78-6.33,1.47-9.44.68-3.12,1.55-6.19,2.59-9.2.26-.75.53-1.5.82-2.24l.73-1.87.19-.47s-.1-.07-.15-.1l-.34-.2c-1.46-.89-2.95-1.73-4.45-2.55-3.01-1.62-6.09-3.11-9.24-4.46-6.29-2.68-12.83-4.78-19.51-6.27-6.68-1.48-13.49-2.34-20.33-2.57l-1.28-.04-.64-.02h-1.21s-2.56.03-2.56.03c-.86.01-1.68,0-2.63.07l-2.76.17c-.94.07-1.79.07-2.83.22l-3.02.34c-1.02.12-1.95.19-3.15.41l-28.78,4.62,23.12-14.61,5.88-3.75,5.57-3.72c.99-.65,1.71-1.17,2.52-1.73l2.38-1.66,2.09-1.46,1.33-.96c7.11-5.13,14.04-10.52,20.76-16.15,13.44-11.27,26.09-23.49,37.76-36.58,2.92-3.27,5.78-6.59,8.59-9.96l2.02-2.45.39-.49s0,0,0,0h0s0,0,0,0c-.01,0,.01,0-.02-.02l-.17-.12-.34-.23-2.7-1.83c-1.81-1.21-3.63-2.38-5.47-3.54-3.68-2.31-7.42-4.52-11.23-6.63-15.21-8.42-31.32-15.19-47.97-20.12-4.16-1.23-8.35-2.36-12.58-3.36l-2.91-.67h.05s.02,0,.03,0v-.02s.02-.03.02-.03l-.34.79c-3.59,8.4-7.8,16.52-12.44,24.38-9.3,15.7-20.65,30.17-33.69,42.89-13,12.76-27.67,23.78-43.48,32.71l-2.97,1.67-3.01,1.59c-1.99,1.09-4.05,2.05-6.07,3.07-2.04.98-4.1,1.94-6.17,2.86l-1.56.68-.1.04h0s0,0,0,0h0s-.22.03-.14.03c.02,0,.05.02.1.04,0,0,0,0,.03.01l.26.09c.55.18,1.09.37,1.62.6,1.06.45,2.15.84,3.19,1.35,1.03.52,2.08,1,3.1,1.55l2.99,1.76c1.92,1.29,3.83,2.6,5.57,4.12l1.33,1.11,1.26,1.19c.85.78,1.63,1.64,2.42,2.47,3.13,3.39,5.74,7.23,7.87,11.28,1.89,3.71,2.99,6.77,3.68,9.12.69,2.35,1,3.98,1.15,4.94.12.87.11,1.14-.02.92-.06-.11-.16-.35-.27-.7-.12-.39-.28-.89-.47-1.49-.77-2.46-2.19-6.58-4.67-11.17-2.45-4.59-6.11-9.56-10.58-13.67,1.47,1.38,2.5,2.5,3.29,3.49.81.97,1.36,1.82,1.93,2.65,1.08,1.71,2.2,3.37,4.18,6.87-.15.08-.79-.72-1.97-2.33-1.19-1.59-3-3.97-5.72-6.82-.66-.72-1.45-1.42-2.23-2.19-.83-.73-1.68-1.52-2.64-2.27-.98-.73-1.97-1.54-3.07-2.31-1.14-.71-2.27-1.54-3.54-2.25-1.28-.7-2.58-1.48-4.03-2.1-1.41-.71-2.94-1.27-4.52-1.88-.39-.17-.81-.27-1.21-.41-.31-.1-.63-.19-.94-.29-.59-.2-1.22-.34-1.85-.5-.63-.17-1.29-.32-1.96-.44-.67-.14-1.36-.27-2.07-.36.69.1,1.38.23,2.07.38.69.13,1.37.3,2.04.49.68.17,1.35.36,2.01.6l1.19.4c.46.14.9.35,1.35.52.89.38,1.8.69,2.66,1.13l2.6,1.27c1.67.97,3.36,1.91,4.91,3.07,1.58,1.12,2.23,1.85,2.46,2.13.23.29-.02.21-.45-.02-.83-.5-2.54-1.37-2.67-1.18-1.52-1.13-3.17-2.04-4.7-2.93-1.59-.77-3.05-1.55-4.38-2.03-.66-.26-1.26-.49-1.79-.7-.54-.17-1.02-.31-1.41-.43-.76-.22-1.22-.33-1.26-.28-.14.2-.41.59-.54.79.52.16,1.06.34,1.62.53.53.19,1.02.31,1.55.54,1.03.45,2.18.83,3.31,1.4,1.13.56,2.34,1.1,3.49,1.82.58.34,1.17.69,1.76,1.03.56.39,1.13.78,1.7,1.18,1.16.75,2.21,1.65,3.25,2.51,1.07.83,1.99,1.78,2.91,2.65,1.76,1.81,3.25,3.57,4.33,5.06-4.34-6-10.48-10.29-10.62-10.02-.13.19-.39.56-.52.74-3.05-2.1-6.74-4.1-10.91-5.57l-.92-.31c-.37-.12-.73-.25-1.12-.36-.39-.11-.76-.24-1.16-.34l-1.23-.27c-.82-.18-1.65-.36-2.48-.54l-.31-.07-.39-.03-.78-.07-1.57-.13-1.57-.13-.39-.03-.2-.02h-.32s-1.26.05-1.26.05c-1.68.06-3.36.11-5.04.17l-.63.02-.88.05-1.84.11-3.67.21-3.67.21-4.52.32,1.47-.67.73-.34c.17-.09.2-.13.31-.19.33-.23.75-.49,1-.69.02-.12.06-.24.05-.35-.16-.05-.24-.13-.47-.14l-.36-.02-.44.02c.75-.24,1.5-.48,2.25-.71,1.51-.49,3.01-.97,4.49-1.44,2.99-.97,5.9-1.96,8.68-2.91,1.35-.48,2.67-.96,3.96-1.42,1.28-.46,2.56-.91,3.66-1.39l-.98-.36c-1.24.5-2.71.98-4.19,1.48-1.49.5-3.01,1.02-4.57,1.55-3.22,1.05-6.58,2.14-10.03,3.27-1.67.54-3.37,1.08-5.08,1.63-.83.27-1.67.53-2.51.8h.3s.19.05.19.05c.09,0,.04.06.05.1v.12s-.68.49-.68.49l-1.97.93c-.19.09-.28.14-.56.26l-1.15.45-2.29.9,6.03-.48,4.82-.35c3.04-.22,6.07-.43,9.11-.65,2.11-.12,4.21-.23,6.31-.35l1.57-.09.39-.02h.24s.46.04.46.04l1.83.11,1.83.11.91.05.45.03.35.07c.92.19,1.84.37,2.76.56l1.37.28c.44.1.85.24,1.27.35.43.12.82.25,1.22.38l.95.31c4.12,1.43,7.77,3.4,10.74,5.51-.75-.47-1.38-.92-1.98-1.24-.6-.31-1.11-.58-1.56-.81-.44-.22-.81-.41-1.13-.55-.32-.12-.59-.21-.8-.28-.85-.26-.92-.1-1.02.1-1.34-.69-2.78-1.19-4.18-1.76l-1.26-.42c-.61-.21-1.24-.41-1.91-.58-.63-.2-1.35-.33-2.07-.47l-2.14-.41-1.07-.21c-.36-.07-.67-.15-1.21-.15l-2.92-.12-2.91-.12c-.14,0-.21-.02-.4,0l-.66.05-1.31.09-2.62.18-5.24.37-3.31.25-4.04.32-17.74,1.45,5.48-1.95,2.88-1.1.66-.26.33-.15.65-.29.33-.14.16-.07.07-.04.26-.16c.24-.13.19-.15.21-.2.03-.03-.06-.02-.09-.03h-.03s.02-.02.09-.04l.16-.05.64-.2,5.13-1.62c7.07-2.25,14.39-4.6,20.98-6.89,1.65-.58,3.11-1.19,4.67-1.78,1.53-.6,3.1-1.19,4.57-1.82l3.52-1.55c.9-.39,1.77-.82,2.66-1.25l2.64-1.28,2.6-1.35c1.74-.89,3.45-1.85,5.14-2.82-1.62.86-3.24,1.73-4.89,2.53-1.64.82-3.29,1.64-4.96,2.4l-2.5,1.16-2.76,1.2c-2.83,1.26-5.89,2.37-8.87,3.54,1.4-.62,2.98-1.3,4.73-2.03.89-.36,1.76-.77,2.69-1.17.78-.37,1.59-.74,2.42-1.13,1.11-.52,2.27-1.08,3.48-1.69,1.21-.61,2.49-1.19,3.78-1.88,5.23-2.61,11.07-5.78,16.94-9.36,5.87-3.57,11.76-7.56,17.16-11.62,2.65-2.1,5.28-4.08,7.64-6.16,1.19-1.03,2.38-1.99,3.47-2.99,1.09-1.01,2.14-1.98,3.14-2.92Z" style="fill: #efbf04;"/>
    <path d="m247.66,139.21c.64.99,1.25,2.02,1.82,3.08.16.27.28.46.39.68.18,0,.37-.02.55-.03h.31s1.26,0,1.26,0c1.69.03,3.39.09,5.1.2,3.42.2,6.89.56,10.37,1.06,6.96,1.01,13.96,2.64,20.77,4.82,13.63,4.39,26.34,11.02,37.07,18.31,4.43,2.97,8.74,6.25,12.86,9.83,2.05,1.8,4.08,3.65,6.04,5.58l.73.73.35.35s0,0,.02,0l.12.09.2.14c.05-.06.09-.16.13-.23l.05-.1.02-.05s0-.02.02-.04l.22-.33c1.34-2,2.6-4.05,3.78-6.15,2.37-4.19,4.38-8.58,6.06-13.08,1.66-4.5,2.97-9.12,3.89-13.78.46-2.33.83-4.67,1.11-7.02l.19-1.76.11-1.26c.05-.61.1-1.24.13-1.86.15-2.49.24-5.03.36-7.5,2.76-.07,5.47-.18,8.23-.18,3.33,0,4.1.08,5.72.16-.04.45-2.92.98-.08,1.36,5.68.7,8.41,1.64,9.73,2.27,1.32.66,1.23,1.11,1.15,1.55-.04.22-2.09-.15-3.8-.38-1.72-.24-3.09-.38-1.75,0-2.25-.28-4.93-.48-7.45-.54-.7,0-1.38-.02-2.05-.02-.72,0-1.41,0-2.07.03-.65.02-1.27.05-1.84.07-.28.02-.56.03-.82.04-.13,0-.26.02-.38.02-.13,0-.26,0-.27.12-.05,3.33.06,4.15.44.46.02-.03.01-.13.14-.1.86.09,2.18.11,3.73.14.77.02,1.61.05,2.48.07.82.03,1.68.08,2.53.13,3.41.22,6.8.73,8.09,1.28,2.57,1.08-2.86.94-.31,2.02,2.64.35,7.85,1.47,10.4,2.24,1.21.59.48.72-.23.82-.71.1-1.4.15-.14.49,3.71,1.29,8.01,2.84,12.46,4.89,4.45,2.04,9.04,4.57,13.34,7.55-.13.19.3.76.19.93-.06.08-.25.06-.71-.16-.45-.2-1.15-.61-2.26-1.26-7.23-4.65-15.16-8.22-23.46-10.5-4.15-1.13-8.39-1.97-12.67-2.44-2.14-.24-4.29-.41-6.45-.48l-.81-.03h-.43s-.17,0-.17,0c-.11.01-.23,0-.31.04v.37c.05-.41-.13,1.62-.27,2.8-.3,2.65-.71,5.29-1.23,7.92-1.03,5.25-2.49,10.42-4.34,15.44-1.87,5.02-4.12,9.91-6.78,14.58-1.32,2.33-2.74,4.62-4.25,6.84l-.32.47-.52.75-1.09,1.5c-.72,1.02-1.47,1.98-2.22,2.94l-4.53,5.75-4.65-5.15-2.35-2.58-1.19-1.27-.88-.89c-.78-.81-1.58-1.6-2.39-2.37-.8-.79-1.62-1.56-2.45-2.31-3.31-3.02-6.75-5.92-10.36-8.58-7.21-5.32-14.91-9.97-23.07-13.61-8.14-3.66-16.65-6.51-25.37-8.32-4.36-.92-8.77-1.6-13.2-2.03-2.22-.22-4.44-.39-6.66-.48l-1.67-.06-1.77-.05c-2.31-.04-4.69-.01-7.02-.02l-1.55-3.6-.8-1.78-.21-.44-.21-.41-.19-.37c-.52-.98-1.07-1.95-1.68-2.89-1.2-1.87-2.55-3.64-4.05-5.26-2.99-3.23-6.55-5.9-10.49-7.79-3.93-1.89-8.23-2.99-12.65-3.36-1.1-.12-2.22-.1-3.34-.14-1.12.04-2.24.03-3.36.16-2.24.17-4.49.52-6.68,1.04-2.37.53-3.62.91-4.16.96-.32.05-.44.02-.38-.08.06-.11.3-.28.59-.48,1.24-.82,4.75-2.28,8.47-3.09-1.23.27-1.87.28-2.51.29-.65,0-1.29.02-2.5.42-.08-.31,1.03-1.1,3.54-1.93,2.49-.8,6.44-1.6,11.72-1.22-2.62-.31-5.27-.26-7.91-.08-2.66,0-.07-.68-.09-1.13,1.35-.12,2.71-.13,3.72-.18,1.01,0,1.69-.04,1.7-.16,0-.23.03-.68.03-.91-1.39-.06-3.47-.06-5.54.11-1.04.09-2.07.17-3.01.32-.95.12-1.8.27-2.48.4,1.36-.28,2.73-.43,3.76-.6,1.03-.12,1.72-.24,1.71-.35-.02-.23-.05-.68-.07-.91,2.82-.33,6.4-.27,9.92.24,3.54.5,6.95,1.57,9.68,2.41l.24-.64c-2.7-1.08-6.22-2.12-9.82-2.54-3.6-.43-7.21-.37-10.08-.15,2.86-.41,2.87-.58,2.86-1.05,4.39-.21,8.84.39,13.11,1.6,4.28,1.2,8.34,3.03,12.31,5.1-.62-.42-1.26-.79-1.92-1.14l-1.96-1.07c-1.32-.68-2.72-1.22-4.09-1.82,2.96.58,7.91,2.76,12.26,6.4,2.19,1.79,4.25,3.88,6.01,6,1.77,2.12,3.25,4.27,4.47,6.16Z" style="fill: #efbf04;"/>
    <path d="m266.72,82.18c2.77-4.42,5.2-9.3,7.04-14.57.96-2.62,1.71-5.34,2.38-8.11l.46-2.09.27-1.47c.13-.65.22-1.35.33-2.04.34-2.78.66-5.66.94-8.45,1.01.24,2.15.63,3.21.94l3.25.99,3.25,1.01,1.62.5,1.09.36c2.45.8,4.89,1.63,7.31,2.5,4.85,1.73,9.65,3.58,14.36,5.52,9.41,3.87,18.45,8.07,26.81,12.27,8.26,4.1,16.48,8.74,24.53,13.85l3.01,1.94,3.22,2.13,5.59,3.91c1.8,1.32,3.66,2.65,5.42,3.98,3.48,2.66,6.97,5.32,10.46,7.99l5.33,4.09,4.31,3.37c-6.67-.95-13.33-1.9-19.99-2.85l-4.52-.59-3.8-.2-1.89-.09-1.72.07-3.43.14c-.29.01-.55.03-.85.06l-.62.08-.76.09c-.51.06-1.02.11-1.52.21-1,.18-2.02.32-3,.56l-1.49.33-1.46.4c-.98.25-1.93.57-2.88.9-.96.3-1.88.7-2.8,1.07-.94.35-1.81.82-2.71,1.25-.91.4-1.75.94-2.61,1.41l-.65.37h-.02s-.15.11-.05.11c-.32.14-.8.29-1.29.41-.48.12-.92.23-.72.41.64.44,1.13.77,1.5,1.02,0,.03.26.13.42.2.17.08.34.16.5.23.32.15.6.29.87.42.52.26.94.5,1.26.7,1.29.83,1.16,1.27,1.03,1.7-.07.22-2.19-.42-3.96-.95-.39-.12-.76-.23-1.08-.32-.27-.08-.49-.14-.64-.17-.31-.06-.36-.02.13.25-1.67-.49-3.61-1.05-5.49-1.6-.48-.14-.96-.27-1.43-.4l-.35-.1-.18-.05c-.07-.01.05-.07.07-.11.16-.16.31-.32.47-.47.62-.61,1.21-1.17,1.74-1.64,1.05-.95,1.85-1.6,1.94-1.78.1-.17-.52.11-2.24,1.32-.68.39-1.7,1.15-2.84,2.15-.28.25-.57.52-.87.79l-.06.05s.03.02.05.03l.14.04.28.09c.19.06.38.12.58.18.79.24,1.61.5,2.42.75,3.27,1.01,6.57,2.06,7.97,2.83,2.65,1.5-3.23.45-.59,1.96,2.85.85,8.53,2.56,11.37,3.41,2.71,1.29-3.23.45-.38,1.31,2.1.74,4.39,1.52,6.83,2.27,2.45.73,5.03,1.47,7.71,2.22,5.37,1.48,11.09,3.07,16.81,4.65-.12.43,2.63,1.68-3.15.3-8.31-2.31-16.68-4.53-25-6.93-4.16-1.22-8.32-2.45-12.48-3.68l-7.97-2.36-5.89-1.75c-.53-.14-.88-.31-1.3-.47l-1.22-.49-2.43-.98-2.44-.98-1.22-.49-.08-.03s.04-.04.06-.06l.13-.12.26-.25.51-.49,3.95-3.8c2.52-2.49,5.47-5.06,8.92-7.35.81-.54,1.89-1.22,2.33-1.45l1.56-.89c1.02-.62,2.12-1.11,3.19-1.64,1.06-.55,2.18-.98,3.28-1.44,1.1-.48,2.24-.83,3.36-1.23,2.26-.76,4.57-1.35,6.9-1.84,1.16-.24,2.33-.42,3.5-.62l2.34-.29c.29-.05.52-.06.71-.06.03,0,.13.02.11,0l-.2-.13-.34-.21-.15-.08-.07-.04-.03-.02s.03.03-.1-.07c-1.95-1.32-3.92-2.63-5.91-3.91-7.94-5.12-16.11-9.86-24.51-14.19-8.39-4.33-16.98-8.28-25.73-11.78-4.38-1.76-8.79-3.41-13.25-4.96-2.23-.77-4.46-1.52-6.7-2.24l-.31-.1h0s.01,0,.01,0h.02s.03.02.04.02c0-.01.01-.07.01-.05l-.09.47c-.05.26-.11.52-.16.78l-.35,1.56c-.22,1.05-.52,2.07-.78,3.1-1.12,4.11-2.58,8.13-4.33,12.02-1.71,3.91-3.89,7.61-6.23,11.19-1.24,1.75-2.43,3.52-3.83,5.15-.69.82-1.32,1.68-2.05,2.47l-2.19,2.35c-.37.39-.73.79-1.1,1.17l-1.17,1.09-2.35,2.18c-.79.72-1.64,1.36-2.46,2.04-.82.68-1.66,1.34-2.54,1.95-3.42,2.56-7.11,4.73-10.9,6.62-7.61,3.79-15.81,6.24-24.16,7.35-3.17.38-4.98.36-5.73.29-.69-.09-.47-.25.52-.49,1-.22,2.64-.57,4.61-1,1.97-.45,4.25-1.03,6.49-1.7-1.5.43-2.28.49-3.07.5-.79.02-1.56.06-3.09.38-.05-.35,1.44-.97,4.36-1.95,2.92-1,7.26-2.39,12.84-4.72-2.8,1.13-5.68,2.06-8.6,2.86-2.98.51-.17-.66-.29-1.1,2.88-.77,5.68-1.77,5.61-1.97-.08-.21-.23-.64-.3-.86-.69.23-1.56.52-2.52.84-.97.28-2.02.58-3.08.89-2.13.55-4.27,1.02-5.72,1.27,2.88-.51,5.72-1.28,5.66-1.49-.06-.22-.17-.66-.23-.88,2.75-.85,6.19-1.92,9.53-3.29,3.35-1.32,6.54-3.03,8.95-4.62l-.36-.58c-2.49,1.38-5.61,3.11-8.89,4.5-3.26,1.43-6.64,2.6-9.4,3.33,2.69-1,2.61-1.22,2.48-1.66,4-1.36,7.95-2.87,11.71-4.79,3.75-1.93,7.29-4.3,10.34-7.21-.55.43-1.07.9-1.64,1.31l-1.7,1.23c-1.11.85-2.33,1.55-3.5,2.32,2.1-1.93,6.05-4.73,9.87-8.27,3.86-3.48,7.55-7.69,9.74-11.26Z" style="fill: #efbf04;"/>
    <path d="m342.12.5c7.14.54,14.61,2.11,21.9,4.86,7.31,2.68,14.36,6.64,20.77,11.42,3.17,2.44,6.2,5.06,9.01,7.88,2.79,2.84,5.38,5.83,7.74,8.94,4.73,6.22,8.47,12.91,11.34,19.6.14.33.6,1.44.92,2.27l.07,2.45c.03,1.1.03,2.2,0,3.31-.05,2.21-.19,4.43-.44,6.65-.5,4.44-1.41,8.88-2.76,13.22-1.32,4.35-3.08,8.59-5.21,12.65-.27.51-.53,1.02-.82,1.51l-.58,1.02-.81,1.33c-.55.88-1.08,1.77-1.66,2.6-.57.85-1.14,1.7-1.73,2.48-1.17,1.63-2.35,3.11-3.54,4.68l-1.8,2.35-.92,1.2-.85,1.08-2.75-6.16-1.39-3.11c-.47-1.03-.96-1.97-1.44-2.96-.49-.97-.96-1.97-1.47-2.9l-1.1-1.93c-.5-.88-1.06-1.72-1.58-2.58-2.17-3.4-4.59-6.64-7.2-9.66-5.22-6.05-11.26-11.27-17.82-15.37.23-.39,2.81.43.73-1.15-2.08-1.59-3.76-2.62-4.94-3.54-1.23-.83-2.02-1.46-2.52-1.95-1-.98-.83-1.35-.64-1.78.11-.23,1.92.67,3.42,1.43,1.51.76,2.66,1.47,1.6.59,3.61,1.87,8.1,4.91,10.88,6.85,2.71,2.02,3.9,2.75.84.02-.45-.53-1.38-1.28-2.55-2.14-.59-.43-1.22-.9-1.88-1.39-.69-.45-1.41-.91-2.13-1.37-.72-.46-1.43-.94-2.13-1.37-.71-.42-1.38-.83-2.01-1.2-1.23-.79-2.27-1.39-2.8-1.85-2.18-1.86,3.1.03.92-1.82-.63-.31-1.41-.73-2.29-1.13-.88-.39-1.85-.83-2.81-1.26-1.96-.8-3.92-1.59-5.26-2.02-2.53-1.36,3.14-.35.45-1.29-3.97-1.64-8.81-3.04-14.1-3.98-5.29-.94-11.02-1.38-16.75-1.31,0-.23-.69-.45-.7-.64,0-.1.17-.19.68-.28.54-.08,1.45-.17,2.9-.19,17.06.27,34.21,5.33,48.65,14.9,7.2,4.78,13.77,10.57,19.35,17.21,2.79,3.31,5.36,6.81,7.67,10.48l2.18,3.59c.09-.04.18-.28.24-.38l.02-.05s0-.02.01-.03l.23-.41c.34-.6.66-1.22.99-1.83.63-1.24,1.24-2.48,1.79-3.76,2.24-5.08,3.8-10.44,4.66-15.92.43-2.74.69-5.5.76-8.27.02-.69.03-1.39.02-2.08v-.51s0-.01,0-.02c0,0,0-.01,0,0l-.66-1.6-.84-1.92c-2.33-5.09-5.26-9.92-8.64-14.38-6.78-8.89-15.53-16.26-25.49-21.27-4.97-2.5-10.21-4.51-15.62-5.86-2.7-.71-5.45-1.22-8.2-1.62-.69-.1-1.38-.2-2.07-.27l-.93-.1s0,0,0,0c.02,0,.03,0,.04,0v-.03s0,0,0-.01h0s-.03.17-.03.17l-.08.42-.17.84c-.47,2.24-1.08,4.44-1.81,6.61-1.48,4.32-3.5,8.46-5.98,12.29-4.98,7.65-11.88,13.98-19.81,18.3-2.7,1.43-4.34,1.98-5.03,2.16-.62.13-.51-.09.3-.63,1.6-1.05,5.46-3.4,8.85-6.26-2.31,1.86-2.68,1.27-5.1,2.94-.17-.31.93-1.36,3.1-3.28,2.15-1.94,5.42-4.73,9.13-9-1.9,2.1-3.96,4.03-6.18,5.79-2.37,1.55-.4-.53-.7-.89,2.18-1.71,4.15-3.66,3.98-3.82-.16-.16-.48-.48-.64-.65-.96.95-2.44,2.33-4.04,3.58-1.59,1.26-3.26,2.41-4.41,3.12,2.29-1.43,4.42-3.11,4.27-3.3-.14-.18-.42-.53-.56-.71,2-1.72,4.46-3.91,6.65-6.39,2.19-2.47,4.09-5.2,5.28-7.56l-.59-.33c-1.37,2.21-3.18,4.91-5.27,7.39-2.08,2.49-4.45,4.74-6.49,6.35,1.88-1.82,1.68-2.02,1.4-2.35,2.77-2.63,5.41-5.41,7.6-8.56,2.21-3.12,3.97-6.6,4.95-10.3-.86,2.39-1.93,4.7-3.17,6.91.61-1.95,1.88-4.83,3.01-8.2.55-1.69,1.08-3.49,1.49-5.33l.15-.69.18-.95c.16-.89.25-1.8.38-2.68.18-1.81.35-3.59.52-5.33l.29-.04.34.02.67.03c.45.02.89.04,1.33.06.87.04,1.73.07,2.56.11.83.02,1.66.1,2.46.14.4.02.79.05,1.18.07.38.02.81.05,1.08.08Z" style="fill: #efbf04;"/>
    <path d="m445.02,66.42c11.79,5.36,23.8,12.02,35.33,20.06,2.92,1.96,5.73,4.11,8.59,6.21,2.78,2.21,5.64,4.36,8.35,6.7,5.53,4.56,10.79,9.51,15.91,14.59,10.16,10.25,19.44,21.4,27.45,33.01,8.04,11.6,14.89,23.6,20.57,35.4.55,1.16,1.1,2.33,1.65,3.5.63,1.39,1.26,2.8,1.9,4.22l.29,2.52.19,1.82c.12,1.21.22,2.43.3,3.65.17,2.44.27,4.89.31,7.35.06,4.92-.13,9.87-.63,14.82-.49,4.95-1.25,9.89-2.3,14.79-.08.38-.39,1.83-.67,2.88-.28,1.12-.54,2.26-.85,3.35-.3,1.1-.6,2.21-.92,3.28-.32,1.08-.64,2.15-.98,3.18l-2.02,6.22-1.03,3.15c-.35,1.04-.71,2.22-1.04,3.09-2.65-4.47-5.3-8.94-7.96-13.42-1.35-2.26-2.68-4.51-4.08-6.65l-1.34-2.08c-.35-.54-.69-1.09-1.06-1.62-1.46-2.12-2.87-4.29-4.39-6.37l-2.25-3.15-2.32-3.1c-6.22-8.24-12.91-16.11-20.02-23.51-7.11-7.41-14.63-14.35-22.44-20.79-7.81-6.46-16.03-12.24-24.33-17.62.24-.39,4.89,1.73.73-1.15-8.35-5.71-12.67-8.38-14.68-10-2.01-1.61-1.83-1.97-1.61-2.38.12-.23,3.47,1.63,6.27,3.17,2.78,1.57,4.96,2.91,2.88,1.4,1.64.99,3.46,2,5.27,3.13,1.81,1.13,3.68,2.29,5.51,3.44,1.8,1.2,3.56,2.37,5.21,3.46,1.65,1.1,3.2,2.08,4.49,3.03,5.22,3.7,7.39,5.09,1.33.34-.48-.43-1.17-.98-2-1.64-.84-.65-1.87-1.34-2.99-2.13-1.12-.77-2.34-1.61-3.61-2.49-1.27-.88-2.6-1.78-3.96-2.62-1.35-.86-2.7-1.72-4.01-2.55-1.31-.81-2.58-1.58-3.74-2.3-2.31-1.46-4.22-2.63-5.27-3.39-4.19-3.09,5.18,1.3.99-1.79-1.14-.62-2.55-1.43-4.12-2.26-1.58-.82-3.31-1.71-5.03-2.61-3.48-1.72-6.98-3.43-9.35-4.47-4.53-2.56,5.3.91.56-1.24-7.01-3.45-15.46-6.95-24.71-10.09-9.26-3.14-19.33-5.87-29.51-8.06.05-.22-1.16-.71-1.13-.91.03-.19,1.32-.12,6.46.95,17.43,4.02,34.5,9.86,50.86,17.35,16.36,7.49,31.96,16.74,46.5,27.48l2.74,2c.91.68,1.78,1.4,2.67,2.09l5.32,4.21c3.42,2.96,6.94,5.81,10.23,8.92,3.38,3.01,6.58,6.22,9.82,9.39,3.14,3.27,6.3,6.51,9.29,9.93,6.03,6.76,11.74,13.83,17.07,21.18,2.66,3.68,5.24,7.41,7.71,11.23l.56.86.04.06.08.11.14.2s.05-.19.08-.26l.03-.13v-.06s.02-.03.02-.03l.09-.41c.98-4.47,1.72-8.99,2.2-13.54.49-4.55.72-9.12.7-13.69,0-2.29-.08-4.57-.22-6.85-.06-1.14-.15-2.28-.25-3.42l-.16-1.71-.09-.85s0-.01,0-.03l-.81-1.83c-.37-.86-.77-1.71-1.16-2.57-.77-1.72-1.6-3.4-2.4-5.1-1.67-3.37-3.37-6.72-5.19-10.01-3.62-6.59-7.55-13-11.79-19.2-8.47-12.41-18.18-23.95-28.88-34.45-5.34-5.26-10.99-10.2-16.8-14.93-5.83-4.71-11.92-9.08-18.17-13.21-6.26-4.11-12.71-7.92-19.32-11.4-3.31-1.74-6.65-3.41-10.04-4.98l-2.54-1.18-1.28-.57-.62-.27h0s.04.01.05.01v-.03s0-.01,0-.01l-.11.31-.34.89-.56,1.43c-.4.94-.78,1.89-1.21,2.81-1.69,3.72-3.67,7.31-5.94,10.71-4.5,6.84-10.24,12.85-16.72,17.81-6.54,4.91-13.87,8.74-21.58,11.26-3.85,1.27-7.8,2.23-11.78,2.88-3.89.64-8,1.05-12.01,1.1-5.53.02-8.62-.48-9.88-.72-1.16-.26-.74-.36.99-.36,1.72,0,4.63.03,8.11-.19,3.47-.2,7.56-.71,11.48-1.5-2.6.51-4,.54-5.34.55-1.35,0-2.7,0-5.39.18-.01-.37,2.69-.73,7.91-1.76,2.58-.53,5.82-1.21,9.61-2.33,3.79-1.11,8.14-2.64,12.87-4.93-4.75,2.24-9.74,3.93-14.86,5.08-5.17.84-.13-.64-.25-1.11,5.06-1.09,9.88-2.98,9.79-3.19-.08-.21-.24-.64-.32-.85-2.36.93-5.99,2.1-9.72,2.93-3.71.85-7.52,1.34-10.04,1.57,5.06-.44,10.05-1.55,9.98-1.79-.05-.22-.15-.67-.2-.89,4.85-1.19,10.83-3.09,16.39-5.94,5.61-2.75,10.67-6.52,14.27-9.97l-.46-.5c-3.71,3.25-8.66,6.99-14.16,9.79-5.45,2.89-11.36,4.88-16.19,5.96,2.39-.66,3.54-1.13,4.09-1.44.55-.31.5-.47.44-.69,6.97-2.21,13.66-5.35,19.59-9.62,5.95-4.23,11.13-9.6,14.96-15.81-2.72,4.02-5.92,7.7-9.5,10.97,1.22-1.41,2.8-3.18,4.53-5.28,1.7-2.13,3.6-4.56,5.36-7.32,1.77-2.75,3.46-5.79,4.92-8.97.36-.8.71-1.6,1.05-2.41.34-.88.58-1.37,1.12-2.97l.35-1.01.18-.51.17-.59c.23-.79.46-1.58.7-2.36.44-1.57.88-3.13,1.32-4.67,1.74.66,3.54,1.48,5.25,2.18,1.73.73,3.41,1.43,5.05,2.17,1.92.86,3.75,1.68,5.45,2.44Z" style="fill: #efbf04;"/>
    <path d="m489.81,23.66c-.05-.48-.14-.95-.24-1.43l-.14-.72-.07-.36c-.03-.14-.02-.19-.1-.45-.25-.88-.51-1.76-.76-2.65l-.19-.67c-.07-.23-.1-.43-.25-.71l-.71-1.57-.72-1.58-.36-.79c-.12-.26-.23-.53-.41-.84-.64-1.2-1.29-2.4-1.93-3.61-1.31-2.43-2.63-4.87-3.97-7.33.78.14,1.49.23,2.36.42,1.24.41,2.49.82,3.74,1.23,2.49.83,4.89,1.62,7.41,2.52,1.24.41,2.53.94,3.83,1.46l1.95.79,1.96.9,1.96.91.45.21.28.15.57.29c.75.39,1.52.77,2.26,1.18,5.99,3.25,11.69,7.2,16.89,11.69,10.43,8.97,18.61,20.11,24.21,31.27,2.01,3.96,3.78,8.1,5.22,12.41.37,1.07.7,2.16,1.04,3.25l.47,1.65.55,2.1c.19.49.08,1.01.09,1.53l-.03,1.05-.05,1.69c-.04,1.12-.1,2.25-.17,3.38-.28,4.51-.77,9.03-1.48,13.53-.35,2.24-.78,4.52-1.22,6.7-.43,2.16-.87,4.33-1.36,6.55-.24,1.11-.49,2.22-.78,3.36-.14.56-.29,1.14-.45,1.73-.08.29-.15.58-.25.89l-.2.64c-.08.27-.16.53-.25.78-.74,2.01-1.58,4.02-2.83,5.5-1.23,1.48-2.73,2.54-4.57,3-.9.24-1.85.29-2.77.27-.45-.06-.92-.07-1.35-.22l-.66-.18c-.22-.07-.43-.17-.64-.25-1.71-.69-3.29-1.99-4.71-3.56-.66-.85-1.37-1.65-1.97-2.55-.41-.57-.7-1.03-1.04-1.54-.65-.99-1.25-1.95-1.83-2.91-2.31-3.79-4.45-7.38-6.77-10.75-2.31-3.37-4.77-6.5-7.42-9.34.32-.32,2.61,1.17.99-.93-3.4-4.05-5.29-5.93-6.08-7.09-.8-1.15-.54-1.52-.27-1.88.12-.17,1.79,1.03,3.09,2.15,1.31,1.1,2.31,2.05,1.45.96,3.14,2.7,6.82,6.85,9,9.56,1.1,1.35,1.86,2.3,2.08,2.47.22.17-.09-.47-1.25-2.22-.66-1.25-2.81-4.03-5.19-6.6-2.37-2.58-4.98-4.91-5.87-6.05-.89-1.15-.13-.99.64-.79.76.19,1.55.4.64-.79-.56-.47-1.3-1.01-2.09-1.62-.81-.59-1.72-1.2-2.62-1.83-.93-.58-1.86-1.16-2.72-1.69-.88-.48-1.68-.93-2.32-1.28-1.19-.86-.39-.85.4-.75.78.1,1.55.27.24-.45-3.85-2.29-8.73-4.31-14.13-5.71-5.39-1.43-11.28-2.17-17.13-2.43.01-.23-.69-.48-.68-.68,0-.1.18-.18.71-.24.56-.04,1.48-.09,2.97-.03,9.92.67,20,3.09,29.14,7.87,4.54,2.41,8.87,5.35,12.68,8.8,3.84,3.42,7.23,7.27,10.25,11.28,3.03,4.01,5.67,8.23,8.17,12.31,1.25,2.02,2.47,4.05,3.67,5.77l.16.22.04.05s.06.06.09.09c.06.05.13.11.21.11.18,0,.25-.21.28-.34l.53-1.93c.27-1.08.53-2.18.78-3.32.5-2.26.97-4.59,1.45-6.93.47-2.28.88-4.52,1.23-6.8.71-4.55,1.2-9.13,1.45-13.72l.09-1.72.06-1.49-.55-2.07c-.6-2.16-1.29-4.3-2.05-6.42-3.07-8.45-7.46-16.41-12.97-23.48-5.52-7.06-12.09-13.3-19.52-18.31l-2.81-1.83-2.89-1.72c-.99-.53-1.95-1.11-2.95-1.61l-1.49-.77-.29-.15h0s0,0,0,0c.02,0,.17.09.13.03l-.03-.06v-.03s-.02-.01-.02-.01l.03.15.04.18v.04s.03.14.03.14l.1.62c.13.83.3,1.66.38,2.49l.24,2.51.08,2.52c.01,6.73-1.56,13.46-4.6,19.47-3.13,5.92-7.57,11.33-13.16,15.07-2.73,1.95-5.7,3.48-8.74,4.71-3.05,1.23-6.18,2.14-9.39,2.73-3.15.53-4.95.52-5.9.43-.33-.05-.43-.12-.34-.2.05-.04.14-.08.28-.13.14-.04.42-.1.69-.16,2.09-.45,6.6-1.46,10.86-3.26-2.86,1.12-3.03.46-5.96,1.3-.07-.35,1.36-1,4.1-2.21,1.37-.6,3.06-1.37,5.02-2.37.99-.49,2.02-1.1,3.14-1.72,1.07-.71,2.28-1.36,3.44-2.26-1.18.88-2.48,1.54-3.74,2.28-1.31.64-2.61,1.31-3.98,1.83-2.78.87-.23-.63-.42-1.05,2.66-1.02,5.11-2.48,4.98-2.68-.11-.2-.34-.59-.45-.79-.3.17-.63.37-.99.58-.37.2-.78.39-1.21.6-.43.21-.87.43-1.33.65-.47.19-.95.39-1.43.58-1.91.8-3.91,1.37-5.24,1.73,2.68-.67,5.25-1.73,5.15-1.94-.08-.21-.25-.63-.34-.84,2.44-1.11,5.47-2.55,8.16-4.52,2.7-1.95,5.08-4.33,6.61-6.51l-.54-.41c-1.68,1.99-3.93,4.33-6.53,6.31-2.57,2-5.52,3.52-7.96,4.51.59-.31,1.03-.54,1.34-.74.31-.22.5-.38.61-.52.23-.27.16-.42.06-.63,3.4-1.78,6.61-3.89,9.3-6.58.72-.63,1.3-1.38,1.91-2.11.3-.37.62-.73.9-1.11l.78-1.2c.52-.8,1.04-1.6,1.43-2.47.44-.84.78-1.74,1.1-2.63-.27.57-.52,1.15-.81,1.71l-.91,1.66c-.7,1.05-1.37,2.12-2.12,3.12.3-.56.57-1.28.98-2.01.2-.37.41-.75.64-1.15.2-.41.41-.84.63-1.29.48-.87.85-1.86,1.32-2.85.38-1.03.83-2.08,1.15-3.2.69-2.22,1.24-4.58,1.42-6.88.18-2.29.18-4.5-.13-6.35Z" style="fill: #ef1a04;"/>
    <path d="m610.81,195.84c.69,1.16,1.39,2.32,2.09,3.49.66,1.19,1.28,2.42,1.93,3.64.64,1.23,1.28,2.46,1.93,3.7l.97,1.87c.32.63.58,1.28.88,1.92,1.15,2.58,2.31,5.19,3.48,7.83,1.05,2.68,2.02,5.42,3.04,8.16,3.84,11.03,6.89,22.71,8.49,34.61,1.65,11.9,2.16,23.94,1.64,35.65-.53,11.71-1.99,23.1-4.25,33.76-1.1,5.48-2.55,10.96-4.22,16.43l-10.3,33.61.63-35.31c.41-22.72-1.71-46.15-6.69-68.88-4.93-22.74-12.61-44.76-22.37-64.85.41-.2,2.83,3.28,1.23-.6-1.66-3.85-2.99-6.7-3.88-8.9-.96-2.16-1.53-3.65-1.84-4.67-.63-2.05-.24-2.28.16-2.5.2-.11,1.71,2.67,2.98,5,1.27,2.32,2.18,4.23,1.44,2.23,2.95,5.62,6.63,13.25,8.83,18.06,1.15,2.39,1.87,4.09,2.11,4.42.22.34-.05-.7-1.22-3.66-.65-2.03-2.77-6.9-5.08-11.67-2.29-4.78-4.7-9.51-5.44-11.53-1.44-4.08,3.24,3.1,1.8-.97-1.98-3.8-6.32-11.19-8.58-14.83-1.84-3.9,3.4,2.95,1.16-.72-3.21-5.6-7.31-11.93-12.07-18.46-4.75-6.53-10.15-13.24-15.78-19.75.17-.15-.36-1.1-.21-1.23.15-.14.97.54,3.87,3.77,23.13,27.27,41.49,58.96,53.47,93.11,3.05,8.52,5.62,17.21,7.83,26,2.21,8.79,4.04,17.68,5.44,26.65,1.39,8.97,2.37,18.01,2.94,27.07.56,9.07.69,18.17.43,27.25l-10.86-1.91c5.84-18.31,8.71-37.7,8.51-56.95-.02-2.41,0-4.82-.2-7.22-.16-2.4-.24-4.81-.46-7.2l-.8-7.17c-.07-.6-.12-1.2-.21-1.79l-.3-1.78-.6-3.55-.6-3.55c-.18-1.19-.51-2.35-.76-3.52l-1.61-7.02c-.64-2.31-1.35-4.61-2.02-6.91l-1.01-3.45c-.36-1.14-.81-2.26-1.21-3.39l-2.47-6.76c-.85-2.24-1.89-4.4-2.82-6.61l-1.44-3.3c-.51-1.09-1.07-2.14-1.61-3.21-1.1-2.13-2.13-4.29-3.27-6.39-4.63-8.38-9.92-16.38-15.78-23.93-11.71-15.11-25.95-28.23-41.67-38.89-3.4-2.31-5.34-3.59-6.1-4.21-.79-.63-.34-.55.84-.01,2.4,1.03,7.85,4.05,13.07,7.5-3.49-2.27-3.11-2.81-6.69-4.98.18-.26,2.19.47,5.83,2.6,3.66,2.1,8.9,5.67,15.31,11.17l-2.37-2.1-2.43-2.02-2.44-2.02-2.5-1.94c-3.2-2.76.41-.54.69-.9.84.65,1.68,1.3,2.47,1.91.77.63,1.49,1.21,2.11,1.71,1.25.99,2.1,1.62,2.17,1.54.15-.17.44-.52.59-.69-1.66-1.34-4.08-3.44-6.64-5.36-2.51-1.99-5.14-3.82-6.86-5.08,1.73,1.25,3.46,2.49,4.77,3.43,1.28.96,2.16,1.56,2.23,1.47.14-.18.42-.54.56-.72.86.64,1.79,1.31,2.72,2.05.92.76,1.88,1.55,2.86,2.36,1.99,1.6,3.93,3.45,5.94,5.24,1.99,1.8,3.86,3.73,5.71,5.48,1.79,1.81,3.49,3.53,5.01,5.06l.5-.47c-1.47-1.58-3.09-3.39-4.91-5.19-1.86-1.76-3.76-3.68-5.79-5.45-2.04-1.77-4.02-3.59-6.03-5.17-.99-.81-1.96-1.6-2.88-2.35-.93-.75-1.85-1.43-2.7-2.09,3.57,2.44,3.66,2.34,3.96,1.97,5.15,3.97,9.85,8.48,14.47,13.04l3.37,3.52c1.12,1.18,2.28,2.31,3.35,3.54,2.15,2.43,4.45,4.73,6.57,7.2-.69-.84-1.35-1.7-2.05-2.52l-2.15-2.44c-1.45-1.61-2.82-3.29-4.36-4.82.43.34.89.73,1.37,1.15.46.44.95.92,1.47,1.44,1.02,1.03,2.13,2.2,3.31,3.48,1.21,1.25,2.33,2.72,3.56,4.21,1.2,1.51,2.51,3.04,3.69,4.7,2.37,3.32,4.88,6.71,6.97,10.14,1.08,1.69,2.13,3.33,3.14,4.9.94,1.6,1.84,3.13,2.67,4.53Z" style="fill: #efbf04;"/>
    <g style="opacity: 0;">
      <path d="m380.78,138.29c1.77.51,3.55,1.02,5.33,1.54,1.49.45,2.99.9,4.5,1.36,3,.92,6.02,1.88,9.05,2.9,6.05,2.02,12.13,4.21,18.23,6.57,12.19,4.72,24.42,10.14,36.5,16.23,12.09,6.08,24.02,12.85,35.65,20.19,11.62,7.36,22.93,15.32,33.79,23.75l28.02,21.77-32.53-14.15c-8.74-3.8-17.68-7.09-26.7-9.84-2.26-.69-4.52-1.34-6.79-1.96l-3.18-.85-.76-.19-1.51-.34-.37-.08-.19-.04-.09-.02.05.08.43.65.43.64.65,1.04.66,1.05,1.61,2.74c1.2,2.04,2.4,4.07,3.51,6.13,1.13,2.06,2.28,4.1,3.33,6.18,4.31,8.26,8.13,16.61,11.47,24.94,2.65,6.61,5.04,13.38,7.14,20.28,1.06,3.44,2.02,6.93,2.94,10.44.89,3.54,1.72,6.98,2.54,10.49,3.3,13.98,6.09,28.63,6.27,43.68.23,15.02-2.17,30.29-7.21,44.6-2.49,7.17-5.64,14.11-9.3,20.76-.93,1.65-1.88,3.3-2.86,4.92l-.18.31-.31.49-.68,1.05-1.35,2.11c-.91,1.41-1.97,2.87-2.95,4.3-1,1.42-2.01,2.73-3.02,4.09l-3.01,3.96-3.06,4.01-1.56,2.04-1.38,1.77-.97-10.11c-.17-1.68-.31-3.39-.49-5-.2-1.56-.34-3.23-.61-4.68-.25-1.49-.47-3.01-.78-4.41l-.43-2.14-.11-.54-.07-.29-.12-.52c-.32-1.38-.67-2.76-1.03-4.13-1.48-5.48-3.35-10.85-5.6-16.04-4.47-10.38-10.53-20-17.91-28.35-7.39-8.33-16.16-15.38-25.75-20.76-9.55-5.44-19.98-9.11-30.65-11.1.07-.49,8.18.51.25-1.34-7.98-1.69-14.15-2.15-18.76-2.47-4.62-.28-7.73-.31-9.81-.41-4.16-.15-4.21-.56-4.25-1.02-.01-.1,1.55-.32,3.77-.48s5.1-.27,7.71-.27c2.62-.01,4.97.09,6.15.12,1.18.02,1.18-.04-.9-.23,6.28.24,13.6,1.06,20.5,2.63,6.91,1.52,13.38,3.73,18.21,5.75,1.21.51,2.32.99,3.33,1.42.99.47,1.87.89,2.62,1.25.76.35,1.39.65,1.88.88.48.25.82.41,1,.49.36.16.1-.05-.94-.69-.53-.3-1.26-.69-2.21-1.19-.96-.49-2.1-1.16-3.55-1.79-3.7-2.01-13.6-5.92-24.02-7.79-5.19-1-10.44-1.59-14.92-1.92-4.48-.28-8.19-.37-10.31-.47-2.13-.13-2.67-.24-2.41-.43.26-.19,1.31-.4,2.38-.59,2.12-.39,4.29-.78-.02-1.02-4.31.1-10.77.53-17.15,1.55-3.19.48-6.36,1.11-9.25,1.75-1.45.32-2.82.67-4.09.99-.46.12-.91.24-1.33.36-.36.1-.7.2-1.02.29-1.24.25-1.4.17-1.16-.06.24-.23.87-.58,1.38-.88,1.06-.6,1.68-1,.13-.57-.36.09-.72.19-1.09.29-.18.05-.36.11-.54.16l-.27.09c-.09.03-.22.1-.14-.06.17-.58.31-1.15.41-1.73.05-.29.09-.58.12-.86l.04-.44.06-1.35c.07-3.6-.35-7.41-1.61-11.13-1.2-3.73-3.28-7.31-6.08-10.35-2.79-3.06-6.3-5.4-9.91-7.16-3.63-1.77-7.4-3.02-11.11-4.1-.93-.26-1.85-.53-2.78-.79-.94-.26-1.88-.51-2.83-.77-1.95-.5-3.92-.93-5.92-1.28-7.98-1.41-16.25-1.51-24.35-.47-.03-.23-2.16-.18-2.2-.37-.02-.1.5-.26,2.06-.54,1.65-.27,4.43-.72,8.93-.89,6.93-.17,13.91.53,20.7,2.19.84.2,1.7.43,2.52.66l2.39.67c1.6.45,3.23.93,4.87,1.45,3.27,1.04,6.63,2.33,9.89,4.09,3.27,1.74,6.44,4.09,9.04,7.05,2.62,2.95,4.62,6.42,5.86,10.11.67,1.83,1.06,3.73,1.39,5.62.26,1.89.42,3.79.41,5.67,0,.47-.02.94-.03,1.4l-.02.5-.03.31c-.03.21-.07.41-.12.6-.02.05.02.03.05.01l.1-.04.19-.07.39-.12.74-.21c1.08-.28,2.16-.55,3.24-.81,4.33-1.02,8.7-1.83,13.1-2.43,4.4-.6,8.84-1,13.29-1.19,4.45-.17,8.92-.11,13.38.15,4.46.25,8.91.83,13.34,1.57,4.42.77,8.8,1.83,13.12,3.08,8.62,2.61,16.95,6.25,24.71,10.86,7.71,4.69,14.94,10.18,21.31,16.59,6.44,6.34,12,13.54,16.73,21.22,4.7,7.7,8.49,15.92,11.4,24.43,1.46,4.25,2.67,8.59,3.68,12.97l.18.78.06.37v.06s.03-.03.05-.05l.08-.11.15-.22.14-.23,1.14-1.9c2.91-4.9,5.51-9.98,7.72-15.22,2.2-5.24,4.12-10.61,5.52-16.12.18-.69.39-1.37.56-2.06l.46-2.08c.29-1.39.65-2.76.9-4.16l.71-4.2c.27-1.39.36-2.81.55-4.22,1.37-11.28.87-22.74-.7-34.15-.82-5.71-1.91-11.41-3.15-17.14-1.25-5.69-2.59-11.57-4.02-17.15-2.91-11.25-6.63-22.29-11.11-33.02-2.2-5.38-4.7-10.64-7.25-15.86-1.35-2.58-2.62-5.19-4.05-7.73l-2.1-3.82-2.2-3.77-1.1-1.88-.14-.24-.07-.12-.13-.21-.55-.87-1.11-1.74-4.44-6.95c-1.49-2.29-2.92-4.71-4.38-7.07l-2.18-3.56-1.09-1.78-.54-.89-.27-.44-.14-.22s-.08-.1-.03-.09l.13.03c5.69,1.17,11.12,2.25,16.78,3.46,2.83.61,5.71,1.31,8.59,2.02l2.82.73,2.2.59c11.71,3.22,23.2,7.26,34.35,12.08l-5.79,9.78c-21.46-16.62-44.51-31.12-68.72-43.25-12.11-6.06-24.5-11.54-37.12-16.39-6.31-2.43-12.68-4.7-19.09-6.82-3.21-1.07-6.43-2.08-9.66-3.06l-2.43-.73-.57-.17h0s.01,0,.01,0c.01,0,.05.02.04,0v-.03c-.02.1.13-.41-.24.81-.5,1.69-1.05,3.35-1.58,5.03-1.11,3.33-2.27,6.65-3.54,9.93-2.51,6.56-5.34,12.99-8.47,19.27-3.11,6.29-6.56,12.41-10.29,18.34-3.74,5.93-7.7,11.72-12.01,17.24-17.11,22.18-38.56,40.89-62.64,54.87-7.55,4.32-12.02,6.33-13.88,7.14-1.83.75-1.22.3,1.13-1.08,4.71-2.68,15.98-9.18,26.37-16.91-1.75,1.26-3.08,2.17-4.21,2.9-1.15.71-2.08,1.24-3.02,1.78-.94.54-1.87,1.07-3.04,1.74-1.17.67-2.53,1.54-4.38,2.66-.09-.16.76-.83,2.48-2.14,1.75-1.28,4.36-3.17,7.82-5.69,6.88-5.11,17.16-12.85,29.39-24.77-6.14,5.92-12.63,11.48-19.44,16.64-6.99,4.9-.38-.52-.68-.9,3.4-2.55,6.68-5.25,9.1-7.31,2.39-2.1,3.95-3.53,3.88-3.62-.15-.17-.45-.51-.6-.68-3.18,2.77-7.96,6.92-13.05,10.7-5.06,3.81-10.27,7.42-13.85,9.65,1.78-1.13,3.55-2.28,5.17-3.42.82-.56,1.6-1.1,2.35-1.61.73-.53,1.42-1.04,2.06-1.51,2.56-1.85,4.2-3.19,4.13-3.29-.14-.18-.41-.54-.55-.72,6.63-5.15,14.68-11.9,22.12-19.32,7.47-7.38,14.26-15.43,19.18-22.24l-.55-.41c-5.09,6.65-11.8,14.69-19.18,22.1-7.35,7.44-15.3,14.27-21.98,19.31,3.28-2.61,4.81-4.04,5.53-4.82.72-.77.61-.9.47-1.08,4.78-4.02,9.46-8.17,13.9-12.57,4.5-4.33,8.71-8.96,12.82-13.67,8.08-9.53,15.33-19.8,21.22-30.82-4.14,7.22-8.71,14.19-13.68,20.85,4.55-6.97,12.67-19.05,19.52-33.04,3.45-6.98,6.61-14.39,9.21-21.59,1.3-3.6,2.47-7.14,3.48-10.55.43-1.4.86-3,1.27-4.44.42-1.47.83-2.93,1.23-4.36-.03-1.12.98-.38,1.62-.3.7.2,1.4.39,2.09.59,1.38.39,2.74.77,4.07,1.14Z" style="fill: #efbf04;"/>
    </g>
    <path d="m457.66,360.86c-3.77-5.23-8.2-10.38-13.18-15.23-4.98-4.85-10.62-9.28-16.63-13.14-6.02-3.84-12.46-7.03-19.03-9.41-6.56-2.4-13.26-3.93-19.7-4.75-9.53-1.22-19.45-1.24-29.35-.18-4.95.53-9.9,1.35-14.79,2.42-1.22.27-2.44.55-3.65.86l-1.81.47-1.33.36c-.62.17-1.24.35-1.86.54l-3.75,1.2-3.88,1.42c-2.59.97-5.18,1.93-7.76,2.9.95-3.57,1.89-7.13,2.84-10.69.26-.91.37-1.7.56-2.55.21-.85.28-1.65.37-2.45l.14-1.21.03-.3.03-.4v-.25s.04-1.01.04-1.01c0-2.69-.34-5.3-1.14-7.68-.79-2.38-1.97-4.6-3.54-6.44-1.57-1.85-3.5-3.41-5.74-4.73.21-.4,2.57.24.69-1.18-1.97-1.34-3.63-2.22-4.86-2.95-1.26-.69-2.1-1.22-2.65-1.62-1.09-.83-.97-1.25-.82-1.68.07-.22,1.97.39,3.51.99,1.54.58,2.73,1.13,1.62.4,1.83.76,3.91,1.74,5.77,2.91,1.87,1.16,3.5,2.48,4.68,3.58.57.57,1.06,1.06,1.42,1.43.35.38.58.64.69.71.19.16-.03-.49-1.3-2.01-.17-.29-.46-.64-.84-1.04-.38-.4-.82-.87-1.37-1.32-.27-.23-.55-.47-.84-.71-.31-.22-.63-.46-.95-.69-.64-.49-1.37-.91-2.07-1.35-2.87-1.73-6.02-2.96-7.17-3.74-1.17-.77-.42-.87.35-.96.76-.08,1.54-.15.35-.96-2.64-1-7.9-2.5-10.53-3.21-2.58-1.17,3.06-.58.36-1.32-4.05-1.33-8.97-2.33-14.28-2.72-5.32-.4-11.01-.19-16.62.53-.03-.23-.73-.36-.76-.56-.01-.1.14-.21.63-.36.52-.14,1.4-.32,2.82-.53,7.36-.74,14.87-.52,22.23.78,1.84.32,3.67.71,5.49,1.17l2.64.71,2.58.72c3.47.99,7.04,2.11,10.62,3.69,3.55,1.61,7.15,3.68,10.23,6.6,1.57,1.42,2.93,3.09,4.17,4.82,1.16,1.78,2.24,3.62,3.02,5.6.44.97.73,1.98,1.07,2.98.26,1.01.57,2.03.74,3.05.42,2.05.61,4.11.66,6.15,0,.51.03,1.02,0,1.53l-.03,1.17v.19c0,.12-.02.23-.04.33.1-.01.27-.11.39-.15l.09-.04.05-.02s-.07.01.31-.09c1.07-.29,2.14-.55,3.21-.82,4.29-1.03,8.61-1.85,12.97-2.48,8.72-1.26,17.58-1.67,26.43-1.21,17.69.9,35.4,5.87,50.86,14.87,7.76,4.44,14.86,9.93,21.31,16.07,6.39,6.21,12.07,13.14,16.79,20.64,4.76,7.48,8.62,15.47,11.6,23.73,2.97,8.27,5.11,16.78,6.3,25.49.34,2.83.38,4.46.32,5.14-.07.63-.24.43-.5-.45-.5-1.75-1.4-5.91-2.54-9.95.73,2.71.06,2.82.7,5.55-.34.05-.96-1.28-1.84-3.93-.88-2.65-2.03-6.61-3.63-11.85.75,2.63,1.41,5.29,1.99,7.97.35,2.72-.67.14-1.11.24-.57-2.66-1.26-5.28-1.48-5.22-.22.06-.66.17-.88.23.72,2.59,1.85,7.85,2.26,10.51-.43-2.65-1.02-5.28-1.24-5.23-.22.05-.67.14-.89.19-.67-2.58-1.42-5.82-2.32-9.03-.9-3.21-1.92-6.39-3-8.83l-.64.24c.86,2.51,1.93,5.64,2.9,8.8.98,3.16,1.83,6.36,2.39,8.95-.79-2.54-1.03-2.48-1.47-2.37-2.05-7.58-4.01-15.34-7.94-22.21,1.1,2.38,2.13,4.79,3.06,7.24-1.47-2.24-3.25-6.43-5.43-10.81-2.15-4.38-4.73-8.93-7.05-12.08Z" style="fill: #efbf04;"/>
    <path d="m321.44,232c11.19-12.07,22.29-26.71,31.24-42.69,4.46-7.99,8.43-16.28,11.69-24.62,1.65-4.16,3.09-8.35,4.4-12.49.32-1.04.63-2.07.94-3.1.41-1.45.82-2.9,1.22-4.34.52-1.9,1.04-3.79,1.55-5.68l.39-1.42c0-.09.08-.03.13-.02l.17.05.35.1.7.19c.93.25,1.86.51,2.78.76,2.12.58,4.25,1.17,6.38,1.75,1.25.35,2.49.7,3.75,1.05,2.5.71,5,1.45,7.51,2.23,5.01,1.54,10.04,3.19,15.04,4.97,10.02,3.55,20,7.54,29.8,11.95,19.61,8.79,38.47,19.22,55.77,30.45-.25.38-3.51-.9-.74,1.14,11.07,8.12,10.44,8.99,9.94,9.71-.24.34-8.44-5.76-5.88-3.47-8.43-5.78-23.16-14.32-14.67-8.63,1.33,1.08,4.93,3.33,8.48,5.66,3.54,2.34,7.03,4.77,8.23,6,2.42,2.47-3.57-.78-1.15,1.69,2.79,1.91,8.32,5.79,11.03,7.81,2.45,2.35-3.53-.89-.81,1.1,2.75,2.17,5.81,4.59,9.09,7.17l3.78-6.39c-7.33-3.25-15.79-6.37-24.36-9.1.07-.22-.67-.69-.61-.88.05-.19.91-.11,4.24.87,7.16,2.36,14.23,5.03,21.21,8.02l-4.98,8.42c-21.89-16.82-45.57-31.55-70.55-43.79-12.48-6.14-25.3-11.63-38.35-16.49-6.53-2.43-13.11-4.7-19.76-6.8l-4.99-1.54-2.5-.75-1.25-.37-.63-.18h-.02s-.05,0-.06,0v.06s-.34,1.16-.34,1.16l-.4,1.3-.81,2.59c-.55,1.73-1.14,3.44-1.72,5.16-1.21,3.42-2.47,6.81-3.84,10.17-2.73,6.71-5.79,13.29-9.16,19.7-3.36,6.42-7.1,12.63-11.11,18.65-4.02,6.02-8.28,11.87-12.92,17.41-18.36,22.32-41.22,40.77-66.57,53.93-6.25,3.11-7.14,3.16-5.36,1.92,1.8-1.26,6.24-3.98,10.57-6.84-2.9,1.88-3.22,1.3-6.16,3.12-.16-.3,1.16-1.49,3.97-3.51,2.79-2.04,7.09-4.86,12.73-8.72-1.44.92-2.86,1.86-4.31,2.76-1.46.88-2.91,1.79-4.38,2.66-3.07,1.52-.34-.59-.58-.98,2.92-1.74,5.81-3.54,5.67-3.75-.12-.19-.36-.58-.49-.77-2.84,1.82-8.65,5.3-11.64,6.87,2.97-1.6,5.87-3.36,5.76-3.53-.12-.2-.35-.59-.46-.78,5.71-3.55,14.33-8.81,19.55-13.08l-.41-.54c-5.47,3.88-13.68,9.69-19.49,13.04,2.76-1.92,2.63-2.13,2.4-2.51,8.42-5.37,16.96-10.74,24.25-17.63l-3.88,3.15-3.96,3.04c2.3-2.48,6.89-6.04,11.58-10.14,1.2-1,2.39-2.04,3.55-3.11,1.17-1.06,2.36-2.09,3.47-3.14,1.1-1.07,2.17-2.11,3.19-3.1.5-.5.99-.99,1.47-1.47.45-.5.89-.97,1.31-1.43Z" style="fill: #efbf04;"/>
    <path d="m399.36,317.53c13.4,2.78,27.31,10.31,37.98,21.17,5.35,5.41,9.91,11.59,13.5,18.09,3.6,6.5,6.23,13.31,7.99,19.98l.64,2.39.49,2.43c.32,1.63.69,3.26.85,4.92.15,1.23.3,2.45.46,3.68.09,1.47.17,2.94.26,4.42.16,3.01.31,6.04.47,9.07-2.11-2.42-4.22-4.86-6.33-7.29-1.08-1.24-2.15-2.47-3.23-3.64l-2.07-2.22c-2.28-2.38-4.6-4.72-7-7-4.78-4.57-9.82-8.89-15.04-12.96-10.44-8.12-21.63-15.13-33.02-20.77.1-.2,2.63.67.3-.61-4.68-2.51-7.05-3.72-8.18-4.46-1.13-.73-1.04-.94-.95-1.15.05-.11,1.88.71,3.41,1.38,1.52.69,2.73,1.27,1.57.6,7.34,3.25,19,9.85,12.1,5.73-1.11-.76-4.07-2.34-7.07-3.83-1.49-.76-3-1.49-4.28-2.11-1.27-.64-2.32-1.16-2.9-1.51-2.32-1.4,2.74.46.42-.93-2.45-1.14-7.45-3.16-9.97-4.13-2.44-1.17,2.77.33.24-.64-7.5-3.13-17.9-6.32-28.48-8.59.06-.21-2.56-1.04,2.77.04,20.44,4.68,40.28,12.65,58.41,23.64,9.06,5.5,17.72,11.71,25.81,18.61,4.05,3.44,7.96,7.05,11.73,10.81.94.94,1.88,1.88,2.79,2.85l1.38,1.44,1.22,1.32.16.15s-.01-.1-.01-.14v-.06s-.02-.02-.02-.02l-.14-1.15c-.14-1.6-.51-3.17-.79-4.75-.16-.79-.27-1.58-.47-2.36l-.61-2.33c-1.62-6.22-3.98-12.23-7.04-17.88-6.08-11.31-15.13-20.96-25.89-27.8-10.75-6.92-23.3-10.83-36.02-11.29-12.72-.5-25.57,2.15-37.22,7.17-2.38,1.02-3.66,1.66-4.21,1.87-.59.25-.37.04.27-.4,1.31-.9,4.79-2.76,8.43-4.27-2.41,1.03-2.54.72-4.91,1.86-.07-.15,1.03-.92,3.43-2.06,2.4-1.13,6.11-2.64,11.28-3.96-2.59.63-5.15,1.36-7.67,2.21-2.56.76-.11-.33-.18-.54,2.54-.86,5.13-1.55,5.1-1.67-.03-.11-.09-.33-.12-.44-2.61.67-7.73,2.37-10.21,3.43,1.25-.51,2.51-.98,3.46-1.32.95-.36,1.58-.59,1.56-.64-.04-.11-.11-.32-.14-.43,2.55-.92,5.82-1.84,9.14-2.55,3.31-.72,6.67-1.23,9.36-1.6l-.04-.34c-2.71.26-6.09.8-9.4,1.56-3.32.76-6.58,1.73-9.16,2.6,2.55-.96,2.54-1.03,2.46-1.26,7.84-2.48,16.03-3.53,24.24-4.03-2.74.08-5.49.23-8.21.56,2.68-.62,7.51-1.03,12.68-.8,2.58.08,5.24.38,7.76.7,1.25.21,2.48.39,3.64.6,1.16.23,2.26.45,3.27.65Z" style="fill: #efbf04;"/>
    <path d="m314.18,443.88c-11.77,16.05-28.38,30.54-48.06,40.53l-3.63-8.3c8.55-3.18,17.33-5.96,26.22-8.3,8.89-2.31,17.89-4.2,26.85-5.65,17.94-2.88,35.75-3.9,52.43-3.57,8.95.14,18,.8,27.07,1.89,4.54.54,9.08,1.23,13.62,2.02,2.27.39,4.54.83,6.81,1.27l3.4.7.85.19.25.05h.04s.13.02.13.02c9.3-5.77,18.65-11.58,28.02-17.4l15.02-9.22,3.76-2.3.4-.24h.01s.02-.02.02-.02l.04-.03s.02-.05,0-.08l-.03-.04h0s-.11-.18-.11-.18l-.57-.91c-12.25-19.25-27.52-36.33-44.59-50.14.28-.36,4.65,2.39.86-1.06-3.91-3.31-6.84-5.81-9.09-7.62-1.11-.92-2.03-1.71-2.79-2.38-.78-.64-1.39-1.18-1.86-1.62-1.9-1.79-1.66-2.17-1.4-2.55.06-.09.9.4,2.06,1.14,1.16.74,2.65,1.73,3.95,2.69,2.63,1.9,4.74,3.41,2.77,1.71,1.6,1.11,3.25,2.43,4.97,3.75.86.66,1.73,1.33,2.61,2.01.85.7,1.71,1.4,2.56,2.09,1.71,1.37,3.34,2.77,4.86,4.09,1.54,1.29,2.92,2.55,4.13,3.64,2.44,2.15,4.07,3.74,4.49,4,.4.29-.43-.73-3.19-3.5-1.74-1.95-6.53-6.38-11.6-10.49-2.55-2.04-5.1-4.06-7.29-5.77-2.21-1.67-4.01-3.09-4.97-3.99-1.98-1.74-.7-1.3.58-.84,1.26.49,2.53.98.59-.84-1.1-.74-2.47-1.66-3.98-2.67-.76-.5-1.55-1.03-2.35-1.56-.82-.51-1.66-1.04-2.5-1.56-3.33-2.14-6.8-4.06-9.08-5.39-2.21-1.45-.89-1.12.42-.74,1.28.41,2.55.88.25-.45-6.85-4.07-15.18-8.28-24.43-11.98-9.24-3.74-19.38-7.02-29.69-9.56.05-.22-1.16-.75-1.12-.95.04-.19,1.34-.09,6.55,1.19,4.66,1.25,9.28,2.66,13.85,4.23,4.58,1.54,9.09,3.29,13.56,5.13,8.93,3.74,17.63,8.05,26.02,12.93,8.39,4.88,16.46,10.34,24.14,16.33,7.69,5.96,14.98,12.46,21.79,19.45,6.83,6.96,13.17,14.41,19.02,22.24,2.93,3.91,5.7,7.94,8.36,12.04l.99,1.54,1.42,2.28,3.56,5.91.89,1.48.22.37c.04.06.08.12.11.18l-.18.11-.73.45-2.92,1.81-5.71,3.49c-16.9,10.39-33.82,20.8-50.74,31.21l-4.6-1.05-2.39-.52c-1.59-.35-3.19-.67-4.79-.98-3.2-.63-6.41-1.18-9.63-1.69-6.44-1-12.92-1.77-19.41-2.31-12.99-1.07-26.06-1.16-39.06-.32-26,1.71-51.72,7.3-76.06,16.41l-4.61-10.54c11.82-5.99,22.72-13.97,32.26-23.19,4.7-4.69,9.11-9.66,13.07-14.96,1.03-1.29,1.9-2.71,2.85-4.06.91-1.38,1.93-2.69,2.73-4.13,1.68-2.84,3.46-5.63,4.88-8.62.74-1.47,1.52-2.93,2.24-4.42l1.94-4.55c1.38-3,2.38-6.15,3.51-9.25,2-6.29,3.53-12.71,4.55-19.22,2.06-13.02,1.95-26.38-.09-39.38-.75-4.95-1.35-7.71-1.47-8.88-.16-1.23.12-.75.63.74.53,1.49,1.25,4.08,1.99,7.24.69,3.17,1.4,6.91,1.87,10.7-.34-2.52-.35-3.79-.41-5.06-.03-1.28-.08-2.56-.59-5.06.32-.05,1.24,2.38,2.18,7.45.91,5.06,1.77,12.81,1.18,23.15.34-5.16.44-10.33.23-15.5-.08-5.18.68-.04,1.13-.05.22,5.22.03,10.43.28,10.44.23,0,.68.02.91.03.02-1.31.05-2.96.07-4.76,0-1.81-.07-3.78-.12-5.75-.2-3.94-.52-7.87-.87-10.48.66,5.21.86,10.47,1.1,10.46.23,0,.68-.03.91-.04.34,5.29.2,11.95-.49,18.54-.3,3.3-.84,6.58-1.33,9.69-.29,1.55-.58,3.05-.85,4.5-.24,1.45-.62,2.81-.88,4.11l.66.16c.32-1.3.74-2.65,1.01-4.11.29-1.45.59-2.97.89-4.52.49-3.13,1.01-6.43,1.26-9.76.62-6.64.64-13.32.41-18.64.37,5.33.58,5.33,1.04,5.33.13,8.05-.66,16.11-2.12,24.02-1.48,7.91-3.53,15.71-6.1,23.36l1.35-3.8.67-1.9.57-1.93,1.15-3.87c.38-1.29.65-2.61.98-3.91-.67,5.36-3.22,14.55-7.57,23.72-.47,1.18-1.08,2.3-1.67,3.44l-1.78,3.41c-1.12,2.31-2.52,4.45-3.8,6.59-.65,1.06-1.27,2.12-1.91,3.14-.68.99-1.35,1.97-2.01,2.92-1.31,1.9-2.5,3.75-3.76,5.33Z" style="fill: #efbf04;"/>
    <path d="m474.4,484.99l.61-.53,1.07-.89c.76-.62,1.52-1.25,2.29-1.89.79-.67,1.53-1.21,2.3-1.79.76-.57,1.53-1.15,2.31-1.73l.15-.11.07-.05s0,.05.01.07v.37s.04.75.04.75l.05,1.49c.03.99.05,1.99.08,2.99,0,1.03.02,2.04-.03,3.1l-.06,1.58-.08,1.04c-.39,4.91-1.42,9.75-2.61,14.06-1.17,4.28-2.92,8.57-5.21,12.6-1.14,2.02-2.41,3.97-3.78,5.84-.35.46-.69.93-1.05,1.38l-.58.73-1.03,1.23c-1.41,1.63-2.84,3.14-4.29,4.72-.93-1.5-1.83-2.89-2.71-4.38l-.63-1.16-.58-1.21c-.09-.2-.2-.42-.27-.59l-.15-.36c-.1-.23-.19-.46-.28-.7.21-.07.86.67.64-.24-.49-1.81-.51-2.76-.41-3.26.1-.5.32-.54.54-.59.19-.04.69,2.58.67,1.66.19.63.45,1.36.74,2.05.27.63.68,1.5.98,2.01.63,1.09.89,1.36.29,0-.14-.51-.64-1.57-1-2.56-.38-1.01-.64-2.07-.6-2.53.12-.9.88.63.99-.26-.22-.79-.53-2.41-.61-3.23.15-.83.76.72.68-.08-.07-2.38-.05-5.57.9-8.62.11.03.28-.14.38-.11.1.03.1.27-.04,1.02-.75,2.9-.85,5.94-.29,8.88.28,1.47.71,2.92,1.29,4.32l.21.48s.02.04.03.07l.06.1c.04.06.08.13.13.16l.39-.53c.88-1.11,1.71-2.26,2.5-3.43,1.58-2.35,3-4.81,4.21-7.38,2.44-5.11,4.09-10.6,4.92-16.19.21-1.4.35-2.81.46-4.21l.05-.75h0s0,.04,0,.04c0,.03,0,.05.02.02l.02-.02h.01s0-.02,0-.02h0s-.1.08-.1.08l-.22.17c-4.64,3.66-9.27,7.31-13.87,10.95-2.76,2.06-1.03.09.78-1.78-.6.63-.81.36-1.41.99-.21-.27.78-1.78,3.39-4.02l-2.02,1.61c-.74.45-.21-.27-.35-.44.67-.54,1.34-1.08,1.27-1.16-.07-.09-.21-.27-.28-.35-.67.54-2.02,1.61-2.69,2.15.67-.54,1.34-1.07,1.27-1.16-.07-.09-.21-.27-.28-.35,1.27-1.16,3.43-2.6,4.7-3.76l-.21-.27c-1.42.99-3.36,2.69-4.7,3.76.6-.63.53-.72.39-.89,1.94-1.7,4.17-3.05,5.97-4.93l-2.01,1.61c.99-1.52,4.63-3.85,6.58-5.55Z" style="fill: #efbf04;"/>
    <path d="m545.24,483.12c3.83,5.12,6.77,11.32,8.37,18.02.87,3.33,1.25,6.8,1.51,10.29.11,3.49.08,7.02-.34,10.51-.41,3.5-1.05,6.97-2.03,10.4-.13.43-.25.85-.4,1.3l-.05.14s-.01.04-.01.07l-.05.55c-.08.89-.19,1.77-.32,2.65-.26,1.76-.6,3.5-1.04,5.22-.88,3.43-2.11,6.75-3.65,9.87-.77,1.56-1.62,3.07-2.53,4.53-.15.25-.66,1.04-1.05,1.59-.41.6-.83,1.18-1.26,1.75l-1.28,1.68-.64.84c-.21.26-.44.62-.64.79-.9-1.47-1.79-3-2.73-4.44l-.7-1.08-.35-.54-.23-.32c-.27-.36-.52-.74-.79-1.09-1.07-1.44-2.21-2.79-3.39-4.06-4.3-4.63-9.56-8.46-15.49-10.92-5.88-2.58-12.42-3.65-18.94-3.64-6.53.14-13.09,1.42-19.26,3.76-6.16,2.35-11.96,5.62-17.18,9.58l-3.65-4.23c5.47-5.32,10.32-11.14,14.47-17.27.19.12-1.12,2.61.56.38,3.24-4.54,4.73-6.91,5.61-8.02.86-1.13,1.06-1.02,1.26-.91.09.05-.89,1.92-1.8,3.43-.87,1.53-1.65,2.71-.8,1.58-2.17,3.63-5.4,8.28-7.55,11.08-1.08,1.4-1.83,2.38-1.98,2.61-.14.23.37-.27,1.74-1.9.97-1.04,3.15-3.84,5.13-6.77,2.01-2.92,3.82-5.96,4.68-7.11,1.72-2.31-.84,2.81.89.51.71-1.25,1.76-3.13,2.71-5.05.5-.95.95-1.93,1.38-2.82.43-.89.8-1.7,1.08-2.36,1.37-2.53-.54,2.91.62.28,1.86-3.91,3.7-8.63,5.23-13.82,1.54-5.19,2.75-10.85,3.54-16.56.11.02.32-.67.42-.66.09,0,.11.72-.3,3.6-1.94,11.93-5.78,23.61-11.4,34.41-5.61,10.81-12.99,20.72-21.74,29.27l-3.4-3.94c6.39-4.81,13.49-8.82,21.19-11.29,1.9-.68,3.88-1.14,5.83-1.65.99-.22,1.99-.39,2.98-.58.5-.09.99-.2,1.5-.27l1.51-.18c1.01-.1,2.01-.29,3.03-.32l3.05-.15c1.02-.03,2.04.03,3.06.04.51.02,1.02,0,1.53.05l1.53.14c2.04.13,4.06.52,6.08.88,1.99.5,4,.93,5.93,1.66,1.97.6,3.83,1.5,5.71,2.33,1.83.94,3.65,1.92,5.35,3.08,3.45,2.25,6.57,4.97,9.36,7.97,1.4,1.5,2.7,3.08,3.91,4.72.31.4.6.83.9,1.24l.24.34h0s.01.01.01.01c0,0,0-.02,0-.02l.43-.68.52-.86c.34-.58.66-1.17.98-1.76,1.25-2.38,2.29-4.87,3.1-7.43s1.39-5.2,1.73-7.86c.09-.67.16-1.33.21-2l.07-.83c.07-.31.25-.79.27-.85l.28-.94c.37-1.28.68-2.61.97-3.94,2.19-10.67,1.64-22-2.45-31.91l-.81-1.83c-.28-.61-.51-1.24-.87-1.81l-1.98-3.48-2.34-3.26c-.37-.56-.81-1.06-1.25-1.56l-1.31-1.52c-3.6-3.96-7.95-7.19-12.65-9.77-4.75-2.49-9.88-4.34-15.15-5.32-.66-.12-1.32-.24-1.97-.33l-.13-.02h0s0,0,0,0c0,0,0,0-.01,0l-3.16,2.3c-2.28,1.66-4.56,3.32-6.84,4.98-9.23,6.62-2.62,1.22,4.04-4.09-2.22,1.77-2.42,1.49-4.65,3.27-.1-.14.91-1.16,3.08-3,1.09-.92,2.46-2.04,4.14-3.36.8-.62,1.66-1.29,2.58-2.01.09-.07.18-.15.27-.2l.35.03c.25.02.43.04.79.09.65.08,1.32.2,2.01.31-.69-.12-1.38-.25-2.07-.34-.63-.06-1.13-.3-1.54.17l-3.35,2.46c-2.36,1.59-.2-.27-.34-.46,1.14-.84,2.28-1.69,3.14-2.32.2-.15.39-.3.55-.42.08-.06.16-.12.23-.18.07-.06.17,0,.23-.01.29.02.47.02.47,0,0-.11,0-.34-.01-.46-.2-.03-.42-.05-.64-.08-.05,0-.12-.03-.17,0l-.14.1c-.1.07-.19.14-.29.22-.37.27-.77.57-1.2.88-.79.58-1.65,1.21-2.5,1.84-1.72,1.26-3.44,2.52-4.58,3.36,1.14-.84,2.28-1.69,3.14-2.32.85-.64,1.41-1.08,1.37-1.13-.07-.09-.2-.27-.27-.37.57-.43,1.17-.88,1.8-1.35.71-.52,1.46-1.07,2.22-1.63.12-.07.22-.21.36-.21l.43.06.87.11c.45.07.91.14,1.37.21.88.15,1.77.33,2.65.53,3.53.77,6.95,1.96,9.65,2.99l.13-.31c-2.67-1.14-6.13-2.31-9.7-3.05-.89-.19-1.78-.36-2.67-.5-.47-.07-.94-.14-1.4-.2-.31-.04-.63-.08-.94-.12l-.47-.06c-.15,0-.26.16-.39.23-1.47,1.09-2.87,2.12-4.11,3.03,2.23-1.77,2.16-1.86,2.02-2.05l1.58-1.18c.63-.79,1.58-.36,2.42-.31l.89.13.82.14c.54.1,1.09.19,1.62.31,2.16.44,4.28,1.02,6.36,1.72,4.17,1.38,8.19,3.18,12.05,5.33-2.53-1.49-5.15-2.84-7.87-3.96,2.83.82,7.56,3.05,11.99,6.42,4.47,3.31,8.54,7.7,11.08,11.34Z" style="fill: #efbf04;"/>
    <path d="m566.64,433.32c.53-2.75,1.03-5.66,1.42-8.66.2-1.5.37-3.02.5-4.56.06-.77.12-1.54.18-2.31l.11-1.82.03-.53v-.13s.07-.06.1-.09l.2-.18.81-.7c6.56-5.73,13.11-11.45,19.09-16.68l1.76-1.53.45-.39.22-.19.11-.1s.11-.12.07-.04l-.3,1.06c-.41,1.43-.82,2.87-1.23,4.31-.83,2.88-1.67,5.87-2.75,9.11-.47,1.37-.94,2.75-1.4,4.13l-.92,2.57c-.63,1.71-1.3,3.42-1.99,5.11-2.76,6.78-5.98,13.38-9.43,19.51-.2-.11.08-1.3-.59-.33-2.6,3.89-3.02,3.63-3.41,3.41-.19-.11,1.75-3,.98-2.12,1.76-3,4.34-8.19,2.51-5.22-.73.92-2.79,5.07-3.68,5.88-.87.82,0-1.34-.88-.52-.57,1-1.76,2.96-2.37,3.94-.79.85.02-1.33-.58-.36-1.99,2.8-4.41,6.68-7.08,10.39-.19-.13-1.03.67.2-1.26,5.72-8.16,10.8-16.86,15.13-25.94,2.17-4.54,4.15-9.18,5.93-13.9l1.3-3.55.07-.21v-.04s.03-.06.03-.06v-.05s.01-.09-.03-.05c-.05.06-.07.1-.08.11,0,0,0,0,0,.01l-1.44,1.27-2.88,2.54-2.88,2.53c-.09.08-.05.04-.06.05h0s0,0,0,0h0s0-.01,0-.01l-.03.43-.07.98c-.19,2.62-.48,5.24-.87,7.83-1.57,10.39-4.78,20.49-9.44,29.77-2.25,4.18-.98.81.2-2.52-.39,1.11-.7.97-1.11,2.07-.32-.16.27-2.48,1.94-6.82-.44,1.08-.89,2.15-1.37,3.21-.58,1.01-.31-.14-.52-.23.48-1.06.92-2.12.82-2.17-.1-.04-.31-.13-.42-.18-.44,1.06-1.38,3.16-1.88,4.2.5-1.04.97-2.09.86-2.13-.1-.05-.31-.14-.41-.19.84-2.12,2.33-5.22,2.97-7.43l-.32-.11c-.85,2.11-2.02,5.33-2.96,7.4.36-1.09.25-1.13.04-1.22,1.25-3.16,2.77-6.24,3.46-9.59-.34,1.08-.7,2.15-1.08,3.22.12-1.16.72-3.04,1.34-5.06.63-2.02,1.27-4.19,1.59-5.86Z" style="fill: #efbf04;"/>
    <path d="m587.78,309.37c-1.32-3.99-2.75-8.06-4.48-12.11-.43-1.01-.86-2.03-1.29-3.06-.49-1-.97-2-1.46-3.01-.99-2.01-1.95-4.06-2.97-6.09-4.35-7.99-9.46-15.82-15.3-23.12-11.8-14.52-26.5-26.64-41.18-35.15-5.14-2.99-10.49-5.73-16.04-8.18l2.49-4.35c14.99,10.46,28.59,23.73,39.56,38.85,10.99,15.1,19.27,32.02,24.57,49.16-.19.06-1.6-3.16-.65.2,1.85,6.73,2.37,10.19,2.6,11.92.21,1.73-.06,1.79-.27,1.84-.16.04-2.46-10.08-1.84-6.67-.31-1.26-.74-2.6-1.13-3.99-.42-1.38-.79-2.82-1.27-4.2-.47-1.38-.94-2.73-1.37-4-.43-1.27-.85-2.44-1.27-3.43-1.61-4.01-2.31-5.58-.55-.71.57,1.63,1.94,5.72,3.25,9.82.58,2.07,1.17,4.14,1.66,5.91.42,1.78.72,3.26.85,4.11.49,3.42-1.48-3.17-.99.24.89,3.31,2.16,10.04,2.68,13.43.34,3.4-1.24-3.26-.67.11.66,5.07,1.36,10.99,1.68,17.37.35,6.38.32,13.2-.12,19.99-.11,0-.28.85-.38.84-.1,0-.12-.88.01-4.26,1.23-27.26-4.32-55.02-16.35-79.79-6.01-12.38-13.6-24.02-22.54-34.53-8.95-10.5-19.23-19.89-30.49-27.87l2.74-4.8c7.03,3.14,13.82,6.8,20.32,10.9,6.52,4.08,12.72,8.65,18.58,13.63,2.99,2.42,5.74,5.12,8.56,7.74,1.37,1.35,2.68,2.76,4.02,4.14l2,2.08c.65.71,1.26,1.45,1.89,2.18l3.76,4.38c1.2,1.5,2.34,3.06,3.51,4.58,2.41,3,4.42,6.29,6.57,9.48,1.11,1.57,1.98,3.29,2.96,4.95l2.86,5.01,2.51,5.19,1.25,2.6c.42.86.84,1.73,1.19,2.62,3.03,7.06,5.48,14.35,7.36,21.78,1.88,7.43,3.19,14.98,3.89,22.59.37,3.8.58,7.61.65,11.42.05,1.9.03,3.81.01,5.71l-.07,2.85-.18,4.09c-2.51,2-5.02,4-7.52,5.99l-3.27,2.6-3.34,2.5c-5.58,4.13-6.36,4.51-4.73,3.08.82-.72,2.23-1.9,3.95-3.3,1.72-1.4,3.75-3.02,5.71-4.74-2.62,2.26-2.85,1.97-5.55,4.14-.09-.13.91-1.1,3-2.93,1.03-.94,2.33-2.09,3.91-3.45.8-.68,1.66-1.41,2.58-2.2,1.02-.85,2.1-1.75,3.26-2.71.05-1.74.11-2.92.12-4.4-.02,1.4-.09,2.54-.17,4.38l-5.16,4.13c-2.77,2.07-.21-.27-.35-.44,2.02-1.62,4.01-3.21,4.92-3.99,0-.4-.01-.63-.04-.64-.11-.03-.34-.1-.45-.13l-.02.51-10.14,8.1c1.36-1.06,2.69-2.14,3.69-2.96,1-.82,1.65-1.38,1.62-1.42-.07-.09-.21-.27-.28-.35.73-.59,1.5-1.23,2.32-1.89.71-.57,1.45-1.16,2.21-1.77.03-.59.06-1.2.09-1.81.04-.76.05-1.54.08-2.31.06-1.55.05-3.11.07-4.64-.03-3.06-.12-6-.34-8.48l-.34.02c.13,2.48.22,5.41.27,8.46-.01,1.53.02,3.08-.03,4.63-.02.77-.02,1.54-.06,2.31-.02.56-.04,1.12-.06,1.66-1.59,1.28-3.1,2.5-4.42,3.56,2.61-2.23,2.54-2.32,2.4-2.5l1.58-1.29.1-2.67c.03-1.16.08-2.32.08-3.48.03-2.32.01-4.64-.08-6.95-.17-4.63-.56-9.27-1.35-13.83.43,3.37.81,6.75,1,10.14-.48-3.37-1.04-9.29-2.12-15.56-1.04-6.27-2.62-12.89-4.18-17.74Z" style="fill: #efbf04;"/>
    <path d="m555.28,350.51c.48-4.98.62-10.15.35-15.41-.31-5.26-.99-10.62-2.02-15.99-1.01-5.38-2.52-10.75-4.26-16.07-1.74-5.33-3.89-10.57-6.3-15.71-4.79-10.28-10.83-20.01-17.52-28.91-6.76-8.85-14.13-16.94-21.81-23.88-4.66-4.27-9.62-8.3-14.7-12.24l7.19-6.78c13.42,18.84,23.94,40.65,30.03,63.63l1.1,4.32c.36,1.44.62,2.9.93,4.35.59,2.91,1.18,5.81,1.77,8.71.79,5.86,1.8,11.69,2.11,17.55.6,5.84.57,11.69.68,17.48-.09,2.9-.19,5.78-.28,8.65-.02,1.44-.15,2.87-.28,4.29-.12,1.43-.24,2.85-.36,4.27-.45-.05-.77-4.42-1.36-.13-.14,1.07-.27,2.08-.39,3.02-.13.94-.32,1.81-.46,2.62-.31,1.63-.59,3.02-.85,4.21-.26,1.19-.49,2.17-.7,2.99-.22.82-.46,1.46-.66,1.97-.8,2.04-1.25,1.96-1.69,1.88-.11-.02-.03-.82.15-1.94.09-.56.2-1.2.31-1.87.09-.67.18-1.36.27-2.02.35-2.64.63-4.76.13-2.68.21-1.58.43-3.3.66-5.07.14-1.78.28-3.6.42-5.4.13-1.79.29-3.55.36-5.2.03-1.65.05-3.18.07-4.51.06-5.33-.04-7.45-.48-1.08-.15,1.06-.27,2.91-.37,5.17-.14,2.25-.43,4.89-.65,7.53-.13,1.32-.21,2.64-.39,3.91-.19,1.26-.37,2.47-.54,3.59-.36,2.23-.7,4.05-1.01,5.07-.68,2.04-.83.94-1.01-.15-.2-1.1-.4-2.19-1.01-.16-.33,2.07-.92,5.17-1.46,8.26-.59,3.09-1.35,6.15-1.78,8.2-1.35,3.97-.42-4.39-1.33-.31-3.24,12.07-8.23,28.03-15.4,43.07-.21-.1-.87.76-1.05.68-.18-.09.13-1.12,1.77-4.92,6.89-15.42,12.04-31.69,15.14-48.37l1.1-6.27c.31-2.1.55-4.21.83-6.31l.41-3.16c.12-1.05.18-2.11.27-3.17l.51-6.34c.13-2.12.14-4.24.22-6.36.03-2.12.2-4.24.09-6.36-.15-4.24-.08-8.49-.54-12.72l-.52-6.35c-.22-2.11-.58-4.21-.86-6.31-.32-2.1-.56-4.21-.94-6.3l-1.29-6.24c-.81-4.17-1.82-8.3-3.01-12.38-1.13-4.1-2.49-8.13-3.9-12.14-5.78-16-13.72-31.23-23.46-45.22l-21-30.17,29,22.62c16.23,12.66,30.79,27.6,42.63,44.59,5.87,8.52,11.08,17.54,15.39,27.01,4.23,9.5,7.69,19.4,9.79,29.67,1.11,5.12,1.83,10.33,2.25,15.57.46,5.24.43,10.54.1,15.81-.3,5.28-1.16,10.54-2.36,15.72-.33,1.29-.59,2.59-.99,3.87l-1.17,3.82c-.9,2.51-1.77,5.03-2.9,7.46-4.24,9.84-10.53,18.68-17.89,26.18-3.69,3.75-7.67,7.18-11.81,10.35-2.12,1.52-4.2,3.09-6.4,4.46-1.09.7-2.16,1.44-3.28,2.09l-3.35,1.96c-.95.56-1.82,1.02-2.61,1.4-.78.38-1.46.72-2.04,1.01-1.17.56-1.98.92-2.46,1.11-.94.32-.68.04.47-.76,1.13-.81,3.13-2.01,5.48-3.55,1.17-.79,2.43-1.64,3.74-2.53,1.31-.89,2.61-1.91,3.94-2.86-1.76,1.29-2.74,1.81-3.72,2.29-1,.46-1.99.91-3.82,2.12-.08-.15.29-.6,1.11-1.32.82-.74,2.14-1.7,3.82-3.08.85-.68,1.81-1.42,2.89-2.24,1.05-.86,2.2-1.79,3.45-2.81,1.27-1,2.55-2.2,3.99-3.4,1.41-1.25,2.89-2.62,4.45-4.09-3.16,2.91-6.44,5.7-9.94,8.19-3.6,2.34-.39-.56-.67-.92,1.74-1.22,3.39-2.57,4.61-3.59,1.24-1,1.98-1.76,1.91-1.85-.15-.17-.44-.52-.59-.69-.77.72-1.82,1.51-2.94,2.42-.56.45-1.15.92-1.76,1.4-.62.45-1.26.92-1.9,1.38-1.27.93-2.54,1.86-3.77,2.63-1.21.79-2.31,1.51-3.19,2.08,1.76-1.14,3.52-2.3,4.82-3.19,1.26-.95,2.07-1.61,2.01-1.71-.13-.18-.4-.55-.54-.73,3.32-2.51,7.37-5.77,11.1-9.37,3.75-3.58,7.16-7.52,9.5-10.94l-.55-.4c-2.5,3.25-5.82,7.18-9.48,10.79-3.64,3.63-7.6,6.96-10.97,9.36.8-.65,1.4-1.16,1.83-1.55.42-.41.68-.7.83-.92.31-.43.21-.57.07-.75,4.74-3.89,9.26-8.04,13.26-12.66,1.03-1.13,1.93-2.36,2.9-3.54.89-1.24,1.82-2.44,2.63-3.73,1.68-2.53,3.15-5.2,4.36-7.97-1.83,3.58-3.96,7.02-6.34,10.29,1.02-1.8,2.37-4.19,3.94-6.96.76-1.4,1.56-2.9,2.33-4.5.78-1.59,1.47-3.31,2.25-5.01,2.85-6.95,4.79-14.85,5.35-20.89Z" style="fill: #efbf04;"/>
    <path d="m131.55,585.11c14.48-2.8,29.54-6.84,45.15-11.14,3.92-1.06,7.86-2.12,11.83-3.19,4-1.02,8.01-2.06,12.08-3.01,2.04-.46,4.09-.91,6.14-1.37l3.08-.68,3.11-.57,6.23-1.15c2.08-.37,4.2-.6,6.3-.91,2.11-.27,4.2-.62,6.32-.81l6.36-.52c4.23-.46,8.49-.38,12.72-.52,1.06-.01,2.12-.07,3.17-.05l3.17.12c2.11.08,4.21.16,6.31.25,2.1.03,4.18.28,6.26.49,2.08.21,4.15.42,6.22.63,4.14.37,8.21,1.08,12.24,1.76,4.03.7,8.01,1.53,11.93,2.44,7.84,1.83,15.44,4.02,22.73,6.53,2.3.79,4.6,1.62,6.94,2.5l18.7,7.07-20.05,2.15c-17.44,1.87-35.2,3.78-53.13,5.7-17.91,1.9-35.77,4.51-53.55,7.86-17.78,3.32-35.34,7.52-52.97,11.64-8.81,2.06-17.71,3.96-26.65,5.51-8.94,1.59-18.01,2.51-26.98,3.02,0-.41,6.1-1.47-.07-1.36-3.08,0-5.77,0-8.13,0-2.35-.13-4.37-.25-6.09-.38-1.72-.13-3.16-.24-4.35-.38-1.19-.16-2.14-.31-2.9-.45-3.03-.6-2.99-1.07-2.96-1.52.02-.23,4.56.11,8.35.15,3.8.06,6.83.11,3.8-.17,1.14.02,2.32.03,3.54.05,1.22.01,2.47-.07,3.74-.1,1.27-.04,2.55-.09,3.84-.14,1.29-.05,2.58-.07,3.86-.21,2.55-.22,5.06-.43,7.4-.63,2.33-.28,4.49-.58,6.37-.83.94-.13,1.81-.25,2.59-.36.78-.12,1.47-.26,2.07-.37,1.19-.23,1.97-.39,2.25-.48.54-.2-.96.02-5.47.52-1.52.07-4.15.33-7.34.69-1.6.12-3.34.25-5.16.38-1.81.11-3.69.34-5.58.35-1.89.05-3.77.1-5.59.15-.91.02-1.8.05-2.66.05-.86-.03-1.7-.05-2.5-.08-3.21-.11-5.84-.24-7.34-.45-3-.48-1.48-.75.04-1.02,1.52-.3,3.02-.62.05-1.02-2.99-.13-7.47-.37-11.94-.79-4.47-.42-8.92-.96-11.88-1.4-5.82-1.31,6.09-.49.19-1.35-4.4-.71-9.14-1.65-14.14-2.68-4.99-1.09-10.23-2.32-15.61-3.79-10.76-2.92-22.05-6.75-33.05-11.29.09-.21-1.22-1-1.15-1.18.04-.09.42-.03,1.49.32,1.06.34,2.81.96,5.59,2.01,12.05,4.68,24.43,8.54,37.04,11.42,12.61,2.86,25.45,4.76,38.37,5.54,1.61.12,3.23.17,4.85.24,1.62.06,3.23.05,4.84.08l4.84.06c1.61,0,3.23-.1,4.84-.14l4.84-.17,4.83-.39c1.61-.15,3.22-.23,4.83-.42l4.82-.6c12.85-1.65,25.65-4.5,38.55-7.55,12.9-3.04,25.91-6.18,39.05-8.86,13.14-2.67,26.36-5.05,39.66-6.94,3.32-.53,6.65-.9,9.98-1.34,3.33-.41,6.66-.89,9.99-1.24l19.95-2.01c13.3-1.34,26.61-2.67,39.91-4.01l-1.58,10.8c-12.2-4.77-24.83-8.38-37.67-10.81-3.21-.59-6.44-1.14-9.67-1.57-3.24-.44-6.49-.68-9.73-1.03l-2.43-.25c-.81-.09-1.62-.17-2.44-.18l-4.88-.18-4.88-.18c-1.63-.05-3.25.06-4.88.08-13.01.19-25.96,1.89-38.81,4.62-12.86,2.7-25.65,6.35-38.63,9.85-12.97,3.52-26.15,6.81-39.55,9.18-13.39,2.37-26.96,3.98-40.55,4.48-27.2.99-54.38-1.98-80.57-8.23-11.91-3-13.24-3.76-9.48-3.11,3.79.63,12.77,2.53,21.82,3.91-6.02-1.01-5.89-1.62-11.88-2.79.04-.17.83-.19,2.35-.05.76.07,1.71.19,2.85.33,1.14.13,2.46.29,3.97.5,6.03.82,15.03,2.21,27.1,3.46-3.02-.31-6.01-.77-9.02-1.15-2.99-.47-5.99-.9-8.98-1.44-5.92-1.3.12-.67.2-1.12,2.97.54,5.97.96,8.2,1.3,2.25.29,3.75.42,3.76.31.03-.22.09-.67.12-.9-2.98-.38-7.44-1.07-11.89-1.83-2.22-.41-4.44-.78-6.47-1.19-2.03-.42-3.87-.79-5.34-1.1,2.95.59,5.88,1.25,8.11,1.59,2.22.37,3.71.59,3.73.48.04-.22.12-.67.16-.9,5.93.9,13.32,2.11,20.77,2.9,7.44.83,14.93,1.34,20.92,1.41l.02-.68c-5.97-.3-13.43-.75-20.86-1.49-7.44-.71-14.84-1.8-20.73-2.81,5.94.78,5.98.5,6.05.07,17.68,2.51,35.58,4.38,53.43,3.08-5.94.2-11.9.22-17.84.02,5.96-.38,16.35-.33,27.46-1.08,2.78-.2,5.59-.49,8.4-.72,2.81-.25,5.61-.45,8.32-.87,2.71-.37,5.36-.74,7.88-1.08,2.52-.36,4.89-.88,7.08-1.29Z" style="fill: #efbf04;"/>
    <path d="m335.17,605.94c14.85-4.24,30.24-9.78,46.3-15.31,16.04-5.52,32.9-10.82,50.29-14.16,4.34-.82,8.73-1.45,13.09-2.18,4.38-.57,8.78-.97,13.16-1.46,8.78-.59,17.52-1.11,26.17-.96,17.29.21,34.11,2.02,49.88,4.96,3.02.57,6.04,1.17,9.11,1.85l22.91,5.07-23.2,4.34c-17.93,3.36-36.19,6.78-54.61,10.22-18.35,3.57-36.75,7.55-55.03,12.06-9.14,2.23-18.25,4.63-27.33,7.06-9.1,2.48-18.18,4.94-27.22,7.4-18.12,4.88-36.53,9.29-54.93,11.52-.05-.45,6.21-1.94-.17-1.35-12.74,1.22-19.14,1.14-22.34.9-3.2-.23-3.22-.72-3.24-1.17-.01-.22,4.74-.45,8.68-.75,3.95-.3,7.1-.65,3.93-.56,9.48-.68,22.02-2.63,29.78-4.2,3.87-.81,6.58-1.38,7.14-1.61.28-.11.03-.09-.88.05-.91.12-2.47.37-4.81.76-1.57.18-4.29.69-7.62,1.15-1.66.26-3.46.54-5.34.83-1.88.28-3.84.49-5.8.75-1.96.23-3.91.52-5.81.68-1.89.16-3.71.3-5.38.44-3.34.28-6.1.37-7.69.3-3.17-.15-1.62-.58-.07-1.02,1.55-.45,3.08-.9-.06-1.02-3.13.2-7.83.47-12.53.59-4.7.15-9.41.16-12.54.14-3.13-.27-1.55-.58.01-.85,1.56-.28,3.12-.51,0-.51-9.36-.29-20.28-.84-31.94-1.95-11.65-1.14-24.04-2.86-36.3-5.23.04-.22-1.47-.75-1.43-.94.04-.19,1.62-.05,7.76.95,26.62,4.66,53.81,6.62,80.91,5.22,13.56-.69,27.03-2.21,40.38-4.72,13.35-2.48,26.59-5.89,39.9-9.51,26.59-7.33,53.53-14.73,80.81-20.47l10.23-2.17,10.25-2.03,5.13-1.02,5.13-.93,10.26-1.85c13.68-2.47,27.36-4.94,41.04-7.41l-.34,10.97c-26.93-6.18-54.87-8.31-82.32-5.81l-10.27,1.12c-3.41.45-6.8,1.09-10.2,1.62-3.41.48-6.76,1.33-10.13,2.02l-5.05,1.1-5.01,1.31c-13.38,3.46-26.56,7.92-39.84,12.52-13.27,4.61-26.73,9.23-40.5,12.96-1.72.46-3.42,1-5.16,1.4l-5.21,1.25-5.21,1.25c-1.73.45-3.5.71-5.25,1.08-3.51.66-7.01,1.41-10.53,1.99l-10.6,1.54c-28.3,3.79-57.01,3.24-85-.65-6.34-.92-9.87-1.67-11.33-2.02-1.43-.38-.84-.42,1.16-.27,4,.34,13.53,1.39,23.08,1.98-6.36-.44-6.28-1.12-12.64-1.72.05-.34,3.26-.33,9.62-.03,6.36.27,15.86.85,28.54,1-6.34-.14-12.66-.44-18.99-.95-6.29-.78.06-.67.09-1.13,1.58.11,3.15.23,4.63.33,1.48.08,2.86.15,4.04.21,2.36.11,3.94.09,3.95-.02,0-.23.03-.68.04-.91-3.14-.1-7.85-.39-12.56-.75-4.7-.38-9.4-.87-12.52-1.24,3.12.35,6.25.7,8.6.87,2.35.18,3.92.27,3.93.14.02-.23.05-.68.07-.91,6.26.4,14.08.86,21.92.99,7.83.16,15.68-.05,21.93-.55l-.04-.68c-6.25.27-14.06.54-21.88.46-7.82-.05-15.63-.39-21.87-.9,6.27.24,6.28-.03,6.3-.48,9.34.45,18.7.72,28.05.49,4.67-.13,9.35-.31,14-.78,4.65-.5,9.3-.97,13.92-1.67-3.09.39-6.19.62-9.29.94-3.1.28-6.19.65-9.3.81,3.1-.43,7.33-1.09,12.25-1.61,4.94-.43,10.49-1.36,16.26-2.16,2.89-.35,5.79-.96,8.69-1.5,2.89-.57,5.8-1.03,8.59-1.67,5.58-1.34,10.9-2.48,15.37-3.89Z" style="fill: #efbf04;"/>
  </g>
</svg>