<?xml version="1.0" encoding="UTF-8"?>
<svg id="Layer_2" data-name="Layer 2" xmlns="http://www.w3.org/2000/svg" viewBox="0 0 206.69 207.73">
  <g id="Icon">
    <path d="m168.75,157.2c.27.31,1.69-.8.11,1.45-1.41,1.64-2.73,3.23-4.25,4.56-.74.68-1.47,1.35-2.22,1.99-.77.61-1.54,1.21-2.31,1.82-.75.62-1.56,1.18-2.36,1.75-.8.58-1.6,1.16-2.41,1.74-1.68,1.1-3.31,2.36-5.11,3.57-.06.29-.11.59-.17.89-5.84,3.42-12.33,6.26-19.18,8.33-12.37,4.46-25.64,6.43-38.61,5.41.31.28.46.51-.85.45-5.43-.35-12.84-2-20.07-4.71-1.07-.39-2.15-.78-3.2-1.17-.87-.2-1.18-.07-1.36,0-1.58-.78-3.1-1.45-4.48-2.21-1.37-.8-2.7-1.49-3.92-2.28-16.74-9.11-30.3-24.75-37.18-43.94-3.47-9.56-5.4-19.93-5.49-30.56-.07-10.62,1.65-21.51,5.37-31.99.38-1.11.7-2.25,1.14-3.35l1.27-3.3c.95-2.16,1.87-4.34,2.98-6.41,1.03-2.12,2.27-4.11,3.46-6.12,1.29-1.94,2.56-3.89,3.99-5.69,4.21-5.34,9.78-10.86,16.07-15.33,6.25-4.53,13.06-8.14,19.18-10.69-.7-.34.63-1.41,2.97-2.84,1.16-.74,2.63-1.4,4.18-2.18,1.56-.77,3.29-1.42,4.97-2.15,6.76-2.74,13.48-4.28,9.92-5.01,4.63-.74,10.5-1.11,15.28-1.17,1.2-.01,2.33-.02,3.35-.03,1.03.03,1.95.04,2.74.04.79,0,1.44-.02,1.92-.05.48-.01.78-.05.88-.13,1.17-.84,3.65-1.77,9.12-1.84,5.42.05,14.04.79,26.38,5.84,4.79,2.04,10.47,5.51,15.05,8.99.58.43,1.15.84,1.69,1.27.53.44,1.05.86,1.55,1.28,1,.83,1.96,1.57,2.77,2.3,1.62,1.45,2.89,2.56,3.65,3.1,1.07.79,1.1.59.62-.09-.49-.69-1.7-1.97-2.84-3.23-1.14-1.29-2.41-2.44-3.02-3.15-.62-.7-.62-.91.64-.12-7.65-6.27-16.29-11.18-25.33-14.86-9.09-3.56-18.6-5.91-28.22-6.83-19.22-1.92-38.77,1.34-56.25,9.41-8.77,3.96-16.94,9.27-24.34,15.48l-2.7,2.42-1.35,1.22-1.29,1.28-2.57,2.57-2.44,2.7c-1.66,1.77-3.11,3.72-4.65,5.59l-2.14,2.94-1.07,1.48-.99,1.52c-2.73,4.02-5.03,8.31-7.18,12.67-2.09,4.39-3.85,8.93-5.37,13.55-1.43,4.65-2.66,9.37-3.49,14.18C.78,92.35.16,97.21,0,102.11c0,3.33-.04,9.08.89,16.58.52,3.74,1.16,7.93,2.3,12.41.5,2.26,1.21,4.56,1.92,6.96.8,2.37,1.58,4.83,2.62,7.3,3.88,9.93,9.97,20.46,18.46,29.94,4.23,4.74,9.07,9.17,14.38,13.16,5.34,3.95,11.19,7.41,17.36,10.22,12.34,5.66,25.93,8.62,39.08,9,13.18.4,25.86-1.76,37.04-5.31,5.59-1.79,10.79-3.99,15.58-6.33,4.8-2.33,9.07-5,12.97-7.55,7.69-5.27,13.46-10.64,17.43-14.8.93-1.05,1.86-2.08,2.79-3.12,4.11-4.76,8-10.21,11.3-16.09,3.3-5.88,5.98-12.21,7.98-18.59,4.05-12.78,5.14-25.77,4.37-36.23-.77-9.6-3.05-19.17-6.5-28.15.93,4.39,1.57,8.46,1.81,12.02-1.6-9.54-5.15-18.64-7.07-21.83-.29-.57-.56-1.12-.82-1.64-.28-.51-.56-.99-.81-1.44-.52-.9-.97-1.71-1.4-2.4-.9-1.37-1.59-2.35-2.11-3.01-1.06-1.31-1.45-1.33-1.36-.62.1.7.52,2.21,1.11,3.98.31.87.56,1.86.85,2.83.26.99.58,1.95.76,2.91.78,2.64.18,2.37-.26,2.45-.46.09-.65.5.49,4.53-1.02-2.82-1.94-4.89-2.85-6.95-.49-1.02-.98-2.03-1.52-3.14-.56-1.09-1.21-2.24-1.92-3.57-.46-.13,1.93,3.83,3.68,7.64.86,1.91,1.66,3.73,1.99,4.89.37,1.15.38,1.58-.24.71-1.8-5.48-5.03-11.12-8.2-16.14.07.56.8,1.93,1.73,3.71.46.89.97,1.89,1.5,2.93.5,1.05,1.02,2.15,1.52,3.23,1.96,4.34,3.33,8.52,2.78,8.22-.33-.72-.8-2.08-1.34-3.71-.63-1.6-1.25-3.52-2.07-5.29-1.51-3.6-3.35-6.77-4.12-6.96-.27-.1,2.69,4.98,3.86,7.68-4.04-8.12-8.65-13.47-10.6-15.29-2.09-1.74-1.21-.28,2.81,6.65-1.53-2.31-3.35-5.14-5.49-7.78-1.02-1.36-2.18-2.62-3.27-3.86-1.11-1.22-2.29-2.31-3.35-3.33,0,0,.01.03.02.04,2.1,2.06,5.45,5.86,7.08,8.02l-1.58-1.93c-.54-.63-1.12-1.24-1.67-1.86-1.09-1.26-2.31-2.41-3.48-3.59.27.48.58,1,.92,1.55.85.9,1.64,1.85,2.45,2.81.41.47.82.95,1.23,1.43.4.49.8.99,1.2,1.49-1.36-1.72-2.86-3.32-4.37-4.92.47.69.91,1.49,1.42,2.28.5.8,1.06,1.62,1.58,2.52,2.28,3.13,4.06,6.5,5.58,9.43,1.46,2.98,2.6,5.59,3.5,7.43,3.65,7.45,6.06,15.5,7.43,23.71,1.26,8.23,1.51,16.66.48,24.93-.5,4.13-1.27,8.23-2.31,12.25-1.06,4.01-2.41,7.93-4.01,11.74-3.17,7.63-7.53,14.64-12.78,20.91Z" style="fill: #f1c724;"/>
    <g>
      <path d="m111.6,53.67c-.04.1-.1.2-.14.3-.07-.2-.07-.49-.01-.82-1.17,3.18-.7,7.44.25,10.2-.07.98.2,1.87.63,1.98.42.11.83-.6.9-1.6.06-.22.1-.47.18-.63.71-1.39,1.23-3.11,1.64-5-.14.36-.28.74-.42,1.11.12-.55.25-1.09.28-1.7-.08.06-.16.14-.24.2.64-1.88.53-4.49-.23-5.83-.76-1.35-1.9-.93-2.53.95l-.3.83Z" style="fill: #f1c724;"/>
      <path d="m108.99,57.12c.32-1.13.66-2.21,1.01-3.29l.15-.21-.66.05.04.02c.51,1.04.67,2.74.77,4.3l.07.56c.07.27.2.45.33.51.31.14.62-.33.7-1.05l.09-.83c.45-2.02.59-5.22-.48-6.4-.25-.27-.58-.05-.88,0-.43-.09-.84.66-.91,1.67-.07,1.02.22,1.9.66,1.99-.04.17-.07.35-.11.52-.05-.14-.09-.28-.14-.41.37.3.42,1.23.59,1.93l.07,1.04,1.04-.55-.11-.54s-.11.12-.12.11c-.24-1.03-.48-2.01-.61-3.14l-.32-1.42c-.18-.39-.47-.36-.66.05l-.24.62c.05-.09.09-.19.14-.28-.28,1.43-.48,2.95-.77,4.37-.06.22-.02.5.07.62.1.1.22.01.27-.22Z" style="fill: #f1c724;"/>
      <g>
        <path d="m109.05,52.02c.09-.23.18-.45.17-.79-.04-.08-.06-.12-.08-.15-.05.12-.12.29-.19.45-.14.32-.05.5.1.48Z" style="fill: #f1c724;"/>
        <path d="m109.14,51.09c.05-.11.08-.19.08-.19-.04.04-.07.08-.1.12,0,.04,0,.04,0,.04,0,0,0,0,.01.03Z" style="fill: #f1c724;"/>
        <path d="m108.63,114.18c-.38,4.46-.7,8.93-.97,13.41,0,.15.03.28.1.29.05,0,.12-.1.12-.24.28-4.48.6-8.93.98-13.39,0-.15-.03-.28-.09-.3-.06,0-.12.09-.13.23Z" style="fill: #f1c724;"/>
        <path d="m101.12,147.39c-.04-.11-.11-.11-.16,0-.04.09-.05.26-.01.37.04.09.12.09.16,0,.05-.11.05-.28.01-.37Z" style="fill: #f1c724;"/>
        <path d="m96.23,146.24c-.07-.63-.15-1.23-.3-1.76-.02-.1-.01-.21.02-.29-.1.03-.19-.09-.22-.32-.67-4.48-.83-9.28-1.1-14.01-.08-.03-.16-.1-.23-.21-.24-.34-.35-1-.28-1.67l.08-.51c.23-2.06.42-4.12.65-6.18-.1-.43-.16-.92-.16-1.45-.25-1.79-.48-3.59-.64-5.42-.07.11-.16.18-.25.17-.22-.04-.36-.47-.34-.97,0-.25,0-.5.01-.75-.08.71-.16,1.42-.25,2.13,0,.1-.03.2-.05.28-.04.78-.06,1.57-.07,2.38-.07,7.03.51,13.66,1.21,20.24.03.11.02.28-.04.37-.05.06-.13.05-.15-.07-.94-4.17-2.24-7.79-2.78-12.49-.65-5.59-1.16-11.1-1.5-16.81.23-5.95-.09-11.48-.25-17.57-.22-8.22-.02-15.97.23-24-.06-3.01.95-5.73,2.25-6.07.79-.2,1.5.51,1.95,1.77.01-.25.03-.49.04-.73l.2-1.16c.2-1.09.55-2.02,1.01-2.6l.57-.79c1.07-1.04,1.99-2.76,3.1-3.61l.4.21.13-.2c.32-.68.73-1.13,1.15-1.28l.49.08c.55.17,1.07.53,1.54,1.11.21-.01.41.06.6.21.52-.45,1.05-.66,1.62-.26.16-.28.37-.22.48.12.04.12.06.26.06.4,0,0,0,0,0,0,.13-.15.17-.2.32-.4.05-.28.09-.44.09-.44q.12-.75.22-1.4c.19-.56.45-.89.45-.89q.9-.59,1.27-.48s.07.08.1.12c.14-.49.16-.53.2-.66.07-.14.15-.23.15-.23q.2-.01.28-.1c.08-.02.15-.02.15-.02q.21.29.28.3c.06.07.1.16.1.16.06.33.08.46.09.51-.55.68-.55.68-.55.68l.18.16-.25.15.22-.08-.15.35.21-.4q-.11.83-.12,1.17c-.04.35,0,.65,0,.68.07-.03.12-.03.12-.03q-.12.89-.25,1.76c-.05.08-.1.14-.15.2.06.09.09.25.06.43-.02.15-.04.3-.06.46,0,.03.02.07.03.1.01,0,.02,0,.02,0,.04.16.06.27.09.39.02.08.02.08.02.08,0,0,0,0,0,0,.06.27.15.66.39,1.69-.04.27-.08.52-.13.76.04-.08.07-.15.11-.22.08-.14.27,0,.29-.08.49-1.89.73-3.96,1.03-6,0-.37.12-.71.28-.76.16-.04.3.23.3.6.89,4.19.55,9.28-.44,13.52-.14,1.12-.27,2.24-.4,3.37.03-.05.07-.11.1-.16-.06.29-.12.58-.18.87,0,.03,0,.06-.01.09.13-.22.25-.44.38-.65.04-.15.08-.3.12-.46.25-2.62.89-4.98,1.34-7.51.24-1.36.63-2.51.93-3.79.03-.33.17-.56.31-.51.14.04.22.36.2.68.08,4.31-.33,9.21-1.67,12.61-.04.79-.16,1.54-.41,2.16,0,.01,0,.02,0,.04.1-.16.21-.31.31-.47-.1.58-.35.89-.48,1.42.14-.06.27-.13.41-.18-.36,2.89-.37,6.02-1.05,8.68-.01.11-.03.21-.05.31.24,1.17.47,2.34.45,3.72.06-.46.12-.91.18-1.38.14,1,.22,1.99.16,3.06-.15,2.88-.89,6.08-2.01,7.56-.08,5.59-.19,11.19-.15,16.77,0,.29-.09.54-.21.59-.12.03-.23-.17-.23-.46-.27-4.01-.33-8.08-.37-12.14-.34,3.39-.66,6.79-.84,10.27,0,.44,0,.89,0,1.34,0,.44-.05.88-.11,1.31-.17,4.45-.4,8.66-.27,13.21.11,3.88.26,7.28.49,11.15.32,5.44.67,10.39.47,15.74.01.71-.24,1.36-.55,1.44-.31.07-.57-.45-.58-1.17-.53-11.2-1.26-22.2-.67-33.86.06-1.26.13-2.5.2-3.73-.04.01-.08.03-.13.03-.17,0-.32-.13-.44-.33-.09,1.4-.21,2.8-.36,4.22.2,3.95.4,7.9.07,12.09-.24,2.87-.7,5.47-1.13,8.12.06,3.38.18,6.76.21,10.17.02.14-.02.28-.08.32-.06.05-.12-.03-.13-.17-.29-2.36-.49-4.77-.65-7.2-.21.38-.46.59-.73.55-.28-.04-.52-.35-.68-.81-.03.55-.05,1.1-.08,1.65-.02.34-.14.6-.28.59-.15-.01-.25-.29-.23-.61.1-2.24.21-4.48.32-6.72-.05-2.69-.08-5.37-.1-8.07-.2.37-.44.63-.7.75,0,0,0,0,0,0-.01.42-.02.83-.03,1.25.5,7.63.64,15.43.19,23.27,0,.15-.06.28-.13.28-.07,0-.11-.12-.1-.26.14-2.37.22-4.73.26-7.09,0,0,0,0,0,0-.04.09-.12.11-.16,0-.04-.09-.03-.28,0-.37.05-.11.12-.09.16,0,.06-4.39-.05-8.76-.28-13.07-.09,4-.2,7.99-.47,11.98.06.44.13.87.19,1.32.01.12-.03.28-.09.32-.05.03-.12-.06-.13-.18-.01-.12-.03-.25-.05-.37-.05.75-.35,1.33-.68,1.3-.34-.05-.58-.71-.54-1.5.01-2.1.06-4.2.12-6.29-.01-.23-.02-.45-.03-.68-.04-.23-.09-.46-.13-.69-.26,3.25-.54,6.49-.84,9.72,0,.28-.11.51-.23.51-.12,0-.21-.23-.2-.5-.26-5.71-.37-11.48-.37-17.28-.44-1.92-.89-3.84-1.33-5.8-.02.24-.03.49-.04.74-.24,6.29,1.03,11.68,1.1,17.79,0,.15-.05.28-.11.3-.06.01-.12-.09-.11-.25-.09-2.98-.49-5.71-.73-8.67-.2-2.45-.38-4.79-.68-7.07-.04,4.65.43,9.12.54,13.73.02.2-.02.4-.08.53.03.01.06.05.08.12.14.58.24,1.21.31,1.86.02.12,0,.28-.08.34-.05.06-.11-.02-.14-.15Zm10.09-80.5s.05-.08.08-.11c-.04.12-.09.26-.14.4l-.51.55s.28-.42.57-.84Zm-1.51-7.18s0,0,0,0c.17-.18.28-.32.28-.32-.12.13-.21.23-.28.31Zm2.51,45.56c.1-2.44.31-4.85.7-7.25,0,.59,0,1.18.01,1.77-.21,1.82-.45,3.65-.72,5.48Zm1.02-43.08c-.28.63-.61,1.12-.95,1.58.04.42.05.87.02,1.31-.08,1.2-.19,2.37-.32,3.52.18-.14.15.13.16.27,0,.15.02.29.02.44.17-1.22.35-2.45.54-3.7.17-1.13.29-2.35.53-3.42Zm-.33-8.61s.04-.06.07-.1l.25.24s-.13-.06-.31-.14Zm-.42-.38c-.01.06-.03.11-.04.17-.09-.07-.06-.12.04-.17Zm-.38,1.6c.07-.09.12-.15.15-.22-.15.22-.15.22-.15.22Zm-7.56.86l1.25.68-1.2-.73-.05.05Z" style="fill: #f1c724;"/>
      </g>
    </g>
    <g>
      <path d="m52.97,89.96c.1.04.19.09.29.13-.18.08-.45.09-.76.06,2.99.99,6.9.28,9.4-.82.91.02,1.71-.31,1.79-.74.08-.43-.6-.79-1.52-.81-.2-.05-.44-.08-.59-.14-1.32-.63-2.93-1.05-4.71-1.35.34.12.7.24,1.04.35-.51-.09-1.02-.19-1.59-.19.06.08.14.15.2.23-1.77-.53-4.17-.28-5.37.56-1.2.84-.75,1.95,1.02,2.47l.78.25Z" style="fill: #f1c724;"/>
      <path d="m56.3,92.37c-1.06-.26-2.07-.54-3.09-.82l-.2-.14.08.65.02-.04c.94-.57,2.49-.82,3.93-1.01l.51-.11c.24-.09.4-.22.45-.36.11-.32-.34-.6-1.01-.64l-.77-.04c-1.89-.34-4.85-.29-5.87.84-.23.26-.02.58.04.88-.06.43.65.8,1.59.81.94.01,1.74-.33,1.8-.77.16.03.32.05.48.08-.12.06-.25.11-.37.16.26-.38,1.11-.49,1.75-.7l.95-.12-.56-1-.49.14s.11.1.11.11c-.94.3-1.83.59-2.86.79l-1.3.4c-.35.2-.31.49.08.65l.58.21c-.09-.04-.18-.08-.26-.12,1.34.2,2.75.31,4.07.52.21.04.46,0,.57-.11.09-.1,0-.22-.22-.26Z" style="fill: #f1c724;"/>
      <g>
        <path d="m51.6,92.6c-.22-.07-.43-.15-.73-.13-.07.05-.11.07-.13.08.12.04.27.11.43.17.31.12.46.02.44-.12Z" style="fill: #f1c724;"/>
        <path d="m50.73,92.56c-.11-.04-.18-.07-.18-.07.04.03.08.06.12.09.03,0,.03,0,.03,0,0,0,0,0,.02-.01Z" style="fill: #f1c724;"/>
        <path d="m108.96,89.5c4.13.13,8.28.19,12.42.21.14,0,.25-.05.26-.11,0-.06-.1-.11-.23-.11-4.15-.03-8.27-.09-12.4-.22-.14,0-.25.05-.27.11,0,.06.09.12.22.12Z" style="fill: #f1c724;"/>
        <path d="m140,95.12c-.1.05-.09.12.01.16.09.04.24.04.34-.01.08-.04.08-.12-.01-.16-.1-.04-.26-.03-.34,0Z" style="fill: #f1c724;"/>
        <path d="m139.22,100.07c-.58.1-1.12.22-1.61.4-.09.03-.19.02-.27,0,.04.1-.07.19-.28.24-4.1.93-8.51,1.35-12.86,1.89-.03.08-.08.16-.18.24-.3.26-.9.4-1.53.37l-.48-.05c-1.92-.11-3.83-.18-5.73-.3-.39.12-.84.21-1.33.24-1.64.35-3.28.68-4.97.94.11.07.17.15.17.24-.03.22-.42.39-.87.39-.23.01-.46.02-.69.03.66.04,1.32.08,1.98.13.1,0,.18.01.26.03.72,0,1.45-.02,2.2-.06,6.49-.33,12.57-1.28,18.61-2.36.1-.04.25-.03.34.02.06.05.05.12-.06.15-3.79,1.17-7.07,2.68-11.37,3.49-5.12.96-10.17,1.79-15.43,2.45-5.5.11-10.59.74-16.19,1.24-7.57.69-14.73.92-22.15,1.12-2.78.23-5.34-.63-5.73-1.9-.23-.78.39-1.53,1.52-2.05-.23,0-.45,0-.68,0l-1.08-.13c-1.02-.13-1.89-.44-2.45-.86l-.76-.53c-1.02-1.01-2.66-1.83-3.5-2.89l.18-.41-.2-.11c-.65-.28-1.08-.66-1.24-1.07l.05-.49c.12-.56.43-1.1.93-1.6-.02-.21.04-.41.16-.61-.45-.49-.67-1.01-.33-1.6-.27-.14-.23-.35.08-.48.11-.04.24-.07.37-.08,0,0,0,0,0,0-.15-.13-.19-.16-.39-.3-.26-.04-.41-.07-.41-.07q-.7-.07-1.3-.14c-.52-.16-.85-.39-.85-.39q-.59-.86-.51-1.24s.07-.07.11-.11c-.46-.12-.49-.13-.62-.16-.13-.06-.22-.14-.22-.14q-.02-.2-.1-.27c-.03-.08-.02-.15-.02-.15q.25-.23.26-.3c.06-.06.14-.11.14-.11.3-.07.42-.1.47-.12.66.51.66.51.66.51l.14-.18.16.24-.09-.22.33.13-.38-.19q.77.07,1.08.05c.32.02.6-.04.63-.04-.03-.07-.03-.12-.03-.12q.83.07,1.63.15c.08.05.14.09.19.14.08-.06.23-.1.39-.09.14,0,.28.02.42.03.03-.01.06-.02.09-.03,0-.01,0-.02,0-.02.14-.04.24-.08.35-.11.07-.03.07-.03.07-.03,0,0,0,0,0,0,.24-.08.6-.19,1.53-.48.25.02.48.05.7.09-.07-.03-.14-.06-.21-.1-.13-.07-.02-.26-.09-.28-1.77-.38-3.7-.51-5.59-.69-.34.03-.66-.08-.71-.24-.05-.16.19-.31.54-.34,3.82-1.12,8.53-1.08,12.49-.32,1.04.08,2.09.15,3.13.21-.05-.03-.1-.06-.15-.1.27.05.54.09.82.13.03,0,.06,0,.09,0-.21-.11-.42-.23-.62-.34-.14-.03-.28-.07-.43-.09-2.43-.1-4.64-.6-7-.91-1.26-.17-2.35-.48-3.55-.71-.31-.01-.52-.14-.49-.28.03-.14.32-.24.62-.23,3.97-.33,8.52-.19,11.72.95.73,0,1.43.08,2.01.28.01,0,.02,0,.03,0-.15-.1-.3-.19-.45-.29.54.06.84.3,1.34.39-.06-.13-.13-.27-.19-.4,2.68.2,5.58.02,8.07.56.1,0,.19.02.29.03,1.06-.3,2.14-.6,3.4-.66-.43-.04-.85-.07-1.28-.1.92-.19,1.83-.33,2.81-.33,2.66-.02,5.66.55,7.09,1.58,5.16-.23,10.33-.44,15.48-.8.27-.02.51.06.56.18.03.12-.14.24-.41.26-3.69.49-7.43.79-11.18,1.05,3.14.14,6.3.28,9.52.25.41-.03.82-.05,1.23-.08.41-.03.81,0,1.22.04,4.11-.08,8.01-.09,12.2-.48,3.58-.33,6.7-.67,10.26-1.12,5-.63,9.55-1.25,14.5-1.36.66-.05,1.27.16,1.35.46.09.3-.39.6-1.05.65-10.3,1.16-20.41,2.51-31.2,2.58-1.16,0-2.31.01-3.45.02.02.04.03.08.03.12,0,.17-.1.32-.28.46,1.29.02,2.6.05,3.91.12,3.63-.42,7.26-.85,11.14-.75,2.67.08,5.08.39,7.55.67,3.12-.25,6.22-.56,9.37-.79.13-.02.26,0,.3.06.05.06-.02.12-.15.14-2.16.42-4.37.76-6.61,1.06.36.18.57.43.55.7-.02.28-.29.54-.71.73.51,0,1.02,0,1.52-.01.31,0,.56.11.56.25,0,.15-.25.27-.55.27-2.07.03-4.14.04-6.21.07-2.48.21-4.95.39-7.44.55.35.18.61.4.73.66,0,0,0,0,0,0,.39-.01.77-.03,1.15-.04,7.01-.93,14.2-1.51,21.46-1.51.14,0,.26.04.26.11,0,.07-.1.12-.23.12-2.19,0-4.37.05-6.55.15,0,0,0,0,0,0,.09.04.11.11.01.16-.08.04-.25.05-.34.01-.1-.04-.09-.11-.01-.16-4.05.19-8.08.54-12.04,1.02,3.69-.14,7.38-.26,11.07-.21.4-.09.8-.18,1.21-.26.11-.02.26.02.3.08.03.05-.05.12-.16.14-.11.02-.22.04-.34.07.7.01,1.24.27,1.24.61-.03.34-.63.62-1.35.62-1.94.1-3.88.18-5.81.23-.21.02-.42.05-.63.07-.21.06-.42.11-.63.17,3.01.07,6.02.17,9.01.29.26,0,.48.08.48.2,0,.12-.2.22-.45.23-5.25.59-10.57,1.02-15.92,1.34-1.75.55-3.5,1.11-5.28,1.65.23,0,.45,0,.68,0,5.82-.12,10.72-1.68,16.35-2.1.14-.02.26.03.28.09.02.06-.08.12-.22.13-2.74.26-5.24.81-7.96,1.22-2.25.34-4.4.65-6.49,1.08,4.29-.23,8.39-.95,12.64-1.32.18-.03.37,0,.49.05,0-.03.05-.07.1-.09.53-.18,1.1-.31,1.7-.42.11-.03.26,0,.32.06.06.05,0,.11-.13.15Zm-74.81-5.52s-.08-.05-.11-.07c.12.04.24.07.38.11l.53.47s-.4-.26-.8-.52Zm-6.54,1.92s0,0,0,0c-.18-.15-.31-.27-.31-.27.12.11.22.2.3.27Zm41.88-5.08c-2.26.04-4.49-.03-6.73-.29.54-.04,1.09-.07,1.63-.11,1.69.11,3.39.25,5.1.4Zm-39.79,1.42c.6.24,1.07.54,1.51.86.39-.07.8-.1,1.21-.09,1.11.01,2.19.05,3.26.12-.14-.17.11-.15.24-.18.13-.02.27-.03.4-.05-1.14-.1-2.28-.21-3.44-.33-1.05-.11-2.19-.16-3.19-.33Zm-7.92.82s-.06-.04-.1-.06l.21-.26s-.05.13-.11.32Zm-.33.44c.05.01.11.02.16.03-.06.1-.11.06-.16-.03Zm1.5.29c-.09-.07-.14-.11-.21-.13.21.13.21.13.21.13Zm1.21,7.5l.56-1.29-.61,1.24.05.05Z" style="fill: #f1c724;"/>
      </g>
    </g>
  </g>
</svg>