<?xml version="1.0" encoding="UTF-8"?>
<svg id="Layer_2" data-name="Layer 2" xmlns="http://www.w3.org/2000/svg" viewBox="0 0 69.09 69.16">
  <g id="Icon">
    <path d="m35.6,34.14c-.38.07-.67.12-.92.12-.28.03-.51.02-.73-.01-.22-.03-.42-.03-.54-.07-.07-.03-.1-.01-.13-.06.02.12-.07-.29-.16-.54-.17-.51-.39-.77-.33-.7-.03-.03.03.03.06.06l.09.09.24.21c.12.1.23.17.33.24l.12.09h0s0,.02,0,.02c-.02.06.02.79.61,1.25.31.2.56.36.83.4l.16.04.18-.03h.06s.09-.05-.02,0c-.13.06-.27.12-.41.21-.3.18-.49.26-.77.49-.11.08-.18.13-.29.21l-.15.13-.07.07s.02-.02.02-.02c.12-.12.43-.48.66-.88.24-.42.44-.91.58-1.41.07-.25.11-.48.15-.71l.02-.16s0-.01,0-.04c0-.02.02-.04.02-.04.03-.07.09-.11.17-.15.08-.06.17-.12.29-.17l-4.19,5.03c.11.12.16.15.25.2.07.04.27.11.49.13-.01,0-.03,0-.04,0,.32.04.6.08.86.11.35.04.62.07.81.05,1.17-.14,2.44-.61,3.79-1.06,1.35-.46,2.81-.84,4.29-1.15.73-.17.87.43.92.95.06.5.05.93.79.47.06.66.05,1.43.06,2.19-.02.79-.04,1.54-.06,2.13-.02,1.2.26,1.99,1.54.77.88-.26,1.3-1.64,1.52-3.02.24-1.4.32-2.79,1.34-3.56,1.04-.78,2.19-.7,3.36-.46,1.16.21,2.35.56,3.36-.46-.11-.88-.38-2.19-.76-3.47-.42-1.27-.91-2.53-1.33-3.33.27-1.15,1.46-1.3,2.53-1.26,1.07.04,2,.23,1.52-.76-.76-3.27-3.06-6.74-6.11-9.26-1.52-1.3-3.19-2.38-4.95-3.3-.88-.47-1.79-.88-2.73-1.27-.48-.2-.95-.38-1.47-.57l-.81-.28-.45-.14-.59-.18c.2-.73.11-1.53.29-2.17.09-.32.24-.59.54-.79.19-.02.42-.02.68,0,.19,0,.41,0,.65.02.47.04.98.1,1.57.24,2.44.92,4.6,2,6.75,3.39,2.14,1.38,4.21,3.07,6.1,5.08,1.9,1.99,3.6,4.35,4.92,6.9,1.36,2.54,2.31,5.24,2.92,7.99,1.21,5.53.93,11.34-.75,16.65-1.66,5.32-4.68,10.2-8.68,14.08l-1.98,1.92-3.23,1.42c-6.83,3-14.79,4.05-22.76,2.29-3.97-.88-7.96-2.53-11.61-4.98-1.83-1.21-3.55-2.67-5.15-4.27-.77-.82-1.5-1.66-2.22-2.53-.72-.86-1.3-1.77-1.93-2.68-2.37-3.66-3.95-7.59-4.85-11.57C-.02,38.29-.21,34.23.23,30.13c.46-4.09,1.61-8.25,3.65-12.26,2.07-4,5.12-7.83,8.94-10.81,3.79-3.02,8.27-5.07,12.72-6.13C30.01-.13,34.47-.24,38.7.38c4.23.62,8.28,1.98,12.01,4.01,3.73,2.03,7.15,4.75,10,8.07,2.85,3.31,5.08,7.21,6.49,11.32,1.41,4.11,2.02,8.4,1.88,12.6-.26,8.4-3.6,16.55-9.19,22.63-1.79,1.78-3.09,2.42-3.77,2.52-.25-.06-.44-.21-.58-.42-.07-.11-.13-.23-.17-.37-.04-.15,0-.38.03-.6.31-1.83,1.75-5.13,2.44-8.4-.58,2.18-2.37.84-3.08,2.84-.43-.37-.76-1-.98-1.79-.21-.79-.34-1.77-.39-2.87-.06-2.2.18-4.82.71-7.88-.47,1.48-1.04,2.93-1.81,4.29-.71.5-1.19.19-1.67-.3-.48-.49-.97-1.15-1.63-1.51.63-1.13,1.09-2.34.37-2.6-.7-.26-2.12-.8-2.82-1.06-.33.97-1.31,2.77-1.95,3.57.61-.82,1.11-1.72.44-2.08-.66-.36-1.98-1.09-2.65-1.45.05-.4.13-.82.35-1.2.15-.41.45-.8.62-1.25.45-.85.71-1.85.35-2.61l-2.26-.02c-.4.58-.43,1.26-.55,1.99-.01.37-.12.72-.16,1.08-.11.33-.16.68-.33.92-.37-.87-1.12-1.16-2.48-1.79-.11-.66.4-1.04.66-1.63.25-.55.2-1.3-1.02-1.52.01.07.03.14.06.22,0,.08,0,.16.01.23.05.15,0,.31.03.47-1.87-.34-2.11-.44-2-.77.13-.29.39-.88-.07-.85Z" style="fill: #efbf04;"/>
    <path d="m17.79,27.82l.04-.16v.21s-.02.37-.02.37c-.02.46-.05.93-.07,1.4-.07.93-.14,1.88-.21,2.82.26-1.01.51-2.08.72-3.15.05-.27.1-.54.14-.8l.06-.4c.02-.14.03-.07.05-.11.06-.06.1-.1.12-.15.08-.19-.21-.35-1.14-2.94.61,1.1,1.01,1.7,1.21,2.23.16.38.17.43.11.2-.09-.39-.07-.61,0-.72-.06.05-.09.14-.09.29,0-.15.03-.24.09-.29.12-.16.4-.04.72.2.08.06.16.13.24.2l.12.11.07.06.18.19c.48.53.97,1.05,1.46,1.59,1.92,2.18,3.9,4.43,5.92,6.73.24.26.52.56.84.9.16.17.33.35.51.53.22.22.46.46.7.7,1.42,1.34,3.1,2.86,4.9,4.45,1.19-1.12,2.41-2.27,3.61-3.41l.92-.86.66-.59c.33-.29.65-.57.96-.84,1.26-1.09,2.4-2.06,3.18-2.68.38-.32.77-.63,1.15-.95q-.67.5-1.33,1.01c1.31-1.64,2.49-3.15,3.68-4.57-.34.12-.48.05-1.18.43l.74-.58c.15-.46.58-1.03,1.04-1.58.26-.36.46-.63.62-.91.04.29.28.11.47-.03-.04-.04-.07-.07-.11-.1.37-.31.73-.71,1.11-1.16.38-.46.76-.91,1.09-1.31.04-.04.11-.15.11-.1,0,.14-.09.46-.17.7.06.16.12.34.18.56-.31.52-.27,1.17-.47,1.1.18-.02.22.28.25.56.04.29.08.56.27.83.02,1.01.05,2.03.07,3.07.04,1.36.09,2.73.15,4.11.13,2.75.32,5.53.58,8.27l.11-.13c.2,1.92.81,3.6.61,5.93.41,1.66.63,4.03,1.27,4.69.09,1.92.41,2.68.58,4.57.32-.49.39,1.83.63.9.45-1.25.07-1.32.43-2.38l-.11.03c.48-4.95.75-9.9.9-14.91-.27-3.34-.05-6.97-.13-10.45-.03-.95-.07-1.91-.1-2.88-.05-1.64-.09-3.28-.13-4.89-.1-3.15-.22-6.03-.35-8.36-.05-.53,0-1.15.07-1.84.04-.35.08-.71.13-1.08.05-.37.1-.77.09-1.01-.01-.06-.03-.12-.05-.19-1.73,2.12-3.79,4.53-5.81,6.85-.5.57-1.01,1.15-1.52,1.73l-1.5,1.61c-.92.97-1.83,1.94-2.72,2.88.05-.04.09-.08.12-.11-1.21,1.27-2.38,1.95-3.58,3.18.07.06-.12.25-.18.37-.25-.05-1.93,1.86-3.64,3.82-.43.49-.86.98-1.26,1.45-.1.12-.2.23-.3.35-.09.1-.23.26-.24.29-.08.11-.16.22-.23.32-.31.41-.58.73-.64.7-.06.09-.12.17-.19.26l-.08.06c-.34-.3-.66-.74-.9-1.08l-.17-.26c-.07-.1-.05-.13-.23-.33-.28-.34-.55-.68-.83-1.01-1.09-1.34-2.13-2.65-3.21-3.7-.61-.34-1.26-.77-1.81-1.02-.25-.52-.57-.36-.99-.87-.53-1.8-1.44-2.28-1.08-1.44-.52-.48-.96-.95-1.46-1.49-.72-.81-1.42-1.59-2.07-2.32-.61-.6-1.21-1.2-1.83-1.82-.5-.47-.77-.99-1.05-1.64-1.32-1.42-.94-1.28-2.44-3.24-.38-.81-2.09-2.32-2.9-3.06-.01.11-.03.21-.04.3,0,.15.01.28.02.4,0,.23,0,.38,0,.43l-.03-.45c-.05,1.12-.23,1.75-.4,2.48-.17.72-.34,1.54-.39,2.81-.1,1.7-.17,3.52-.23,5.37-.04,1.76-.09,3.52-.13,5.28-.04,2.13-.06,4.22-.16,6.14.31.05-.05-.85.37-.88-.11,2.26-.55,4.54-.66,6.82-.09.41-.26.91-.37,1.09-.13.73.14.44.08.97l-.28.06c.21.79-.34,1.13-.24,1.87.11.04.12.31.1.57-.3,0,0,.81-.27.76h.02c0,.17,0,.28-.05.47.1.3.84,3.13.96,3.44l-.05.14c0,.42.21.61.27.36l-.03.52-.02-.06-.03.51c-.03.09-.17.2-.3.05.1.29.14.62.08.91.2-.81.49-1.81.81-2.64.09.35-.08.98-.06,1.36-.21.45-.4,1.37-.55,2.09.01.16.34.28.19.63-.23.17,0,.41-.17.7-.11-.35-.05-.68-.03-1.03-.27.05-.2.84-.29,1.12.08.13-.02.8.04,1.23-.25-.19-.17.34-.32.58-.04.28.06.47.16.36.28.1.2-1.13.48-.72-.14.1-.11.66-.1.96.15,0,.12-.2.27,0-.04.33.13.69-.03.88-.04-.06-.01-.2,0-.3-.03.43-.95-2.39-.87-1.82.14-.14.85,2.5.87,2.21.08-.26.27.2.33-.08l-.18-.31c.07-.37.34-.52.44-.38-.04.63-1.01-1.81-.87-1.27l.08-.22c.09.23.17.84,0,1.07.15,0,.2.31.25.57l-.03.09c.07.27.02.63.23.47.01-1.54,1.52,1.06,1.65-.43-.35.62-.34-.22-.36-.88.12-.06.29-.35.39-.82-.02-.41-.12-.24-.2-.32.08-.22.16-.66.33-.59-.2-.33.15-.51.08-.89-.09-.34-.09.02-.19-.22.04-.51.08-1.21.13-1.62.17-.15.48-.62.73-.26-.05.77-.41-.3-.38.5.39-.33.09.71.37.86.18-.25.19-.77.16-1.2l-.05.08c-.04-.38-.1-1.14.11-1.55.13.1.24-.08.26.2l.04-.52c-.04-.07-.08-.14-.12.01-.1-.25-.03-.49.05-.68.14-.05-.52-2.8-.44-2.71,0-.38.22-.46.08-.83-.11-.04.39,3.62.36,3.12.16-.32-.6-4.29-.33-4.52,0-.28-.02-.62-.17-.56.08-.47.27.15.41-.18-.02,0-.07.03-.06-.08l.19-.32c-.2-.74.11-1.81-.16-2.58.15.23.41.49.54.99l-.08.08c.04.07.08.48.22.47.11-.47.09-.87-.04-1.37.04-.09.08-.2.12-.27-.02,0-.03,0-.06,0,.09-.16.11-.14.16-.08.01,0,.02.02.03.04.43-.28-.22-1.85.02-2.7-.05-.25-.07-.03-.14-.34.19-.87.33-1.47.45-2.38-.17-.3-.24-.32-.44.03l.08-.69c.46.64.49-1.28.95-.57.11-.2.15-.61.08-1-.12-.04-.31-.11-.3-.6.18-.67.11-.51.28-1.07.16-.13.22.08.34.06-.18-.87.36-.75.35-1.56-.03-.51-.03-1.52-.3-1.56.02-.33.22-.26.44-.2Z" style="fill: #1b1614;"/>
  </g>
</svg>