<?xml version="1.0" encoding="UTF-8"?>
<svg id="Layer_2" data-name="Layer 2" xmlns="http://www.w3.org/2000/svg" viewBox="0 0 152.1 146.35">
  <g id="Icon">
    <g>
      <path d="m126.49,119.13c-1.28.52-2,.82-3.27,1.09-1.71,1.08-4.11,2.66-6.38,3.9-1.15.6-2.25,1.13-3.21,1.49-.97.34-1.78.54-2.33.5-.08-.24.85-1.45,1.83-2.71.49-.64,1.01-1.26,1.45-1.76.43-.52.8-.9,1.03-1.01,4.14-2.83,7.33-4.79,10.55-7.11,3.18-2.33,6.43-5.06,9.66-10.02.36-.4.62-1.57.95-3.03.26-1.48.51-3.26.73-4.98,0,0-.53.86-1.16,1.89.4-2.34,1.28-5.14,1.94-8.13.58-3,1.12-6.17.91-9.01-.39,1.18-.36,1.18-.74,1.86.5-1.08.84-2.51,1.06-4.16.13-1.65.22-3.53.01-5.47-.32-3.89-1.27-8.04-2.4-11.44-.17-1.43-.34-2.44-.43-3.49-.59-1.55-1.32-3.03-1.95-4.56-.33-.76-.72-1.5-1.07-2.26-.37-.75-.71-1.53-1.15-2.27-1.59-3.03-3.62-6.04-6.28-9-2.19-2.52-4.7-5.67-7.68-8.81-2.97-3.14-6.47-6.17-10.17-8.54-1.51-1.14-3.15-2.14-4.75-3.23-1.66-.99-3.31-2.04-5.05-2.92-3.45-1.83-7.08-3.45-10.83-4.53-7.44-2.27-15.33-2.61-21.82-.55-2.17.66-6.24,1.29-10.17,1.49-1.84,1.27-4.07,2.6-6.54,3.97-2.45,1.42-5.11,2.95-7.8,4.64-5.37,3.36-10.75,7.53-14.76,11.69-2.86,3.07-5.43,4.69-7.14,5.65-2.77,5.01-5.02,10.46-6.54,16.09-.42,1.39-.7,2.83-1.05,4.24-.25,1.44-.58,2.85-.76,4.29-.46,2.86-.7,5.75-.83,8.63-.25,7.36.88,14.7,3.2,21.84,2.33,7.15,5.89,14.13,10.75,20.83.66.93,1.84,2.11,3.05,3.24,1.27,1.08,2.56,2.11,3.54,2.68.28.43.57.85.85,1.27l.9,1.23c3.72,3.05,7.75,5.39,11.77,7.23,4.02,1.86,7.99,3.3,11.83,4.77,5.28,2.02,8.26,3.35,10.02,4.9,1.78,1.44,2.33,2.99,2.94,4.43-3.36.18-6.77.34-10.35.26-3.57-.12-7.3-.49-11.19-1.37-3.88-.87-7.92-2.27-11.95-4.46-4.02-2.19-8.06-5.15-11.72-9.14-1.96-2.24-4.62-4.81-7.33-7.66-2.72-2.84-5.42-6.02-7.54-9.19-1-1.27-1.77-2.74-2.56-4.19-.71-1.5-1.42-2.99-2.01-4.51-1.29-3-2.35-5.93-4.05-8.37-.17-4.19-.74-11.07-.45-18.53.29-7.47,1.49-15.49,3.02-22.19.55-1.02.4.26,1.2-1.55,1.94-9.44,6.83-18.89,13.79-27,3.5-4.04,7.51-7.76,11.89-11.09,4.39-3.33,9.19-6.2,14.25-8.65,2.54-1.25,5.29-2.4,8.24-3.29,1.46-.49,2.99-.84,4.53-1.24,1.56-.31,3.13-.69,4.75-.91,6.47-1.08,13.39-1.16,20.45-.61,1.38-.12,7.11,1.84,10.76,2.81,1.32.23,2.64.46,3.95.69,4.66,1.8,9.52,4.08,13.78,6.71,2.15,1.28,4.09,2.72,5.86,4.07,1.69,1.45,3.26,2.78,4.41,4.16,2.97,2.98,5.64,5.91,8.15,8.78,1.2,1.49,2.44,2.89,3.48,4.41.54.75,1.07,1.49,1.58,2.24.48.77.95,1.55,1.4,2.32,2.68,4.66,6.23,10.77,8.53,17.25,2.36,6.44,3.47,13.13,2.94,17.71-.08.58.07,1.77.14,3.12.04,1.36.17,2.88.13,4.08-.28,1.11-.56,2.21-.84,3.33-.09,1.18.05,2.18.23,3.2.08.51.18,1.02.21,1.56.01.53-.02,1.08-.13,1.68-1.38,7.69-4.65,15.96-8.97,22.32-4.28,6.39-9.37,10.85-12.97,12.24.78-.98,3.63-4.74,1.59-3.89Z" style="fill: #efbf04;"/>
      <path d="m73.76,136.71c.54-.44-1.47-.56-2.72-.59.54.26.97.54,1.57.82.6.26,1.36.49,2.56.7-1.24-.06-2.49-.08-3.72-.22-1.02.48-.1.61.8.66.9.05,1.77-.06.64.16-2.08-.22-3.68-.51-2.65-.99.32.29,1.21.17,2.44.35.22-.71-1.75-1.13-2.81-1.65l2.85.19,2.86.06-1.79.51Z" style="fill: #efbf04;"/>
      <path d="m86.81,136.79l-1.23.12c-.46.54.75.61,1.99.68-5.37.26-.29-1.32-3.51-1.54-.06.4,3.2.2,2.75.75Z" style="fill: #efbf04;"/>
      <path d="m80.14,139.74c-1.2-.34-2.37-.35-3.33-.36-.95,0-1.69-.09-1.95-.65,2.03.36,4.09.61,6.18.76l-.9.25Z" style="fill: #efbf04;"/>
      <path d="m117.38,123.97c1.17-1.46.63-.67,2.92-2.61-1.06.98-2.18,1.9-3.3,2.81l.38-.19Z" style="fill: #efbf04;"/>
      <path d="m132.19,45.81c.34,1.24.62,2.36.98,3.62.16.64.36,1.31.61,2.04.26.73.55,1.52.88,2.43-.36-.91-.72-1.79-1.01-2.65-.29-.85-.49-1.69-.7-2.42-.43-1.46-.65-2.61-.76-3.02Z" style="fill: #efbf04;"/>
      <path d="m106.74,14.99c.28-.25-.83-1.07.88-.19.64.63-.86.75,1.91,1.87l-2.79-1.68Z" style="fill: #efbf04;"/>
      <path d="m104.66,11.69c-.45-.5-.9-1.01-1.38-1.47-.07.08.45.66,1.38,1.47Z" style="fill: #efbf04;"/>
      <path d="m130.01,105.46l.29-.11c.06-.17.11-.38.16-.57-.14.2-.28.4-.46.68Z" style="fill: #efbf04;"/>
      <path d="m133.18,100.77c-.38.55-.79,1.07-1.21,1.59-.42.52-.81,1.04-1.25,1.55-.07.32-.16.58-.25.87.76-1.06,1.12-1.35,1.48-1.72.34-.37.73-.8,1.23-2.29Z" style="fill: #efbf04;"/>
      <path d="m130.83,105.15l-.52.19c-.27.82-.65,1.45-1.06,2.02-.41.56-.83,1.07-1.34,1.57-.5.51-1.01,1.05-1.59,1.71-.6.64-1.2,1.44-1.91,2.42,2.79-2.29,5.01-5.35,6.42-7.92Z" style="fill: #efbf04;"/>
      <path d="m129.38,108.96c-.13.47-.29.93-.44,1.39-.81.96-1.04.66-1.15.51-.45.73-.97,1.43-1.45,2.15-.06.63,1.25-.57,2.6-2.25.34-.42.69-.86,1.04-1.3.32-.46.64-.91.94-1.33.61-.84,1.08-1.61,1.37-2.06-.92,1.01-1.94,1.95-2.9,2.89Z" style="fill: #efbf04;"/>
      <path d="m115.59,131.62s.06-.05.09-.08c-.04.03-.07.05-.11.08h.01Z" style="fill: #efbf04;"/>
      <path d="m123.33,127.91l-.53-1.22c-1.4,1.26-2.35,1.87-3.39,2.42-1.03.57-2.07,1.18-3.72,2.43-.03.03-.06.05-.09.08,1.96.22,4.82-2.51,7.73-3.71Z" style="fill: #efbf04;"/>
      <path d="m136.21,97c-.64,1.56-1.2,2.93-1.65,4.03-.41,1.12-.68,1.99-.61,2.63,1.09-1.82,2.04-3.72,2.92-5.65-1.43,2.02-.44-.35-.67-1.02Z" style="fill: #efbf04;"/>
      <path d="m140.14,92.66c-.28.99-.52,2-.83,2.98.29-.38.53-.79.79-1.19-.13-.17-.15-.75.04-1.8Z" style="fill: #efbf04;"/>
      <path d="m140.1,94.46c.15.18.45-.19.84-1.31l-.84,1.31Z" style="fill: #efbf04;"/>
      <path d="m138.91,100.71c1.53-1.55.59-1.77,1.93-5.05-.77-.54-1.18,3.39-1.93,5.05Z" style="fill: #efbf04;"/>
      <path d="m143.31,86.59c.29-.35.54-.71.79-1.07l-.87-.39c.03.49.09.98.08,1.46Z" style="fill: #efbf04;"/>
      <path d="m137.55,61.21c1.62,2.94.33-2.09.59-2.52-.14.84-.37,1.69-.59,2.52Z" style="fill: #efbf04;"/>
      <path d="m145.78,82.86l-.95,1.06.38.64c-.05.46-.1,1.06-.19,1.63-.1.57-.29,1.11-.54,1.48.42.46.69-.28.88-1.38.14-1.1.21-2.53.41-3.43Z" style="fill: #efbf04;"/>
      <path d="m143.14,68.87c0-1.17.07-2.36-.03-3.53" style="fill: #efbf04;"/>
      <path d="m147.45,91.9c.08.05.29-.24.54-.6.23-.37.47-.82.67-1.08.19-.26.33-.34.33.04,0,.38-.12,1.23-.6,2.77.16-.6.36-1.26.5-1.89.13-.63.26-1.22.39-1.67.24-.89.46-1.19.61,0,.71-3.99-.8-.45-.85-3.14.15,1.12-.17,2.06-.5,2.94-.36.88-.74,1.72-1.09,2.62Z" style="fill: #efbf04;"/>
      <path d="m149.66,82.46c.26-1.91.71-4.34.26-5.45.04,1-.18,1.93-.33,2.83-.14.9-.21,1.75.07,2.62Z" style="fill: #efbf04;"/>
      <path d="m151.83,80.76c-.3.93-.54,1.86-.91,2.77.38-.55.72-1.1,1.04-1.67l-.13-1.1Z" style="fill: #efbf04;"/>
      <line x1="137.13" y1="45.23" x2="136.13" y2="45.87" style="fill: #efbf04;"/>
      <path d="m151.33,68.94c.3,2.39.61,4.79.67,7.22.16-2.19.09-4.37.05-6.57-.53-1.94-.85-2.4-.97-2.05-.15.36-.05,1.54-.11,2.95.06-.78.16-1.39.36-1.55Z" style="fill: #efbf04;"/>
      <path d="m150.37,76.65c.12.71.3,1.42.37,2.14.11.04.19-.74.19-1.89,0-1.14.07-2.65,0-4.03-.03,1.86-.29,3.54-.57,3.78Z" style="fill: #efbf04;"/>
      <path d="m150.93,72.87c.01-.8.02-1.61.03-2.38-.05.68-.06,1.49-.03,2.38Z" style="fill: #efbf04;"/>
      <path d="m127.66,32.2c.65.77,1.23,1.59,1.82,2.4.58.82,1.21,1.61,1.74,2.46-.5-1.02-1.11-1.85-1.68-2.66-.58-.8-1.18-1.53-1.88-2.2Z" style="fill: #efbf04;"/>
      <path d="m151.46,63.52l-.21-1.02-.95-.1c.61,2.02.98,1.1,1.17,1.12Z" style="fill: #efbf04;"/>
      <path d="m150.85,54.55c-.05-.99-.53-2.38-1.09-3.68-.62-1.28-1.3-2.49-1.64-3.22.15,1.24.5,2.45.91,3.73.37,1.29.76,2.66,1.19,4.14-.8-2.96.25-.99.64-.97Z" style="fill: #efbf04;"/>
      <path d="m148.63,45.62c.47.95.82,1.97,1.23,2.95.38.99.82,1.96,1.14,2.98.29-.77-.03-1.64-.55-2.63-.53-.98-1.2-2.11-1.81-3.3Z" style="fill: #efbf04;"/>
      <path d="m143.55,36.77c-.37-.44-.38.07-1.11-.79.16.98,1.45,2.71,2.06,4.14l-.44-1.69-.51-1.66Z" style="fill: #efbf04;"/>
      <path d="m145.51,88.19c.32-1.69.38-3.23.5-4.69-.24,1.14-.42,2.28-.7,3.4l-.88,3.34c.38-.65.77-1.29,1.08-2.04Z" style="fill: #efbf04;"/>
      <path d="m44.69,128.37c-3.12-.81-7.27-2.88-11.02-5.62-3.77-2.7-7.13-6.01-9.35-8.5-1.75-2.13-3.52-4.44-5.25-6.93-1.75-2.48-3.41-5.17-4.91-8.04-3.04-5.7-5.24-12.19-6.08-18.73l.37.07c-.27-5.11-.24-10.99.61-16.93.42-2.97,1.1-5.94,1.93-8.82.87-2.87,1.95-5.64,3.17-8.21l-.7.36c-.92,1.7-1.86,4.05-1.9,2.41.6-1.16,1.35-2.48,2.03-3.59.71-1.08,1.33-1.95,1.67-2.2l.39-2.06c1.18-1.23,1.81.76,3.87-3.24.05-.78.48-1.67,1.14-2.53.68-.84,1.48-1.73,2.32-2.48,1.61-1.55,3.08-2.77,2.38-3.56,1.05-.26,2.17-1.26,3.21-2.45,1.09-1.13,2.12-2.44,3.03-3.11-.59.08-1.2.16-1.8.26,3.95-2.76,8.4-4.05,10.18-5.4,2.38-1.58,5.34-3.27,8.47-4.74,3.13-1.48,6.44-2.71,9.41-3.7.82.37-.76.74-2.01,1.12-1.25.39-2.17.68-.1.65,2.67-1.32,5.82-2.25,9.21-2.72.85-.09,1.71-.18,2.58-.27.87-.02,1.76-.05,2.65-.07.44,0,.89-.02,1.34-.02.45.03.9.05,1.35.08.9.07,1.81.09,2.72.19,3.64.39,7.28,1.2,10.84,2.13,3.54,1.03,7,2.19,10.36,3.36-.33-.24-1.47-.82-.54-.63,1.14.88,2.56,1.67,4.27,2.4,1.65.86,3.56,1.75,5.37,3.24-.12-1.02-5.4-4.17-7.35-5.09,2.04-.96.93.8,6.29,3.22-.29-.32-.93-.87-.79-1,2.64,1.33,2.96,1.93,3.16,2.37.2.45.23.83,2.16,2-.57-.62-1.12-1.28-1.71-1.89,1.81,1.27,2.12,1.43,2.54,1.57.42.15.95.26,3.04,1.67-1.2.34.27,2.37,1.14,3.32.36.02,1.39.86,2.33,1.58.91.75,1.76,1.36,1.86.83.37.71.75,1.29,1.1,1.83.34.55.69,1.02,1.03,1.44.69.84,1.4,1.46,2.04,2.14.66.66,1.31,1.31,1.93,2.13.58.86,1.13,1.9,1.59,3.27,1.02.75.9.13.55-.69-.35-.82-.87-1.87-.52-2.01,2.06,2.18,2.07,2.76,1.78,2.97-.3.21-.95.1-.48,1.05.33.33.87.96,1.51,1.76.59.83,1.28,1.85,1.96,2.91.66,1.08,1.24,2.26,1.76,3.34.5,1.09.82,2.14,1.01,2.95l.75-.11c.4,1.2.73,2.64,1.19,4.07.42,1.44.76,2.96,1.11,4.36.25,1.43.5,2.75.6,3.84.06,1.1.05,1.97-.11,2.46.74.86.89.38.77-.76-.06-.57-.18-1.3-.35-2.09-.21-.78-.44-1.64-.67-2.46.31-.84,1.69,2.49,1.78,4.19-.18-.83.22-1.24-.36-2.1.6-.4.73,2.14,1.11,3,.45,2.98.18,2.43-.08,1.45-.27-.98-.78-2.35-.68-1.11.37,1.06.64,2.99.98,4.33.23,1.35.51,2.16.86.94.24,2.39.04,2.87-.28,3.07-.3.19-.67.11-.83,1.33.33-1.83-.05-3.05-.3-4.13-.24-1.09-.57-2.04-.36-3.47-.5-.88-.71-.48-.81.72.1.47.2,1,.29,1.56.07.56.1,1.16.15,1.77.04.61.08,1.23.12,1.84,0,.61,0,1.21,0,1.78.08,2.28-.05,4.05.48,4.01-.25.63-.46,1.25-.74,1.86l.51,1.92-.27.76c.58-.83,1.17-2.16,1.58-3.47.4-1.32.84-2.61,1.29-3.35.51-.3.17,2.27.21,3.62-.28.34-.59.67-.91.99-.29,1.68.02,2.37.3,3.23.22.85.41,1.9-.18,4.21-.23-1.56-.85-.33-1.7,1.56-.39.96-.95,2.06-1.43,3.12-.54,1.04-1.06,2.02-1.51,2.69.21,1.97.58,2.03.96,1.99.37-.03.74-.16.89,1.62-.39.81-.78,1.74-1.22,2.74-.49.98-.95,2.05-1.53,3.09-.58,1.04-1.16,2.1-1.85,3.07-.34.49-.67.97-1.02,1.42-.37.44-.74.87-1.11,1.27.76-1.05,1.24-1.8,1.51-2.32.28-.51.39-.78.37-.87-.03-.19-.56.29-1.14.8-.56.52-1.23,1.03-1.46,1-.25-.04-.03-.61.89-2.39-1.05,1.32-1.66,2.58-2.69,3.98-.99.07-.83-.59-.73-1.14.09-.56.14-.97-.95-.4l.36,1.16c-1.02.7-1.94,1.15-3.05,1.79-1.08.66-2.32,1.51-4,3-.03.35-.34,1.03-.85,1.78-.53.73-1.28,1.51-2.12,2.09-.48-.07-.84-.11-1.47.2-.32.16-.7.4-1.2.76-.52.35-1.17.81-1.99,1.44-1.33,1.57-1.55,2.17-1,2.23.53.06,1.82-.43,3.31-1.22,3.01-1.5,6.78-4.24,7.96-4.26,1.15-1.01,2.1-1.96,3.07-2.73.91-.82,1.8-1.49,2.62-2.12.81-.64,1.63-1.19,2.41-1.75.79-.56,1.56-1.1,2.35-1.66.77-.59,1.56-1.2,2.39-1.9.79-.72,1.63-1.53,2.5-2.5,1.68-1.95,3.5-4.54,5.15-8.35.26-2.67-.1-1.85.84-6.61-.19-.91-.48-.94-.82-.46-.17.24-.35.61-.54,1.07-.21.46-.45.99-.68,1.58-.45,1.18-1.06,2.51-1.62,3.7-.59,1.18-1.22,2.2-1.72,2.77.3-1.45.62-2.85,1.28-3.98-.51.34-1.01.68-1.53,1.01,1.01-3.49,1.6-4.33,2.27-5.06.34-.37.62-.72.91-1.38.28-.66.6-1.63.73-3.26v1.47s.33-3.74.33-3.74l-.34.81c.19-1.13,0-1.9-.05-2.8-.09-.91,0-1.93.22-3.65l.3,1.47.19,1.48c-.28-1.99.91-2.44.71-5.31.36,1.58.87,2.09.85,3.09.16-1.06.31-2.1.43-3.12.06-1.02.1-2.02.13-3.01.05-.99,0-1.95-.06-2.91-.07-.95-.08-1.91-.2-2.84-1.15-6.33-2.92-12.39-5.23-18.21-2.29-5.82-5.15-11.38-8.52-16.66.2.52.48,1.11.59,1.42-1.53-1.63-2.04-2.99-2.49-4.33l-2.05-2.87c-.69-.95-1.45-1.86-2.17-2.79-.89-.93-1.82-1.72-2.71-2.53l-1.34-1.21c-.46-.38-.93-.77-1.4-1.16-.95-.78-1.89-1.61-2.97-2.42-1.07-.82-2.16-1.75-3.45-2.65.08-.6.53-.52,1.19-.11-1.92-1.23-3.15-1.85-1.66-.11-.82-.52-1.49-1.03-2.1-1.46-.62-.43-1.16-.83-1.67-1.23-.51-.39-1-.77-1.5-1.16-.52-.35-1.07-.7-1.7-1.06,2.1.75,4.1,1.71,6.15,2.64-1.06-.93-1.76-1.11-2.54-1.37-.78-.26-1.64-.59-3.2-1.66-5.32-2.59,1.84,2.08.74,2.41l-1.99-1.23c.55.73,1.09,1.44,1.61,2.18-2.13-1.37-3.63-2.6-4.89-3.56-1.24-1-2.14-1.89-3.03-2.59,1.11.57,2.15,1.26,3.21,1.91.89-.26-.48-1-2.26-1.78-1.81-.72-3.97-1.55-4.66-2.13l.51.09c-5.46-1.97.96,1.02-2.79-.13-1.02-.57-2.09-.99-3.15-1.5l-1.6-.72-1.64-.63.97,1.06c-1.01-.09-2.22-.34-3.59-.68-1.38-.25-2.9-.64-4.52-.98-3.25-.6-6.92-1.2-10.32-1.11-3.9-.11-8.93,1.29-13.61,2.67.93-.06,2.79-.29,2.3.1-1.4.32-3.63.88-5.23,1.29-1.62.36-2.64.55-1.73-.26-1.22.69-2.45,1.32-3.62,2.08-.67.29-1.29.51-1.86.68-.56.19-1.07.33-1.53.44l1.17-.12c-1.45.77-2.89,1.56-4.28,2.42-.03-.19-1.82.31.32-.87-2.68.8-5.28,2.6-8.01,4.77-2.73,2.18-5.55,4.8-8.81,7.52l1.61-2.03c-.83.97-1.53,1.65-2.18,2.19-.63.56-1.2.99-1.79,1.42-.6.43-1.19.88-1.83,1.52-.64.63-1.39,1.41-2.16,2.57l1.29-.51c-.58.81-1.36,1.72-2.18,2.65-.78.96-1.65,1.88-2.4,2.71-1.48,1.66-2.65,2.8-2.55,2.18.53.68.13,1.09-.43,1.68-.28.3-.6.64-.84,1.09-.23.46-.4,1.01-.39,1.71-.83.45-1.69.9-2.49,1.4-.87,2.49-1.66,4.89-.27,3.67-2.37,3.33-3.57,6.48-3.38,8.92.01.02.01.06,0,.11v.09s-.01,0-.01,0c-.07.44-.45,1.58-.66,2.42-.23.84-.22,1.4.3.65-1.14,4.39-1.58,5.54-2.17,6.61-.25.54-.5,1.08-.75,2.02-.28.94-.48,2.31-.65,4.5l1.05.43c-.67,6.65.84,13.19,2.49,17.85l-.76.82c.48,1.64.67,1.43.9,1.45.24.02.48.28,1.29,2.77.04.75-.07,1.46-.33,1.41,1.55,4.87,3.6,11.45,7.76,18.09-.18.05-.86-.73-1.21-1.12.89,1.44,2.21,3.21,3.66,4.95,1.45,1.74,3.06,3.43,4.47,4.79,2.36,3.87,5.93,8.21,10.47,12.11,4.54,3.88,10.04,7.3,15.79,9.51,4.79.79,8.82.72,11.74.12,1.46-.26,2.65-.69,3.55-1.17.9-.48,1.5-1.02,1.81-1.63-1.84-2.03-9.84-5.27-18.38-11.52Z" style="fill: #efbf04;"/>
    </g>
    <path d="m71.4,108.14c.06-.32.12-.64.18-.96.96-5.91,1.06-11.87,1.83-18.46.67-4.6.74-9.9.98-14.53-.97,10.94-1.44,22.47-3.47,32.93-.45-1.09-.78-2.39-.7-3.87.39-3.55.71-7.07.99-10.55.22.01.64.03.85.04-.12-9.95,2.08-19.11,1.54-29.08-.13.35-.3.13-.43.05,0-.02,0-.05,0-.07,0,.02,0,.05,0,.07-.12-.07-.21-.04-.25.58.03-.62.13-.65.25-.58-.31,9.76-1,18.87-1.93,28.59,1.2-15.1,1.56-29.7,2.38-45.2.03-.66.1-1.98.14-2.64.78-2.61,1.13-5.24,1.27-7.88,1.03.72,3.31-1.81,2.6,3.45.21.01.64.03.85.05,1.35-5.23,4.44-7.06,5.02-1.72.54,5.99-.74,13.88-.69,21.17-.07,5.3-.13,10.6-.84,15.86-1.03,7.24-1.23,15.18-2.47,22.4-.35,2.63.04,7.29-.67,8.58-.36.93-.81.95-1.31.77.31-4.34.56-8.67.88-12.95.52-5.24,1.06-10.48,1.77-15.71-.86,5.1-1.37,10.37-1.77,15.71-.42,4.26-.83,8.53-1.28,12.79-.43-.18-.87-.35-1.31-.12,0,0-.07,1.32-.1,1.98-1.21,2.59-2.67,1.85-3.67.47-.2-.35-.42-.74-.65-1.17Z" style="fill: #efbf04;"/>
    <path d="m109.63,80.56c-.32-.06-.65-.12-.97-.18-5.96-.91-11.96-.92-18.59-1.63-4.64-.63-9.97-.62-14.62-.8,11.02.85,22.62,1.15,33.17,3.13-1.09.49-2.39.86-3.88.8-3.58-.35-7.12-.64-10.62-.88,0-.23.03-.67.04-.89-10,.28-19.25-1.89-29.27-1.16.35.13.13.31.05.45-.02,0-.05,0-.07,0,.02,0,.05,0,.07,0-.07.12-.03.23.59.25-.62-.02-.66-.12-.59-.25,9.82.17,18.99.75,28.78,1.57-15.2-1.02-29.9-1.16-45.5-1.78-.66-.03-2-.08-2.66-.11-2.63-.78-5.29-1.11-7.95-1.21.71-1.1-1.86-3.45,3.44-2.79,0-.22.03-.67.04-.9-5.28-1.33-7.15-4.56-1.79-5.25,6.02-.66,13.97.55,21.3.39,5.33-.01,10.66-.03,15.96.63,7.29.96,15.28,1.05,22.56,2.24,2.65.33,7.34-.16,8.64.57.94.36.96.84.79,1.37-4.37-.25-8.73-.45-13.04-.72-5.28-.46-10.56-.95-15.83-1.61,5.15.82,10.45,1.27,15.83,1.61,4.29.37,8.59.73,12.88,1.14-.18.45-.35.93-.1,1.38,0,0,1.33.05,1.99.08,2.62,1.23,1.89,2.78.52,3.85-.35.21-.74.46-1.17.7Z" style="fill: #efbf04;"/>
  </g>
</svg>