<?xml version="1.0" encoding="UTF-8"?>
<svg id="Layer_2" data-name="Layer 2" xmlns="http://www.w3.org/2000/svg" viewBox="0 0 121.84 51.12">
  <g id="Icon">
    <g>
      <path d="m8.36,36.97c-.08-.26-.17-.52-.25-.78.18.51.42,1.23.71,2.07-1.22-3.75-2.66-8.02-4.1-12.22C3.15,21.53,1.6,17.06.28,13.27c1.03-.12,2.01-.24,2.95-.35,2.61-.28,4.92-.57,5.17-.64.24-.07-1.69.1-4.32.39-.73.07-1.57.16-2.13.22-.63.06-1.26.13-1.96.2,1.27,3.85,2.73,8.3,4.33,13.14-.3-.93-.62-1.9-.92-2.84.47,1.4.93,2.78,1.45,4.32-.05-.17-.11-.37-.16-.54,1.57,4.81,3.83,11.37,5.03,14.66,1.21,3.3.91,2.09-.66-2.72l-.7-2.14Z" style="fill: #f1c724;"/>
      <path d="m5.56,27.95c.94,2.87,1.85,5.64,2.77,8.41l.17.55v-.2s-.02-.05-.02-.05c-.93-2.57-2.4-6.82-3.75-10.74l-.48-1.4c-.24-.67-.4-1.11-.46-1.24-.14-.32.25.92.86,2.74l.71,2.11c1.71,5.14,4.45,13.22,5.53,16.05.24.64.08.06.06-.09.11.18-.51-1.76-1.38-4.33-.87-2.57-1.65-4.76-1.75-4.93-.14-.43-.29-.88-.44-1.32.12.34.24.68.36,1.02-.28-.71-1.08-3.05-1.7-4.78l-.9-2.6.4,1.51.47,1.35c-.03-.11-.08-.27-.09-.29.91,2.59,1.76,5.02,2.73,7.82l1.24,3.55c.35.96.34.86,0-.2l-.52-1.59c.08.24.15.48.23.72-1.22-3.65-2.5-7.48-3.71-11.1-.19-.56-.42-1.21-.54-1.56-.1-.25-.02,0,.17.59Z" style="fill: #f1c724;"/>
      <g>
        <path d="m9.94,40.8c.2.6.39,1.17.67,2,.07.2.11.3.13.36-.1-.31-.24-.74-.38-1.16-.27-.83-.42-1.26-.42-1.2Z" style="fill: #f1c724;"/>
        <path d="m10.73,43.16c.09.29.16.48.16.48-.03-.11-.07-.22-.1-.32-.03-.09-.03-.09-.03-.09,0,0,0,0-.02-.06Z" style="fill: #f1c724;"/>
        <path d="m121.81,18.12c-.01,9.56-.03,19.15-.04,28.75-2.83.14-5.66.28-8.5.43-.4.02-.74.04-.75.05-.02,0,.29,0,.66-.02,2.88-.14,5.76-.29,8.62-.43.01-9.57.03-19.09.04-28.61,0-.4,0-.73-.01-.79,0-.02-.01.26-.01.63Z" style="fill: #f1c724;"/>
        <path d="m59.97,49.43c.28-.02.27-.03-.02-.01-.26.01-.69.04-.98.05-.24.02-.23.02.02.01.3-.02.73-.04.98-.05Z" style="fill: #f1c724;"/>
        <path d="m62.5,48.81c1.66-.1,3.23-.19,4.66-.27.27-.01.55-.03.78-.04-.1,0,.22-.03.82-.07,11.91-.66,24.59-1.36,37.11-2.06.08-.01.25-.03.53-.05.87-.07,2.61-.17,4.42-.26l1.36-.06c2.76-.13,5.52-.27,8.26-.4,0-2.4.01-4.79.02-7.17,0-1.14-.01-2.43-.02-3.84-.03-4.75-.06-9.51-.08-14.37,0,.31-.02.49-.02.49-.02-.09-.04-1.22-.04-2.53,0-.66,0-1.33,0-1.99,0,1.9-.01,3.81-.02,5.71,0,.27,0,.53,0,.76,0,2.09,0,4.19,0,6.34.01,5.6.02,11.09.03,16.49-12.23.68-24.09,1.34-35.9,2-.29.01-.72.03-.99.05-.17,0-.14,0,.18-.02,10.98-.67,20.64-1.26,32.9-2.01,1.2-.07,2.41-.14,3.6-.21-.06-13.04-.12-25.95-.19-39.29,0-1.31,0-2.61,0-3.87-13.48,1.51-26.26,2.95-40.18,4.51-21.74,2.41-42.25,4.69-63.5,7.05-3.05.33-5.99.64-8.55.92-2.38.24-5.3.53-4.66.42,0,.04,0,.07,0,.1,0,.03-.02.04.03.22.04.2,0,.14-.12-.13-.04-.06-.11-.18-.2-.39.1-.02.21-.04.33-.07l.15-.02c.12-.02.25-.03.38-.05.26-.03.53-.07.8-.1-.49.05-.98.11-1.47.16l-.28.03.38,1.16c.93,2.78,1.7,5.16,2.17,6.67l.65,2.07c.83,2.76,2.25,7.22,2.91,9.49l-.21-.49.17.53c.57,1.75.93,2.94,1.03,3.36l-.1-.15c-.18-.35-.52-1.2-1.05-2.59,0,.06-.08-.11-.22-.46.36,1.21.5,1.79.12.87.23.72.17.61-.13-.24-.1-.3-.23-.65-.35-1.01,0,0,0,0,0,0,.13.41.16.53.33,1.05.24.72.38,1.13.38,1.13q.64,1.9,1.19,3.55c.44,1.38.74,2.31.74,2.31q.45,1.6.33,1.37c-.04-.1-.07-.2-.11-.3.41,1.26.44,1.35.56,1.69.11.34.19.6.19.6q0,.06.07.28c.02.07,0,.06,0,.06q-.26-.69-.27-.71c-.07-.18-.14-.39-.14-.39-.29-.82-.4-1.15-.45-1.28-.55-1.78-.55-1.78-.55-1.78l-.15-.38-.12-.42.06.24-.29-.9.33,1.02q-.71-2.11-1-2.95c-.3-.88-.56-1.63-.59-1.72.02.08.02.08.02.08q-.76-2.26-1.5-4.46c-.06-.2-.11-.36-.16-.52-.08-.23-.22-.64-.37-1.06l-.39-1.15c-.03-.09-.06-.17-.09-.25h0c-.14-.39-.23-.66-.34-.97-.07-.19-.07-.2-.07-.2h0c-.23-.68-.57-1.65-1.47-4.21-.23-.68-.44-1.32-.64-1.92.06.19.12.38.18.56.12.36-.01.04.05.24,1.62,4.86,3.37,10.08,5.1,15.25.32.93.6,1.8.63,1.94.03.13-.21-.53-.54-1.48-1.28-3.7-2.65-7.65-4.04-11.68C3.36,22.21,1.84,17.72.34,13.3c4.01-.42,7.95-.84,11.69-1.23,2.98-.32,5.97-.64,8.97-.96l-.43.04c.78-.08,1.55-.16,2.33-.24l.25-.03c-.59.05-1.18.11-1.77.16-.41.04-.81.08-1.22.12-6.89.72-13.24,1.39-19.9,2.09.23.67.46,1.36.69,2.05,1.16,3.5,2.17,6.56,3.28,9.89.28.84.47,1.42.42,1.33-.05-.09-.32-.87-.6-1.69-1.29-3.8-2.64-7.75-3.99-11.7,4.52-.49,9.03-.97,13.3-1.43,3.8-.38,7.38-.75,10.58-1.07,2.06-.22,4.05-.42,5.75-.6h.09c-.44.03-.85.06-1.28.1,1.53-.15,2.41-.24,3.81-.38-.17,0-.36.01-.53.02,7.67-.82,15.9-1.7,23.09-2.47.29-.03.55-.06.82-.09,3.08-.36,6.18-.72,9.78-1.13-1.23.13-2.43.26-3.66.39,2.65-.3,5.25-.6,8.06-.91,7.63-.84,16.18-1.71,20.23-2.05,10.57-1.17,21.14-2.34,31.7-3.51,0,4.86.01,9.71.02,14.56,0,.77,0,1.46-.02,1.59-.01.08-.02-.43-.03-1.19-.01-4.93-.03-9.89-.04-14.88-6.29.7-12.61,1.41-18.95,2.12,6.25-.68,12.52-1.35,18.87-2.04,0,3.28,0,6.59,0,9.93,0,1.18,0,2.37,0,3.56,0,1.18,0,2.34,0,3.51,0,10,0,19.58.01,29.6-2.24.12-4.52.24-6.83.36-10.3.56-19.32,1.05-29.59,1.6-14.43.77-27.57,1.48-41.79,2.24-1.89.1-3.65.17-3.87.15-.23-.02,1.14-.12,3.04-.22,26.2-1.4,51.99-2.78,78.95-4.23,0-4,0-8.02,0-12.08,0-3.36,0-6.66,0-9.94,0,.04-.01.08-.01.08,0,0-.02-.08-.02-.22,0-.17-.01-.38-.02-.62,0,3.73-.01,7.48-.02,11.26.01,3.81.02,7.63.03,11.48-7.05.37-14.2.74-21.66,1.12-7.65.36-14.6.69-21.7,1.03-8.98.48-17.94.96-27.01,1.44-.35.02-.7.03-.87.04-.13,0,.06-.02.43-.04,6.25-.35,12.64-.71,19.08-1.07-1.02.03-1.63.04-1.55,0,.08-.03.87-.1,2.07-.18l-4.39.22c-.45.02-.85.04-1.14.05-.29.01-.46.01-.45,0,0,0,.19-.02.48-.04.3-.02.69-.04,1.11-.06,5.97-.3,11.93-.61,17.88-.91,7.15-.38,14.28-.76,21.44-1.14-.99.03-1.73.05-2.08.04h0c-1.11.06-2.22.11-3.32.17-20.28,1.07-40.97,2.16-61.83,3.27-.41.02-.75.03-.75.03,0,0,.31-.03.68-.05,6.31-.32,12.59-.64,18.86-.96-.01,0-.02,0-.03,0-.25,0-.3,0-.02-.01.25-.01.73-.04.98-.05.29-.01.26,0,.03.01,11.66-.62,23.25-1.24,34.71-1.85-10.63.54-21.26,1.08-31.88,1.63-1.16.07-2.31.13-3.49.2-.31.01-.7.03-.87.04-.09,0,.14-.02.47-.04.33-.02.65-.04.97-.06-.99.04-1.87.08-2.53.11-.64.02-1.02.03-1,0,.11-.04,1.84-.15,3.92-.26,5.59-.29,11.16-.58,16.73-.87l1.81-.1c.61-.04,1.21-.07,1.82-.11-8.66.43-17.31.85-25.91,1.28-.36.02-.7.03-.96.04-.25,0-.41.01-.42,0,0,0,.14-.02.37-.03.25-.01.58-.03.94-.06,15.16-.81,30.49-1.63,45.88-2.45,5.05-.31,10.13-.62,15.28-.94-.65.03-1.31.07-1.97.1-16.69.92-30.99,1.7-47.15,2.59-.41.02-.74.03-.8.03-.04,0,.23-.02.64-.04,7.89-.44,15.13-.84,22.98-1.28,6.49-.36,12.66-.71,18.72-1.05-12.33.67-24.21,1.31-36.44,1.97-.53.02-1.05.05-1.41.07-.06,0-.16.01-.3.02-1.54.09-3.21.19-4.9.29-.32.01-.7.03-.91.04-.17,0,.03-.01.39-.03ZM10.16,12.69c-.12.01-.22.02-.31.03.33-.03.69-.07,1.08-.11l1.51-.12s-1.14.1-2.28.2Zm-5.59,11.07s0,0,0-.01c.15.48.25.83.25.83-.1-.34-.18-.6-.25-.82ZM111.57,1.3c-6.46.7-12.85,1.38-19.26,2.07,1.56-.17,3.12-.35,4.68-.52,4.84-.52,9.7-1.03,14.59-1.55ZM2.22,17.97c-.53-1.66-.98-3.05-1.4-4.36.18-.02.34-.03.51-.05,1.28-.14,2.6-.29,3.94-.44,3.18-.34,6.28-.68,9.34-1.01-.4.03.33-.05.71-.09.39-.04.77-.09,1.15-.13-3.26.34-6.53.69-9.85,1.04-1.92.2-3.92.42-5.88.63.51,1.53,1.01,3.01,1.48,4.41Zm7.43,21.64c.03.09.05.17.08.27l-.22-.57s.06.13.14.3Zm.35.9c-.05-.14-.1-.29-.15-.44.06.16.11.3.15.44Zm-1.35-4.09c.08.25.13.4.18.58-.18-.58-.18-.58-.18-.58Zm-.27-3.14l-.66-1.55.7,1.69-.04-.15Z" style="fill: #f1c724;"/>
      </g>
    </g>
  </g>
</svg>