<?xml version="1.0" encoding="UTF-8"?>
<svg id="Layer_2" data-name="Layer 2" xmlns="http://www.w3.org/2000/svg" viewBox="0 0 69.95 68.92">
  <g id="Icon">
    <path d="m34.87,35.74c.11-.37.19-.65.31-.87.1-.26.21-.47.34-.65.13-.18.21-.36.3-.45.06-.05.05-.08.12-.09-.11-.03.29.07.55.1.53.08.87,0,.78.02.04,0-.04,0-.08.02l-.12.04-.29.12c-.14.06-.26.12-.36.19l-.14.07h-.01s0,0,0,0c-.04-.05-.72-.34-1.4-.02-.32.19-.57.33-.73.56l-.11.13-.06.17-.02.06s0,.1,0-.02c0-.14.01-.3,0-.46-.03-.35-.01-.56-.09-.91-.02-.13-.03-.22-.06-.35l-.05-.19-.03-.1s0,.02,0,.03c.05.16.23.6.49.98.26.4.62.8,1,1.15.19.17.38.31.56.45l.14.09s.01,0,.03.02c.02.02.03.03.03.03.04.06.06.13.06.22.02.1.03.21.02.33l-2.61-6.01c-.16.05-.21.08-.29.13-.07.05-.22.19-.34.38,0-.01.02-.02.03-.04-.18.27-.34.5-.49.72-.19.29-.34.52-.41.7-.4,1.11-.55,2.45-.76,3.86-.2,1.41-.52,2.89-.9,4.34-.18.73-.78.58-1.26.39-.47-.17-.86-.37-.77.5-.61-.24-1.3-.6-1.99-.93-.69-.37-1.36-.73-1.88-1.01-1.06-.55-1.9-.67-1.38,1.03-.17.91.88,1.9,2.02,2.71,1.14.84,2.35,1.54,2.57,2.8.23,1.28-.36,2.27-1.1,3.21-.71.95-1.56,1.84-1.1,3.21.84.3,2.13.65,3.44.88,1.32.2,2.67.33,3.57.3.9.76.51,1.89-.02,2.83-.51.94-1.11,1.68,0,1.7,3.26.79,7.39.3,11.02-1.29,1.84-.77,3.56-1.78,5.18-2.94.81-.58,1.59-1.2,2.36-1.86.39-.34.77-.68,1.17-1.06l.61-.6.33-.33.42-.45c.56.51,1.32.79,1.81,1.23.24.22.42.48.47.83-.07.17-.17.38-.3.61-.08.17-.18.36-.31.57-.25.4-.53.83-.92,1.3-1.92,1.76-3.85,3.21-6.06,4.51-2.2,1.29-4.64,2.38-7.28,3.17-2.63.8-5.5,1.26-8.37,1.3-2.88.07-5.72-.3-8.45-.99-5.49-1.41-10.54-4.27-14.53-8.16-4.01-3.88-7-8.77-8.67-14.08l-.83-2.63.19-3.52c.39-7.45,3.04-15.03,8.2-21.35,2.57-3.16,5.84-5.97,9.67-8.13,1.91-1.09,3.99-1.97,6.13-2.68,1.07-.32,2.16-.59,3.26-.85,1.1-.26,2.17-.37,3.26-.51,4.34-.47,8.56-.11,12.52.87,3.97.98,7.68,2.63,11.14,4.87,3.45,2.25,6.64,5.14,9.31,8.78,2.65,3.65,4.69,8.1,5.63,12.85.99,4.74.81,9.67-.25,14.12-1.06,4.47-2.97,8.5-5.42,12-2.46,3.5-5.49,6.5-8.98,8.92-3.49,2.42-7.46,4.25-11.71,5.3-4.24,1.06-8.73,1.29-13.02.7-4.3-.59-8.41-1.97-12.1-3.98-7.38-4.01-13.16-10.66-16.07-18.38-.78-2.4-.77-3.85-.55-4.5.17-.19.38-.3.64-.32.13-.01.26,0,.41.01.15.03.34.17.52.3,1.5,1.1,3.79,3.87,6.41,5.96-1.68-1.5.32-2.49-1.15-4.03.52-.22,1.23-.23,2.04-.07.8.16,1.73.49,2.74.94,1.99.94,4.23,2.33,6.72,4.19-1.11-1.09-2.15-2.25-3.02-3.54-.12-.86.37-1.15,1.02-1.36.66-.21,1.47-.35,2.08-.78.72,1.07,1.6,2.03,2.16,1.5.55-.51,1.66-1.53,2.22-2.04-.71-.73-1.89-2.42-2.31-3.35.46.91,1.04,1.76,1.66,1.33.62-.43,1.86-1.28,2.49-1.71.34.22.68.48.92.85.3.32.52.76.83,1.12.56.79,1.34,1.47,2.18,1.49l1.03-2.01c-.34-.62-.93-.96-1.53-1.39-.33-.18-.59-.43-.89-.63-.24-.25-.54-.45-.67-.71.94.06,1.54-.48,2.71-1.4.64.19.75.82,1.16,1.33.38.47,1.07.76,1.81-.23-.07-.02-.14-.04-.22-.05-.07-.04-.14-.07-.21-.09-.15-.03-.28-.14-.43-.19,1.15-1.52,1.34-1.68,1.58-1.44.2.25.61.74.79.32Z" style="fill: #efbf04;"/>
    <path d="m23.61,31.74l.05-.51c-.06,1.65-.26,3.37-.47,5.05.58-1.81,1.14-3.81,1.3-5.73.02-.24.04-.48.04-.71v-.18c0-.07,0-.12,0-.1l-.02-.04c-.03-.05-.09-.12-.18-.23-.18-.22-.49-.63-.96-1.46.51.48.89.73,1.11,1.01.21.26.27.38.15.09-.18-.46-.33-.96-.46-1.46.07.31.15.61.25.91-.09-.3-.17-.6-.25-.91l-.1-.43c0-.55.58.08,1.05.76.25.35.47.72.64,1.05.74,1.02,1.49,2.06,2.24,3.1.91,1.23,2.71,3.42,4.5,5.57,1.79,2.15,3.52,4.29,4.4,5.53.26.35.52.71.78,1.06q-.41-.62-.81-1.23c.35.3.7.59,1.04.88l.13.11s.08.07.17.16l.45.44c.29.29.57.57.85.85,1.06,1.09,2.07,2.14,3.06,3.16-.3-.6-.33-.87-.99-1.99l.86,1.19c.9.4,2.62,2.55,3.37,3.18-.1.25.57,1.14,1.17,1.94l-.3-.62c.8,1.04,1.64,2.08,2.45,3.06.09-2.34.11-4.78.22-6.66.02-.42.11-.61.2-.69l-.03-3.14c.28.54.39-2.25.5-.65-.12-1.3-.1-2.42-.07-3.53.04-1.28.03-1.77-.11-2.48.26-4.74.45-9.81.29-14.78l-.12.11c-.08-1.74-.58-3.3-.25-5.38-.32-1.52-.42-3.66-1.04-4.29,0-1.73-.29-2.43-.39-4.13-.34.42-.32-1.66-.6-.83-.49,1.1-.12,1.18-.52,2.11l.11-.02c-.67,4.41-1.22,8.8-1.7,13.27.05,3.01-.43,6.25-.58,9.39-.07,1.69-.11,3.46-.12,5.17v.32c0,.14,0,.09,0,.15l.03.2c.02.14.04.28.06.42.05.34.09.66.13.97.07.38-.19.22-.33.14.04.45.04.94.02,1.38-.33-.38-.65-.77-1-1.05.01.02.02.04.03.06-.18-.17-.33-.47-.46-.72-.13-.26-.22-.47-.38-.62-.06.08-.11.02-.17.03.02-.06.04-.07-.06-.2-.17-.21-.43-.48-.75-.8-.63-.63-1.49-1.43-2.36-2.23-1.75-1.59-3.53-3.15-3.62-3.44-.12-.11-.25-.22-.37-.34-2.06-2.56-3.62-5.61-5.43-7.71-.05-.02-.17-.12-.27-.21l-.31-.26-.6-.51c-.39-.33-.75-.62-1.06-.84-.41-.82-.66-.57-1.22-1.36-.61-1.48-1.28-2.52-1.6-2.93-.34-.41-.35-.16.04.6-1.24-1.44-2.49-3.2-3.57-4.58-.45-.48-.9-.96-1.35-1.45-.36-.36-.69-1-1.09-1.87-.13-.15-.24-.28-.33-.38.03,1.23-.13.55-.22,2.09-.15-.14-.04,1.45.1,2.99.13,1.56.29,3.04.24,3.23l-.04-.38c-.03,1.05-.2,1.74-.36,2.51-.16.76-.33,1.62-.35,2.8-.05.8-.09,1.61-.14,2.42-.04.78-.07,1.56-.11,2.34-.05.95-.09,1.91-.14,2.86-.08,1.9-.17,3.77-.33,5.49.31.05-.02-.76.39-.78-.18,2.03-.7,4.06-.87,6.13-.1.37-.29.82-.39.98-.15.66.13.4.06.88l-.28.05c.19.72-.36,1.02-.28,1.7.11.04.11.29.09.52-.3,0-.01.73-.28.69h.02c-.01.15,0,.25-.05.43.09.28.82,2.87.94,3.15l-.05.13c0,.38.21.55.27.33l-.03.47-.02-.05-.03.47c-.03.09-.17.18-.3.04.1.27.15.57.09.83.19-.74.48-1.65.8-2.41.09.32-.08.89-.06,1.23-.21.4-.39,1.24-.54,1.9.01.14.35.25.19.57-.23.16,0,.37-.17.64-.12-.31-.06-.62-.04-.94-.27.05-.2.77-.28,1.02.08.12,0,.73.07,1.12-.26-.17-.17.31-.31.54-.03.26.07.43.16.32.28.08.17-1.03.47-.67-.14.09-.09.6-.08.88.15,0,.12-.19.26,0-.04.3.15.63-.01.8-.04-.06-.01-.18-.01-.27-.02.4-1-2.15-.91-1.64.14-.13.9,2.26.91,1.99.08-.24.28.17.33-.08l-.19-.28c.06-.34.33-.48.44-.36-.03.57-1.04-1.63-.89-1.14l.07-.2c.1.21.18.76.02.97.15,0,.2.28.26.51l-.03.08c.08.24.04.57.24.42-.02-1.4,1.55.92,1.64-.43-.34.57-.34-.19-.38-.79.11-.06.28-.32.37-.75-.02-.37-.12-.22-.21-.29.08-.2.14-.6.32-.54-.21-.29.14-.46.07-.8-.09-.31-.09.02-.19-.2.03-.46.07-1.1.12-1.46.17-.14.47-.56.72-.24-.05.69-.42-.27-.37.45.39-.3.09.64.38.77.18-.23.19-.69.14-1.08l-.05.08c-.05-.34-.11-1.03.11-1.39.13.09.24-.07.26.18l.04-.47c-.04-.06-.08-.12-.12.01-.1-.22-.03-.44.05-.61.14-.05-.51-2.52-.42-2.44,0-.34.22-.41.09-.75-.11-.04.36,3.26.34,2.81.16-.28-.56-3.87-.28-4.07,0-.25-.01-.56-.16-.5.09-.42.27.14.41-.16-.02,0-.07.02-.06-.07l.19-.28c-.19-.67.15-1.62-.1-2.33.14.21.4.45.52.9l-.08.07c.04.07.07.43.21.43.12-.42.11-.78,0-1.23.04-.08.09-.17.13-.23-.02,0-.03,0-.06,0,.1-.14.11-.12.16-.07,0,0,.02.02.03.03.43-.24-.17-1.67.1-2.42-.04-.23-.07-.03-.13-.31.21-.78.38-1.31.52-2.13-.16-.27-.23-.3-.44,0l.1-.62c.44.6.53-1.13.97-.48.12-.18.17-.55.11-.9-.12-.04-.31-.11-.28-.55.2-.6.13-.46.31-.96.16-.11.22.08.34.06-.15-.79.38-.66.39-1.4-.02-.47.01-1.38-.26-1.42.05-.62.25-.61.47-.54Z" style="fill: #1b1614;"/>
  </g>
</svg>