<?xml version="1.0" encoding="UTF-8"?>
<svg id="Layer_2" data-name="Layer 2" xmlns="http://www.w3.org/2000/svg" viewBox="0 0 69.09 69.16">
  <g id="Icon">
    <path d="m35.6,34.14c-.38.07-.67.12-.92.12-.28.03-.51.02-.73-.01-.22-.03-.42-.03-.54-.07-.07-.03-.1-.01-.13-.06.02.12-.07-.29-.16-.54-.17-.51-.39-.77-.33-.7-.03-.03.03.03.06.06l.09.09.24.21c.12.1.23.17.33.24l.12.09h0s0,.02,0,.02c-.02.06.02.79.61,1.25.31.2.56.36.83.4l.16.04.18-.03h.06s.09-.05-.02,0c-.13.06-.27.12-.41.21-.3.18-.49.26-.77.49-.11.08-.18.13-.29.21l-.15.13-.07.07s.02-.02.02-.02c.12-.12.43-.48.66-.88.24-.42.44-.91.58-1.41.07-.25.11-.48.15-.71l.02-.16s0-.01,0-.04c0-.02.02-.04.02-.04.03-.07.09-.11.17-.15.08-.06.17-.12.29-.17l-4.19,5.03c.11.12.16.15.25.2.07.04.27.11.49.13-.01,0-.03,0-.04,0,.32.04.6.08.86.11.35.04.62.07.81.05,1.17-.14,2.44-.61,3.79-1.06,1.35-.46,2.81-.84,4.29-1.15.73-.17.87.43.92.95.06.5.05.93.79.47.06.66.05,1.43.06,2.19-.02.79-.04,1.54-.06,2.13-.02,1.2.26,1.99,1.54.77.88-.26,1.3-1.64,1.52-3.02.24-1.4.32-2.79,1.34-3.56,1.04-.78,2.19-.7,3.36-.46,1.16.21,2.35.56,3.36-.46-.11-.88-.38-2.19-.76-3.47-.42-1.27-.91-2.53-1.33-3.33.27-1.15,1.46-1.3,2.53-1.26,1.07.04,2,.23,1.52-.76-.76-3.27-3.06-6.74-6.11-9.26-1.52-1.3-3.19-2.38-4.95-3.3-.88-.47-1.79-.88-2.73-1.27-.48-.2-.95-.38-1.47-.57l-.81-.28-.45-.14-.59-.18c.2-.73.11-1.53.29-2.17.09-.32.24-.59.54-.79.19-.02.42-.02.68,0,.19,0,.41,0,.65.02.47.04.98.1,1.57.24,2.44.92,4.6,2,6.75,3.39,2.14,1.38,4.21,3.07,6.1,5.08,1.9,1.99,3.6,4.35,4.92,6.9,1.36,2.54,2.31,5.24,2.92,7.99,1.21,5.53.93,11.34-.75,16.65-1.66,5.32-4.68,10.2-8.68,14.08l-1.98,1.92-3.23,1.42c-6.83,3-14.79,4.05-22.76,2.29-3.97-.88-7.96-2.53-11.61-4.98-1.83-1.21-3.55-2.67-5.15-4.27-.77-.82-1.5-1.66-2.22-2.53-.72-.86-1.3-1.77-1.93-2.68-2.37-3.66-3.95-7.59-4.85-11.57C-.02,38.29-.21,34.23.23,30.13c.46-4.09,1.61-8.25,3.65-12.26,2.07-4,5.12-7.83,8.94-10.81,3.79-3.02,8.27-5.07,12.72-6.13C30.01-.13,34.47-.24,38.7.38c4.23.62,8.28,1.98,12.01,4.01,3.73,2.03,7.15,4.75,10,8.07,2.85,3.31,5.08,7.21,6.49,11.32,1.41,4.11,2.02,8.4,1.88,12.6-.26,8.4-3.6,16.55-9.19,22.63-1.79,1.78-3.09,2.42-3.77,2.52-.25-.06-.44-.21-.58-.42-.07-.11-.13-.23-.17-.37-.04-.15,0-.38.03-.6.31-1.83,1.75-5.13,2.44-8.4-.58,2.18-2.37.84-3.08,2.84-.43-.37-.76-1-.98-1.79-.21-.79-.34-1.77-.39-2.87-.06-2.2.18-4.82.71-7.88-.47,1.48-1.04,2.93-1.81,4.29-.71.5-1.19.19-1.67-.3-.48-.49-.97-1.15-1.63-1.51.63-1.13,1.09-2.34.37-2.6-.7-.26-2.12-.8-2.82-1.06-.33.97-1.31,2.77-1.95,3.57.61-.82,1.11-1.72.44-2.08-.66-.36-1.98-1.09-2.65-1.45.05-.4.13-.82.35-1.2.15-.41.45-.8.62-1.25.45-.85.71-1.85.35-2.61l-2.26-.02c-.4.58-.43,1.26-.55,1.99-.01.37-.12.72-.16,1.08-.11.33-.16.68-.33.92-.37-.87-1.12-1.16-2.48-1.79-.11-.66.4-1.04.66-1.63.25-.55.2-1.3-1.02-1.52.01.07.03.14.06.22,0,.08,0,.16.01.23.05.15,0,.31.03.47-1.87-.34-2.11-.44-2-.77.13-.29.39-.88-.07-.85Z" style="fill: #efbf04;"/>
    <path d="m24.75,24.61l.21-.17c-.59.63-1.3,1.22-2.01,1.78,2.05-.74,4.25-1.81,3.88-4.27.87.63,2.54-.36,2.38-.57.14-.41.3-.8.49-1.18-.14.25-.27.5-.39.76.12-.26.25-.51.39-.76.6-1.18,1.45-2.18,2.44-3.08.49-.45,1.03-.86,1.58-1.27l.4-.29.15-.04c.09-.02.18-.03.26-.03.07,0,.16-.01.27-.02.09.04.17.25.23.36.03.07.05.13.07.19l.02.08s.19.23.27.33c.4.48.74.9.97,1.22l.4.56q-.2-.34-.4-.67c.87.48,1.68.88,2.4,1.38,0-.21.09-.33,0-.74l.23.38c.59-.02,1.21.65,1.64.84-.23.09-.03.37.15.62l.03-.19c.71.9,1.75,1.75,2.42,2.53.1.11.11.24.09.34l.8.61c-.28.15.35.79-.11.57.77.3,1.11,1.01,1.87,1.28,1.74,1.84,3.74,3.68,5.95,5.22l.04-.13c.81.51,1.79.67,2.46,1.58.86.26,1.84.86,2.5.58.73.54,1.22.51,1.99.92.02-.39.89.22.7-.24-.16-.7-.42-.42-.56-1l-.06.09c-1.39-1.77-2.81-3.55-4.32-5.33-1.28-.93-2.28-2.33-3.45-3.49-1.28-1.22-2.73-2.52-3.96-3.48-.31-.21-.3-.58-.4-.92-1.06-.95-2.21-2.36-3.46-3.41.02.02.04.05.05.06-.63-.58-.84-1.28-1.48-1.84-.06.07-.16-.02-.24-.03.1-.2-.94-.94-2.04-1.64-.71-.47-1.42-.94-1.96-1.3-.59-.4-.98-.69-1.06-.82-.11-.06-.21-.12-.32-.2-.25-.23-.49-.47-.75-.73l-.38-.39-.19-.2c-.06-.06-.13-.18-.2-.09-.54.3-1.1.61-1.64.91-.57.31-1.13.69-1.7,1.08-.28.19-.55.4-.82.6-.13.1-.28.22-.38.31l-.22.21c-.11.37-.27.76-.32,1.11-.32.05-.12.34-.39.53-1.18-.05-1.28.55-.77.47-.41.55-.95.97-1.35,1.41-.15.24-.3.48-.45.73-.12.22-.3.22-.53.16-.34.51-.36.24-.87.63-.32-.1-.79,1.46-.97,1.53l.04-.1c-.55.48-1.3.43-1.82.92-1.54,1.27-2.89,2.96-4.24,4.18.21.23.23-.33.54-.06-.79.72-1.83,1.22-2.63,1.93-.2.08-.47.13-.61.12-.32.16-.04.25-.25.39l-.22-.18c-.1.42-.6.14-.76.46.07.09-.01.19-.11.27-.21-.21-.25.27-.43.06v.02s-.07.1-.17.12c-.02.17-.42,1.64-.44,1.83h-.08c-.14.15-.05.37.07.33l-.19.15v-.03s-.18.14-.18.14c-.05,0-.18-.06-.22-.2-.03.17-.1.31-.24.35.4-.11.92-.22,1.41-.27-.05.18-.37.27-.48.41-.29,0-.72.15-1.06.27-.04.06.14.34-.08.34-.21-.12-.13.13-.35.09.04-.2.19-.26.32-.35-.2-.19-.41.12-.55.14.01.1-.28.23-.38.4-.1-.25-.22-.03-.4-.07-.12.06-.11.19-.02.23.15.25.5-.19.55.15-.12-.08-.29.12-.38.22.1.12.15.03.17.2-.14.07-.15.32-.31.25,0-.05.06-.07.1-.1-.16.11.18-1.46.04-1.22.14.06-.27,1.42-.17,1.34.14-.02.11.27.24.23v-.23c.16-.06.38.1.4.22-.23.16-.04-1.33-.13-1.06h.12c-.01.14-.17.38-.35.32.1.12.02.25-.03.37h-.05c-.04.14-.19.22,0,.33.53-.47.61,1.51,1.2,1.13-.44-.07-.14-.33.07-.56.1.07.31.11.54.04.13-.14,0-.17-.02-.26.13,0,.33-.09.42.06-.02-.26.27-.05.36-.23.06-.18-.07-.06-.05-.21.19-.14.47-.34.64-.44.17.08.53.14.58.45-.3.22-.17-.41-.42-.11.38.18-.18.3-.05.56.2.05.39-.11.52-.29h-.06c.1-.17.33-.47.61-.45.06.13.19.15.11.26l.2-.15c0-.05-.01-.11-.08-.08.02-.16.14-.19.26-.2.12.08.58-1.34.6-1.25.13-.13.3,0,.33-.23-.06-.09-.93,1.53-.79,1.34.23.01,1.01-1.91,1.27-1.8.09-.1.18-.23.06-.31.21-.11.14.24.35.23-.01-.02-.06-.04-.02-.07l.24.02c.1-.4.67-.56.72-1.02.03.19.14.46.07.73l-.08-.02c0,.05-.1.23,0,.33.23-.09.35-.24.42-.51.06,0,.12-.01.17,0-.01-.01-.03-.02-.04-.04.12,0,.12.03.14.08,0,0,0,.02.01.03.39.2.45-.81.89-.95.04-.13-.04-.06,0-.22.41-.18.71-.29,1.09-.54-.03-.23-.07-.28-.33-.3l.28-.19c.13.55.76-.12.87.46.15,0,.3-.12.38-.3-.07-.1-.19-.26-.03-.42.34-.12.25-.1.54-.19.16.07.13.18.23.26.15-.44.5-.02.75-.32.14-.21.46-.57.27-.77.24-.23.38-.09.52.1Z" style="fill: #ef1a04;"/>
    <path d="m31.68,28.22l-.04.19c0-.6.11-1.24.24-1.86-1.02,1.34-1.94,2.93.15,4.03-1.13.09-1.68,1.4-1.4,1.43.2.28.36.56.5.84-.08-.2-.16-.39-.27-.58.1.19.19.39.27.58.83,1.8.41,3.72-.07,5.7-.24,1.1-.55,4.11-.9,5.23-.04.16-.09.33-.12.49q.11-.27.21-.55c.29.7.56,1.33.74,1.94.16-.1.32-.12.55-.37l-.11.31c.46.29.43.94.62,1.25-.24-.07-.3.17-.34.38l.16-.08c-.12.81.06,1.75.01,2.47,0,.1-.1.17-.18.22l.17.7c-.33-.06-.3.57-.5.23.38.53.13,1.05.52,1.55,0,1.77.22,3.65.72,5.48l.12-.04c.2.64.84,1.22.6,1.99.42.56.64,1.36,1.32,1.59.08.64.42.9.58,1.54.34-.15.4.62.66.32.48-.41.08-.44.47-.78h-.11c.54-1.63.87-3.27,1.07-4.94-.26-1.12,0-2.33-.06-3.49-.09-1.25-.28-2.61-.54-3.68-.09-.26.2-.44.36-.65-.13-.99.01-2.24-.15-3.35,0,.02,0,.04-.01.05-.04-.59.31-1.03.27-1.6-.1,0-.1-.09-.15-.13.45-.09-.86-3.41-.6-3.61-.02-.06-.04-.12-.05-.19.23-1.21,1.13-2.45,1.08-3.5-.21-.23-.39-.49-.62-.69.2-.18-.18-.22-.12-.45.91-.54.54-.88.22-.6-.11-.47-.02-.93-.04-1.35-.06-.19-.13-.38-.2-.58-.07-.17.06-.25.28-.33-.12-.42.1-.29.2-.73.32-.1-.48-1.11-.38-1.24l.05.07c.07-.51.68-.83.72-1.33.26-1.38.06-2.89.2-4.17-.33-.02.07.28-.37.29.07-.75.5-1.51.57-2.27.09-.14.26-.3.37-.36.13-.24-.15-.15-.11-.32l.3-.02c-.24-.27.34-.37.22-.62-.12-.02-.13-.11-.12-.19.32,0-.02-.27.27-.25h-.02c0-.06-.01-.09.04-.16-.11-.1-.95-1.06-1.08-1.16l.05-.05c0-.14-.24-.21-.3-.12l.02-.17.02.02.02-.17s.18-.06.31-.01c-.11-.1-.17-.21-.11-.31-.2.27-.48.6-.81.87-.11-.12.07-.32.04-.45.21-.15.4-.45.55-.69-.02-.05-.37-.1-.21-.21.24-.05,0-.14.17-.23.13.12.07.23.05.34.29-.01.2-.28.28-.37-.09-.05,0-.27-.07-.41.27.07.18-.11.33-.19.04-.09-.07-.16-.17-.12-.3-.04-.19.37-.5.23.15-.03.1-.22.09-.32-.16,0-.13.07-.28,0,.04-.11-.16-.23.02-.29.04.02.01.07.01.1.02-.14,1.05.81.96.62-.15.05-.95-.85-.96-.75-.08.09-.29-.07-.35.02l.2.11c-.06.12-.35.17-.46.12.03-.21,1.1.62.94.44l-.08.07c-.1-.08-.19-.28-.02-.36-.16,0-.22-.11-.27-.19l.03-.03c-.08-.09-.04-.21-.25-.16.01.51-1.64-.37-1.74.12.36-.2.36.08.4.3-.12.02-.3.11-.4.27.02.14.13.08.22.11-.08.07-.15.22-.34.19.22.11-.15.17-.07.3.1.11.1,0,.2.08-.03.17-.06.4-.11.54-.18.05-.49.2-.76.08.04-.26.44.11.39-.16-.41.11-.1-.24-.41-.29-.18.08-.19.25-.14.4l.05-.03c.05.13.13.38-.09.52-.14-.04-.25.02-.28-.07l-.03.17s.09.05.12,0c.11.08.04.17-.04.23-.15.02.61.94.52.91,0,.13-.22.15-.07.28.12.02-.49-1.21-.44-1.05-.17.1.72,1.44.43,1.51,0,.09.04.21.19.19-.08.16-.29-.05-.43.06.02,0,.08,0,.07.03l-.19.1c.23.25-.08.6.22.86-.16-.08-.45-.17-.59-.34l.08-.03s-.1-.16-.25-.16c-.1.15-.08.29.07.46-.04.03-.08.06-.13.09.02,0,.04,0,.06,0-.1.05-.11.05-.17.02-.01,0-.02,0-.03-.01-.45.09.27.62.03.9.06.09.08,0,.16.12-.18.29-.32.49-.43.79.19.1.27.11.47,0l-.07.23c-.51-.22-.5.42-1,.18-.12.06-.15.2-.07.33.13.02.33.04.33.2-.17.22-.11.17-.28.35-.17.04-.23-.03-.37-.02.21.29-.37.24-.34.52.05.17.06.51.35.52-.02.23-.23.22-.47.2Z" style="fill: #ef1a04;"/>
  </g>
</svg>