<?xml version="1.0" encoding="UTF-8"?>
<svg id="Layer_2" data-name="Layer 2" xmlns="http://www.w3.org/2000/svg" viewBox="0 0 68.92 69.86">
  <g id="Icon">
    <path d="m33.19,34.82c.37.1.66.18.88.29.27.09.47.2.66.32.19.12.36.2.46.29.05.06.08.05.09.11.03-.12-.06.29-.09.55-.07.54.02.86,0,.78,0,.04,0-.04-.02-.08l-.04-.12-.12-.29c-.06-.14-.13-.26-.2-.36l-.07-.13h0s0-.02,0-.02c.04-.04.32-.72-.02-1.4-.2-.31-.35-.56-.58-.72l-.13-.1-.17-.06-.06-.02s-.1,0,.02,0c.14,0,.3,0,.46,0,.35-.04.56-.03.91-.11.13-.03.22-.03.35-.07l.19-.06.1-.03s-.02,0-.03,0c-.16.05-.6.24-.97.51-.4.27-.79.64-1.13,1.03-.17.19-.3.38-.44.57l-.09.14s0,.01-.02.03c-.02.02-.03.03-.03.03-.06.05-.13.06-.22.06-.1.02-.21.04-.33.03l5.95-2.75c-.05-.15-.08-.2-.14-.28-.05-.07-.2-.22-.39-.33.01,0,.03.02.04.03-.27-.18-.51-.33-.73-.47-.29-.19-.53-.32-.7-.39-1.12-.38-2.47-.49-3.88-.67-1.41-.17-2.9-.45-4.36-.8-.73-.16-.6-.77-.42-1.25.16-.48.35-.87-.52-.76.23-.62.57-1.31.89-2.01.36-.7.7-1.38.96-1.9.53-1.08.62-1.91-1.06-1.35-.91-.14-1.88.92-2.67,2.08-.82,1.16-1.49,2.38-2.74,2.64-1.28.26-2.28-.31-3.23-1.02-.96-.68-1.88-1.51-3.23-1.03-.28.84-.6,2.14-.8,3.46-.17,1.33-.27,2.67-.22,3.58-.74.92-1.88.55-2.83.05-.95-.49-1.71-1.07-1.7.03-.72,3.28-.13,7.4,1.55,10.98.81,1.83,1.87,3.52,3.06,5.11.59.8,1.23,1.56,1.92,2.32.35.38.7.75,1.08,1.15l.61.6.34.32.46.41c-.49.57-.76,1.34-1.19,1.84-.22.25-.47.43-.82.49-.18-.06-.39-.16-.62-.29-.18-.08-.37-.17-.58-.29-.41-.24-.84-.51-1.32-.89-1.81-1.87-3.3-3.78-4.65-5.95-1.34-2.17-2.49-4.58-3.33-7.21-.86-2.61-1.38-5.47-1.49-8.34-.14-2.88.16-5.72.79-8.47,1.28-5.52,4.02-10.64,7.82-14.72,3.78-4.1,8.6-7.2,13.88-9l2.61-.89,3.53.1c7.45.22,15.1,2.69,21.54,7.7,3.21,2.5,6.1,5.7,8.35,9.48,1.14,1.88,2.06,3.94,2.82,6.07.34,1.07.64,2.15.92,3.24.28,1.09.42,2.16.59,3.25.57,4.33.31,8.55-.58,12.53-.88,3.99-2.45,7.74-4.61,11.25-2.17,3.5-4.99,6.76-8.56,9.51-3.58,2.73-7.99,4.88-12.71,5.93-4.72,1.1-9.65,1.04-14.12.08-4.49-.96-8.57-2.77-12.12-5.14-3.56-2.38-6.63-5.34-9.13-8.77-2.5-3.43-4.42-7.36-5.57-11.58C.07,39.42-.27,34.94.22,30.63c.49-4.31,1.77-8.45,3.7-12.19C7.76,10.97,14.27,5.04,21.93,1.94c2.38-.84,3.83-.86,4.48-.66.2.16.3.38.34.63.02.13.01.26,0,.41-.03.15-.16.34-.29.53-1.07,1.52-3.78,3.88-5.81,6.54,1.46-1.72,2.5.26,4-1.25.23.52.26,1.23.12,2.04-.15.81-.45,1.74-.88,2.77-.89,2.01-2.23,4.28-4.03,6.81,1.06-1.13,2.2-2.2,3.47-3.1.86-.14,1.16.34,1.38.99.22.65.38,1.46.83,2.07-1.05.75-1.99,1.65-1.45,2.19.52.54,1.57,1.63,2.09,2.17.72-.73,2.37-1.94,3.29-2.39-.9.48-1.74,1.08-1.29,1.69.44.61,1.33,1.83,1.77,2.44-.22.34-.47.69-.83.94-.31.31-.75.53-1.1.86-.77.58-1.43,1.37-1.44,2.21l2.03.98c.61-.36.93-.96,1.35-1.56.17-.33.42-.6.6-.91.24-.25.44-.55.7-.69-.04.94.52,1.53,1.47,2.68-.18.64-.8.77-1.3,1.19-.46.39-.73,1.09.27,1.81.02-.07.03-.15.04-.22.04-.07.06-.14.09-.22.02-.15.13-.29.18-.44,1.55,1.11,1.71,1.3,1.47,1.55-.24.21-.73.63-.3.8Z" style="fill: #efbf04;"/>
    <path d="m26.05,33.57l.26-.39c-.72,1.33-1.58,2.66-2.44,3.97,2.48-2.5,5.18-5.62,4.71-8.9,1.07.27,3.1-2.41,2.9-2.6.16-.7.36-1.39.58-2.08-.16.47-.32.93-.46,1.4.14-.47.3-.94.46-1.4.29-.9.63-1.79,1.01-2.68l.29-.67.08-.23c.06-.15.12-.3.19-.44.29-.59.64-1.06.87-1.19,0,0,.01,0,.02,0l.02.06.03.13.06.25.09.46c.04.18.09.44.15.74.02.12.04.24.05.35l.02.16v.07s.02.06.05.14l.07.22c.82,2.37,1.51,4.8,1.81,6.17.1.4.19.79.29,1.19q-.13-.67-.25-1.34c.81,1.52,1.56,2.91,2.21,4.3.06-.3.19-.39.19-1.06l.15.77c.64.53,1.14,2.1,1.56,2.77-.27-.08-.12.51.02,1.03l.07-.25c.29.98.68,2.02,1.08,3.02l.15.38.05.12.04.08c.05.11.1.22.15.33.1.22.19.43.25.63.04.11-.02.16-.1.18l.53.82c-.44-.27-.16.31-.56-.16.36.38.53.69.69.98.17.3.34.59.81,1.2.12.25.25.51.37.77l.05.09s.03.07,0,.04l-.14-.07-.29-.13-.58-.26c-.39-.17-.8-.33-1.24-.5-1.11-.41-2.24-.82-3.37-1.24l.04.15c-1.5-.58-3.03-.72-4.63-1.83-1.41-.3-3.25-1.05-4.04-.75-1.45-.69-2.16-.71-3.62-1.31.2.47-1.52-.39-.96.2.7.89.93.58,1.53,1.32l.03-.11c1.69,1.2,3.41,2.35,5.16,3.47l2.64,1.66,1.33.81.67.4,1.13.65c2.25,1.07,4.46,2.26,6.75,3.53,2.28,1.26,4.65,2.59,6.85,3.74.55.28,1.11.57,1.67.86l.83.42.41.21.3.1c-1.04-2.12-2.09-4.24-3.11-6.3-.98-1.96-1.93-3.84-2.79-5.57-.54-1.03-.54-1.62-.71-2.47-.43-.99-.87-2.03-1.31-3.11-.27-.71-.55-1.44-.83-2.18-.49-1.32-.97-2.69-1.49-3.97.01.05.02.1.03.13-.51-1.37-.54-2.52-1.05-3.88-.08.04-.16-.18-.24-.26.16-.19-.72-2.15-1.69-4.13-.49-.99-.99-1.98-1.38-2.75-.39-.78-.62-1.3-.69-1.6-.1-.2-.21-.41-.31-.62-.71-2.04-1.45-4.17-2.18-6.26-.39-1.11-.81-2.27-1.24-3.4-.22-.57-.44-1.12-.65-1.66-.11-.27-.22-.53-.32-.8-.11-.25-.22-.55-.32-.68-.22.43-.44.86-.66,1.31-.43,1.32-.88,2.62-1.17,3.7-.38.35-.34,1.08-.75,1.77-.66.36-1.17,1.12-1.38,1.58-.21.47-.13.67.21.32-.39.91-.8,1.74-1.21,2.54-.39.74-.76,1.46-1.11,2.13-.16.45-.32.9-.49,1.36-.13.39-.35.53-.62.62-.39.98-.42.61-1.02,1.53-.39.09-.9,2.63-1.13,2.86l.05-.18c-.66,1.08-1.57,1.54-2.19,2.61-1.86,2.9-3.53,6.29-5.18,9.05.26.18.28-.65.66-.48-.97,1.62-2.23,3.11-3.2,4.77-.24.26-.58.56-.74.65-.4.48-.04.39-.29.76l-.28-.08c-.11.69-.73.7-.92,1.3.08.08,0,.29-.12.48-.27-.13-.3.61-.53.45l.02.02c-.07.11-.09.21-.22.33-.03.27-.4,2.75-.41,3.03l-.1.08c-.16.32-.03.55.11.39l-.21.38v-.05s-.21.38-.21.38c-.06.06-.22.08-.28-.09-.02.27-.09.54-.25.73.48-.52,1.09-1.16,1.69-1.65-.05.31-.43.7-.54,1-.35.25-.85.86-1.25,1.34-.05.13.21.36-.06.56-.27.03-.15.31-.41.46.02-.31.2-.54.34-.8-.26-.08-.49.55-.66.73.03.14-.3.6-.39.96-.16-.25-.28.18-.5.31-.13.2-.11.39.02.34.22.19.58-.78.69-.35-.16.02-.33.46-.43.69.14.07.18-.1.24.11-.16.24-.12.59-.34.66-.01-.07.06-.16.1-.23-.18.32-.02-2.22-.15-1.76.18-.05-.11,2.27,0,2.06.17-.17.18.27.33.08l-.05-.31c.19-.26.49-.25.54-.11-.26.46-.28-1.81-.34-1.34l.15-.13c0,.22-.15.71-.38.82.14.07.07.32.02.54l-.06.06c-.03.23-.2.49.05.45.55-1.17,1.01,1.44,1.65.36-.54.32-.23-.31-.02-.82.13,0,.39-.14.64-.46.13-.32-.02-.24-.07-.33.15-.14.37-.43.51-.31-.07-.33.31-.32.39-.64.04-.29-.09-.02-.09-.25.21-.37.51-.88.7-1.16.21-.04.65-.26.75.12-.32.55-.26-.41-.52.21.47-.08-.18.57.03.81.25-.11.45-.49.57-.83l-.08.04c.1-.3.32-.9.65-1.12.08.13.24.05.16.27l.22-.38c-.01-.07-.02-.14-.11-.04,0-.23.15-.38.29-.49.15.02.55-2.33.6-2.22.14-.28.37-.25.38-.58-.09-.08-.97,2.88-.82,2.49.25-.17,1.03-3.47,1.37-3.52.1-.21.21-.47.05-.49.25-.31.19.23.44.05-.02-.02-.07-.01-.03-.09l.29-.15c.09-.64.78-1.29.83-1.99.05.24.18.55.11.98l-.1.03c.01.07-.11.39.02.45.27-.3.41-.6.48-1.03.07-.05.15-.11.21-.14-.02,0-.03,0-.05-.02.14-.08.15-.06.17.01,0,.01.01.02.02.04.48-.01.5-1.47,1.04-1.99.05-.21-.05-.05,0-.32.5-.56.85-.93,1.31-1.55-.04-.3-.09-.35-.4-.19l.33-.47c.17.69.92-.71,1.06.02.18-.09.37-.38.45-.7-.09-.09-.23-.23-.04-.58.42-.41.3-.33.66-.66.19-.02.16.16.28.2.18-.73.61-.38.91-.99.17-.39.56-1.14.33-1.29.29-.5.47-.4.64-.24Z" style="fill: #1b1614;"/>
  </g>
</svg>