<?xml version="1.0" encoding="UTF-8"?>
<svg id="Layer_2" data-name="Layer 2" xmlns="http://www.w3.org/2000/svg" viewBox="0 0 176 180.64">
  <g id="Icon">
    <path d="m14.95,99.16l-.19-1.87c.26,1.49.37,3.03.69,4.55.14.76.27,1.53.41,2.3.14.77.36,1.52.54,2.29l.54,2.3c.18.77.33,1.55.6,2.29.48,1.51.95,3.03,1.43,4.54-.31-1.73-.63-3.47-.98-5.21-.25-1.77-.43-3.56-.69-5.31-.39-3.55-.66-7.08-.81-10.52-.43-6.88-.56-13.32-2.1-19.06,1.4-.36,2.98-3.73,4.49-6.88,1.44-3.18,2.75-6.22,2.51-6.46l.4-2.04.53-2.02c.34-1.36.8-2.7,1.28-4.04-.33.92-.7,1.82-.98,2.75-.27.93-.55,1.85-.82,2.77.27-.92.55-1.85.82-2.77.29-.93.65-1.83.98-2.75,3.07-8.45,8.45-16.55,15.53-23.16,7.06-6.63,15.83-11.73,25.24-14.51,2.61-.76,6.35-1.78,10.74-2.36,4.38-.61,9.4-.69,14.37-.17,4.98.52,9.89,1.69,14.12,3.14,1.05.4,2.06.78,3.03,1.15.98.35,1.87.82,2.73,1.2,1.73.74,3.19,1.59,4.41,2.25.71.37,1.41.78,2.09,1.21.69.42,1.38.83,2.08,1.25-1.13-.74-1.7-1.11-2.26-1.48-.28-.19-.57-.37-.92-.6-.37-.21-.8-.46-1.39-.8,6.43,2.27,12.14,5.15,17.2,8.68-.6-.99-.54-1.36-2.29-3.37l2.38,2.13c.74.23,1.6.71,2.54,1.29.94.58,1.95,1.28,2.89,2.07.95.78,1.94,1.54,2.77,2.3.84.76,1.61,1.43,2.25,1.93-.45-.05-.26.4.23,1.06.46.69,1.19,1.61,1.89,2.46l-.29-.91c1.38,1.59,2.68,3.34,4.07,5.06,1.28,1.79,2.68,3.55,3.86,5.42,1.27,1.81,2.35,3.7,3.41,5.51.52.91.96,1.84,1.42,2.72.46.89.89,1.75,1.24,2.62.42.95.53,1.75.53,2.26.58,1.05.98,2.16,1.49,3.24l.72,1.64.63,1.67c-.45-.15-.18,1.31.02,2.41.14,1.11.21,1.86-.41.3.53,1.21.97,2.46,1.38,3.73.34,1.27.6,2.56.89,3.84.25,1.28.4,2.57.66,3.84.26,1.27.39,2.53.71,3.78.38,8.98-1.16,18.28-4.73,27.08-.78,2.24-1.94,4.34-2.92,6.52-.56,1.06-1.17,2.09-1.75,3.15l-.88,1.58-.98,1.52-1.97,3.05-2.17,2.92-1.08,1.47-1.17,1.39-2.34,2.81.53-.14c-2.27,2.55-4.29,5.13-6.76,7.56-1.18,1.27-2.55,2.41-4.02,3.57-.74.57-1.49,1.18-2.32,1.71-.84.53-1.72,1.05-2.65,1.56-.57.51-1.18,1.04-1.81,1.58-.65.51-1.34,1.01-2.03,1.52-1.39,1-2.77,2.1-4.15,2.97-1.36.91-2.61,1.79-3.63,2.61-1.01.78-1.62,1.36-1.87,1.91-.67.31-1.28.6-1.84.87-.27.14-.54.27-.8.41-.06.04-.14.05-.17.11l-.02.22c-.01.14-.03.29-.04.43-.09,1.12-.14,2.1-.17,3.03-.01.25,0,.42-.03.73-.02.31-.04.62-.07.93-.05.63-.1,1.27-.15,1.95-.11,1.35-.26,2.82-.47,4.54,1.11-1.61-.29,6.78.94,3.55,1.94-4.3,1.06-4.73,2.66-8.39l-.28.06c.68-2.8.85-2.97,1.16-3.85.04-.09.07-.19.11-.28l.43-.12.83-.24,1.59-.45c.06,0,.43-.16.69-.27l.84-.35,1.67-.71c1.11-.48,2.24-.93,3.34-1.45l3.26-1.63c1.08-.56,2.19-1.07,3.23-1.71,8.52-4.77,16.46-10.82,23.38-18.12,4.23-5.21,8.37-10.87,11.84-17.1.82-1.58,1.71-3.13,2.46-4.76l2.15-4.94c.58-1.7,1.17-3.4,1.75-5.1.54-1.71.9-3.47,1.33-5.2,1.57-7.51,1.98-15.61.98-23.16-.94-7.56-3.03-14.58-5.51-20.42-1.22-2.78-1.5-5-2.21-7.54-2.63-5.24-5.97-10.99-10.01-16.46-4.03-5.47-8.76-10.64-13.74-14.88.17.18.34.34.45.46-1.27-1.18-2.5-2.24-3.67-3.3-.58-.53-1.15-1.05-1.72-1.57-.58-.5-1.16-.99-1.74-1.48-1.15-.99-2.3-1.98-3.58-2.88-1.26-.92-2.55-1.89-4.06-2.72-.09.21-1-.33-1.5-.49-.06-.19-.65-.64-1.67-1.25-1.04-.58-2.5-1.32-4.24-2.16-3.56-1.54-8.29-3.44-13.28-4.62-4.97-1.23-10.05-2.07-14.06-2.31-1.99-.22-3.71-.23-5.01-.29-1.29-.06-2.16-.15-2.46-.22-.71.05-1.44.09-2.19.11-7.16-.28-14.6.14-21.65,1.62-7.03,1.52-13.63,4.09-18.97,7.43-.52.46-1.07.91-1.6,1.4-.52.49-1.04.99-1.55,1.47-.5.49-.99.97-1.46,1.43-.44.49-.86.96-1.22,1.41-1.01.47-1.47.95-1.94,1.49-.46.56-.92,1.19-1.96,1.98-1.64.63-2.95,1.42-4.02,2.12-1.08.69-1.85,1.36-2.31,1.88-.95,1.03-.73,1.39.75.43-3.7,4.05-7.38,8.11-10.13,12.12-.61.95-1.14,1.94-1.7,2.91-.57.97-1.09,1.96-1.59,2.98-.85,1.72-1.67,2.47-2.56,3.09-1.06,2.23-1.52,2.97-2.01,3.73-.48.76-1.13,1.48-2.27,3.82-.29.21-.7,1.1-1.15,2.32-.45,1.23-.84,2.83-1.26,4.42-.38,1.6-.68,3.23-.96,4.53-.25,1.31-.42,2.3-.57,2.63l.12-.84c-.89,2.84-1.79,5.19-2.66,7.56-.4,1.19-.8,2.39-1.17,3.65-.31,1.28-.57,2.62-.77,4.1-1.07,8.2-.83,17.03.92,25.44,1.75,8.41,4.73,16.33,8.18,23.22.4-.12-.1-.82-.48-1.62-.38-.8-.75-1.66-.33-1.96,3.71,8.17,8.11,16.33,14.26,23.16.48.68,1,1.46,1.43,2.16.42.72.86,1.27,1.04,1.63,1.95,2.23,1.52.92,3.03,2.47l-.26.72c1.33.89,2.11,1.74,2.85,2.63.73.89,1.44,1.8,2.7,2.63.3-.13,1.15.55,2.02,1.15-.39.63,2.71,1.82,2.2,2.29l.06-.03c.52.38.92.59,1.5,1.15.54.3,3.59,1.39,6.56,2.47,1.47.58,3.02.96,4.23,1.31,1.22.34,2.12.57,2.43.64l.45.36c1.5.74,2.39.46,1.55-.02l1.87.81-.24-.04,1.86.81c.32.2.59.68-.07.77,1.17.19,2.41.57,3.45,1.09-1.43-.78-2.98-1.74-4.53-2.7-.77-.49-1.55-.96-2.28-1.49-.72-.55-1.42-1.1-2.08-1.63.66.19,1.5.64,2.34,1.12.85.45,1.74.87,2.44,1.12.72.56,1.88,1.28,3.18,2.03.33.19.66.38,1,.57l1.05.49c.7.33,1.4.65,2.04.95.61.15,1.27-.51,2.5.28.49.77,1.52.48,2.55,1.14-1.4,0-2.62-.58-3.92-1.02.02.72,3.05,1.49,4.08,1.87.55-.08,3.08.77,4.75.98-.85.47,1.22.74,2.15,1.2,1.11.27,1.87.13,1.45-.17.48-.62-4.33-1.2-2.64-1.64.33.41,2.52.66,3.69.83.08-.38-.74-.42.07-.66,1.28.3,2.7.07,3.39.59-.26.06-.78-.09-1.15-.16.84.16-1.52.4-3.87.61-2.35.27-4.64.22-3.52.38-.12-.12.44-.16,1.35-.2.91-.08,2.16-.15,3.37-.21,2.43-.13,4.74-.25,4.18-.35-.99-.36.82-.57-.21-.88l-1.23.27c-1.42-.38-1.89-1.15-1.35-1.33,1.19.23-.6.6-2.47.89-.93.14-1.89.29-2.47.35-.58.05-.79.09-.25.12l-.8-.38c.92.02,3.3.18,4.14.74.07-.37,1.28-.31,2.28-.28l.34.12c1.04-.02,2.44.3,1.85-.3-2.96-.46-1.83-1.26-.71-2.09,1.12-.83,2.22-1.7-.51-2.27,2.19,1.22-.9.72-3.36.41-.09-.16-.39-.39-.87-.64-.24-.13-.53-.25-.86-.39-.33-.16-.7-.32-1.12-.48-1.5-.3-.94.09-1.27.23-.78-.39-2.32-.93-2-1.31-.64.11-1.08-.08-1.54-.32-.46-.23-.92-.54-1.62-.68-1.26-.15.02.25-.9.22-.89-.32-1.95-.7-2.97-1.07-1.02-.37-1.99-.71-2.66-1.07-.4-.61-1.74-1.95-.33-2.07,2.57,1.14-1.37.57,1.4,1.55-.87-1.3,2.55.58,3.29.04-.37-.35-1-.66-1.73-.94-.74-.26-1.55-.54-2.29-.79l.25.24c-1.32-.4-3.97-1.27-5.15-2.3.46-.17-.04-.64.93-.34-.58-.24-1.13-.54-1.69-.84-.26-.01-.53-.02-.07.29-.91-.16-1.65-.69-2.18-1.17,0-.1-.61-.35-1.52-.66-.45-.16-.99-.32-1.54-.53-.55-.22-1.13-.45-1.7-.68-2.31-.92-4.62-1.79-4.42-1.83-1.14-.78-1.12-1.41-2.42-1.87-.13.06,2.69,1.79,5.55,2.98,1.41.63,2.74,1.27,3.67,1.6.93.33,1.4.48.98.3-.47-.35-3.99-1.92-7.5-3.56-1.69-.92-3.38-1.86-4.66-2.62-.65-.37-1.17-.74-1.54-1.06-.37-.31-.59-.54-.63-.67-.81-.62-1.81-1.34-1.86-.91-1.23-1.22.83-.2.09-1.23-.06.03-.04.2-.33-.05l-.62-1.08c-1.2-.64-2.33-1.84-3.54-2.97-.59-.58-1.21-1.13-1.8-1.67-.57-.56-1.15-1.06-1.76-1.45.42.17.9.3,1.46.53.55.23,1.19.54,1.98,1.01l.09.35c.26.09,1.41,1,1.62.71-1.05-1.32-2.17-2.21-3.58-3.3-.15-.31-.34-.65-.43-.91-.03.04-.04.08-.08.11-.23-.57-.16-.55.09-.49.04,0,.08,0,.14.03.05-.76-1.22-1.78-2.59-3.09-1.33-1.33-2.89-2.83-3.61-4.19-.62-.66-.19.03-.97-.78-.69-1.4-1.28-2.59-1.87-3.79-.32-.58-.57-1.21-.85-1.86-.29-.64-.59-1.32-.92-2.05-.9-.68-1.1-.67-.9.65l-1.07-2.22c.54.35.73.24.76-.09.01-.17-.02-.39-.07-.64-.03-.26-.08-.54-.13-.82-.2-1.13-.38-2.21.66-1.38-.04-.75-.58-2.06-1.32-3.19-.31-.01-.93.02-1.48-1.58-.42-2.35-.37-1.78-.67-3.72.22-.55.61.06.88-.11-.78-1.29-.68-2.01-.59-2.67.1-.67.25-1.33-.14-2.64-.65-1.61-1.25-4.96-1.97-4.92-.36-2.32.19-2.39.76-2.25Z" style="fill: #efbf04;"/>
    <path d="m94.19,62.45c.94,9.26-.74,20.52.09,29.87,1.14,11.22.9,23.35.68,34.55-.68-.01-1.68-.97-2.04-.04-1.09,3.71-2.46,3.68-3.82,3.66-.68-.01.06-2.8-.64-1.88.06-2.8-.19-7.47-.93-4.68-.7.92-.09,4.66-1.13,5.58-1.04.91-2.02-.97-3.06-.06-.02.93-.06,2.8-.07,3.73-.7.92-2.03-.97-2.04-.04-.74,2.79-.47,6.52-.54,10.25-.68-.01-1.38.91-1.68-.96-.04-32.67-.74-66.28.93-98.91.41-3.72,1.72-.9,2.69,1.92-.32-.94.7-.92.38-1.86,1.02.02,2.69,1.92,2.95,5.66.02-.93.04-1.87.06-2.8.36-.93,1.02.02,1.7.03-.02.93-.04,1.87.3,1.87.34,0,1.02.02,1.36.03.02-.93.06-2.8.07-3.73-.02.93-.04,1.87.3,1.87.34,0,1.02.02,1.36.03.3,1.87-.43,4.66-.13,6.53l1.02.02c.38-1.86.09-4.67.13-6.53.32.94.66.95,1.34.96.29,2.81-.79,5.58.18,8.4.02-.93.04-1.87.06-2.8,1.67,1.9.21,6.54.5,9.34Z" style="fill: #efbf04;"/>
    <path d="m64.64,101.04c0-.4-.36-.79.15-1,1.6-.46,2.97.82,4.58.36.03-.22.06-.44.08-.66,1.27.21,2.6.51,3.95.75,2.46-.22,4.9-.49,7.32-.84-.08-.23-.12-.45.12-.55,1-.22,2.42-.07,3.88-.07.21-.05.43-.1.64-.14.16-.15.19-.38.21-.52.66-.01,1.25.02,1.79.07,7.08-1.64,14.26-3.51,22.04-5.4,1.63-.68,3.27-1.37,4.85-1.72,2.36-.37,5.41-.09,7.73-.13-.47-2.29,5.11-3.7,3.87-5.97,1.54-.03,3.86-.07,3.95-.72.26-1.97,1.34-4.28,5.37-5.67,1.59-.36,4.09.34,4.64-.08.86-.67-2.15-1.27-1.29-1.94-11.95-.11-23.38,1.31-35.38,1.89-4.03,1.23-31.55,3.05-38.65,2.95-.21.02-.43.04-.64.06-3.87.07-8.54.48-11.77,1.52-1.47.62-2.96,1.35-4.45,2.06.72.34,1.4.69,1.98,1.04-1.55.03-3.09.05-3.66.5-3.24,1.15-1.32,2.21.02,3.71.94.64-.23,1.75,1.23,2.38-1.03.02-1.54.03-2.58.04-.09.66,3.15-.49,2.49.61-1-.2-2.09.25-3.12.27.4.87,3.58.16,3.46,1.03-.54.23-2.95-1.04-3.09.05-.03.22,1,.2,1.52.19-3.15.49-4.84,1.61-1.89,2.65-1,.02-2.45-.37-3.5-.17,0,0,0,.01,0,.02.53.01,1.46.19,1.95.18-.6.01-1.21.02-1.81.03.1.15.22.29.34.44.46.11.91.2,1.38.19-.4,0-.8.01-1.2.02.32.34.68.66,1.07.96,1.46.63,2.88,1.59,3.65,1.58,6.25.2,12.52.26,18.75.02Z" style="fill: #f1c724;"/>
  </g>
</svg>