<?xml version="1.0" encoding="UTF-8"?>
<svg id="race" data-name="icon-race" xmlns="http://www.w3.org/2000/svg" viewBox="0 0 227.95 167.04">
  <g id="icon__race">
    <path d="m81,139.83c.12-.08-.12-.55.46-.01,1.75,1.75,2.8,3.49,4.66,5.14l.29-.04c1.31,1.4,2.69,2.85,4.15,4.27,2.86,2.44,5.84,4.7,8.92,6.78-.03-.12-.02-.21.3-.03,1.29.84,3.03,2.09,4.89,3.29.29.16.57.32.85.48.24.09.34.06.4.03.85.52,1.61.99,2.31,1.42l1.82.92,2.71,1.34.79.39.2.1c.07.03.13.09.2.02l.39-.22,1.55-.89c1.22-.68,1.58-.93,2.2-1.31,2.32-1.45,4.6-2.99,6.85-4.63,4.5-3.27,8.87-6.93,13.09-11.05,1.73-1.8,3.36-3.69,4.99-5.44,2.43-2.57,5.55-5.84,7.74-8.51-.48-.05.53-1.76,1.38-3.39.86-1.62,1.57-3.15.76-2.72,1.35-1.81,3.26-4.63,3.15-4.91-.31-.83.07-2.65,2.61-7.99,1.05-2.05,2.88-5.1,3.1-5.9.37-1.25-1.75,2.48-1.38,1.23-7.83,15.13-18.23,28.32-31.84,38.86-1.1.96-3.89,3.2-7.8,5.79-1.95,1.3-4.19,2.68-6.61,4.05l-.18.11s-.07.06-.11.06l-.12-.05c-.09-.04.07.04-.38-.2-1.28-.68-2.56-1.41-3.84-2.16-5.11-3.02-10.03-6.61-13.97-10.03-3.97-3.39-6.98-6.58-8.67-8.46l-.62-.68c-3.72-4.1-7.76-9.46-10.54-13.26-1.31-1.72-2.64-3.48-3.9-5.29.38.95.73,1.83,1.04,2.62-1.13-1.94-2.17-3.92-2.7-4.62-2.46-4.11-1.63-1.52-1.26.39.41,1.3-.77-.13,0,1.84-.72-1.34-1.05-2.03-1.72-3.4-.32-.04,2.26,4.12,1.44,3.36-.63-1.33-1.49-2.74-2.15-4.12-.08.63,2.29,4.78,1.94,4.71-.48-.69-1.62-4.01-2.08-4.11-.09-.02.57,1.37.92,2.05-1.14-2.07-2.01-3.7-2.45-4.27-.43-.58-.45-.11.3,1.95-.64-1.37-1.37-3.38-2.04-4.83h0c.3.75.77,2.05,1.08,2.72-.37-.83-.72-1.66-1.07-2.5,0,.15.02.32.04.5.22.64.46,1.28.75,1.93-.24-.55-.48-1.11-.72-1.66.06.47.16.99.3,1.56.65,2.07,1.25,4.1,1.78,5.15,4.14,8.53,9.46,16.57,15.82,23.64Z" style="fill: #f1c724;"/>
    <path d="m47.27,136.61c-.48-13.27-.07-27.32,1.42-41.65.38-3.58.81-7.18,1.32-10.79.53-3.58,1.06-7.17,1.59-10.78,1.13-7.22,2.31-14.53,4.26-21.84.99-3.65,2.21-7.28,3.76-10.81,1.55-3.52,3.44-6.91,5.59-10.06,4.3-6.22,9.28-11.88,15-16.72,2.81-2.46,5.91-4.58,9.07-6.53,1.64-.89,3.22-1.88,4.94-2.6.85-.39,1.69-.77,2.53-1.16.87-.32,1.75-.63,2.62-.95,1.72-.7,3.54-1.06,5.32-1.54.88-.27,1.8-.36,2.71-.51.91-.14,1.81-.28,2.72-.41,1.82-.13,3.64-.21,5.44-.26,1.8.12,3.6.18,5.38.38,6.98.87,13.74,3.45,19.74,7.09,3.04,1.78,5.82,3.94,8.53,6.16,2.61,2.32,5.18,4.72,7.48,7.34,2.33,2.6,4.52,5.32,6.56,8.13,1.02,1.43,1.99,2.77,2.96,4.28,1,1.46,1.89,3,2.8,4.53,3.48,6.21,6.04,12.98,7.71,19.79,1.72,6.82,2.78,13.65,3.79,20.39l.74,5.06c.22,1.71.49,3.42.68,5.14.42,3.43.74,6.86,1.01,10.3,1.02,13.75.77,27.55-.67,41.06l-2.91,27.39-4.84-27.12c-2.04-11.44-5.26-22.51-9.52-32.98.31-.13,2.64,4.55.88-.36-3.77-9.74-6.15-14.42-7.1-16.88-1.01-2.44-.74-2.6-.46-2.75.13-.08,2.09,3.37,3.57,6.32,1.49,2.94,2.6,5.34,1.61,2.89,3.53,7.1,7.34,16.99,9.29,23.31,1.01,3.15,1.66,5.37,1.84,5.84.18.46-.06-.84-1.11-4.68-.6-2.58-2.6-8.92-5.11-15.06-2.48-6.15-5.38-12.12-6.44-14.56-2.03-4.96,3.3,4.3,1.27-.66-1.23-2.39-3.2-5.9-5.28-9.34-2.09-3.43-4.32-6.78-5.87-8.97-1.42-2.27-.44-1.33.49-.34.93.99,1.83,2.01.29-.21-3.07-4.59-6.81-9.5-11.13-14.46-2.16-2.48-4.47-4.97-6.91-7.44-1.22-1.23-2.48-2.46-3.76-3.68-.65-.6-1.3-1.21-1.95-1.82-.91-.82-1.82-1.64-2.73-2.47-6.87,0-13.94.02-21.01.03,0-.32-5.33-.64,5.3-.79,5.33,0,10.67-.02,16.01-.03l2.26,2.04,1.3,1.19c.87.79,1.71,1.6,2.56,2.42,1.69,1.63,3.35,3.29,4.97,4.99,3.24,3.4,6.35,6.93,9.31,10.59,5.9,7.33,11.23,15.14,15.82,23.39,9.25,16.45,15.69,34.51,19.05,53.16l-7.19.25c1.42-13.63,1.61-27.4.48-41.08-.26-3.42-.65-6.83-1.07-10.24-.45-3.38-.96-6.85-1.48-10.28-1.04-6.86-2.17-13.63-3.96-20.09-1.77-6.47-4.37-12.55-7.85-18.18-.91-1.38-1.79-2.77-2.8-4.19-.98-1.39-1.97-2.75-3-4.08-2.04-2.67-4.25-5.19-6.58-7.56-2.3-2.4-4.83-4.54-7.42-6.55-1.35-.92-2.63-1.96-4.05-2.75l-2.08-1.27-2.16-1.09c-1.42-.79-2.94-1.28-4.42-1.9-.73-.34-1.52-.49-2.28-.73l-2.3-.67-2.35-.42-1.17-.21-.59-.11-.59-.04-2.38-.16-1.19-.09c-.4-.03-.79.02-1.19.03-6.36.08-12.64,1.77-18.42,4.66-5.74,3-11.05,7.01-15.68,11.76-2.33,2.36-4.51,4.88-6.55,7.53-2.06,2.7-3.9,5.33-5.43,8.21-3.1,5.71-5.13,12-6.56,18.64-1.48,6.61-2.49,13.47-3.52,20.34-.5,3.45-1.02,6.88-1.46,10.28-.44,3.41-.82,6.83-1.15,10.26-1.3,13.7-1.66,27.47-1.17,41.19l-7.92-.81c4.19-17.01,10.57-33.43,18.89-48.75,8.31-15.33,18.63-29.51,30.51-42.13,3.74-3.92,5.99-5.97,6.95-6.8.95-.8.68-.39-.44.88-2.26,2.52-7.74,8.49-12.73,14.84,3.38-4.19,3.73-3.88,7.26-7.94.18.17-1.46,2.32-4.77,6.54-3.29,4.24-8.24,10.56-14.15,19.46,2.98-4.43,6.15-8.73,9.48-12.91,3.49-4.05.36.29.62.5-1.66,2.08-3.28,4.2-4.44,5.81-1.18,1.61-1.9,2.73-1.84,2.77.13.09.39.28.52.37,1.53-2.16,3.9-5.35,6.38-8.45,2.47-3.11,5.06-6.13,6.82-8.1-1.76,1.98-3.47,4-4.72,5.54-1.25,1.55-2.04,2.61-1.98,2.66.12.1.37.3.5.4-3.24,4.17-7.18,9.45-10.83,14.95-3.64,5.5-6.99,11.2-9.39,15.9l.42.22c2.53-4.62,5.83-10.31,9.41-15.83,3.59-5.51,7.46-10.84,10.75-14.95-3.14,4.24-2.97,4.36-2.73,4.54-4.67,6.33-9.1,12.85-13.09,19.63-4,6.78-7.55,13.83-10.44,21.15,2.08-4.81,4.33-9.55,6.79-14.17-1.96,4.45-5.53,11.85-8.83,20.2-3.35,8.33-6.33,17.63-8.18,25.34l-5.01,20.89-.8-21.48c-.05-1.31-.09-2.55-.14-3.74Z" style="fill: #efbf04;"/>
    <path d="m203.4,43.68l-.89.19c.72-.07,1.35-.11,1.95-.13h.86s.41-.01.41-.01c.01,0,.05,0,.04,0l-.05.05-.1.1-.2.2c-.61.6-1.14,1.16-1.63,1.69l-.69.76-.16.18-.08.09-.29.36-1.2,1.53c-3.18,4.09-6.12,8.24-8.87,12.29-.55.69-1.64,2.08-2.17,2.79-3.8,5.91-7.46,13.94-9.7,20.59-1.14,3.33-.72,6.23-.72,6.23-.05.9.13,1.87.63,1.12.63-1.61,2.11-5.65,2.57-5.48.11.04-.18.85-.48,1.65.44.17.49,2.89.23,3.7-.08.88-.9,5.95-.88,6.82-.18,1.27.69.19,1.77-1.56,1.08-1.75,2.44-4.14,3.16-5.64.77-1.48.56.2.9.32.43-1.6,1.05-2.25,1.53-3.82.06.02.55-1.11,1.17-2.52.62-1.41,1.37-3.1,1.87-4.22,0,0,.22-.8,1.26-3.04.35-.74.25-.79.14-.85q.11.05.22.1c.13-.85,1.09-2.22,1.34-3.01q.11.05.21.11c.53-1.57,1.51-2.91,2.2-4.41q.1.06.21.12c.4-.72.8-1.43.91-1.37q.1.06.21.12c.5-.66,1.12-2.19,1.33-2.07q-.1-.06-.21-.12c1.67-2.82,3.1-4.83,4.55-6.8.99-1.29,2.02-2.63,3.08-4.02.53-.7,1.07-1.41,1.62-2.14.28-.36.56-.73.84-1.1.57-.75,1.16-1.5,1.76-2.26,2.4-3.01,4.99-6.04,7.81-9.14,2.73-3.04,5.45-6.06,8.1-9.01-.24.02-.47.04-.7.06-.61.04-1.32.15-1.82.28-.28.07-.47.14-.54.2-.09.07.04.1.14.18h-.19s-.26.02-.26.02l-.54.05-1.08.09-2.1.19c-2.75.25-1.96.54-4.59.79-2.73.35-5.35.62-8.18,1.13-2.8.49-5.66,1.11-8.53,1.91l-.73.2-.64.19-1.28.39c-.85.27-1.69.54-2.53.83-1.68.58-3.35,1.2-4.99,1.88-6.58,2.69-12.84,6.25-18.38,10.69,2.91-2.04,5.24-3.33,8.22-5.24.06.1.18.31.94-.14,2.32-1.27,4.86-2.61,7.18-3.63,2.31-1.04,4.4-1.76,5.71-2,.87-.18,1.8-.16,4.3-.94-.83.27-1.67.52-2.49.81.04.11.12.34.12.34.83-.26,1.72-.51,2.64-.76.46-.12.93-.24,1.39-.37.53-.13,1.07-.26,1.6-.39,2.5-.58,4.96-1.05,7.01-1.31,0,0-.19.27-.28.41.68-.12,1.33-.21,2-.32.52.34-1.83.83-4.73,1.53-1.45.34-3.11.78-4.61,1.21-1.4.41-2.71.83-3.72,1.2.04.11.11.34.15.45l1.61-.52.07.23c-4.83,1.52-8.76,3.12-13.27,5.44.75-.39,2.26-1.15,3.03-1.5.05.11.1.21.87-.13-3.07,1.37-6.85,3.29-9.56,5.31-.64.56.25.38,2.45-.8,2.16-1.26,3.63-2.05,5.89-3.15l.1.22c-1.5.71-3.77,1.77-5.15,2.72-.66.51,1.62-.51.96,0-.72.4-1.44.82-2.08,1.35,2.11-1.29,4.98-2.96,7.28-3.89.79-.25,1.6-.45,1.7-.24,3.7-1.78,6.97-2.46,9.47-2.59.21,0,.61-.09,1.13-.2.25-.06.56-.13.89-.21.5-.13,1.1-.29,1.55-.38Z" style="fill: #f1c724;"/>
    <path d="m19.82,35.19c.67.14,1.34.27,2.01.4l2.04.48c-1.07-.29-2.15-.58-3.21-.8l-1.61-.36-1.58-.3c-2.12-.41-4.14-.67-6.17-.95-2.07-.26-4.15-.52-6.23-.77l-3.26-.37-.85.08c-.29.02-.54.05-.97.06,3.3,3.23,6.59,6.45,9.86,9.66l2.32,2.38c.77.79,1.44,1.56,2.17,2.35.73.78,1.38,1.57,2.06,2.36l1.01,1.18.5.6.41.52c2.81,3.55,5.32,7.22,7.47,10.89.36.77,1.09,2.29,1.42,3.07,1.64,2.92,3.47,6.19,5.21,9.52,1.74,3.33,3.39,6.7,4.79,9.74,1.39,3.03,3.47,4.96,3.47,4.96.51.71,1.25,1.36,1.19.48-.44-1.65-2-5.62-1.57-5.79.11-.04.44.74.75,1.54.45-.18,2.27,1.89,2.56,2.71.26.37,1,1.71,1.71,3.08.71,1.37,1.39,2.75,1.63,3.14.55,1.19.7-.2.57-2.36-.12-2.16-.57-5.06-1.04-6.79-.41-1.75.56-.22.89-.34-.75-1.63-.75-2.6-1.54-4.21.03-.01-.08-.33-.26-.85-.19-.51-.45-1.22-.78-2-.63-1.56-1.46-3.4-2.06-4.61,0,0-.49-.76-1.72-3.16-.42-.79-.53-.74-.63-.68q.11-.06.21-.11c-.62-.69-1.28-2.37-1.82-3.1q.1-.06.21-.12c-1.09-1.44-1.79-3.11-2.83-4.58q.1-.06.2-.13c-.47-.77-.96-1.52-.85-1.59q.1-.06.2-.13c-.37-.84-1.57-2.21-1.37-2.34q-.1.07-.2.13c-1.99-3-3.48-5.26-5.01-7.49-.85-1.29-1.8-2.62-2.83-3.95-.26-.33-.52-.66-.79-1-.1-.12-.04-.06-.05-.07,0,0,0,0,0,0h0s.01-.01.01-.01c0,0-.11-.01-.44-.22-.11-.07-.27-.17-.27-.2.02,0-.11-.09-.3-.22-.2-.13-.47-.31-.81-.5l.36.05c.24.04-.52-.5-.16-.43.25-.04.59-.03.97.02.2.02.39.06.61.1l.36.08.09.02.16.04.59.18c3.17.95,6.28,2.12,9.29,3.51,6.03,2.75,11.68,6.27,17,10.24-2.54-2.14-4.45-3.78-7.33-5.45.06-.1.19-.31-.52-.74-2.11-1.36-4.51-2.63-6.67-3.7-2.16-1.05-4.05-1.94-5.13-2.62-.73-.42-1.38-1.09-3.78-1.92.8.26,1.59.57,2.38.86.04-.11.13-.34.13-.34-1.57-.65-3.35-1.34-5.16-1.95l-1.02-.35c-.31-.1-.62-.2-.93-.3-.61-.2-1.23-.38-1.82-.55,0,0-.16-.29-.24-.43-.42-.1-.84-.19-1.27-.28-.53-.34-.5-.49,0-.5.49-.01,1.43.13,2.57.38.57.12,1.19.27,1.82.44.32.09.64.17.96.26.36.11.71.21,1.06.32,1.41.42,2.74.86,3.76,1.22.04-.11.12-.34.16-.45-.54-.2-1.09-.4-1.64-.58l.08-.23c4.93,1.72,8.93,3.49,13.51,6.01-.76-.43-2.3-1.24-3.08-1.63.05-.11.11-.22-.68-.6,3.15,1.52,6.88,3.8,9.91,5.55.79.39.29-.42-1.89-1.93-2.25-1.39-3.78-2.26-6.13-3.48l.11-.21c1.58.8,3.83,2.2,5.39,3.03.82.35-1.33-1.22-.51-.87.77.46,1.52.92,2.34,1.3-2.25-1.45-5.4-3.1-7.74-4.39-.74-.5-1.49-1-1.39-1.21-4.09-1.8-7.3-3.37-9.68-4.8-.19-.13-.61-.31-1.17-.5-.6-.21-1.08-.39-2.44-.76-.59-.16-1.2-.33-1.82-.5-.62-.15-1.25-.29-1.87-.44-1.25-.31-2.4-.51-3.41-.72Z" style="fill: #f1c724;"/>
    <path d="m101.51,72c.02-.06-.16-.16.14-.12.93.11,1.63.45,2.57.52l.08-.09c.71.14,1.45.32,2.21.44,1.41.16,2.82.26,4.22.31-.03-.04-.05-.07.09-.08.58,0,1.39.1,2.23.12.12,0,.25,0,.37,0,.1-.02.12-.05.14-.07.37.02.71.03,1.03.05,4.11-.18,8.25-.69,12.63-1.66.96-.26,1.9-.52,2.71-.74,1.31-.31,3-.65,4.27-.99-.27-.26,2.73-1.33,2.01-1.49.83-.25,2.07-.65,2.1-.77.09-.35.62-.86,2.67-1.85.81-.36,2.12-.78,2.38-.97.42-.28-1.14.26-.72-.02-6.09,2.47-12.22,4.28-18.81,5.1-1.1.22-5.46.78-10.05.68-4.59-.02-9.35-.74-11.27-1.14l-.35-.06c-2.1-.4-4.63-.99-6.4-1.38-.79-.15-1.65-.32-2.49-.48.34.17.67.34.97.49-.82-.27-1.64-.54-1.97-.59-1.78-.46-.86.04-.27.5.45.26-.26.19.47.55-.55-.19-.82-.29-1.37-.49-.1.07,1.71.54,1.28.56-.52-.22-1.13-.36-1.68-.57.14.2,1.89.71,1.77.81-.31-.07-1.49-.7-1.65-.59-.03.03.52.22.79.32-1.71-.55-2.7-.76-1.21-.02-.54-.2-1.27-.55-1.84-.75h0c.27.12.77.33,1.01.44l-.96-.38.14.13c.23.11.47.22.72.32l-.64-.25c.14.11.31.23.49.35.73.39,1.41.8,1.83.95,3.36,1.26,6.84,2.24,10.36,2.93Z" style="fill: #f1c724;"/>
    <path d="m95.7,96.63c0-.11-.68.94.34-.87.2-.34.4-.66.6-.98.17-.25.34-.5.5-.74.2-.31.43-.6.64-.89.42-.58.88-1.12,1.33-1.66.9-1.08,1.86-2.14,2.87-3.4l.07-.24c.81-.94,1.66-1.91,2.47-2.95.42-.51.81-1.05,1.22-1.59.55-.79.39-.54.44-.58l.03-.07s.02.04.03.07v.02s.19.72.19.72l.38,1.48c.53,1.96,1.06,3.91,1.59,5.85,0-.13.02-.2.16.26.55,1.93,1.24,4.61,1.98,7.38.12.41.23.82.34,1.22.1.31.16.38.19.43.32,1.25.61,2.37.88,3.4.17.64.34,1.28.52,1.92.24.95.48,1.91.72,2.88.46,1.94.93,3.94,1.43,6.04.08-.16.17-.48.25-.75l.26-.82.52-1.64c.33-1.07.66-2.14,1-3.21.32-1.08.64-2.17.96-3.26.17-.64.35-1.28.53-1.92.67-2.55,1.35-5.12,2.03-7.73.68-2.61,1.38-5.25,2.08-7.94.37-1.34.74-2.69,1.11-4.05.15-.54.31-1.09.47-1.64.1-.33.2-.76.33-1.04.22.27.46.58.75.9.22.24.45.49.67.74.28.32.58.62.88.93,2.34,2.36,4.88,4.45,7.15,6.62.79.76,1.61,1.59,2.42,2.47.44.48,1.01,1.14,1.5,1.78.52.64,1.01,1.3,1.51,1.97.04-.01.1.05.12-.02l.05-.33.1-.65c.07-.43.13-.87.17-1.3.1-.85.19-1.72.21-2.61.04-1.37,0-2.7-.08-3.91-.14.36-.47-2.24-.83-4.63-.35-2.39-.52-4.63-.66-3.51-.02-.77-.04-1.63,0-2.5l.03-.66c.01-.26.05-.52.07-.77.05-.51.08-1.01.16-1.49.07-.48.13-.93.18-1.34.29.19.59.45.83.62.48.37.81.61.87.63,1.07.51,2.98,1.64,9.35,6.65,2.47,1.98,6.14,5.16,7.03,5.82,1.41,1.04-3.03-2.76-1.62-1.72-2.73-2.26-5.44-4.51-8.14-6.75-1.35-1.12-2.7-2.23-4.05-3.35l-3.3-2.7-.99-.77-.49-.38-.25-.19-.12-.1s-.02.1-.03.14l-.37,2.54-.3,2.55c-.03.2-.05.46-.05.59v.34s-.04.69-.04.69c-.02.91,0,1.82.04,2.72.08,1.8.26,3.56.42,5.28.16,1.72.29,3.42.31,5.08v.63s0,.31,0,.31v.12s0,0,0,0c0-.02,0-.01,0-.01h0s0,.01,0,.01c0,0,0,0,0,0l-.38-.42-.96-1.01c-1.29-1.32-2.62-2.57-3.94-3.8-1.32-1.23-2.62-2.45-3.85-3.72l-.91-.96-.93-1.04c-1.15-1.44-2.28-2.9-3.38-4.37-.6,1.86-1.24,3.78-1.81,5.64-.29.98-.59,1.97-.88,2.96-.43,1.57-1.34,4.92-2.55,9.39-.61,2.23-1.3,4.74-2.04,7.45-.28,1-.57,2.03-.87,3.09-.04.14-.09.37-.15.48-.26-.99-.53-2.02-.8-3.05-.71-2.63-1.43-5.28-2.14-7.92-.71-2.63-1.41-5.24-2.1-7.78-.33-1.29-.66-2.57-.98-3.82-.54-2.33-1.07-4.62-1.59-6.85-.92,1.62-1.85,3.23-2.78,4.8-.23.39-.46.75-.71,1.1l-.42.62c-.26.36-.51.71-.76,1.05-1.03,1.37-2.07,2.63-3.06,3.8-1.98,2.32-3.65,4.37-4.73,5.94l-.23.35c-.06.09-.12.19-.18.28-.03-.03-.05-.19-.07-.28l-.03-.16-.08-.49-.09-.65c-.25-1.75-.4-3.53-.55-5.3-.15-1.77-.31-3.53-.56-5.2-.12-.83-.26-1.64-.41-2.42-.26-1.19-.51-2.43-.81-3.65l-.22-.93-.11-.46s0-.05-.02-.05l-.04.04-.09.09-.18.17-1.42,1.35c-.78.77-1.56,1.53-2.35,2.3-1.05,1.06-2.11,2.12-3.17,3.18,1.05-.9,2.02-1.74,2.88-2.48-2.22,2.08-4.44,4.16-5.25,5.01-4.62,4.55-1.83,2.16.15.62,1.38-1.15-.28.62,1.84-1.23-1.48,1.38-2.22,2.08-3.7,3.47-.1.23,4.51-4.32,3.6-3.24-1.45,1.31-3,2.85-4.48,4.24.6-.38,5.15-4.78,5.01-4.47-.78.77-4.27,3.77-4.44,4.16-.03.08,1.45-1.31,2.19-2-4.51,4.31-6.91,6.79-2.64,3.01-1.44,1.35-3.53,3.22-5.04,4.67,0,0,0,0,.01,0,.77-.71,2.09-1.93,2.8-2.58l-2.6,2.43c.16-.12.32-.24.5-.38.66-.6,1.31-1.2,1.99-1.82-.57.54-1.15,1.08-1.73,1.62.48-.39,1.01-.81,1.57-1.27,2.12-1.85,4.18-3.58,5.29-4.62l6.31-5.87,1.26-1.17.1-.08s0,.04.01.05l.02.12.21,1.28c.43,2.76.58,5.57.83,8.49.13,1.45.29,2.92.52,4.38l.16.95.2,1.04.43,2,.9,4.02c.83-1.44,1.66-2.87,2.48-4.3Z" style="fill: #f1c724;"/>
  </g>
</svg>