<?xml version="1.0" encoding="UTF-8"?>
<svg id="Layer_2" data-name="Layer 2" xmlns="http://www.w3.org/2000/svg" viewBox="0 0 183.68 181.56">
  <g id="Icon">
    <path d="m132.76,9.99c1.1.54,2.13,1.19,3.19,1.8l1.57.92,1.53.99c18.87,12.02,33.07,30.96,39.31,52.93,3.12,10.97,4.24,22.71,2.89,34.44-1.32,11.73-5.21,23.42-11.58,33.96l-.83,1.39-.91,1.35c-.61.9-1.22,1.8-1.83,2.71-1.34,1.73-2.59,3.55-4.06,5.21-2.8,3.44-5.97,6.63-9.32,9.66-6.73,6.04-14.47,11.14-22.76,15.07-4.14,1.97-8.45,3.57-12.81,4.95-4.37,1.33-8.83,2.31-13.28,3.03-4.47.64-8.94,1-13.37,1.03-1.11.02-2.21-.05-3.31-.07-1.1-.02-2.19-.06-3.28-.17-1.09-.09-2.17-.18-3.25-.27-1.07-.15-2.14-.29-3.21-.44,5.03.81,10.15,1.1,15.26.98,5.11-.13,10.24-.62,15.28-1.62,10.08-1.98,19.91-5.55,28.89-10.72,9.02-5.09,17.15-11.78,23.98-19.62,3.43-3.92,6.44-8.19,9.1-12.66,1.37-2.22,2.52-4.56,3.69-6.88l1.58-3.57c.54-1.19.94-2.43,1.41-3.64,1.78-4.89,3.16-9.92,4.04-15.04.87-5.12,1.27-10.31,1.23-15.48-.08-10.34-1.93-20.63-5.43-30.25-6.9-19.28-20.17-35.97-36.96-46.79,3.59,1.87,7.34,4.3,11.16,7.29,3.81,3,7.69,6.61,11.32,10.96,8.65,10.52,14.98,22.79,18.46,35.75,3.45,12.96,4.19,26.63,1.76,39.75-.22-.04-.66-.12-.88-.16-.72,4.63-1.99,9.14-3.45,13.55-1.49,4.41-3.44,8.63-5.58,12.73-2.25,4.04-4.74,7.92-7.55,11.56-2.85,3.59-5.86,7.06-9.2,10.16-13.25,12.55-30.02,20.89-47.71,24.2-4.42.86-8.91,1.29-13.41,1.53-4.5.15-9.02,0-13.51-.47-8.97-1.03-17.83-3.33-26.13-7.06-16.67-7.35-30.89-20.09-40.77-35.9,1.31,2.31.32,1.08-.1.68-.1-.16-.19-.31-.28-.45.09.14.19.29.28.45-.36-.37-.33-.02,2.23,3.89-2.56-3.91-2.59-4.26-2.23-3.89,9.64,15.7,23.73,28.4,40.24,35.76,4.1,1.89,8.38,3.34,12.71,4.57,4.34,1.19,8.76,2,13.2,2.56,8.9.97,17.92.73,26.69-.88,17.53-3.13,34.22-11.09,47.59-23.22,3.31-3.05,6.51-6.27,9.35-9.81l1.09-1.31,1.02-1.36c.68-.91,1.37-1.82,2.03-2.74,1.25-1.9,2.57-3.77,3.69-5.77,4.7-7.85,8.05-16.57,10.1-25.63-3.04,14.12-9.71,27.34-18.95,38.21-9.21,10.93-20.99,19.45-33.91,25.19-12.92,5.75-27.12,8.61-41.3,8.17-14.16-.41-28.31-4.22-40.68-11.29-12.42-6.98-23.02-17.02-30.97-28.83-3.97-5.92-7.25-12.3-9.83-18.98-2.5-6.7-4.35-13.68-5.27-20.82-1.91-14.27-.32-29.12,4.78-42.78,2.55-6.82,5.91-13.38,10.06-19.43,4.17-6.03,9.04-11.6,14.54-16.52.96-.81,2.13-1.86,3.47-2.95,1.37-1.05,2.82-2.26,4.38-3.32.77-.54,1.54-1.09,2.3-1.62.78-.5,1.54-.98,2.27-1.45,1.44-.96,2.83-1.7,3.91-2.34,8.92-4.64,18.47-7.97,28.31-9.69C79.69.63,84.67.11,89.66.01c4.99-.08,9.98.23,14.91.91-2.52.18,1.04,1.58.32,2.13-.35.27-1.73.29-5.43.12-.92-.08-2-.06-3.23-.1-.62-.02-1.28-.04-1.98-.06-.7,0-1.45.01-2.24.02-3.17-.02-7.09.19-11.88.76.03.22.09.67.12.89,9.51-1.01,17.59-.16,23.48,1.16,2.96.63,5.38,1.43,7.27,2.08,1.87.75,3.2,1.36,3.97,1.83.79.5,1,.83.59.97-.42.13-1.43.1-3.06-.08-3.26-.39-9.14-1.44-18.12-1.57-10.08-.06-21.05,1.64-31.73,5.84-10.65,4.18-21.09,10.68-29.67,19.51-4.29,4.39-8.18,9.29-11.41,14.63-3.22,5.35-5.84,11.09-7.74,17.08-3.81,11.97-4.6,24.85-2.42,36.93,3,17.63,11.98,34.14,24.87,46.42,6.45,6.14,13.9,11.19,21.97,14.88,1.02.43,2.01.93,3.05,1.32l3.11,1.19c1.04.38,2.11.69,3.16,1.04,1.05.36,2.12.64,3.2.92,2.14.62,4.33,1.01,6.5,1.46,2.2.32,4.4.7,6.62.86,12.21,1.17,25.05-.55,37.01-5.12,11.97-4.52,23.11-11.76,31.94-21.22,8.86-9.41,15.42-20.94,18.72-33.32,1.67-6.18,2.59-12.52,2.78-18.85.15-6.33-.43-12.64-1.65-18.76-.92-4.45-2.47-9.65-4.72-14.87-2.23-5.23-5.13-10.48-8.4-15.12-3.25-4.66-6.81-8.73-10-11.95-1.64-1.57-3.09-3.03-4.44-4.18-1.3-1.21-2.45-2.16-3.3-2.92-5.05-4.16-5.15-4.56-3.97-4.5,12.66,8.43,22.91,20.32,29.52,33.92,6.65,13.58,9.57,28.9,8.33,43.78-.38,4.56-1.16,9.09-2.35,13.51-1.21,4.4-2.66,8.76-4.63,12.88-3.8,8.3-9.11,15.88-15.45,22.44-12.71,13.12-29.77,21.85-47.65,24.89,17.51-2.87,34.49-11.37,47.35-24.4,3.19-3.28,6.13-6.81,8.78-10.56,2.64-3.76,4.9-7.79,6.88-11.96,3.86-8.38,6.35-17.47,7.08-26.78,1.29-14.84-1.53-30.07-8.02-43.58-6.45-13.52-16.39-25.44-28.8-33.94,1.16.25,2.32.48,1.04-.96,0,0-.47-.35-1.28-.87-.81-.51-1.94-1.21-3.19-2-1.28-.73-2.7-1.53-4.06-2.26-1.39-.68-2.71-1.34-3.77-1.86-2.11-1.06-3.88-2.03-5.4-2.71-1.51-.74-2.71-1.35-3.67-1.79-1.89-.94-2.66-1.53-2.57-1.86.09-.32,1.05-.38,2.6-.23.77.09,1.71.17,2.73.4,1.02.22,2.15.48,3.36.78,2.42.73,5.13,1.62,8.07,2.84Z" style="fill: #948984;"/>
    <path d="m82.62,121.19c.05-.32.1-.64.15-.96.75-5.9.61-11.81,1.14-18.37.51-4.59.36-9.84.42-14.44-.56,10.88-.56,22.33-2.25,32.78-.52-1.06-.92-2.33-.9-3.81.26-3.54.45-7.03.6-10.5.23,0,.67,0,.89.01-.54-9.86,1.38-19.02.39-28.88-.12.35-.31.14-.45.06,0-.02,0-.05,0-.07,0,.02,0,.05,0,.07-.13-.07-.23-.03-.23.58,0-.61.11-.65.23-.58.09,9.69-.25,18.75-.81,28.41.62-15.02.38-29.5.58-44.9,0-.66.03-1.97.04-2.63.71-2.62.97-5.24,1-7.86,1.12.67,3.4-1.93,2.88,3.32.22,0,.67,0,.9.01,1.19-5.24,4.37-7.17,5.2-1.9.82,5.92-.18,13.79.17,21.01.15,5.26.31,10.51-.21,15.75-.77,7.21-.65,15.09-1.65,22.3-.26,2.62.35,7.23-.34,8.53-.34.94-.82.97-1.35.82.14-4.32.22-8.62.37-12.87.32-5.22.67-10.43,1.19-15.64-.69,5.09-.99,10.33-1.19,15.64-.26,4.24-.51,8.49-.8,12.73-.46-.16-.93-.32-1.38-.06,0,0-.02,1.31-.03,1.97-1.16,2.61-2.73,1.93-3.83.61-.22-.34-.48-.72-.73-1.14Z" style="fill: #948984;"/>
    <g>
      <path d="m52.96,90.42c-.15,0-.29,0-.29,0,0,.05,0,.1,0,.14.1-.05.19-.1.28-.15Z" style="fill: #948984;"/>
      <path d="m53.19,88.65s-.06,0-.09,0c.01.04.01.08.02.12.02-.04.04-.08.07-.12Z" style="fill: #948984;"/>
      <path d="m52.68,90.58c.04.54.17,1.07.04,1.61-.16,0-.47.01-.63.02-.15.3.02.59.03.88-.16,0-.32,0-.31.16-.09.39.09.64.4.72.63-1.66,2.35-2.3.48-3.38Z" style="fill: #948984;"/>
      <path d="m53.91,89.37c-.28,0-.55.02-.83.02-.08.34-.18.68-.09,1.01.42-.26.68-.55.92-1.04Z" style="fill: #948984;"/>
      <path d="m118.41,86.86c0-.09.01-.14.16-.01-.06,0-.11,0-.16.01,0,.08.01.21-.06.26.55-.18,1.19-.36,1.81-.42.08-.16.15-.32.22-.48-1.55.13-3.09.18-4.34,1,.9-.03,1.51-.3,2.37-.36Z" style="fill: #948984;"/>
      <path d="m120.48,85.33c.05,0,.1,0,.16-.01-.15-.13-.16-.08-.16.01Z" style="fill: #948984;"/>
      <path d="m92.97,89.45c-.95.15-1.78.69-2.61,1.2,1.79-.47,3.63-.73,4.98-1.33-.79.06-1.58.11-2.38.13Z" style="fill: #948984;"/>
      <path d="m86.2,92.71c1.19.24,2.16-.16,3.07-.68-.94.16-1.88.31-2.81.45-.09.07-.18.15-.26.23Z" style="fill: #948984;"/>
      <path d="m87.49,91.75c1.08-.02,1.98-.55,2.88-1.1-1.01.26-2,.6-2.88,1.1Z" style="fill: #948984;"/>
      <path d="m108.54,77.66c.7-.44,1.13-.64,1.37-.7.1-.21.24-.46.42-.78-.04,0-.09,0-.13,0-.73.29-1.47.55-2.21.79-.3.19-.59.4-.83.65.46.03.92.04,1.38.04Z" style="fill: #948984;"/>
      <path d="m109.9,76.96c-.88,1.78.95-.21,0,0h0Z" style="fill: #948984;"/>
      <path d="m105.57,86.3s-.07,0-.11,0c-.1.04-.21.07-.31.11.14-.04.28-.08.42-.11Z" style="fill: #948984;"/>
      <path d="m96.63,82.4c.62-.08,1.25-.2,1.86-.36-1.26.19-2.54.38-3.59.85.16,0,.32.14.48.13.31-.3.77-.61,1.25-.62Z" style="fill: #948984;"/>
      <path d="m110.46,84.79c-1.71.42-3.39.94-5.01,1.51-3.32.15-6.51.59-9.35,1.88-2.5,1.25-6.94,1.08-9.4,3.5.27.06.54.08.79.07-.37.21-.71.45-1.03.73-4.17.63-8.26,1.06-12.53,1.19-.63.02-1.1.47-1.73.49-.64.04-1.27.09-1.9.14,0,.03,0,.07.03.1-2.6.26-5.16.62-7.84,1.18-1.26.18-2.53.07-3.8.11-.47.01-.49-.57-.81-.71-1.29-.7-2.25-1.26-3.69-1.51,0,0,0-.29-.01-.44-.22.06-.41.06-.57.01.63-1.66,2.35-2.3.48-3.39,0,0,0,0,0,0,.1-.05.19-.1.28-.15.01,0,.02,0,.03,0,0,0,0-.01,0-.02.42-.26.68-.55.92-1.04-.28,0-.55.02-.83.02.05-.21.07-.41.04-.62.02-.04.04-.08.07-.12.12,0,.23,0,.23,0,.04-.11.06-.23.08-.34.71-.65,1.84-1.01,1.6-1.62-.18-.31-.7-.02-1.3.18-.04-.05-.08-.1-.13-.14.79-.17-.03-1.03.44-1.19.63-.02,1.26-.18,1.89-.2,2.58-.07,4.74-.28,7.26-.8.11-.02.22-.04.33-.06,1.22-.22,2.38-.28,3.58-.2-.07.1-.15.2-.23.29.97.07,1.94.07,2.9-.18,2.36-.66,4.71-1.31,7.24-1.53,2.65-.19,5.2-.58,7.87-1.14-1.09.36-2.18.69-3.31.82-.51,0-1.01,0-1.5.05.51.03,1.01,0,1.5-.05,1.95,0,3.96.12,5.42-1.3.17.12.17.26.33.26,1.11-.03,2.22.08,3.15-.53,0-.15.47-.16.3-.45.95-.17,2.05-.21,2.99-.53.41-.11.81-.4,1.21-.76,3.37-.88,6.71-1.77,10.35-2.62.91-.17,1.95-.2,2.87-.23-1.34.53-2.72.98-4.13,1.38-1.38-.07-2.69-.03-3.76.76-.25.15-.5.29-.74.42,1.52-.37,3.02-.75,4.5-1.17.81.04,1.65.12,2.46.1-.02.01-.03.02-.05.03-.63.21-1.27.4-1.92.59-1.23-.06-2.4-.04-3.39.52-.12.07-.25.15-.36.23-.25.15-.5.29-.74.42.94-.23,1.87-.46,2.79-.7.57-.15,1.14-.31,1.71-.47.36.02.72.04,1.09.06-.04.04-.08.07-.11.12-.31.15-1.15,1.9-.66,2.33,2.44-.11,5.83-.9,5.84-.76.17.58-3.98,1.47-3.82,1.62.24.06.47.11.71.15-.22.13-.43.25-.63.4-.47.16-1.11.03-1.42.33-1.08.91-2.36.66-3.61,1.28-.78.46-1.71,1.08-2.64,1.69,0,.29-.47.16-.3.45-.89.03-1.93.06-2.28.92-.02,0-.04.02-.06.03-.06,0-.15.05-.24.12-1.49-.11-2.5.74-3.83,1.34-.46.09-.93.15-1.42.17.32,0,.8.12,1.11-.03.1-.04.21-.09.31-.13,1.2-.23,2.33-.65,3.46-1,.09-.09.24-.23.37-.34.08,0,.17.01.25.02.02-.06.04-.12.06-.17,1.08-.45,2.31-.64,3.23-1.1,1.74-.55,3.62-.36,5.41-.33-.88.27-1.76.56-2.61.87,1.07-.28,2.09-.56,3.07-.87.15,0,.3,0,.45,0l.95-.03c-.3-.06-.59-.1-.89-.13.59-.19,1.16-.38,1.73-.59,3.15-.78,6.42-1.23,9.64-1.1-.06.18-.12.36-.2.54-1.55.13-3.09.18-4.34,1,.89-.03,1.5-.3,2.37-.36,0,.08.01.21-.06.26.55-.18,1.19-.36,1.81-.42-.19.39-.4.77-.62,1.15-.31.3-.78.32-1.25.48-2.05.31-3.98.29-6,.71-1.8,0-3.6,0-5.37.07,1.74-.46,3.34-.93,4.9-1.51Zm-52.99,5.37c.16-.07.33-.14.49-.22-.03-.03-.05-.06-.08-.1-.15,0-.3.15-.41.33Zm3.71.03c-1.09-.22-2.51.16-3.89.43,0,.04-.01.08,0,.11,1.16.1,2.58-.3,3.9-.54Zm4.43,2.92s-.02-.03-.03-.05c0,.02,0,.04,0,.07,0,0,.02-.01.02-.02Zm19.15-5.23c-1.24.77-2.83.82-4.4,1.16-.47.01-.93.61-1.57.63-.79.17-1.25.48-1.88.64l.48.28c-1.11-.11-1.72.78-2.84.52,0,.15-.15.45-.3.45-.79.17-1.59-.1-2.21.21-.79.17-1.58.19-2.2.5-.16,0-.46.45-.77.61-.38.07-.77.12-1.15.17.02.04.04.08.05.12.31,0,.63-.03.95-.14.94-.32,2.04-.65,2.99-.82,2.37-.36,4.57-1.01,6.76-1.66.47-.16.94-.47,1.41-.63,1.41-.63,3.15-.53,4.07-1.59.15-.15.47-.16.62-.46Zm1.59-6.41c-1.65.67-3.49,1.01-5.07.93-1.27.04-4.88,1.02-4.2,2.76,1.47-3.24,10.46-.37,9.27-3.7Zm13.12-3.08c-.66.25-1.29.48-2.04.5.68-.17,1.36-.33,2.04-.5Zm-6.57,6.17c2.03-1.09,4.24-1.3,6.28-1.94,1.57-.49,3.33.2,4.73-.87,0-.15,0-.29-.01-.44l-.15.15c-.56-.07-1.01-.29-1.48-.4.03-.01.05-.03.08-.04-.05,0-.09.02-.14.03-.31-.07-.64-.08-1,.05-.17.08-.34.15-.51.22-1.97.32-4.01.6-5.77,1.58-1.09.47-2.02,1.23-3.12,1.71.32,0,.8.12,1.11-.03Z" style="fill: #948984;"/>
      <path d="m107.53,84.53c.68-.2,1.36-.39,2.05-.56.53-.2,1.06-.41,1.58-.63,2.52-.86,5.49-.68,8.21-1.11.07-.43.06-.87-.05-1.33-2.98-.39-5.92.48-8.89.32-.02.02-.05.03-.07.05-1.24.92-3.31.68-4.87,1.46-1.56.93-3.13,1.26-4.69,2.04,2.29-.07,4.45-.45,6.71-.25Z" style="fill: #948984;"/>
      <path d="m89.28,92.03c.62-.11,1.24-.21,1.86-.32,1.74-.4,3.28-.88,4.85-1.46-1.16.11-2.33.19-3.51.23-1.18.19-2.16.96-3.2,1.56Z" style="fill: #948984;"/>
      <path d="m97.26,89.76c-.43.17-.85.33-1.27.48,1.72-.16,3.43-.39,5.13-.63,2.79-.68,5.59-1.28,8.38-2.13.32-.09.63-.16.95-.23-5.23-.01-10.45-.03-14.83,1.95-.08.04-.17.08-.26.11,2.11-.16,4.19-.43,6.27-.73-1.45.35-2.91.73-4.36,1.17Z" style="fill: #948984;"/>
      <path d="m106.88,84.73c.15,0,.3,0,.46,0,.18-.05.35-.11.52-.16-.11-.01-.21-.02-.32-.03-.22.06-.44.13-.66.19Z" style="fill: #948984;"/>
      <path d="m102.25,81.06s-.04,0-.06-.01c-.5.1-1,.18-1.52.27-.7.29-1.43.53-2.18.73,1.36-.21,2.71-.42,3.76-.98Z" style="fill: #948984;"/>
      <path d="m97.76,77.68c-.16,0-.47.01-.63.02-.09.09-.19.18-.28.27.15,0,.3,0,.45.02l.47-.31Z" style="fill: #948984;"/>
      <path d="m88.49,80.32c2.79-.65,5.4-1.33,7.99-2.01.12-.11.25-.23.37-.34-1.75-.04-3.49.2-5.07,1.06-.31.16-.77.61-1.09.62-1.49.18-2.91.69-4.32,1.15.68-.14,1.36-.3,2.06-.47.02,0,.04,0,.06-.01Z" style="fill: #948984;"/>
    </g>
  </g>
</svg>