<?xml version="1.0" encoding="UTF-8"?>
<svg id="discord" data-name="icon-discord" xmlns="http://www.w3.org/2000/svg" viewBox="0 0 31.9 30.97">
  <g id="icon__discord">
    <g>
      <path d="m8.62,23.35c-1.04-.28-2.03-.72-2.94-1.29-.45-.29-.89-.61-1.29-.96-.2-.17-.4-.36-.58-.55l-.28-.29-.36-.42-.35-.45c-.05-.08-.13-.14-.16-.23l.02-.28.05-.56.05-.48c.06-.48.12-.95.18-1.42.13-.94.28-1.85.44-2.74-.26,1.42-.46,2.86-.62,4.3.23-2.16.56-3.96,1.1-6.11-.07.66-.41,2.05-.36,2.42-.21,1.18-.39,2.37-.54,3.57l-.07.59-.06.66c.19.37.52.71.79,1.04.43.48.9.93,1.4,1.33,1.01.8,2.17,1.42,3.4,1.82.31.1.58.18,1.08.29.45.09.89.15,1.35.2.28.12.33-.16.45-.31l.34-.52.68-1.05.88-1.37-1.67-.26c-.38-.06-.75-.15-1.09-.29.4.08.77.13,1.11.17l1.86.22-.98,1.59c-.25.41-.5.78-.73,1.13l-.35.5c-.12.15-.18.39-.45.27-.43-.07-.84-.14-1.25-.23-.21-.05-.41-.1-.6-.14-.15-.04-.29-.08-.44-.12Z" style="fill: #efbf04;"/>
      <path d="m6.43,6.22c-.43.42-.81.92-1.08,1.43.28-.55.68-1.07,1.08-1.43Z" style="fill: #efbf04;"/>
      <path d="m21.82,22.57c.59-.14,1.15-.32,1.69-.53-.54.23-1.1.4-1.69.53Z" style="fill: #efbf04;"/>
      <path d="m8.5,19.68c-.21-.16-.38-.35-.5-.58-.16-.3-.2-.74-.13-.75.1-.12.38-.14.5,0h0s.03.04.03.04c1.28.99,2.78,1.76,4.4,2.21-1.56-.42-3.11-1.13-4.45-2.14l-.03-.02-.02-.02c-.07-.07-.18-.09-.28-.06-.05,0-.09.08-.11.04.04.01,0,.03,0,.12,0,.15.09.44.17.62.09.2.23.38.4.55Z" style="fill: #efbf04;"/>
      <path d="m10.56,20.93c.28.08.58.13.87.17l.34.04-.18.29c-.3.49-.6,1-.92,1.47-.58-.06-1.2-.18-1.71-.33-1.03-.3-2-.78-2.82-1.38.83.59,1.79,1.06,2.82,1.36.51.15,1.12.27,1.7.33.32-.44.61-.97.93-1.46l.17-.27-.33-.05c-.29-.04-.58-.1-.87-.18Z" style="fill: #efbf04;"/>
      <path d="m24.24,8.57s-.05-.02-.09-.07c-.03-.06-.07-.11-.1-.16-.25-.55-.19-.59-.35-.68,0,0-.11-.07-.21-.13l-.29-.17c-.2-.11-.39-.22-.59-.32.21.09.41.14.61.25.2.11.42.26.49.31.05.05.09.08.12.12.02.07.02.07.08.2.09.17.18.37.32.65Z" style="fill: #efbf04;"/>
      <path d="m21.16,22.69l-.07.02c-.05,0-.11.03-.15.02l-.1-.12-.2-.23s-.03-.04-.04-.06l.24.28s.07.11.13.13l.19-.03Z" style="fill: #efbf04;"/>
      <path d="m24.68,9.68s-.06.06-.06.15c-.17-.5-.36-.99-.56-1.48l.09.15c.17.31.34.83.52,1.18Z" style="fill: #efbf04;"/>
      <path d="m24.93,19.57c-.25.17-.45.38-.56.47-.72.35-1.47.62-2.38.84-.04.02-.23.08-.24.09-.02.01-.04.03-.07.05-.03-.03-.05-.05-.06-.08-.26.1,1.22-.25,2.08-.7.47-.22.93-.49,1.37-.79.42-.27.99-.77.91-.7l-.05.05-.26.22c-.23.19-.47.37-.73.54Z" style="fill: #efbf04;"/>
      <path d="m7.66,6.87c1.38-1.17,3.45-1.81,5.37-1.74l-.45-.47c-.41.49-.82.98-1.23,1.46h0c-.74-.28-1.39.04-1.96.37.77-.4,1.68-.73,2.65-.63h0c.27-.41.53-.81.76-1.2l.25.25c-2.58-.18-4.72,1.03-5.12,1.04-.24.02.28-.44,1.27-.86.98-.43,2.46-.75,3.86-.67h.23s0,.23,0,.23c0,.25-.01.5-.02.74h0c-.55.04-1.06.15-1.48.27q.39-.11.76-.19c-.36.07-.77.18-.96.25.54-.18,1.33-.35,1.86-.4h0c.03-.23.06-.41.09-.51l.07.45h0s-.03,0-.03,0h.04s0,0,0,0c.03-.2.06-.39.09-.6l.09-.58-.74-.09c-1.07-.12-2.42,0-3.66.4-1.23.37-2.37,1.02-3.16,1.63.94-.77,2.03-1.3,3.16-1.65,1.15-.37,2.4-.53,3.66-.46l.78.04-.04.71c0,.18-.02.36-.03.54h0c-1,.08-2.13.48-3.05,1.22-.25.17-.23.58,0,.74.11.09.26.11.39.08.12-.06.24-.14.36-.2.49-.27,1.02-.5,1.58-.68.55-.18,1.13-.3,1.71-.37l.23-.02c.11-.01.23-.02.35-.02.23,0,.46-.03.69-.02.46,0,.92.02,1.39.06,1.84.18,3.64.74,5.26,1.62l.15.08-.08.11s0-.01,0-.01c0,0,.01.03,0,.01.02.01-.01,0-.01,0,0,0,.03-.01.01,0l-.02.15c-.96-.73-2.05-1.24-3.18-1.51-.45-.1-.91-.17-1.36-.19l-1.28-.07.7-1.12c.18-.28.35-.56.53-.83l.25-.4.51.05c1.42.15,2.8.49,4.1.99.66.26,1.25.52,1.92.88l.65.38c.13.21.24.44.36.66l.47.92c1.16,2.38,1.97,4.87,2.43,7.37.07.43.15,1.11.2,1.88.04.86.06,1.36,0,3.09-.51.52-1.18,1.14-1.42,1.32-1.16.98-2.49,1.76-3.92,2.29-.36.13-.72.25-1.09.35-.5.14-1.2.26-1.8.35l-.47.07-.31-.35c-.21-.23-.41-.46-.61-.71l-.84-.99-1.74-2.06,2.75-.65c.36-.08.7-.21,1.02-.37.54-.25,1.04-.6,1.46-1.01l.15-.16.07-.08.05-.06.03-.04.02-.02h0s0-.01,0-.01c-.79-.74,1.08,1.01.89.83h0s0,0,0,0c.04-.02-.03-.01,0-.01.01,0,0,.02,0,0l.63,1.07c-2.33,1.63-5.16,2.53-8.06,2.48-2.9-.04-5.8-1.01-8.24-2.84l-.19-.14.7-.71s0,0,0,0c0,.01,0,.03,0,0h0s0-.01,0-.01h0s0,0,0,0h0s0,0,0,0h0s0,0,0,0c.19.19-.26-.26-.21-.21,0,0,0,0,.02.01.07.05.39.11.71.07l.24-.03c.07,0,.19-.04.15-.03-.01,0-.02.01-.03.02-.06.06-.05.01-.2.01-.2.03-.43.04-.62.02-.09-.01-.18-.04-.22-.05-.03-.02-.04-.02-.05-.03-.01,0,0,0,0,0h0s0,0,0,0h0s0,0,0,0c-.05-.05.4.4.21.21h0s0,.05,0,0h0s-.38.42-.38.42l.13.09c2.6,1.83,5.81,2.77,9,2.54-.37.16-1.92.09-2.64.04,2.38.35,4.46.11,6.66-.75-1.46.59-3.04.92-4.62.96,2.51-.06,5.16-.87,7.4-2.45l.04-.03-.41-.68s0,.02,0,.01c0-.02,0,0,0-.02-.01,0-.03,0,0,0h0s0,0-.01,0h0s0,0,0,0h0s0,0,0,0c-.25-.24.57.53-.57-.53h0s-.03.04-.03.04l-.16.18c-.39.42-.84.77-1.34,1.05-.49.26-1.01.36-1.56.41l-2.36.22,1.49,2.12c.11.16.23.32.34.48.22.28.44.56.66.85.13.15.26.29.39.45.07.07.13.15.2.23.06.09.2,0,.3,0,.43-.08.87-.16,1.32-.28-.38.07-.76.12-1.14.17l-.28.04s-.1.04-.13,0l-.09-.11-.37-.44c-.37-.48-.74-.95-1.12-1.44l-1.42-1.82,2.23-.35c.82-.13,1.62-.45,2.31-.95.17-.13.34-.26.49-.41l.23-.22.07-.07.04-.05h.01s0-.01,0-.01c.99.92.27.25.49.46h0s0,0,0,0h0s0,0,0,0c-.03,0,.02,0,0,0,0,.04-.01,0,0,0l.37.54-.08.05c-1.99,1.34-4.31,2.15-6.71,2.32h.03c-2.54.18-4.88-.37-7.05-1.47.68.34,1.41.61,2.04.84-1.4-.5-2.7-1.21-3.86-2.11l-.06-.04.16-.26s0,.03,0,.01c0,0,0-.02,0-.02h0s0,0,0,0h0s0,0,0,0h0s-.4-.4-.21-.21h0s0,0,0,0c0,0,0,0,.07.03.05.02.14.04.24.05.1.02.3,0,.25.01,0,.02,0,.07.03.13.05.15.09.27.16.36.13.2.37.41.7.59.17.09.35.18.56.28.18.09.36.16.55.22-.19-.05-.37-.12-.55-.19-.21-.09-.4-.17-.57-.26-.34-.17-.61-.37-.77-.58-.08-.1-.14-.21-.2-.38-.02-.07-.04-.13-.04-.16-.03-.02.06-.02-.07-.03-.11,0-.21-.03-.26-.05-.05-.02-.09-.05-.08-.04h0s0,0,0,0h0c.42.42.12.12.21.21h0s0,0,0,0h0s0,0,0,0c0,0,0,.02,0,.02,0,.02.02-.04,0-.01l-.05.08.08.05c2.16,1.58,4.81,2.53,7.54,2.57,2.72.06,5.44-.77,7.65-2.32l.09-.06-.14-.19s0,.03,0,0c.01,0-.04,0,0,0,0,0,.01,0,0,0h0c.15.14-.2-.19-.17-.15h0s0,0,0,0h0s0,.02,0,.02l-.04.04-.06.07-.24.25c-.17.16-.34.31-.52.46-.73.57-1.59.95-2.49,1.13l-1.28.26.82,1c.31.38.62.76.93,1.13-.3-.4-.58-.78-.87-1.18l-.72-.97,1.14-.18c.92-.14,1.86-.57,2.61-1.19.19-.15.37-.31.53-.48l.25-.27.02-.02h0s0-.01,0-.01h0s.19.18.1.09h0s.02,0,.02,0h0s-.01,0-.01,0c.03-.02,0,.02,0,0l-.02.14c-.23.14-.46.27-.68.38.22-.13.43-.28.65-.42l.08-.06-.03-.04s0,.03,0,0c.01,0-.04,0,0,0,0,0,.01,0,0,0h-.02c-.08-.04-.04.02-.07.02l-.07.07-.25.26c-.17.17-.35.32-.54.47-.76.58-1.65.97-2.59,1.14l-1.06.19.68.85,1.05,1.32c.11.11.19.28.32.34l.48-.07c.32-.05.64-.1.96-.17,1.03-.23,1.96-.57,2.88-1.04-.3.17-.59.33-.89.47.72-.27,1.43-.63,2.09-1.07.33-.22.65-.46.96-.72l.23-.2.3-.27c.19-.19.39-.38.57-.57v-.69s.02-.61.02-.61l-.03-.98c-.03-.65-.08-1.29-.14-1.92-.03-.25-.05-.49-.08-.74l.08.74c.06.65.1,1.31.12,1.96,0,.32,0,.65,0,.97-.01.42-.02.84-.04,1.25-.28.29-.61.6-.89.84-.24.2-.48.39-.73.58-.5.36-1.02.68-1.57.96.49-.28.97-.59,1.46-.95.25-.18.49-.38.74-.59.26-.22.62-.56.93-.87,0-.06,0-.14,0-.21,0,.06-.01.13-.02.2-.83.77-1.59,1.35-2.53,1.9-.64.39-1.31.72-2.01.97-.71.26-1.35.45-2.32.6.34-.05.71-.13,1.01-.21.27-.07.55-.15.81-.24.53-.18,1.05-.4,1.54-.66.98-.52,1.83-1.14,2.59-1.88-1.13.97-2.39,1.7-3.77,2.2-.69.24-1.37.43-2.22.56l-.3.04s-.11.04-.14,0l-.1-.12-.38-.48-.69-.88-.27-.35.43-.07c.15-.03.3-.06.45-.09-.15.04-.3.07-.45.1l-.41.08.26.32.73.9.4.48c.05.12.17.05.27.05l.31-.05c.85-.15,1.53-.36,2.24-.63.76-.28,1.49-.65,2.18-1.09.69-.45,1.31-.92,1.99-1.62l.03-.98v-.88c-.02-.59-.05-1.18-.11-1.77l.04.32-.07-.64c-.12-1.1-.3-2.2-.56-3.28-.24-.97-.57-1.9-.95-2.8l-.18-.46c.14.28.23.41.03-.16-.22-.62-.45-1.19-.77-1.85l-.13-.27c-.04-.09-.09-.18-.18-.22l-.51-.3c-.3-.17-.61-.33-.92-.48-1.27-.61-2.65-1.06-4.12-1.38-.17-.04-.36-.07-.56-.1l-.24-.03-.14.2c-.17.25-.35.52-.55.82l-.37.55.66.05c.41.03.85.08,1.3.18.28.09.43.12.57.14.22.06.45.13.67.21.53.2,1.05.47,1.54.75-.47-.3-1-.55-1.54-.75-.2-.08-.4-.15-.61-.21.15.02.31.03.6.14-.79-.31-1.64-.52-2.52-.6l-.42-.04.24-.35c.18-.27.36-.54.55-.82l.09-.13.15.02c1.47.2,2.92.62,4.3,1.26.34.16.68.33,1.01.52l.51.3.27.17c.1.05.11.18.17.26.36.74.64,1.39.93,2.11-.12-.24-.28-.54-.36-.69.19.38.36.76.53,1.15.48,1.3.86,2.64,1.15,4-.1-.4-.21-.77-.33-1.09.27,1.14.46,2.3.58,3.47.06.59.1,1.17.12,1.76.02.58.02,1.17,0,1.84-.62.66-1.24,1.15-1.91,1.61-.68.45-1.4.84-2.16,1.14-.72.27-1.41.45-2.24.59l-.3.04c-.1.01-.21.06-.26-.06l-.37-.48-.7-.9-.16-.21.26-.04c1.02-.18,1.99-.6,2.82-1.22.39-.3.83-.68,1.07-1.06.08-.2,0-.46-.19-.58-.18-.12-.45-.1-.61.06h0s0,0,0,0l-.26.17.26-.16h0s0-.01,0-.01c.31-.3.85,0,.76.38-.01.09-.05.17-.11.23l-.25.25c-.17.16-.34.32-.53.47-.74.59-1.61,1.02-2.54,1.25.9-.24,1.75-.68,2.46-1.28.18-.15.35-.31.51-.48l.24-.26c.06-.06.08-.11.09-.17.06-.27-.32-.45-.49-.25h-.01s-.03.03-.03.03c-3.04,2.16-7.12,2.82-10.65,1.64,1.01.21,2.41.3,3.03.16-.04-.04-1.78-.28-.76-.21,3.72.17,6.3-1.01,7.31-2.12.09-.12-.77.27-1.54.46-.77.2-1.42.26-.85.02.61-.25,1.52-.66,2.47-1.36l-.19.16c.41-.42,1.03-.65,1.64-.59.61.06,1.24.44,1.56,1.03.33.58.35,1.32.02,1.94-.07.14-.2.32-.28.4l-.11.12-.25.27c-.56.55-1.21,1.04-1.95,1.44-.1.04-.24.14-.43.26-.62.29-1.28.5-1.92.62l.9-2.42c.17.21.33.41.48.6.03.08.1.05.16.04l.13-.03c.14-.04.28-.07.41-.11.26-.07.49-.15.69-.22.39-.14.76-.29,1.13-.48.2-.08.37-.14.52-.18.22-.17.42-.33.61-.48.24-.17.48-.34.7-.53l.16-.14s.06-.05.08-.07v-.09s.01-.17.01-.17v-.81c.01-.65.01-1.3-.03-1.94-.03.02-.05.12-.09,0-.15-1.45-.43-2.88-.83-4.26-.11-.51-.23-1.02-.35-1.58-.19-.35-.41-.82-.67-1.37-.11-.23-.23-.48-.35-.73-.02-.04-.04-.09-.09-.11l-.23-.14c-1.18-.68-2.57-1.22-3.76-1.45h0c-.37-.07-.74-.14-1.13-.19l1.26-.57c-.18.27-.36.54-.55.82l-.98-2.02c.67.06,1.35.18,2.01.37.24.09.46.19.67.3.37.09.74.25.92.31.76.38,1.39.82,1.93,1.28l.09.08.02.02c.66.67.64,1.74.05,2.38-.15.19-.43.46-.85.59-.41.13-.98.11-1.46-.21-.1-.07-.19-.15-.27-.23l.27.2c-.53-.3-1.07-.55-1.61-.75-.67-.26-1.36-.46-2.08-.6-.6-.12-1.21-.19-1.82-.21-.31-.02-.61,0-.92,0h-.24s-.41.05-.41.05l-.83.13c-.28.06-.58.14-.87.21-.31.1-.65.23-.98.35l-1.16.51c-.23.02-.51.06-.7.06-.73-.03-1.07-.11-1.39-.06,0-.03.06-.06.11-.1-.31.09-.47.21-.7.25.06,0,.1-.01.12-.03-.21.01-.44-.14-.58-.31-.15-.18-.23-.38-.25-.56-.03-.18-.02-.38.06-.5.08-.11.18-.23.31-.37.1-.12.14-.21.23-.3l.18-.15c.39-.25.77-.45,1.1-.55.34-.09.59-.12.9.19h0c.45-.41.9-.83,1.36-1.25l.71-.65.75.77c-1.17-.07-2.34.12-3.46.55-.93.38-1.31.51-1.91.88Z" style="fill: #efbf04;"/>
      <path d="m22.33,6.89c-1.06-.51-2.19-.88-3.35-1.11,1.25.2,2.38.49,3.35,1.11Z" style="fill: #efbf04;"/>
      <path d="m18.75,18.65c-.45.05-.94.1-1.47.13,1.66-.2,3.28-.83,4.67-1.79l-.21.18c.89-.93,2.52-.83,3.29.21.39.5.53,1.16.41,1.76-.06.3-.19.6-.37.86-.05.07-.1.13-.13.16l-.07.08-.08.09c-.56.61-1.2,1.14-1.92,1.56h0c.63-.39,1.28-.89,1.85-1.5l.2-.21c.17-.18.38-.51.46-.8.2-.61.11-1.3-.25-1.85-.35-.55-.98-.92-1.61-.98-.63-.07-1.31.16-1.77.63l.21-.18c-1.18.82-2.47,1.33-3.2,1.65Z" style="fill: #efbf04;"/>
      <path d="m24.16,8.49l-.09-.15h0s.06.09.1.15Z" style="fill: #efbf04;"/>
      <path d="m12.97,20.13l-.3-.08c.77.2,1.56.34,2.36.38-.64-.02-1.35-.12-2.06-.3Z" style="fill: #efbf04;"/>
      <path d="m8.44,20.3c.9.57,1.9.96,2.96,1.08l-.04-.09-.44.74-.22.37c-.07.12-.12.29-.29.22-2.03-.26-3.98-1.24-5.32-2.62.93.87,2.04,1.56,3.26,2.01.3.11.61.21.92.29.29.08.59.14.89.18l.23.03h.11s.04-.04.07-.07l.24-.39.49-.79.09.19c-1.05-.14-2.06-.55-2.95-1.15Z" style="fill: #efbf04;"/>
      <path d="m13.33,18.59c-.56-.18-1.1-.42-1.63-.69.54.25,1.09.45,1.65.61-.11,0-.03.06-.03.09Z" style="fill: #efbf04;"/>
      <path d="m19.56,19.86c-.15.05-.31.1-.47.14.4-.13.78-.29,1.16-.46-.13.07-.46.22-.69.32Z" style="fill: #efbf04;"/>
      <path d="m6.04,19.99c-.17-.41-.29-.71-.35-1.35-.01-.31,0-.74.25-1.24.11-.24.34-.52.5-.65.15-.14.32-.26.5-.35-.21.12-.4.27-.57.45-.24.25-.41.56-.5.84-.17.56-.11.96-.05,1.26,0,.17.03.35.07.52.04.18.07.3.16.53Z" style="fill: #efbf04;"/>
      <path d="m9.35,20.68c-.54-.16-1.05-.37-1.51-.62.57.29,1.23.53,1.83.66-.12,0-.26-.02-.32-.04Z" style="fill: #efbf04;"/>
    </g>
    <g>
      <path d="m12.23,12.45c-.8.09-1.27,1.07-1.37,1.74-.15,1.05.46,2.4,1.37,2.49.91.09,1.97-1.1,1.91-2.24-.05-1.02-1.01-2.09-1.91-1.99Z" style="fill: #efbf04;"/>
      <g>
        <path d="m13.71,14.86c0,.08-.06.19-.12.15h-.04c.03-.05.08-.29.16-.15Z" style="fill: #efbf04;"/>
        <path d="m13.99,14.9c-.04.07-.04,0-.06,0,0-.03.02-.06.02-.09.03-.03.04.06.04.1Z" style="fill: #fff;"/>
        <path d="m14.56,15.07l.02-.03s-.04.09-.05.12c-.03,0-.05-.08-.02-.15.02.02,0,.09.04.06Z" style="fill: #efbf04;"/>
        <path d="m13.19,16.14c.04.08.21.13.37.09l.07.15c-.13.02-.26.19-.41.29-.04.07.17-.05.04.08-.03,0-.04-.05-.08-.04-.12.11.03.2-.33.3l-.14-.04c-.3.09-.68.11-1-.03-.32-.13-.56-.36-.7-.61-.13-.03-.27-.3-.37-.44l.04-.02c-.12-.06-.09-.26-.13-.37v-.12c.07-.06.14.28.22.15,0-.22-.21-.33-.17-.54,0-.19-.06-.16-.09-.27-.05-.03-.04.04-.1.03-.05-.44.2-.46.25-.81-.04-.02-.06-.34-.18-.08l.02.14-.07.08c.01-.11.06-.3,0-.29.19-.09.09-.75.23-.38-.1.15-.11.2-.07.33.12-.38.34-.65.53-.91,0-.04,0-.08,0-.13.07.04.21-.05.33-.14.04-.06.11-.11.07-.12-.02-.07-.44.39-.34.08.29-.28.77-.41,1.02-.32-.17.05-.31.06-.42.24-.44.36-.79.88-.81,1.41-.06,0-.11.13-.15.08-.05.04-.03.18-.11.21.02.43.05.91.17,1.28.1-.14.16.18.26.25-.01.11.09.25.16.34.03,0,.08.05.1.01-.06-.06-.06-.1-.09-.19.11-.02.09.16.18.26l-.09-.02c.12.17.24.5.5.5-.04-.05-.08-.11-.11-.17.21.1.51.27.69.12-.15,0-.43.02-.38-.11.03-.06.17-.03.25,0,.17.06.33-.02.44-.12.12-.09.22-.19.41-.22Z" style="fill: #efbf04;"/>
        <path d="m12.68,16.2c-.22.09-.06.24-.32.26.02-.08-.09-.12-.15-.15-.07.03-.15-.03-.2-.06-.03-.04.02-.1.08-.07.14.21.37-.02.58.02Z" style="fill: #efbf04;"/>
        <path d="m13.09,16.42c-.14.09-.16-.07-.28.03.02-.1.07-.04.2-.11l-.05.08h.13Z" style="fill: #fff;"/>
        <path d="m11.93,16.34c-.09-.02-.22-.2-.15-.27,0-.01.04-.03,0-.05.03.08.18.21.15.32Z" style="fill: #efbf04;"/>
        <path d="m12.25,16.82c-.07.02-.14,0-.24-.02.07,0,.16-.02.24.02Z" style="fill: #fff;"/>
        <path d="m11.73,16.43c-.02.07-.08-.04-.1-.06l-.02-.06c.05.03.11.06.13.12Z" style="fill: #efbf04;"/>
        <path d="m11.37,15.65c-.03-.13.14.09.08-.06.01.03.03.05.05.07l-.08.08-.05-.09Z" style="fill: #efbf04;"/>
        <path d="m11.37,15.43s-.06-.06-.06-.13l.05.02s0,.06.01.11Z" style="fill: #efbf04;"/>
        <path d="m11.22,15.69c-.05-.05,0-.07,0-.12.04,0,.04.18,0,.12Z" style="fill: #efbf04;"/>
        <path d="m10.35,15.15c.1.06.09.23.16.38-.07-.14-.14-.2-.16-.38Z" style="fill: #efbf04;"/>
        <path d="m13.58,14.02c0-.06-.04-.1-.07-.13l-.02.04.09.09Z" style="fill: #efbf04;"/>
        <path d="m13.61,14.69c.09.06.06-.03.14-.12.03-.14-.08-.26-.1-.39l-.08-.06c.02.16.01.4.04.57Z" style="fill: #efbf04;"/>
        <path d="m14.1,14.88c.07-.12,0-.29,0-.37,0,.15-.04.34-.07.44.02.02.05-.04.07-.07Z" style="fill: #fff;"/>
        <path d="m12.75,13.09c.14.07.25.27.46.32-.04-.08-.02-.1-.1-.21.17-.02.14.17.22.26-.04-.1.09-.03.15.04.07.16.21.4.27.62.08.09.04.41.16.36.01.15-.09.16-.13.26.1.36-.4.43-.4.77-.05-.06-.13.08-.18.12-.08.11-.32.3-.17.37.14.01.17-.23.33-.29.29-.11-.13.25-.05.34.01-.05.11.02.17-.1-.15.24.19.01.15.17.28-.21.25-.2.5-.26.08-.21-.05-.21-.08-.29.03-.22.24-.33.25-.54.16.2.25-.31.21-.57-.02-.33-.17-.1-.22-.41.06-.19.2.3.26.07l-.07-.15c-.1-.08-.22-.12-.31-.2-.03-.06-.06-.15-.04-.16.08.11.14.04.12-.11-.06-.04-.07-.06-.12-.07-.07.34-.13-.25-.37-.31-.48-.27.02-.41-.49-.68.04.25-.36-.11-.57-.07-.14-.05-.19-.09-.3-.17-.05.02-.17.04-.19.08.13.25.4.48.53.82,0,0,.02,0,.02,0Z" style="fill: #efbf04;"/>
      </g>
    </g>
    <g>
      <path d="m19.05,12.45c-.86.11-1.42,1.25-1.37,2.18.04.77.53,1.79,1.37,1.91.93.13,1.85-.9,1.91-1.91.07-1.15-.97-2.31-1.91-2.18Z" style="fill: #efbf04;"/>
      <g>
        <path d="m20.45,13.66c.06.06,0-.05.02-.01.04.04.08.09.12.14-.1-.11-.08.1-.14-.13Z" style="fill: #fff;"/>
        <path d="m20.78,13.82l.04.02c0,.05.02.16-.03.1,0-.04,0-.07-.01-.12Z" style="fill: #fff;"/>
        <path d="m21.28,13.35l.02.09s-.06-.04-.08-.11l.06.02Z" style="fill: #efbf04;"/>
        <path d="m18.93,16.97s-.02-.02-.05-.03c.02-.04.06-.05.15-.07.08.03.28,0,.25.05h-.02s.12.1.23.07c.02-.03-.08-.06.02-.13.12-.04.27-.07.38-.07l.05-.11c.11-.04.16-.03.24-.05l-.04.06c.05,0,.06.08.19-.01.06-.1.08-.11.17-.22.17-.06.32-.32.45-.46,0-.21.34-.48.24-.68.13-.28.03-.35-.02-.51.12-.22.06.32.15.21.11-.35.05-.76-.04-1.1-.08-.07-.09.09-.16-.08.05.05.09-.03.07-.1.01.07-.03,0-.04,0v.05c-.1.08-.06-.23-.18-.31.02-.07.03.06.07.05.05-.03.1-.11.04-.27-.23-.25-.26-.52-.58-.77-.02.05-.09-.04-.14-.07.09.01,0-.12-.07-.17-.09-.03-.16.04-.28-.04l.04.13s.22.11.31.15c-.02.11.37.29.24.36l-.03-.05c-.11-.19-.29-.16-.47-.22-.1-.12-.12-.2-.19-.31-.11-.08-.17-.06-.24-.06-.12,0-.17-.07-.23-.11-.04,0,.02.03-.03.03-.05-.02-.12-.04-.16-.04-.02.09.21.1.32.17-.04,0-.05.02-.09,0-.04,0-.03-.02-.03-.03-.03,0-.06,0-.08,0,0,.03,0,.08-.1.07l-.06-.06c-.22,0-.29.12-.04.12l.02-.06c.08.03.16.07.23.11.03.06-.11.02-.12.08-.03.06.13.12.2.15.09-.02-.03-.06-.09-.09l.14-.06s.07.04.06.07c.02.04-.04.1.02.11.16.09.05-.09.19-.02.01-.11-.24-.25-.33-.31l-.08-.02c-.03-.06.13.02.02-.04.23-.02.46.22.53.36-.03.05.06.18-.08.18.04.04.04.09.11.13.23.06.21.22.35.35,0-.03.04-.01.06-.02.12.24-.25.09-.02.34.04.05.08.06.1.03,0-.05.02-.11-.04-.16.02-.01-.04-.11.04-.08.07.15.2.18.24.32l.06.03s.11.17.1.25c.02.22-.09,0-.14.01,0,.06,0,.12.01.17.14.19-.1.32,0,.48l-.03-.02c-.03-.09-.11.02-.12.08l.02.05c.1.1-.02.32-.06.48-.02.03-.04.03-.04,0l-.12.13c.07.1-.06.11-.11.21,0,.08.02.13-.02.23-.23.13-.27.32-.51.35.01.09-.11.17.03.21-.25.07-.49.02-.69-.02l-.05.04c-.04.17-.49.42-.15.57Z" style="fill: #efbf04;"/>
        <path d="m19.45,11.94c.05,0,.1.02.15.03l-.02-.03c-.05-.05-.06,0-.14,0Z" style="fill: #efbf04;"/>
        <path d="m18.38,14.85c-.05-.07-.13-.16-.16-.1,0,.11.09.18.08.3.06-.02.05-.16.08-.2Z" style="fill: #fff;"/>
        <path d="m20.54,13.97l.05.13.05-.04c0-.12-.06-.01-.09-.09Z" style="fill: #efbf04;"/>
        <path d="m17.66,14.44s-.07-.04-.05.03l.06.11s.04-.18,0-.14Z" style="fill: #fff;"/>
        <path d="m17.57,14.04h-.1c0,.06.04.11.02.16.03-.07.07-.07.08-.16Z" style="fill: #fff;"/>
        <path d="m17.54,14.85c.07-.21-.15-.22-.02-.4,0-.25-.1-.18-.19-.13,0,.1.11,0,.14.17-.02.1-.03.22-.08.24.02.26.1,0,.15.12Z" style="fill: #fff;"/>
        <polygon points="17.35 14 17.33 14.12 17.4 14.07 17.35 14" style="fill: #fff;"/>
        <polygon points="17.25 14.89 17.31 14.99 17.29 14.8 17.25 14.89" style="fill: #fff;"/>
        <path d="m17.03,14.64v.09c.04.07.07.11.09.04-.02-.11-.07-.09-.09-.13Z" style="fill: #fff;"/>
        <path d="m18.43,16.22c-.06-.26-.11-.53-.16-.8-.05-.03-.1-.07-.15-.12v-.19c-.04-.16-.09-.35-.21-.45.01-.03.03-.03.05-.07-.04-.06,0-.19-.05-.25.04-.08.09-.07.15-.11-.03-.18.16-.36.14-.54.16-.01.03-.26.19-.28.13-.13.2-.29.17-.39.02.02.03.1.1.08,0-.01.02-.04.01-.04,0-.01.12-.05.13-.1,0-.02,0-.04,0-.04-.21.01-.05-.47.16-.65.03-.02.05-.03.08-.05-.11,0-.24,0-.37.07.05.02-.14.11-.03.09.02,0,.03-.03.05-.03h.15c-.11.06-.37.15-.38.27-.12.06-.19.04-.28.06-.16.15-.36.34-.38.52-.08.2-.16.21-.24.24,0,.1-.1.26-.05.32-.09.16-.2.2-.29.27-.06.14-.02.15.02.26-.03.3-.17-.08-.17.28-.02.14.07.31.12.3-.03.16.07.34.05.45.21.17.12.54.39.72.15.27.38.43.66.57.15-.08.18-.22.16-.4Z" style="fill: #efbf04;"/>
      </g>
    </g>
    <g>
      <path d="m18.6,1.06c.24.13.38.21.59.35.39.19.96.43,1.47.66.49.26.91.54,1.05.7-.06.05-1.27-.28-1.48-.33-.52-.19-.96-.41-1.38-.57-.39-.15-.8-.3-1.21-.46-.81-.25-1.67-.54-2.95-.59-.23-.06-1.01.15-1.74.32,0,0,.23,0,.48.02-1.02.15-2.59.45-3.74.92q.27-.04.43-.04c-.52,0-1.24.33-2.01.68-.36.22-.74.45-1.1.68-.35.25-.66.53-.96.77-.26.16-.44.29-.61.43-.25.26-.48.52-.72.77-.23.27-.43.57-.65.86-.11.15-.22.3-.33.45-.09.16-.18.33-.27.5-.17.35-.4.69-.52,1.1-.58,1.29-1.26,3.27-1.36,5.18-.39,3.23.26,7.09,2.14,9.47.26.42.83,1.14,1.22,1.89.4.27.81.65,1.27,1.05.51.34.99.82,1.59,1.18,1.12.82,2.47,1.42,3.64,1.86.89.23,1.45.57,1.81.71,2.46.25,5.13-.05,7.54-.9,3.09-1.05,5.89-3.02,7.88-5.96.28-.4.65-1.28.76-1.75.11-.19.23-.37.32-.57.67-1.98.66-3.95.64-5.77-.09-2.51.14-2.86.47-3.25.44,1.35.86,2.73,1,4.37.15,1.62.02,3.53-.9,5.58-.5,1.12-1.31,2.81-2.29,4.05-.83,1.05-2.01,1.89-2.84,2.71-.38.18-.87.45-1.48.69-.58.29-1.28.54-2,.81-1.46.49-3.09.93-4.5,1.14-.24,0,.02-.07-.39-.04-1.97.33-4.15.24-6.28-.38-2.13-.61-4.2-1.75-5.92-3.31-1.79-1.53-3.32-3.92-4.31-6.63-.05-.12-.15-.49-.26-.91-.12-.42-.16-.93-.26-1.3-.08-.26-.17-.52-.23-.78-.31-2.02-.21-4.41.22-5.83.4-1.69.93-3.17,1.68-4.46.32-.46.59-1.05,1.04-1.58.21-.27.42-.56.63-.84l.74-.77c.47-.54,1.08-.92,1.58-1.32.53-.36,1.07-.6,1.5-.79.3-.14.92-.42,1.36-.63.22-.08.46-.12.69-.15.47-.14.74-.4,1.22-.54C12.42.13,14.25-.01,15.84.1c1.6.17,2.94.55,3.61.95-.25-.06-1.25-.18-.86.02Z" style="fill: #efbf04;"/>
      <path d="m28.41,8.33c-.12-.06.14.31.32.53-.1-.24-.13-.4-.41-.86l.49.68c.39.27-.46-.68-.11-.32.27.38.46.68.27.55-.01-.08-.15-.23-.31-.45-.11.02.13.4.22.64l-.77-1.04.3.28Z" style="fill: #efbf04;"/>
      <path d="m26.64,6.02l.18.21c.12.05-.01-.18-.19-.39.75.91-.12.13.29.71.05-.02-.4-.58-.27-.54Z" style="fill: #efbf04;"/>
      <path d="m27.89,6.96c.27.44.62.83.59,1.01-.23-.39-.45-.79-.74-1.14l.15.13Z" style="fill: #efbf04;"/>
      <path d="m20.56,2.01c-.4-.08-.2-.04-.82-.25l.9.29-.08-.04Z" style="fill: #efbf04;"/>
      <path d="m3.63,6.55c.39-.37.68-.69,1.24-1.29-.54.63-1.1,1.17-1.24,1.29Z" style="fill: #efbf04;"/>
      <path d="m.81,14.51s-.06.26-.09-.14c.04-.18.13.08.1-.55-.03.23-.01.46-.01.69Z" style="fill: #efbf04;"/>
      <path d="m.56,15.24l-.09.4s.06-.15.09-.4Z" style="fill: #efbf04;"/>
      <path d="m15.66,1.39l-.05-.03s-.09.01-.13.02c.06,0,.11,0,.18,0Z" style="fill: #efbf04;"/>
      <path d="m14.4,1.3l.88.11c.08-.01.13-.02.2-.03-.58-.03-.38-.12-1.08-.08Z" style="fill: #efbf04;"/>
      <path d="m15.51,1.31l.09.05c.76-.03,1.08.17,2.15.3-.38-.15-.78-.18-1.16-.25-.38-.05-.75-.12-1.08-.1Z" style="fill: #efbf04;"/>
      <path d="m16.41,1.27l.31-.03c.27.04.24.09.23.11.19.02.38.02.57.05.25-.07-1.51-.32-1.98-.33.29.03.58.13.87.2Z" style="fill: #efbf04;"/>
      <polygon points="22.01 1.86 21.98 1.85 22.01 1.86 22.01 1.86" style="fill: #efbf04;"/>
      <path d="m20.45,1l-.13.14c.77.21.85.4,1.66.71h.02c-.22-.27-.99-.56-1.55-.85Z" style="fill: #efbf04;"/>
      <path d="m13.36,1.19c.74-.09,1.3-.07,1.54-.16l-.7-.03-.7.04c.53.03-.03.08-.14.15Z" style="fill: #efbf04;"/>
      <path d="m12.16,1.02c.22-.05.44-.1.66-.11l-.3-.03s-.14.08-.36.14Z" style="fill: #efbf04;"/>
      <path d="m12.52.88s-.07-.04-.32,0h.32Z" style="fill: #efbf04;"/>
      <path d="m13.85.61c-.44-.07-.4.06-1.15.1-.04.13.77-.07,1.15-.1Z" style="fill: #efbf04;"/>
      <polygon points="10.72 1.07 10.45 1.06 10.43 1.2 10.72 1.07" style="fill: #efbf04;"/>
      <path d="m6.05,4.07c.48-.52-.4.16-.49.17.16-.06.33-.11.49-.17Z" style="fill: #efbf04;"/>
      <path d="m9.83,1.06l.26.03.1-.1c.19-.06.47-.16.65-.16.12-.18-.64.14-1.02.23Z" style="fill: #efbf04;"/>
      <line x1="7.25" y1="2.58" x2="6.58" y2="2.89" style="fill: #efbf04;"/>
      <path d="m11.47.19c.02-.05-1.15.02.15-.19-.5.09-1.21.24-.78.05-.8.21-.03.13-.54.34.4-.22.78-.15,1.17-.2Z" style="fill: #efbf04;"/>
      <path d="m9.52.61c-.39.08-.86.25-1.05.39.37-.17.74-.22,1.05-.39Z" style="fill: #efbf04;"/>
      <polygon points="9.07 .46 9.65 .38 9.28 .37 9.07 .46" style="fill: #efbf04;"/>
      <line x1="3.35" y1="5.88" x2="3.49" y2="5.96" style="fill: #efbf04;"/>
      <path d="m6.91,1.5c.41-.28.86-.48,1.31-.69-.41.17-.84.3-1.22.53-.66.48-.3.32.21.06-.14.07-.26.11-.3.1Z" style="fill: #efbf04;"/>
      <path d="m8.39.98l.38-.22s-.59.24-1.12.45c.36-.13.68-.24.74-.23Z" style="fill: #efbf04;"/>
      <path d="m7.65,1.2c-.16.05-.3.13-.44.2.13-.06.27-.14.44-.2Z" style="fill: #efbf04;"/>
      <path d="m1.82,8.9l.52-1.16c-.22.42-.38.78-.52,1.16Z" style="fill: #efbf04;"/>
      <path d="m5.9,1.94c-.06.04-.11.08-.17.13l.02.14c.33-.29.16-.23.15-.27Z" style="fill: #efbf04;"/>
      <path d="m4.34,2.88c-.33.22-.83.86-1.05,1.11.41-.29.77-.7,1.25-1.11-.48.41-.18.06-.2,0Z" style="fill: #efbf04;"/>
      <path d="m2.93,4.13c.28-.33.6-.63.9-.95-.27.09-.55.53-.9.95Z" style="fill: #efbf04;"/>
      <path d="m1.76,5.87c-.05.11.03.05-.07.26.15-.13.32-.55.53-.78-.18.16-.32.34-.47.52Z" style="fill: #efbf04;"/>
      <path d="m10.88.68c-.35.1-.65.21-.94.31.47-.12.93-.26,1.42-.31-.16,0-.31-.01-.48,0Z" style="fill: #efbf04;"/>
      <path d="m30.1,17.56c.11,1.42-.66,3.96-1.44,5.18-1.19,2.03-3.32,4.3-5.93,5.56v-.05c-2.03.9-4.88,1.75-7.36,1.62l.13.07c.42.05.96-.02.64.1-.56,0-1.31-.1-1.47-.15-.14.02-.29.06-.44.07-.35-.1-.03-.28-1-.36-.31.09-.84-.09-1.29-.24-.46-.14-.84-.3-.9-.18-.3-.3-1.23-.45-1.64-.71l.24.27c-.44-.27-.85-.53-1.19-.79-.33-.28-.6-.51-.81-.63-.55-.3-1.06-.83-1.66-1.27-.27-.26-.52-.54-.79-.8-.26-.26-.52-.51-.72-.79-.03-.17.17.12.35.34.19.21.34.36.1,0-.89-.92-1.78-2.22-2.31-3.75-.57-1.5-.92-3.14-1.11-4.67,0,.09,0,.37-.03.17.04-.31-.03-.66-.03-1.06,0-.4-.02-.86.02-1.36-.08.14-.15,1.46-.09,1.93-.28-.29.02-.26-.05-1.53-.01.09-.04.27-.06.26-.05-1.27.15-.49.18-1.46l-.13.53c.1-.94,0-.3.05-1.38.1.17.3-.32.37-.59-.03-.13.2-1.12.06-1.02.32-.58.42-.97.52-1.36.12-.38.27-.74.62-1.23.11-.52-.31.41-.39.33.44-1.2.27-.32.51-.7.08-.18.31-.63.57-1.1.28-.46.67-.9.91-1.15l-.05-.1c.38-.37.9-.85,1.37-1.25.51-.35.95-.65,1.14-.72.15-.17.03-.16-.17-.03-.2.14-.51.38-.8.61-.17.04.4-.47.7-.67-.14.11-.23.1-.37.27-.09-.03.35-.34.5-.46,1.13-.64-.39.3.1.07.39-.27,1.43-.88.94-.73.92-.48.43-.06.93-.24-.78.22-.9.57-1.47.78-.15.15-.06.14.17.04.18-.11.4-.24.63-.38.24-.12.5-.22.73-.32.46-.2.81-.37.78-.42l.43-.04.36-.22.17-.03c-.42,0-1.23.15-1.55.2-.08-.03.43-.25.71-.33l.26.04c.72-.17.47-.43,1.5-.58-.59.28,1.15-.06,1.86.04.76-.33-.11-.19.55-.47.77-.02,1.97-.1,2.88.12-2.2-.24,1.04.29-.72.19.36.07.67.06,1.04.11.25.23-.56.1-.09.3l.17-.12c.5.17.76.41,1.73.64.13-.03.63.05,1.05.22.09.16.18.15,1.02.52.87.23.5-.02-.14-.39-.64-.34-1.59-.69-1.73-.87-.64-.15-1.12-.3-1.54-.46-.36-.12-.75-.25-1.15-.39-.38-.14-.78-.27-1.31-.33-.53-.09-1.18-.16-2.04-.09-.53.15-.35.1-1.33.35-.32.18.05.15.58.08.53-.03,1.23-.06,1.54-.02-.31.06-.61.13-.89.12l.33.12c-.78.1-1,.08-1.19.07-.2-.02-.37-.04-1.05.13l.29-.1c-.26.07-.52.12-.77.23l.18-.03c-.46.16-.57.31-1.3.48l.56-.28c-.37.21-.56.03-1.09.33.28-.2.35-.3.56-.36-.45.09-.83.29-1.22.44-.19.08-.38.16-.57.24-.18.1-.35.2-.52.3-2.29,1.42-4.11,3.4-5.29,5.74.07-.11.14-.21.17-.27-.15.44-.32.69-.49.92-.24.43-.38.9-.56,1.36-.17.51-.26.98-.34,1.49-.05.25-.1.51-.15.79-.03.28-.06.58-.1.9-.08.05-.1-.04-.09-.2-.03.47-.03.76.09.31-.08.81-.13,1.17-.14,1.77-.03-.46-.12-.92-.09-1.38-.12.58.09.56.02,1.34.04,1.23.13-.54.24-.38l-.02.49.15-.52c-.07,1.06-.13,1.61-.17,2.07l-.02-.77c-.2-.28.1,1.29.04,1.65-.01-.03-.02-.07-.03-.1.22,1.18.03-.27.21.53.05.47.07.96.16,1.44.01-.09.02-.18.04-.26.15.39.31.98.47,1.65.24.64.45,1.38.77,2,.18.35.43.75.69,1.17.3.39.63.81.93,1.2-.09-.17-.3-.5-.2-.43.31.52,1.23,1.46.82,1.2l.65.56c.2.23.38.39.51.53l-.14-.19.81.63s.23.29-.16-.03c.78.87,2.16,1.43,3.74,2.2-.18-.04-.35-.09-.51-.16.49.2.76.28,1.03.43.28.12.55.31,1.12.39l-.22-.15c.41.08.98.24,1.42.39.45.1.77.19.65.21.14-.21.46.14.98,0l.49.22c.54-.03,1.06-.04.71-.16.83.12,1.52.05,1.98-.09,0,0,.01,0,.02,0h.02s0,0,0,0c.18-.04.99-.12.62-.16.94-.12,1.19-.15,1.44-.16.24-.02.49,0,1.35-.27l.03-.17c.66-.2,1.31-.44,1.87-.76.58-.28,1.07-.63,1.5-.92l.18.04c.6-.39-.16,0,.73-.65.14-.07.27-.12.27-.07.89-.6,2.02-1.5,3.07-2.75.01.03-.1.21-.16.3.2-.28.47-.65.75-1.05.25-.4.48-.83.67-1.19.54-.77,1.09-1.8,1.47-2.99.39-1.18.6-2.5.61-3.77-.26-1.97-.85-3.13-1.22-3.24-.16.49-.1,2.39-.57,4.67Z" style="fill: #efbf04;"/>
    </g>
  </g>
</svg>