<?xml version="1.0" encoding="UTF-8"?>
<svg id="wow" data-name="icon-wow" xmlns="http://www.w3.org/2000/svg" viewBox="0 0 31.51 30.39">
  <g id="icon__wow">
    <path d="m29.81,17.6c.11-.59.26-1.18.29-1.78-.53,5.12-4.3,9.86-9.12,11.8-4.82,1.99-10.58,1.05-14.29-1.93-.23-.18-.58-.47-.88-.8-.32-.31-.62-.63-.8-.87-1.57-1.75-2.77-4.23-3.11-6.87-.38-2.63.11-5.36,1.08-7.52.96-2.17,2.03-3.66,2.03-3.66.35-.5.73-.98.27-.58-.21.23-.48.55-.79.89-.29.36-.57.77-.85,1.14-.23.38-.45.72-.63,1.01-.17.25-.25.43-.27.42-.03-.02.26-.56.58-1.09-.11-.05.8-1.72,1.26-2.16.18-.26.89-1.1,1.73-1.84.82-.76,1.77-1.34,2.02-1.54.8-.5-.06-.14-1.41.63-1.32.8-2.89,2.27-3.67,3.33-.8,1.05-.09-.06-.14-.1-.2.28-.36.51-.52.73-.14.22-.27.44-.4.66-.28.42-.51.86-.77,1.47,0,0-.13.22-.28.59-.13.38-.36.9-.53,1.5C.25,12.23.05,13.72.01,14.72c0,0-.02.17,0,.58.02.42,0,1.09.15,2.08.04.33.06.5.09.58.03.08.04.08.05.08t-.04,0c.1.32.19.81.31,1.3.15.48.3.96.42,1.27t-.04.02c.56,1.21,1.09,2.45,1.95,3.5t-.03.03c.37.56.87,1.03.83,1.05t-.03.03c.4.55,1.47,1.39,1.43,1.43t.03-.03c2.1,1.69,3.98,2.53,5.9,3.11,2.57.77,5.69.9,8.7.09,3.01-.83,5.81-2.6,7.8-4.87.47-.48.82-1.05.39-.55.4-.53.84-1.03,1.18-1.61.72-1.12.31-.59.94-1.76.56-1.2,1.02-2.47,1.24-3.78.16-.65.18-1.32.25-1.99-.01-.67.04-1.34-.06-2l-.12-.99-.22-.98c-.13-.66-.38-1.28-.61-1.9-.5-1.24-1.19-2.39-2-3.45C25.23,1.73,19.7-.51,14.43.1c1.32-.08,2.48-.1,3.63.09,1.15.14,2.28.41,3.52.85,0,.02-.02.06.59.3,1.83.74,3.63,1.96,4.97,3.3,1.35,1.33,2.22,2.76,2.64,3.65.25.61.56,1.2,1.06,3.09-.12-.65-.38-1.25-.59-1.87-.02,0-.06.02-.06.02.46,1.22.83,2.65.92,4.11.07,1.46-.07,2.92-.39,4.18,0,0-.04-.01-.06-.02-.1.42-.24.82-.36,1.23-.13.3-.1.09.04-.42.15-.51.34-1.35.47-2.34.1-.99.16-2.14,0-3.21-.04-.54-.16-1.06-.28-1.54-.1-.49-.25-.92-.38-1.29-.02,0-.06.02-.08.03.14.4.28.8.36,1.21h-.04c-.45-1.83-1.24-3.41-2.27-4.81-1.03-1.39-2.32-2.6-3.93-3.61.55.32,1.55,1.09,2.02,1.52-.02.02-.01.01.43.46-.9-.88-2.03-1.75-3.27-2.43-1.25-.67-2.6-1.14-3.83-1.41-.63-.08,0,0,1.77.64,1.74.67,2.85,1.29,4.31,2.46l-.03.03c-.95-.81-2.55-1.79-3.72-2.23-.3-.1,0,.02.27.16.27.15.54.3.26.18-.56-.27-1.14-.48-1.74-.65,1.79.51,3.97,1.77,5.32,3.04.45.43.84.9.82.92,2.11,2.25,2.94,4.69,3.17,6.47.03.15.07.45.11.84.05.39.11.88.09,1.41.05,1.06-.15,2.26-.35,3.14Z" style="fill: #f1c724;"/>
    <path d="m9.87,20.13c.05,0,.06-.2.15.08.13.45.2.87.27,1.29.03.17.07.34.1.51.05.21.09.42.13.62.09.42.19.85.31,1.28l.09.03.09.39c.04.08.08.11.13.17l.27.32c.19.21.38.43.57.65h0c.24.01.49.03.75.04.93.02.9-.02,1.5-.04.23-.93.45-1.86.71-2.71.31-1.05.4-1.21.55-1.65-.04.02-.07.03-.03-.1.1-.26.23-.57.39-.93.04-.09.08-.18.12-.27.04-.09.02-.04.04-.07l.03-.06v-.06s-.02-.08-.02-.1c.02-.06.04-.1.06-.13l.03-.24.02-.14v-.08s.02,0,.02.01c.04.06.09.2.21.4l.1.16c.05.08.04.05.18.32.21.39.42.78.64,1.18.09.19.19.39.28.58.05.12.08.16.14.34l.18.51c.13.33.2.72.31,1.07.1.35.23.58.34.88.06.18.11.18.17.24l.17.15c.03.16.42.08.69.08l.43-.02h.21s.09-.16.09-.16l.35-.63c.23-.34.38-1.15.53-1.76.13-.54.26-1.06.37-1.54.36-1.32.91-2.99,1.3-4.27-.34.11.45-3.05-.02-2.51.26-.85.65-2.13.59-2.22-.18-.27-.26-1.01.27-3.32.23-.9.73-2.23.78-2.56.07-.52-.51,1.1-.44.59-1.02,3.29-1.97,6.53-2.92,9.78-.47,1.63-.94,3.25-1.42,4.89-.01.07,0,.05-.01.08-.01.03-.04.01-.03-.02-.01.01-.02.02-.04,0l-.02-.03c-.06-.14-.12-.28-.18-.43-.13-.3-.27-.62-.44-.94-.15-.3-.32-.63-.49-.97-.11-.2-.29-.64-.42-.98-.15-.34-.26-.79-.39-1.22-.44-1.82-.96-4.47-1.37-6.41-.36,1.43-.73,2.89-1.11,4.38-.2.78-.39,1.56-.6,2.26-.21.71-.43,1.35-.69,1.96-.29.7-.58,1.33-.84,2.05l-.1.27-.02.07-.04.14-.04.15h-.14c-.14-.62-.25-1.12-.33-1.44l-.09-.36c-.51-2.17-1.17-4.8-1.73-6.61-.27-.8-.56-1.65-.85-2.49.04.39.08.77.12,1.11-.2-.87-.41-1.74-.54-2.06-.57-1.82-.46-.74-.48.02.04.53-.26-.13-.15.69-.14-.58-.2-.87-.34-1.45-.1-.05.47,1.77.24,1.4-.1-.56-.3-1.17-.44-1.75-.06.23.44,2.01.32,1.95-.1-.31-.25-1.66-.41-1.74-.03-.02.1.56.17.85-.47-1.77-.84-2.72-.59-1.06-.13-.56-.27-1.37-.43-1.97h0c.06.3.17.83.23,1.1l-.24-1.02v.19c.03.26.08.51.14.78l-.16-.68c0,.18,0,.38.01.6.11.82.17,1.62.27,2.05.79,3.51,1.59,7.04,2.43,10.53Z" style="fill: #f1c724;"/>
  </g>
</svg>