<?xml version="1.0" encoding="UTF-8"?>
<svg id="Layer_2" data-name="Layer 2" xmlns="http://www.w3.org/2000/svg" viewBox="0 0 92 92">
  <g id="Icon">
    <g>
      <path d="m53.74,69.71c1.84-1.3,15.12-11.05,16.42-28.79,1.48-20.24-13.98-32.63-15.21-33.58,19.69,10.01,27.71,30.6,21.57,45.02-5.48,12.9-20.55,16.8-22.79,17.34Z" style="fill: #efbf04;"/>
      <path d="m58.11,71.23c1.3-.55,2.45-1.16,3.39-1.77,2.85-.99,4.77-2.31,6.53-3.81,1.75-1.52,3.43-3.12,5.6-5.39.49-.5.86-1.07,1.26-1.58.2-.26.39-.52.58-.78.18-.26.33-.54.5-.8.32-.53.63-1.06.94-1.57.26-.55.51-1.08.76-1.62l.38-.8c.11-.27.2-.56.3-.84.2-.56.4-1.12.6-1.69.24-.56.33-1.17.51-1.78.16-.61.32-1.24.5-1.89-.25-.48-.29-1.35-.22-2.45.06-.55.05-1.16.06-1.81.02-.65.04-1.34.07-2.05-.1-2.81-.46-5.95-1.45-7.68-.83-2.47-1.9-3.52-1.36-1.66-1.35-3.22-.44-2.64-1.97-5.17l.82.7c-.17-.46-.35-.96-.54-1.48-.1-.26-.21-.53-.34-.8-.15-.26-.31-.52-.5-.79l-1.12-1.01c-.18-.4-.37-.78-.56-1.13-.22-.33-.44-.64-.67-.94-.45-.59-.91-1.12-1.37-1.65-.47-.53-1.02-1-1.55-1.57-.55-.55-1.05-1.23-1.71-1.91,1.54,1.94-.98-.62-1.02-.18-.3-.51-1.89-2.15-1.24-1.7-1.2-1.06-2.47-1.94-3.62-2.67-1.18-.69-2.17-1.33-2.77-2.09-.37-.15-.74-.28-1.11-.42-1.03-.42-1.86-.92-2.67-1.46l-.44.69c.56.51,1.07,1.08,1.63,1.65h.34c.95.72,2.48,2.31,2.97,3.26,1.97,2.42,4.64,5.33,6.38,8.15.35.74.56,1.21.73,1.54.18.33.33.5.49.66.16.16.32.31.53.58.22.27.47.67.75,1.37.57,1.8,1.76,4.91,1.61,6.13-.1-.65-.28-1.14-.46-1.55-.17-.42-.35-.76-.52-1.11-.17-.35-.33-.7-.49-1.13-.19-.42-.39-.92-.59-1.57.07.53-.35-.55-.78-1.43-.47-.87-.87-1.56-.52-.4.35.56.61,1.17.88,1.8.26.63.55,1.27.77,1.95.38,1.36.85,2.74,1.04,4.17.12.71.26,1.41.36,2.11.06.7.13,1.4.19,2.08.2,1.36.15,2.66.27,3.88-.16-.1-.27.23-.34.8-.07.57-.23,1.38-.33,2.27-.06.44-.09.91-.16,1.37-.08.46-.16.91-.24,1.35-.16.87-.26,1.65-.41,2.16l-.2.09c-.58,1.71-.98,2.96-1.96,5.67-1.36,3.14-3.15,6.09-5.23,8.13-1.47,1.54-3.02,3.25-4.38,4.76-1.3,1.42-2.49,2.72-3.2,3.49,2.31-1.33,4.18-3.15,5.79-4.91,1.62-1.77,2.98-3.5,4.55-4.83-.58.73-1.02,1.29-1.36,1.77-.36.46-.65.84-.89,1.21-.49.74-.91,1.4-1.76,2.58.4-.32.78-.66,1.18-.99l-.73,1.01c.6-.32-.4,1.02-.12,1.03,1.07-1.09,2.07-2.25,3.02-3.45-1.7,1.79-.87.36-.61-.33.53-.57.98-1.21,1.47-1.82-.41.38-1.32,1.48-.44.03.61-.71,1.15-1.84,1.84-2.63l-.6,1.83c.31-.66.66-1.23,1.04-1.76.37-.54.72-1.06,1.09-1.58.77-1.02,1.38-2.15,1.83-3.53l.78-.64c.3-.87.68-1.72.91-2.62l.08.35c.32-1.06.71-2.11.97-3.19.29-1.79.11-2.09,0-2.43.22-1.36.25-2.68.43-3.22l.12,1.62.27-1.47c-.22,1-.02-1.25-.19-1.62.12-3.31.16-2.34.26-4.44-.09-.54-.15-1.11-.19-1.66-.02-.28-.04-.55-.06-.81-.04-.26-.08-.51-.11-.75-.14-.94-.27-1.62-.48-1.65-.49-3.91-1.93-7.93-3.64-11.23l-.99-1.32c-.97-1.98-1.88-3.3-2.88-4.57-1.01-1.27-2.11-2.47-3.65-4.13l.33.18c-.65-.53-1.28-1.07-1.95-1.57-1.05-1.2-1.96-1.89-2.96-2.61l-2.15,3.4c1.09.54,2.26,1.04,3.81,2.21,3.17,2.25,4.68,3.15,6.06,3.53.78.56,1.55,1.34,2.27,2.11.73.77,1.28,1.66,1.86,2.29l-.88-.71.78,1.2c.87.86,1.17,1.45,1.63,2.03.43.6.98,1.22,1.88,2.54,1.09,1.89,1.56,2.67,2.06,3.12.46.46.91.58,1.41,1.39.35,1.39.79,2.74.97,4.15l.08-.12c.63,1.11.89,1.55,1.03,2.46.08.45.17,1.01.31,1.82.16.81.18,1.89.35,3.36l.31-.29c-.1,1.01-.13,1.72-.03,2.52.12.79.13,1.67-.03,2.96,0,.65-.45,1.88-.85,3.23-.08.34-.21.68-.35,1.01-.13.33-.26.66-.37.99-.23.65-.38,1.3-.56,1.83-.29.49-.54.96-.77,1.41-.22.45-.5.84-.71,1.24-.22.39-.42.78-.61,1.16-.22.36-.43.71-.64,1.06-.21.35-.41.71-.63,1.05l-.74,1c-.5.69-1.12,1.33-1.88,1.98-.97.71-1.75,1.37-2.34,1.89-.62.48-1.07.79-1.41.69l.35-.25-1.03.03.13.39c-1.29.62-3.01,1.76-4.31,1.85-.88.7-1.8,1.35-2.75,1.98.74-.35,1.59-.66,2.44-1l-.13-.06c.79-.36,2.63-1.38,3.56-1.76-.32.25-.65.47-.99.7,1.27-.57.34.14.02.38-1.28.59-1.73.81-2.08,1.08-.35.26-.62.51-1.6.96-.46.15-1.35.42-1.07.19-1.15.57-4.43,1.23-4.45,1.61-.11,0-.16,0-.26,0,.58.58,2.19.91,4.23.9Z" style="fill: #efbf04;"/>
    </g>
    <g>
      <path d="m11.5,91.5c8.36-5.89,16.12-8.97,22.53-10.66,12.06-3.18,18.42-1.17,30.75-4.26,9.3-2.33,16.81-6.27,22.53-10.05-2.85,13.09-8.26,18.66-12.79,21.31-9.26,5.42-18.44.73-39.88,1.22-9.77.22-17.78,1.42-23.14,2.44Z" style="fill: #efbf04;"/>
      <g>
        <path d="m18.24,88.41h-.09s-.31.03-.31.03c-.33.23-1.05.28-2,.37,0,.05.1.1-.23.17-1.5.13-.74.12-1.8.41.33-.06.74-.14.91-.11l-2.05.41c.3.05.55.13.23.27.24.17-.38.55-.6.81.37-.04.67-.06.81-.06-.03.1-.37.2-.8.29.04.02.08.03.14.04-.07,0-.11-.02-.14-.04-.28.06-.59.12-.88.17.17,0,.34,0,.26.05l1.22-.22s0,.04-.06.07l.31-.11h-.25c-.09-.04.07-.09.23-.15.32-.07.41-.05.58-.05l.64-.21c.22-.21-1.73.2-.7-.13l.33-.02c.48-.13,1.14-.23,1.45-.39.52.11,1.37-.36,1.49-.12,1.9-.16,4.35-.68,6.27-.59.31-.21.28-.56,1.08-.86.17.01.42.02.34.07l.57-.15c-.33.03-.75.08-.92.03.9-.17-.43-.11-.36-.21l1.24-.21-.15-.03c-2.24.14-4.48.23-6.72.44l-.06.02Z" style="fill: #efbf04;"/>
        <path d="m56.13,91.35v-.21c3.2.16,6.64.47,10.3.13,3.66-.27,7.48-1.63,10.65-4.02,3.19-2.39,5.7-5.71,7.52-9.35.48-.9.87-1.84,1.28-2.78l.64-1.64c.23-.65.42-1.29.64-1.95.45-1.32.74-2.6,1.11-3.91l.5-2.02c.13-.61.49-1.59.19-1.56-2.3,1.45-4.77,3.04-7.16,4.38l-.91.5-.77.4c-.42.22-.84.43-1.26.64-.84.42-1.7.82-2.55,1.2-3.43,1.54-6.96,2.8-10.51,3.79l.33-.89c-2.85,1.04-6,1.9-9.17,2.5-3.16.62-6.38.97-9.29,1.44h2.28c-2.05.54-7.35,1.13-10.59,1.65l.29-.25c4.45-.77-.32-.03,1.42-.84l.77-.21-.47-.03-.77.21c.07-.13-.02-.26.72-.41l-1.06.12c-2.35-.16-2.46-.62-2.28-1.27-.59.19.15.65-2.43.99l.29-.27c-.9.33-1.79.67-2.68,1.02l-1.29.09c-.94.4-1.52.73-2.53.97l-.17.49c-4.45,1.3-9.52,4.19-13.65,6.33-.67.85-3.09,1.71-5.02,3.49l1.16-.27c1.31-.55,3.28-1.76,5.49-2.99,2.2-1.24,4.66-2.49,6.75-3.29l-.07.28c-.83.44-1.36.9-2.45,1.31l-.09.5c1.18.19,2.93-.71,4.64-1.66,1.71-.95,3.4-1.94,4.2-2.09,3.36-.67-1.84,1.52-.31.96-1.66.87-.84.84.58.61,1.42-.23,3.47-.57,4.27-.52,2.19-.09,5.48-.68,9.03-1.04,3.54-.38,7.42-.63,10.42-.92,4.96-.89,10.76-1.97,16.27-3.68,2.76-.84,5.46-1.83,7.97-2.9,1.25-.55,2.46-1.1,3.6-1.68.4-.2.29-.14.35-.17l.1-.04c.06-.03.12-.06.17-.09.09-.02.23-.18.57-.52.17-.19.18-.13.24-.13.05.02.1.06.13.12.06.12.09.37.04.64-.02.14-.06.28-.11.42-.03.07-.06.13-.09.2l-.06.1-.12.25c-.31.67-.7,1.19-1.12,1.55-1.09,2.28-2.41,4.41-4,6.2l-.08-.27c-2.17,2.69-5.04,4.92-8.34,6.04-.81.3-1.69.48-2.55.67-.9.12-1.78.27-2.71.3-1.83.13-3.7.08-5.5,0-3.16-.19-4.2.29-5.6-.47-3.17-.49-6.71-.66-10.23-.6-3.52.05-7,.3-10.15.44.03.21-.84.45.33.53,3.22-.36,6.93.2,7.02.78l-1.2-.08,2.13.5c.46-.05.92-.11,1.37-.14.35.15.5.27.52.36,2.34.29,4.33.9,6.72,1.43,1.72-.03,3.67.12,6.35.63Z" style="fill: #efbf04;"/>
      </g>
    </g>
    <g>
      <path d="m27.64,77.19c5.29-1.37,15.08-4.79,22.83-13.7,11.81-13.57,13.99-34.23,6.09-53.28-.68,8.57-2.64,21.07-8.52,35.01-6.25,14.83-14.46,25.42-20.4,31.97Z" style="fill: #efbf04;"/>
      <path d="m56.74,57.42l.35-.58c-1.03,1.95-2.35,3.87-3.79,5.63.46-.43.88-.91,1.29-1.41l1.25-1.52c.81-1.05,1.48-2.2,2.15-3.31.58-1.16,1.08-2.32,1.46-3.43.31-1.14.51-2.23.56-3.22.39-.08.97-1.27,1.46-2.46.26-.59.46-1.19.56-1.65.12-.46.18-.78.14-.81.1-1.01.25-2.01.29-3.04l-.08,1.06-.14,1.04.14-1.04.08-1.06.2-2.44c.03-.83.07-1.65.1-2.49l.06-1.26v-1.27c0-.85.03-1.7.01-2.56-.1-3.44-.37-6.98-.97-10.55-.01-.09-.03-.17-.04-.27l-.02-.14-.06-.23c-.08-.32-.17-.65-.26-1-.18-.71-.38-1.49-.6-2.33-.22-.85-.45-1.74-.7-2.68-.29-.84-.6-1.71-.91-2.6-.32-.9-.65-1.83-.98-2.77-.36-1-.73-2-1.1-3-.38-1.03-.75-2.05-1.12-3.05l-.27-.73-.21-.53c-.14-.36-.28-.72-.42-1.07-.44,4.47-.86,8.76-1.16,11.35-.12,1.31-.31,2.37-.48,3.59.29-1.95.32-1.84.56-3.92-.05.71-.08,1.47-.14,2.08-.06.62-.11,1.24-.17,1.84-.05.59-.11,1.18-.16,1.76-.06.5-.12,1-.18,1.49-.18,1.42-.35,2.78-.52,4.12.16-.34.26-.39.55-1.23l-.26,1.04c.08,1.01-.41,3.22-.55,4.27-.09-.26-.29.56-.5,1.26l.16-.26c-.71,2.7-1.51,5.85-2.32,8.22-.11.33-.24.56-.33.7l-.69,2.3c-.1-.23-.85,1.8-.56.7-.41,1.76-1.22,3.4-1.67,5.06-2.37,5.64-5.27,11.48-8.44,17l.14-.09c-1.11,1.93-1.89,3.78-3.6,5.9-.94,1.71-2.54,3.98-2.73,4.82-1.38,1.78-1.81,2.59-3.2,4.32.53-.29-1.26,1.76-.42,1.05,1.18-.92,1.07-1.13,2.05-1.94h-.07c4.05-4.25,7.69-8.9,10.92-13.91,1.97-3.45,4.18-7.15,5.93-10.9,1.88-4.03,3.57-8.54,4.66-12.19.25-.87.61-1.44.94-2.15,1.01-3.35,2.28-7.63,2.98-11.52-.02.07-.03.14-.05.19.2-1.03.43-1.92.64-2.81.09-.4.19-.79.28-1.2.05-.19.09-.39.12-.61-.05-.03-.03-.18-.04-.26.07.02.11-.27.13-.85.02-.75.05-1.72.08-2.61,0-.2,0-.39.01-.57v-.29c.01-.07.04.03.06.04.08.12.16.26.23.39.15.27.26.54.28.71.04.06.08.12.11.21.15.6.29,1.24.4,1.8.09.58.14,1.11.18,1.53l.02.3c.03.24.06.48.08.72.06.5.13.98.19,1.46.07.48.14.95.21,1.41.05.46.1.91.15,1.35.21.75.43,1.6.62,2.24-.08.64.14.74.15,1.51-.38,1.95-.22,3.06-.02,2.07.03,1.58.04,3.18-.1,4.58-.01.65-.02,1.3-.03,1.97-.03.56-.16.86-.32,1.12-.14,1.42-.19.99-.48,2.46-.26.31-.49,3.73-.74,4.11l.04-.24c-.26.83-.56,1.49-.85,2.15-.31.65-.67,1.27-.96,2.05-1.77,4.3-4.3,8.76-7.19,11.95.12.16.56-.77.78-.65-1.62,1.97-3.62,3.6-5.6,5.19-.39.25-.89.52-1.09.61-.69.43-.33.36-.82.69l-.17-.09c-.61.63-1.14.58-1.78,1.08,0,.08-.24.26-.49.41-.11-.15-.76.47-.81.31v.02c-.15.09-.25.16-.45.24-.12.12-.81.65-1.5,1.2-.71.52-1.41,1.03-1.56,1.14l-.16.04c-.43.2-.55.41-.29.32l-.53.23.06-.04c-.18.08-.35.15-.54.22-.11.03-.25,0-.13-.14-.28.18-.6.36-.92.46.87-.24,1.96-.53,2.94-.8-.33.23-1.02.43-1.41.63-.52.09-1.52.42-2.32.62-.16.07-.21.31-.62.37-.24-.07-.43.16-.79.17.34-.2.71-.28,1.08-.42-.12-.12-.94.22-1.25.28-.12.1-.86.28-1.3.47.15-.21-.4.02-.69.01-.31.07-.49.19-.35.21-.05.2,1.26-.26.88.04-.14-.05-.73.16-1.06.26.02.09.24,0,.06.15-.37.08-.73.29-.97.26.06-.04.22-.07.32-.1-.46.14,2.39-1.32,1.79-1.1.2.06-2.53,1.31-2.22,1.22.3-.03-.17.22.14.17l.31-.2c.42-.08.64.04.51.14-.69.19,1.77-1.18,1.21-.92l.25-.03c-.23.14-.87.38-1.16.36.02.09-.3.22-.57.33h-.1c-.28.13-.69.22-.47.29,1.7-.47-.89,1.22.79.82-.76-.01.19-.25.9-.5.09.04.45.06.98-.06.45-.16.24-.16.31-.23.27-.03.76-.16.73-.03.31-.24.59-.12.99-.31.35-.19-.04-.04.2-.2.55-.2,1.33-.47,1.77-.63.2.02.79-.03.48.28-.84.33.22-.37-.63.02.46.07-.74.37-.84.58.32,0,.88-.22,1.34-.45h-.1c.4-.19,1.2-.58,1.69-.68-.07.12.15.09-.14.24l.57-.24c.06-.06.12-.11-.05-.06.24-.18.52-.27.74-.33.05.02.75-.42,1.41-.88.65-.47,1.28-.92,1.25-.88.38-.23.53-.17.86-.47-.19.12-2.6,1.69-3.06,2,.2-.03,1.27-.71,2.3-1.41,1.02-.71,2-1.45,2.16-1.47.27-.19.59-.42.48-.45.48-.27-.04.23.33.08,0-.02-.05-.02.06-.09l.37-.13c.62-.61,1.75-1.22,2.33-1.94-.14.24-.27.55-.68.99l-.11.03c-.04.08-.42.38-.35.44.49-.27.84-.6,1.25-1.03.1-.05.21-.1.29-.14,0,0-.02,0-.03-.02.18-.08.17-.06.14.01,0,.01,0,.02-.02.04.45-.01,1.57-1.54,2.38-2.16.19-.24,0-.05.22-.35.83-.64,1.36-1.13,2.14-1.89.15-.33.14-.38-.23-.15.19-.19.39-.38.57-.59-.25.78,1.18-1.02.88-.19.2-.15.53-.53.78-.92-.03-.08-.08-.21.29-.67.59-.57.42-.46.88-.95.17-.08.06.15.14.17.48-.94.68-.64,1.22-1.47.35-.51.93-1.59.8-1.7.42-.72.52-.66.6-.52Z" style="fill: #efbf04;"/>
    </g>
    <rect x="0" width="92" height="92" style="fill: none;"/>
  </g>
</svg>