<?xml version="1.0" encoding="UTF-8"?>
<svg id="flist" data-name="icon-flist" xmlns="http://www.w3.org/2000/svg" viewBox="0 0 29.62 32.33">
  <g id="icon__flist">
    <g>
      <path d="m.83,3.81c0-.23,0-.46,0-.46,0,0-.01,0-.02,0,0,.16.01.31.02.45Z" style="fill: #f1c724;"/>
      <path d="m1.08,4.26v-.14s-.01.02-.02.03l.02.12Z" style="fill: #f1c724;"/>
      <path d="m.81,3.36c-.08.03-.15.22-.23,0,0-.25,0-.76,0-1.01-.04-.25-.08,0-.13,0,0-.25,0-.5-.02-.5-.05-.17-.09.11-.11.6.23,1.09.3,3.86.48.93Z" style="fill: #f1c724;"/>
      <path d="m.97,5.37v-1.33c-.04-.14-.09-.33-.14-.19.03.69.07,1.11.14,1.52Z" style="fill: #f1c724;"/>
      <path d="m4.29.04s-.02.02-.25,0c.09,0,.17,0,.25,0,0-.01-.01-.03.1-.04-.45,0-.94.01-1.44.02-.62.08-1.12.44-1.46.9-.07.13-.12.27-.16.39C1.64.69,2.21.21,2.94.1c.62,0,1.23,0,1.83,0,1.18,0,2.3-.02,3.32-.07-1.42,0-2.42,0-3.79,0Z" style="fill: #f1c724;"/>
      <path d="m1.37,1.56c-.03.08-.05.17-.08.25.08-.23.09-.25.08-.25Z" style="fill: #f1c724;"/>
      <path d="m29.25,17.56c0,1.53.07,2.87.12,4.22-.04-2.87-.04-5.82-.1-8.01,0,1.26-.02,2.52-.02,3.79Z" style="fill: #f1c724;"/>
      <path d="m29.33,28.91c.08-.16.13-.3.19-.48.06-.2.1-.39.09-.6,0-.23,0-.46,0-.68,0-.43,0-.85,0-1.26-.01-.81-.03-1.57-.06-2.32,0,.76,0,1.51,0,2.26v1.13s0,.56,0,.56v.28c0,.16,0,.32-.05.48-.06.26-.11.42-.19.62Z" style="fill: #f1c724;"/>
      <path d="m29.48,26.42c.02-1.73-.04-3.19-.11-4.64.02,1.63.05,3.22.11,4.64Z" style="fill: #f1c724;"/>
      <path d="m19.61,1.52c-1.14.05-1.83.07-2.22.07-.18.03-.42.06-.71.1.07,0,.14,0,.2,0,1.18-.02,2.37-.05,3.57-.07.47-.03.92-.05,1.36-.08-.73,0-1.47-.02-2.19-.03Z" style="fill: #f1c724;"/>
      <path d="m17.39,1.59c1.48-.24-1.53.01,0,0h0Z" style="fill: #f1c724;"/>
      <path d="m24.75.35h.17s.51,0,.51,0c-.23,0-.45,0-.68,0Z" style="fill: #f1c724;"/>
      <path d="m28.32,11.39c0-.99-.01-1.99-.02-2.98,0,2.03,0,4.07.06,5.76,0-.24.02-.51.03-.76-.04-.51-.07-1.26-.07-2.02Z" style="fill: #f1c724;"/>
      <path d="m16.87.47c2.72-.04,5.42-.08,8.06-.12.66,0,1.32,0,1.98.01h.54s.09,0,.14.01l.12.07c.08.05.16.1.23.16.3.23.52.49.71.79.18.31.31.61.36.99v.98c0,.64,0,1.27,0,1.9.01,2.52.05,4.94.11,7.24.13,4.04.03,11.12.33,15.16,0-.44.02-.85.02-1.25.01.29.03.58.04.86l.02.41c0,.09.03.41-.03.6-.16.64-.46,1.14-.91,1.58-.22.21-.47.39-.74.52-.26.12-.65.31-1.01.27l-2.52.03-4.98.06c-3.33.02-6.67.05-10.08.08-.99.03-1.79.05-2.78.07-1.02,0-2.03.02-3.03.03,0,0,0,0,.04.01h-.92c-.53-.04-.96-.2-1.39-.5-.41-.29-.75-.72-.93-1.19-.18-.47-.23-.9-.19-1.4h0s0,0,0,0c-.02-2.98-.05-5.97-.07-9.1,0-2.03.02-4.05.02-6.06,0-.76.09-.76.11-1.26.11-2.02.2-3.54.25-5.81,0,0,.04,0,.06,0,0-.35,0-.66,0-.92.23,1.09.3,3.86.48.93h0c0,.16.01.31.02.45v.05s0,0,0,0c.03.69.07,1.11.14,1.52v-1.33c.03.08.06.14.09.09l.02.12c0,.2,0,.36,0,.36.02.06.03.11.05.14.08,1.16.12,2.99.21,2.64.05-.27.01-1.12-.01-2.08,0-.07.01-.13.02-.19.02,1.26.15,0,.16.76,0,1.01,0,2.02,0,3.03-.02,4.11-.01,7.58.04,11.62v.53c0,1.57,0,3.06,0,4.58v.07s-.01.07-.01.07c-.03.26.02.56.15.78-.06-.07-.11-.16-.15-.25.08.29.26.54.53.69.28.17.54.16.96.15.77-.01,1.54-.02,2.32-.03,3.79-.1,7.58-.2,11.62-.24,2.11-.02,4.19-.05,6.28-.07,1.04-.02,2.09-.03,3.14-.05.71.12,1.44-.7,1.39-1.36.07.53-.46,1.21-.98,1.36-.06.03-.11.01-.19.02h-.33s-.67.02-.67.02l-1.34.02c-.81,0-1.61,0-2.4.01.81,0,1.61,0,2.4-.01.78,0,1.56,0,2.34,0,.14,0,.23-.01.34-.07.13-.06.26-.13.37-.22.22-.18.39-.41.49-.67.05-.14.08-.23.07-.34v-.53c-.01-.35-.02-.7-.03-1.05-.02-.69-.05-1.34-.09-1.94.02-.26.04-.26.04-.51.01-1.77.05-3.54-.02-5.05-.02,0-.01-.76-.06-.51,0-1.52-.02-3.25-.02-4.8,0-.66-.04-1.31-.09-1.97-.03-2.71-.07-5.41-.1-8.16v-.52s0-.25,0-.25c0-.01,0-.02,0-.03-.03-.11-.13-.34-.24-.47-.06-.08-.12-.14-.19-.21-.03-.02-.03-.02-.05-.03-.02,0-.01,0-.07,0h-.53c-1.41.02-2.84.03-4.3.05-1.46,0-3.13-.01-4.6-.02,2.19-.04,4.41-.08,6.65-.12.98,0,1.94.02,2.85.02.05.03.02,0,.13.09.1.1.19.2.26.32.07.1.14.27.16.34.01.04.02,0,.02.1l.02.33c.02.41.03.81.05,1.21v-.91s-.01-.46-.01-.46v-.22s0-.03-.01-.05c-.04-.25-.36-.71-.52-.79-.03-.01-.05-.03-.08-.03h-.04s-.02,0-.02,0h-.1s-.9.01-.9.01c-.6,0-1.2.02-1.79.02-1.3-.02-2.63-.04-3.92-.06h.08c1.03-.02,2.05-.04,3.09-.05.98,0,1.93.02,2.85.03.23,0,.45,0,.68,0,.09,0,.11-.02.16.01.03,0,.32.26.43.45.07.11.12.22.17.34.05-.01.04.58.06.94v-.56s0-.27,0-.27c0-.03,0-.06-.01-.09-.05-.2-.18-.45-.33-.62-.19-.21-.26-.26-.36-.28h-.08s-.25,0-.25,0h-.56c-.92.02-1.84.03-2.75.04-.57,0-1.15-.02-1.73-.03h.18c.51-.03,1.92-.26,1.17-.33-3.87,0-9.15,0-9.35,0-.25-.09,6.42-.14,6.16-.16-.38-.01-.75-.02-1.12-.03.35-.02.69-.03,1.02-.05.76-.01,1.77.02,2.28-.02.88-.05,1.83-.07,2.81-.07.49,0,.98,0,1.49-.01.24,0,.48,0,.73-.01.09,0,.2-.03.29.02.09.05.17.1.25.16.42.3.87.91.91,1.55.03.72.07,1.48.1,2.24.04,0,.01.76.06.51-.01,1.43-.03,3.08.09,3.69v.1c0,.09.01.23.02.4-.04,2.37.06,4.03.12,6.18,0,.74,0,1.49,0,2.27,0-.51.03-1.26.01-1.77v-.5c-.04-1.89-.07-3.74-.1-5.57-.01-.15-.03-.4-.04-.61v-.4s-.02-.1-.02-.1c-.03-1.77-.07-3.66-.1-5.2v-1.06c.02-.36-.07-.7-.23-1.02-.15-.32-.38-.61-.64-.84-.13-.11-.27-.23-.43-.29h-.53c-1.45-.02-2.92-.04-4.35-.06,1.42-.03,2.82-.05,4.2-.08-1.72.02-3.35.05-4.93.07-.24,0-.48,0-.73,0h-1.52c.47,0,.94,0,1.41.02-.94.02-1.87.04-2.79.05-5.04.06-10.35.04-15.37,0,.08-.06.16-.06.29-.09,2.47,0,4.94.03,6.97-.06-1.42,0-2.42,0-3.79,0,0-.01-.01-.03.1-.04-.89,0-1.92.02-2.91.03.34-.05.69-.1,1.04-.15.51-.04,1.26-.03,2.02-.04,3.29,0,6.35,0,9.6,0,2.88.03,5.75.06,8.57.09-2.78.04-5.35.09-7.88.13ZM.82,11.02c0,.26.02.52.03.79l.02-.12c0-.24-.02-.49-.04-.67Zm-.04,5.91c.04-1.73,0-4.02-.02-6.23,0-.01-.02-.02-.02-.02-.03,1.85.01,4.13.03,6.25Zm-.46,6.93v-.04s0,0,0,0v.04Zm26.5,6.13c-2.04.11-4.55.12-7.08.18-.76,0-1.51.09-2.53.09-1.24.04-2.04.06-3.03.1l.76.04c-1.77-.01-2.78.12-4.55.08,0,.02-.25.06-.5.06-1.26.03-2.53,0-3.54.04-1.26.03-2.53.03-3.54.08-.37.03-1.25-.07-1.85-.71-.54-.58-.72-1.34-.65-2.04h0v-.37s-.02.08-.02.08v.27s0,.01,0,.01h0c-.06.6.04,1.18.39,1.73.35.55.95.94,1.58,1.06.16.03.34.06.51.05h.31s.61-.03.61-.03c.83-.02,1.65-.04,2.4-.05,3.79-.06,7.33-.16,10.86-.26.74-.03,1.53-.06,2.27-.09,2.27-.09,5.05-.08,6.57-.24.26-.02.75-.02,1.02-.07Zm1.2-2.22c.03.19-.07.43-.19.66-.13.22-.31.41-.54.55-.28.16-.33.19-.73.18-.35,0-.7.01-1.04.02-1.39.03-2.75.04-4.01.03-2.02,0-7.83.16-6.82.41,1.25-.23,5.43-.25,9.07-.27.91,0,1.79-.01,2.58-.02.19,0,.37,0,.54,0,.14,0,.25-.07.39-.13.26-.14.46-.32.6-.51.28-.39.34-.75.29-.88-.03-.22-.08-.25-.14-.03Zm-.21-21.08c.02,1.06.04,2.08.03,3.28l-.03-3.28Zm.76,10.77c-.12-3.29-.11-6.82-.17-10.11-.02-1.26,0-2.59.01-3.89,0-.32,0-.64,0-.96,0-.21-.11-.49-.23-.71-.13-.23-.3-.43-.49-.59-.16-.13-.33-.24-.53-.18v.06s.15-.02.15-.02c.13.03.23.14.32.22.11.11.21.24.29.36.16.24.27.58.3.78l-.02-.07s.02.08.02.13c-.01.44-.02,1-.01,1.58,0,.27.01.55.02.83.01,3.16.02,6.42.12,9.28.06,1.71.12,3.34.19,5.05,0-.5.03-1.26.01-1.77Z" style="fill: #f1c724;"/>
      <path d="m21.53.56c-1.1.01-2.2.03-3.3.04-.85.02-1.7.04-2.56.06-2.03.04-4.23.04-6.46.03-1.12,0-2.25,0-3.37-.01-.56,0-1.12,0-1.67,0h-.83c-.31,0-.47-.01-.67.09-.07.1-.05.16.08.17.17-.09.31-.06.66-.05h.89s1.77.03,1.77.03l3.55.02c2.37.01,4.73.03,7.09.04h.11c2.02-.11,5.31-.04,7.83-.13.65-.02,1.27-.04,1.9-.06.3,0,.59-.02.88-.02.23.12.45.29.65.52.39.46.63,1,.57,1.65.02.63.04,1.25.05,1.89,0-.46,0-.91,0-1.36-.02-.45.06-.92-.05-1.33-.12-.42-.35-.81-.66-1.11-.15-.15-.32-.28-.51-.39-.21-.02-.42,0-.64-.01-1.77-.02-3.53-.04-5.34-.06Z" style="fill: #f1c724;"/>
      <path d="m29.55,23.58c0-.99,0-1.98-.01-2.99-.04-2.76-.08-5.24-.12-7.8,0,1.86-.02,3.73-.03,5.61,0,1.89.1,3.48.16,5.18Z" style="fill: #f1c724;"/>
      <path d="m29.37,10.74c.02.7.03,1.38.05,2.05,0-2.75,0-5.49,0-8.22l-.02-1.68v-.45c0-.2-.08-.42-.12-.57-.11-.33-.27-.63-.47-.91-.21-.27-.44-.51-.78-.75-.28-.29-.8-.2-1.07-.21l-1.68.02c-2.23.03-4.47.06-6.73.09-.51,0-1.02.01-1.52.02,2.09.02,4.17.04,6.24.07,1.03,0,2.06.02,3.08.02h.77s.47.01.47.01c.15.04.27.15.4.24.5.38.82.84,1.02,1.38.05.13.09.27.12.43.03.16,0,.31.01.43v.75c0,.5,0,.99,0,1.48,0,.98.01,1.94.02,2.9.02,1.91.05,3.76.1,5.53,0,.13,0,.27.01.41,0-3.37,0-6.7,0-10.03.03,2.33.06,4.66.09,7.01Z" style="fill: #f1c724;"/>
      <path d="m22.59.55c-.24,0-.49,0-.73,0-.28,0-.56,0-.84.01h.51s1.06,0,1.06,0Z" style="fill: #f1c724;"/>
      <path d="m28.22,2.43v.05c0,.79,0,1.6,0,2.41.02,1.15.04,2.33.07,3.52,0-1.09-.01-2.17-.02-3.21,0-.51-.01-1.01-.02-1.49-.01-.44-.03-.87-.04-1.29Z" style="fill: #f1c724;"/>
      <path d="m27.67,9.36c0,.25,0,.76,0,1.01l.03.46v-.71s-.03-.76-.03-.76Z" style="fill: #f1c724;"/>
      <path d="m27.88,24.28c-.05-4.47-.1-8.67-.15-12.84-.01-.2-.03-.4-.04-.61-.04,2.79-.03,5.57.06,8.13.02.5.07,1.26.07,1.77,0,2.39.05,4.67.09,6.94,0-1.08-.02-2.18-.03-3.3v-.09Z" style="fill: #f1c724;"/>
    </g>
    <g>
      <path d="m16.35,20.95c.11-.13.23-.33.29-.56.06-.24.04-.48,0-.65-.09-.36-.2-.52-.06-.46,0-.04.02-.08.03-.11.06.09.21.32.26.64.07.31-.01.76-.19,1.01-.17.26-.36.38-.44.41-.09.02-.06-.03.1-.27Z" style="fill: #efbf04;"/>
      <path d="m15.64,20.81c.5-.31.19-.04.16.04-.22.14-.47.2-.72.22-.3-.04.3-.07.56-.26Z" style="fill: #fff;"/>
      <path d="m13.36,19.77h-.09c.08,0,.15-.02.15-.05.17,0,.33.15.15.17-.08-.05-.04-.1-.21-.12Z" style="fill: #efbf04;"/>
      <path d="m17.23,15.27c.22-.19-.49-.48-1.4-.69l.35-.31c.22.05.5.09.82.1.31.04,1.03-.02,1.44.09.06.91.34,1.01.44,1.08.04-.02.03-.04,0-.11-.02-.03-.03-.06-.01-.07,0,0,.03,0,.05.01.01,0,.02,0,.03.01,0,.02.03-.05,0,.05-.02.05-.02.06-.02.07,0,0,0,.05,0,.03,0-.07-.02-.18-.07-.29l-.03.23c-.04-.26-.07-.67-.04-1.5l.15-.69c0-.68-.02-1.37-.03-2.08v.11c0-.07-.05-.11-.07-.12-.01,0,0,0,0-.03,0-.04.01.07,0,.05-.11.06-.12.13-.1.26l.19.98h-1.01c-.73,0-1.45,0-2.15-.01-1-.02-1.98-.05-2.95-.07l.02-1.22c0-.33.02-.66.03-1-.06-.4-.09-1.15-.11-2.02.68,0,1.41,0,2.13,0,.4,0,.78-.01,1.11-.04l.02.1c.6-.15,1.62.07,2.37.06.25.03.36.07.82.11.1.04-.06.06-.32.08-.19,0-.4.02-.62.03-.44.02-.83.05-.53.17.36.04.69.05,1,.04.2,0,.41,0,.62-.01h.33c.12-.02.15.14.22.2.26.31.5.75.6,1.02.13.34.17.64.19.7.07.11.2.17.23.17.04,0,.05-.01.07-.03.04-.05.07-.1.15-.25-.04-.12-.14.03-.2-.07.03-.03.06-.09.07-.13,0-.02,0,0,.02-.06l.04-.2c.06-.26.12-.48.17-.69.12-.41.24-.73.35-1.05.24-.63.47-1.22.66-2.38-.02-.04-.02-.3-.02-.54l.11.16h-.12s0,.01,0,.01h0s0-.02,0-.02l-.02-.03s-.03-.04-.05-.05c-.03-.03-.06-.04-.08-.04-.02,0-.04.02-.05.04,0,.01,0,.03-.01.06v.04s0,.02,0,.02c.04,0-.16.02.36-.03l-.36-.21c-.02.09-.05.19-.08.3l-.06.84-.21.54c.12-.63.35-1.79.22-1.68v-.02s.5.24.5.24c-.27.03-.39.04-.48.06,0,0,0,0,.01,0,0,0,.01-.02.02-.03,0-.02,0-.05,0-.07,0-.04-.02-.06-.04-.06-.02-.01-.05-.02-.07-.02h0s.01-.08.01-.08c0-.06,0-.1,0-.14,0-.04,0-.02-.02-.06-.02-.06-.05-.09-.03-.06-.05,0,.44.34.3.29-.03.08-.19.41-.37.6-.17.2-.33.3-.41.34-.2.06.1-.03.45-.74.12-.17.19-.28.22-.31,0-.01.04.02-.02-.03-.06-.04-.12-.1-.13-.11-.06-.06-.05-.06-.04-.04.05.1.03.08.05.14,0,.06,0,.17,0,.13.02,0,.08,0,.12,0,.03,0,.08,0,.14.03-.04-.09-.12-.15-.23-.18-.05,0-.03,0-.05-.09-.04-.08-.06-.08.02,0,.05.05.05.05.04.05l-.03.04c-.06.08-.14.25-.3.44-.15.18-.33.32-.54.42-.43.21-.84.21-1.18.18-1.03-.09-2.15-.11-3.15-.13l-.6.16c-.04-.16-1.04-.27-2.01-.32-.42.03-.96.01-.83.09-.19.09,3.56.09,1.8.36-2.27-.09-4.67-.26-6.13-.5,1.06-.03,1.83.02,2.95-.18,1.91-.09,3.89-.08,5.86-.08h1.47c.48-.04.99.11,1.45-.11.23-.1.39-.29.5-.5.1-.2.22-.45.47-.53.48-.15,1.03.13,1.26.58-.01.07.02.24.01.42h0c-.1.29-.21.59-.24.4-.14.32-.23,1.27-.44,1.49-.1.71-.21,1.45-.34,2.19-.08.35-.11.8-.23,1.06-.13.29-.41.53-.68.52-.26-.01-.56-.25-.64-.52-.09-.33-.19-.71-.4-1.09-.11-.18-.21-.39-.35-.53-.21,0-.42-.02-.63-.03-.35,0-.69-.02-1.02-.03.71.29-1.56.15-2.29.26-.48-.1-1.24-.11-1.95-.11,0,.28,0,.55.01.79.05.11.07.63.15.5-.03-.52.01-.72.04-1.1.07,0,.14.01.22.02-.01.04-.06.06-.13.08.03.2,0,.42-.02.71-.03.32-.07.71-.07,1.03-.04-.12-.08-.25-.11-.41,0,.26-.01.53-.03.82,1.36.12,2.92.37,4.12.24l-1.23-.23c.43-.01.89,0,1.35.02l-.11.12c-.12-.55.27-1.14.79-1.25.56-.14,1.01.35,1.07.79h0s0,0,0,0c.01.4.04.77.1,1.09.02-.32.02-.71.02-1.09h0s0-.03,0-.03c-.05-.3-.22-.59-.47-.75-.25-.17-.56-.19-.79-.13-.45.13-.66.41-.73.34-.03-.07.23-.56.92-.65.35-.04.73.12.96.37.23.25.33.55.35.78v.06s0,0,0,0c0,.02,0,.04,0,.05-.14,1.55-.04,2.9.02,4.21v.05s-.02.08-.02.08c-.08.29-.23.58-.51.78-.27.22-.73.28-1.06.13-.63-.3-.88-.89-.85-1.08.03-.12-.08-.08-.15-.11-.07-.02-.15-.04-.24-.06Z" style="fill: #efbf04;"/>
      <path d="m20.43,14.93c-.01-2.36-.39-1.18-.35-3.45.06.12.12,0,.16-.26v-.09c-.01-.26-.11-.63-.41-.94-.28-.32-.79-.51-1.22-.44-.48.12-.83.36-1.11.75-.26.39-.33.86-.26,1.28l.69-.82c-.24,0-.46-.02-.66-.02-.44-.04-.37-.21.49-.2l.17.03-.89,1.05c-.05-.41.01-.85.23-1.23.11-.19.25-.37.43-.51.16-.13.34-.24.56-.32.43-.18,1.05-.12,1.45.18.41.28.65.72.73,1.16v.04s0,.09,0,.09c.05,1.3.12,2.61-.03,3.71Z" style="fill: #efbf04;"/>
      <path d="m18.48,15.98c.44.28.71.13.88.09.17-.07.36-.14.5-.53v-.02s0-.04,0-.04c0-.11,0-.24-.01-.4.06.15.08.27.08.4v.04s-.01.05-.01.05c-.05.17-.14.34-.33.52-.17.17-.58.41-1.06.19.26.09.58.03.77-.13-.3.14-.65.03-.82-.17Z" style="fill: #fff;"/>
      <path d="m17.02,11.16c-.37,0-.99-.03-1.53-.09-.27-.03-.51-.06-.69-.1-.13-.04-.14-.08-.14-.13-.03-.02.06-.11-.08-.08.06.02.06.03.25.05.27.02.58.05.89.07.6.06,1.15.14,1.29.27Z" style="fill: #efbf04;"/>
      <path d="m19.19,10.95c-.2-.19-.47-.27-.8.07.13-.25.6-.46.8-.07Z" style="fill: #fff;"/>
      <path d="m16.03,11.49c.14.15-.64.02-.85.02l-.44-.07c.42-.02.95-.03,1.29.06Z" style="fill: #efbf04;"/>
      <path d="m15.27,9.64c1.09.08-1.14.16.16.21h-.69c-.03-.07-.09-.14-.16-.22h.69Z" style="fill: #efbf04;"/>
      <path d="m16.93,9.87c.31-.04.63-.06,1.18,0l-.3.08c-.21.03-.44-.07-.87-.07Z" style="fill: #efbf04;"/>
      <path d="m15.52,9.34c.53-.04.45.07.78.12-.2.06-1.31-.11-.78-.12Z" style="fill: #efbf04;"/>
      <path d="m21.05,10.1c-.18-.27-.28-.66-.77-1.41-.12-.14-.2-.38-.38-.46-.21-.01-.42-.04-.64-.04-.54,0-.66,0-.93,0,.12,0,.23-.01.33-.02.15,0,.3-.01.44-.02.18,0,.36-.01.53,0h.26s.09,0,.12.02l.08.1c.2.27.42.54.61.91.11.21.14.29.21.45.05.14.11.31.15.46Z" style="fill: #efbf04;"/>
      <path d="m7.51,19.73c.17-.49.54-.82.51-.86-.06,0-.11.02-.18.04-.09.15-.29.46-.33.82Z" style="fill: #efbf04;"/>
      <path d="m15.29,21.8c.23-.18.09-.16-.32-.12-.43.01-1.31-.05-2-.13-.61-.03-1.17-.01-1.84.01-.55,0-1.1.01-1.63.02-.57,0-.89-.18-1.13-.3-.21-.05-.5-.25-.69-.47.1.18.27.37.43.49.14.11.31.23.6.35.26.15.79.12,1.26.14.45.01.9.03,1.35.04.51,0,1.02.02,1.51.03.42,0,.83,0,1.24,0,.45,0,.91.02,1.22-.06Z" style="fill: #efbf04;"/>
      <path d="m15.15,20.79c-.51.01-.96-.03-1.43,0-.46.02-.93.05-1.25.04.58.02,1.23.04,1.84.06.31,0,.59,0,.84-.02.25-.04.47-.14.61-.27.03-.07-.35.2-.62.19Z" style="fill: #fff;"/>
      <path d="m9.22,9.64c.04,1.5-.08,3.59.22,5.23.03-.77.09-.78.11-1.98.29.89,0,1.84.03,2.91.04-.88.18.27.22,1.02,0,.37,0,.77-.01,1.2,0,.23,0,.4-.02.54l-.02.08v.02s-.01,0-.01,0h0s0,0-.06-.03c-.08-.04-.16-.09-.23-.12l-.1.04c-.07.03-.13.06-.2.1-.13.07-.24.14-.32.19-.3.2-.31.09-.5.21-.16.1-.34.28-.45.5-.12.21-.16.57-.02.84.12.28.33.48.54.62.21.09.46.17.93.28.51.07,1.2.04,1.76.06.83,0,1.35,0,1.17-.14.29,0,.52.01.72.03.23.02.5.05.72.08.44.05,1,.19,1.56.08.33-.13.56-.21.83-.43.25-.2.48-.54.47-.91,0-.35-.16-.66-.31-.86-.17-.18-.16-.13-.39-.38-.13-.12-.33-.32-.73-.43-.19-.06-.44-.05-.59-.1-.05-.06-.02-.04-.03-.07,0-.03,0-.05,0-.07,0-.02.01,0,.01-.06v-.23c.02-.31.03-.63.01-.96,0-.16-.02-.32-.03-.5,0-.08-.02-.17-.03-.26,0-.08-.02-.21-.03-.19.11.01.13-.03.14-.05.02,0,.03,0,.05,0h.01s.09,0,.09,0c.19,0,.39,0,.6.01.41,0,.85,0,1.25,0,.18,0,.36-.01.53-.02l.06-.05s.1-.09.09-.17c.07-.1-.7-.09-1.34-.07-.33,0-.68.02-1.02,0h-.25s-.08-.02-.08-.02c-.05-.01-.11-.03-.19-.06-.09-.03-.16-.06-.22-.08-.06.06-.09.03-.11-.11.07-.01.19-.02.34-.02.21,0,.45,0,.68-.01.58,0,1.09-.03,1.11-.12-.31.04-.48-.2-1.42-.14,2.01-.07-.82-.32.21-.46-.81-.07-1.37-.12-1.8-.15-.08,1.02-.15,1.44-.39,2.19.06,1.38.29,1,.42,1.39,0,.12.01.22.02.32v.17c.03.05.06.1.09.15.1.17.28.4.36.48.17.18.38.25.55.26.33-.05.61.35.46.71-.4-.37-.7-.06-1.02-.1-.16-.01-.3-.02-.45-.02-.35,0-.68,0-.95,0-.48-.01-.77,0-.95.03-.17.03-.14.08-.22.12-.1.09-.28.17-.91.14-.14-.1.3-.16.56-.22.29-.06.37-.13.31-.24-.08.03-.19.05-.32.08-.22.08-.52.12-.82.08-.31-.04-.56-.27-.47-.43.11-.09.29-.18.45-.19.16-.01.3.02.34.02-.23-.02-.19.05-.05.05.14,0,.38.04.59.05.02-.01.03-.04.04-.07v-.04s.04-.08.06-.12c.06-.17.07-.29.07-.43-.1.27-.31.5-.33.46-.06.02-.08,0-.06-.03,0,0,.09-.15.14-.33.06-.18.08-.39.09-.62,0-.85.02-2.02-.12-2.63-.44-3.54.49-1.87.22-5.36-.18.54-.25-.04-.28-.89-.02-.44-.03-.95-.05-1.42.06-.6-.4-1.04-.73-1.11-.27-.1-.52-.06-.74-.05-.19,0-.23-.03-.29-.09-.11-.11-.15-.32-.09-.45-.02-.05-.02-.17.06-.28.07-.12.19-.2.22-.25-.13-.08-.4-.13-.69.11-.29.21-.49.9.06,1.46.14.13.36.25.58.28.12.02.2.02.21.03l.1.03c.12.04.21.17.21.29,0,.06-.01.12-.05.17-.03.05-.06.04-.08.27-.05.35-.1.71-.14,1.06.01.08.02.15.03.14Z" style="fill: #efbf04;"/>
    </g>
    <g>
      <path d="m3.65,26.86s0-.06,0-.06h-.02s.02.06.02.06Z" style="fill: #f13724;"/>
      <polygon points="3.89 26.94 3.9 26.92 3.88 26.92 3.89 26.94" style="fill: #f13724;"/>
      <path d="m3.63,26.8c-.08,0-.15.02-.23-.01,0-.04,0-.11,0-.14-.04-.04-.08,0-.12,0,0-.04,0-.07-.02-.07-.05-.03-.09,0-.11.08.22.17.28.56.47.16Z" style="fill: #f13724;"/>
      <path d="m3.78,27.09v-.19s-.08-.05-.13-.04c.03.1.07.16.13.22Z" style="fill: #f13724;"/>
      <path d="m5.8,26.29s0,.02-.04,0h.04s0-.03.01-.04c-.12.02-.27.05-.41.05l-.05.07c.35-.01.69-.01.98-.12-.2,0-.34.04-.53.04Z" style="fill: #f13724;"/>
      <path d="m5.33,26.5h-.04s.03.01.04,0Z" style="fill: #f13724;"/>
      <path d="m8.88,29.75c.01.21.08.4.14.6-.05-.4-.07-.82-.14-1.13,0,.18,0,.36,0,.53Z" style="fill: #f13724;"/>
      <path d="m6.93,30.62c.19.19.4.28.61.34-.19-.11-.37-.22-.54-.33h-.07Z" style="fill: #f13724;"/>
      <path d="m7.24,30.69c.19.14.39.2.59.26l1.55.45-.34-1.04v-.02s0,.02,0,.02l.16,1.3-1.35-.72c-.2-.1-.4-.2-.59-.26Z" style="fill: #f13724;"/>
      <path d="m7.23,27.64c-.07.06-.11.09-.12.09-.02.03-.04.06-.06.11h0s.07-.07.12-.1c.03-.03.07-.06.11-.09-.02,0-.04-.01-.06-.01Z" style="fill: #f13724;"/>
      <path d="m7.11,27.74c.16-.25-.06.03,0,0h0Z" style="fill: #f13724;"/>
      <polygon points="8.57 26.75 8.57 26.78 8.58 26.85 8.57 26.75" style="fill: #f13724;"/>
      <path d="m7.92,28.86c0-.14-.02-.28-.03-.42.01.28.03.57.08.81,0-.04.02-.07.02-.11-.04-.07-.08-.18-.08-.29Z" style="fill: #f13724;"/>
      <path d="m7.56,26.62c.29-.04.61-.09.96-.13.02.1.03.19.05.29,0,.42,0,.83.02,1.24.02.35.07.69.15,1.02.09.35.1.85.17,1.33l.15,1.06-1.14-.58c-.27-.14-.54-.25-.8-.27.04.04.09.08.13.11-.08-.03-.17-.05-.25-.06-.23-.15-.46-.29-.67-.42-.05-.02-.1-.04-.15-.06l-.09.07-.04.03-.55.32c-.27.15-.47.34-.75.5l-.84.5s0,.01,0,.01c-.4.24-.82.49-1.25.76,0-.62.02-1.31.03-2.11.01-.55.07-1.13.1-1.69.01-.21.1-.23.13-.37.14-.64.23-.74.29-1.07,0,0,.04,0,.06,0,0-.05,0-.09,0-.13.22.17.28.56.47.16h0s.02.06.02.06h0s0,0,0,0c.03.1.07.16.13.22v-.19s.07.02.1.02l.02.02s0,.05,0,.05c.02,0,.03.02.05.02.08.17.11.43.2.38.05-.03.02-.15,0-.29l.02-.03c.01.18.15,0,.16.12,0,.11,0,.26,0,.37-.03.46-.03.85.01,1.18v.04c.01.1.02.21,0,.33.05-.03.09-.05.14-.07l-.06.08c.11-.05.23-.11.36-.22.13-.12.26-.24.37-.35.27-.19.62-.42.96-.63l.07-.04c.31.21.63.43.99.67.25.16.49.3.75.45-.23-.11-.45-.22-.66-.36-.12-.09-.23-.17-.35-.26.12.1.28.21.35.26.35.27.69.55,1.08.59.02.04,0,.05.04.07l.21.16-1.1.53c0-.16,0-.31-.05-.45-.02,0-.02-.11-.06-.07-.01-.21,0-.46-.04-.67-.01-.09-.05-.19-.09-.28l-.07-.56-.03-.28c-.01-.11-.03-.06-.04-.09-.05-.05-.11-.05-.16,0h-.01s-.02.03-.02.03c.03-.05.08-.1.15-.14.01,0,.03,0,.04,0-.02.06-.02.07.09.1.02,0,.04.02.06.03-.04-.08-.09-.13-.14-.13v-.04s0-.01-.03-.01h0s.07-.04.11-.06h.02c-.02.08-.02.12.06.15h.03s.04.04.05.05c-.03-.06-.05-.11-.08-.15-.02-.02-.04-.04-.06-.05v-.03s-.01,0-.01,0l.02-.02s.05-.04.11-.09c.08-.06.21-.14.25-.21v-.03c-.29.01-.62.1-.61.08-.04-.08.5-.19.52-.21-.03,0-.05-.02-.08-.02.04-.02.08-.03.13-.05.08-.02.16,0,.24-.04.03-.01.06-.02.09-.03.08.08.05.29.12.45.06.11.14.27.22.48.04,0,.02.11.06.07,0,.2-.01.43.11.52h0s0,.05.01.07c-.03.33.08.57.15.87,0,.1.01.21,0,.32,0-.07.03-.18,0-.25l-.02-.07c-.02-.27-.07-.53-.11-.78-.01-.02-.03-.06-.04-.09,0-.02,0-.03,0-.06l-.02-.02c-.05-.25-.07-.52-.12-.73-.06-.37-.02-.76,0-1.17h-.02s.02,0,.02,0c.03.16.06.32.1.5-.02-.2-.05-.37-.08-.52l-.14.02h-.1s-.21,0-.21,0c.07,0,.12.02.17.02-.13.02-.27.05-.42.08-.64.1-1.37.15-2.09.12l.05-.08c.35-.01.69-.01.98-.12-.2,0-.34.04-.53.04,0-.01,0-.03.01-.04-.12.02-.27.05-.41.05l.15-.16c.07-.04.18-.04.28-.06.47-.04.86-.03,1.42-.08.35,0,.7,0,1.04.01,0,.11,0,.22,0,.32l-.04-.28c-.37.05-.69.09-.97.15Zm-3.96,1.34s.01.1.02.15l.02-.03s-.01-.09-.04-.12Zm-.09,1.18c.06-.37.04-.78.03-1.23,0,0-.02,0-.02,0-.04.39-.02.84-.01,1.24Zm-.56,2.01v-.02s0,.01,0,.01h0Zm4.15-1.25c-.14-.04-.3-.12-.42-.19-.1-.05-.19-.1-.3-.16-.05-.04-.11,0-.17-.02,0,0-.02.01-.02.02-.09.08-.14.15-.19.21l.05.02c-.05.02-.09.07-.12.11-.02.02-.03.04-.05.06,0,0-.14.09-.22.12,0,.02-.03.09-.09.12-.29.19-.58.31-.81.49-.3.19-.59.36-.86.56-.06.03-.22.2-.37.31-.18.11-.33.2-.48.3v.02c.13-.07.26-.15.4-.25.46-.31.94-.63,1.24-.83.44-.27.94-.6,1.22-.8.07-.08.15-.18.26-.29.01-.01.02-.03.04-.04.03,0,.07,0,.11,0,.16.01.34.17.64.21.04,0,.1.05.15.03Zm.85-.49c-.38-.17-.65-.32-1.07-.65-.14-.1-.39-.26-.61-.36-.3.24-.5.47-.39.57.05-.14.19-.28.38-.43.32.16.87.59,1.12.76.3.2.53.32.56.11Zm-.57-1.21c.03.15.05.29.05.46-.02-.16-.03-.31-.05-.46Zm.81,1.53c-.13-.46-.14-.96-.21-1.42-.03-.18-.01-.37,0-.48,0-.13,0-.26-.07-.33l-.06.03h.02c-.01.1-.05.17-.07.23h0s0,0,0,0c-.01.04-.02.08,0,.13l.03.07c.02.42.04.89.16,1.29.06.25.15.46.21.71,0-.07.03-.18,0-.25Z" style="fill: #f13724;"/>
      <path d="m8.17,26.67c-.17.02-.33.05-.48.07-.11.03-.22.05-.35.08-.45.11-1.2.07-1.78.12-.02.06-.02.12,0,.19.33.03.66.02.99,0,.16,0,.33-.01.48-.02.1,0,.21,0,.31,0,0,0,0,0,.01,0,.18-.09.4-.09.65-.13.01.06.03.11.05.15.12.18.15.48.25.81.01-.45-.01-.84.02-1.27-.05,0-.1,0-.15,0Z" style="fill: #f13724;"/>
      <path d="m7.53,30.97l.2.12,1.56.94-.1-1.66v-.19c-.05-.39-.1-.74-.17-1.1,0,.27,0,.53,0,.79,0,.18.06.34.11.5l.39,1.18-1.75-.52c-.08-.02-.16-.05-.24-.07Z" style="fill: #f13724;"/>
      <path d="m8.97,28.8c.02.1.04.2.05.29-.01-.37-.02-.77-.03-1.19-.04-.58-.08-1.14-.13-1.75-.27.03-.55.06-.85.09-.11.01-.2.02-.28.03.33,0,.67,0,.99.01-.02.56-.03,1.1-.01,1.64.02.46.07.85.16,1.24v.06c0-.46,0-.96-.02-1.48.02.25.03.4.05.56.02.16.04.32.06.49Z" style="fill: #f13724;"/>
      <path d="m8.34,26.64h-.1s-.13.02-.13.02h.06c.06,0,.11-.01.17-.02Z" style="fill: #f13724;"/>
      <path d="m7.78,27.75h0c0,.08.02.14.03.2.03.14.06.32.08.48,0-.14-.02-.28-.03-.45-.02-.1-.04-.18-.07-.24Z" style="fill: #f13724;"/>
      <path d="m7.26,28.56s0,.11,0,.14l.04.07v-.1s-.03-.11-.03-.11Z" style="fill: #f13724;"/>
      <path d="m8.44,29.56c.1.05.2.11.29.16l-1.23.6c-.06-.49-.11-.98-.16-1.47l-.04-.09c-.02.39,0,.78.1,1.14.02.07.08.18.08.25,0,.05,0,.11,0,.17l1.28-.62c-.24-.14-.49-.26-.73-.37.13.07.26.15.41.23h.01Z" style="fill: #f13724;"/>
    </g>
  </g>
</svg>