<?xml version="1.0" encoding="UTF-8"?>
<svg id="pinterest" data-name="icon-pinterest" xmlns="http://www.w3.org/2000/svg" viewBox="0 0 75.08 75.23">
  <g id="icon__pinterest">
    <path d="m38.2,38.69c-.11-.4-.21-.71-.23-.98-.07-.3-.08-.55-.07-.79.01-.24-.02-.45,0-.59.03-.08,0-.1.05-.15-.12.04.3-.11.56-.23.53-.24.79-.51.72-.43.03-.03-.03.03-.06.07l-.09.11-.06.09-.14.19c-.09.14-.16.27-.22.39l-.08.14h-.01s-.01.01-.01.01c-.07-.02-.85.11-1.29.81-.18.36-.32.64-.34.95l-.02.18.05.19.02.07s.05.1,0-.02c-.08-.14-.17-.28-.27-.42l-.29-.4c-.09-.12-.21-.25-.33-.38-.1-.11-.16-.18-.26-.28l-.16-.14-.09-.07s.02.02.02.02c.14.12.56.42,1.03.61.48.21,1.04.37,1.59.47.27.05.53.07.78.08h.18s.01,0,.04,0c.03,0,.04,0,.04.01.08.03.13.08.18.16.07.08.15.17.21.29l-5.92-3.96c-.12.13-.14.19-.18.29-.04.08-.09.31-.09.54,0-.01,0-.03,0-.05,0,.35-.02.66-.03.94,0,.38,0,.67.03.88.28,1.25.94,2.57,1.57,3.98.65,1.4,1.22,2.95,1.73,4.5.27.77-.37.99-.92,1.1-.54.12-1,.16-.41.91-.7.14-1.54.22-2.36.31-.85.07-1.67.13-2.31.18-1.3.12-2.13.5-.66,1.75.38.92,1.92,1.22,3.44,1.29,1.54.1,3.05.03,4,1.04.96,1.04,1,2.29.88,3.58-.09,1.28-.34,2.6.88,3.58.94-.22,2.33-.66,3.67-1.22,1.33-.6,2.63-1.27,3.44-1.82,1.27.16,1.58,1.43,1.65,2.6.08,1.16-.02,2.19.99,1.56,3.45-1.19,6.93-4.07,9.31-7.66,1.23-1.79,2.21-3.72,3.01-5.73.4-1,.75-2.03,1.07-3.09.16-.54.3-1.07.45-1.66l.21-.91.1-.5.12-.66c.81.14,1.67-.06,2.38.06.35.06.67.2.92.49.04.2.07.45.08.73.03.21.05.44.05.7.01.51,0,1.07-.08,1.73-.72,2.74-1.64,5.2-2.89,7.68-1.25,2.47-2.84,4.9-4.8,7.18-1.93,2.28-4.29,4.39-6.89,6.11-2.6,1.76-5.4,3.09-8.31,4.06-5.84,1.94-12.15,2.29-18.08,1.08-5.94-1.19-11.56-3.9-16.21-7.78l-2.3-1.92-1.9-3.33C1.3,50.21-.75,41.72.25,32.9c.49-4.4,1.83-8.89,4.07-13.12,1.1-2.12,2.49-4.14,4.03-6.05.79-.92,1.63-1.81,2.48-2.69.85-.88,1.76-1.61,2.68-2.39,3.69-2.98,7.76-5.13,11.95-6.56C29.66.65,34.02-.01,38.5,0c4.47.03,9.1.8,13.67,2.55,4.56,1.78,9.05,4.65,12.7,8.43,3.69,3.76,6.43,8.36,8.07,13.05,1.66,4.71,2.29,9.51,2.1,14.16-.19,4.65-1.2,9.17-2.97,13.44-1.77,4.26-4.32,8.27-7.59,11.73-3.26,3.46-7.22,6.31-11.49,8.3-4.28,1.99-8.85,3.14-13.4,3.47-9.11.68-18.3-2.01-25.5-7.36-1.08-.84-1.79-1.65-2.3-2.28-.5-.64-.77-1.14-.85-1.51.04-.27.18-.5.39-.67.11-.09.24-.16.38-.23.15-.06.41-.04.65-.03,2.02.13,5.74,1.31,9.36,1.68-1.19-.17-1.51-.82-1.78-1.44-.28-.63-.5-1.28-1.64-1.56.35-.5.99-.93,1.83-1.27.42-.17.89-.31,1.39-.42.52-.13,1.08-.25,1.67-.33,2.37-.31,5.23-.36,8.6-.12-1.65-.35-3.29-.79-4.84-1.46-.62-.71-.34-1.26.13-1.84.48-.57,1.14-1.18,1.45-1.94,1.29.55,2.66.92,2.85.1.21-.79.62-2.38.83-3.17-.27-.05-.6-.17-.96-.29-.36-.12-.76-.24-1.14-.42-.78-.3-1.5-.73-1.98-.99.49.25.96.56,1.39.62.43.07.75,0,.91-.39.32-.76.95-2.27,1.27-3.03.44,0,.9.04,1.34.24.46.11.92.39,1.42.53.97.39,2.08.55,2.86.08l-.24-2.44c-.68-.36-1.42-.32-2.21-.37-.4.03-.79-.05-1.18-.05-.37-.09-.75-.09-1.04-.26.9-.5,1.12-1.35,1.65-2.88.7-.2,1.17.31,1.84.53.62.21,1.42.06,1.52-1.27-.08.02-.15.05-.23.09-.08,0-.17.02-.25.04-.16.07-.34.04-.51.08.16-2.06.24-2.33.6-2.24.33.11,1,.32.91-.17Z" style="fill: #efbf04;"/>
    <path d="m30.51,67.5c.27-.71.54-1.43.79-2.14,1.07-3.11,1.9-6.25,2.57-9.55.71-3.32,1.47-6.62,2.15-9.96.66-3.34,1.3-6.73,1.55-10.14.12-1.7.14-3.41-.13-4.98-.39-1.77-.71-2.28-1.55-2.57-.11-.02-.22-.07-.33-.05-.11.01-.2.09-.27.18-.14.18-.2.4-.27.62-.05.15-.08.31-.11.47l-.06.39c-.03.16-.04.33-.05.49-.07.66-.1,1.34-.1,2.03,0,1.36.06,2.81.28,4.13.48,2.69,1.58,5.37,3.42,7.39,3.66,4.1,9.77,5.99,14.78,5.3-1.4.22-2.88.17-4.33-.05-1.45-.21-2.9-.58-4.26-1.15-1.37-.55-2.69-1.24-3.85-2.13-1.18-.86-2.22-1.89-3.06-3.06-1.67-2.36-2.6-5.28-2.78-8.25-.1-1.52-.11-3.06.04-4.53l.06-.5.04-.25c.03-.17.07-.33.13-.49.06-.15.12-.32.25-.43.13-.13.32-.07.48-.03.36.1.68.34.87.65.14.18.47.97.59,1.71.29,1.51.28,3.19.17,4.87-.24,3.37-.88,6.77-1.58,10.13-.71,3.37-1.51,6.71-2.26,10.06-.71,3.34-1.56,6.47-2.64,9.56.54-2.46,1.14-5.35,1.82-8.77.9-4.24,1.88-8.38,2.68-12.48.39-2.05.75-4.09,1-6.1.24-2.01.39-4.02.24-5.84.1,0,.29-.03.39-.04-.09-.99-.34-2.02-.64-2.62-.12-.25-.32-.42-.57-.47-.15-.07-.3.03-.34.18-.06.13-.08.28-.11.42l-.03.25c-.02.14-.04.29-.05.44-.03.3-.05.6-.06.9-.03.61-.03,1.23-.02,1.85.04,1.24.11,2.48.34,3.61.22,1.16.57,2.29,1.02,3.36,1.73,4.31,5.93,7.21,10.57,8.35,4.52,1.12,10.16.55,11.36-3.83.75-2.12.81-4.63.48-7.07-.34-2.45-1.07-4.89-2.14-7.18.26.75,0,.35-.12.22-.02-.05-.04-.1-.06-.14.02.05.04.09.06.14-.12-.11-.09-.02.4,1.26-.49-1.28-.52-1.37-.4-1.26,1.01,2.28,1.68,4.71,1.98,7.12.29,2.4.2,4.86-.55,6.88-.38.99-.89,1.87-1.58,2.43-.65.62-1.64,1.01-2.66,1.28-2.09.54-4.51.39-6.77-.14-2.28-.53-4.44-1.56-6.27-2.92-1.85-1.36-3.21-3.14-4.12-5.26-.45-1.05-.79-2.17-1-3.31-.22-1.11-.28-2.34-.32-3.57,0-.61,0-1.23.03-1.83.01-.3.04-.6.07-.89.01-.15.03-.29.05-.43l.03-.22c.03-.12.07-.35.24-.27.1.03.17.11.21.19.02.04,0,0,.06.14.07.13.11.31.17.48.1.34.19.72.24,1.13-.05-.41-.14-.78-.24-1.12-.06-.16-.1-.35-.17-.48-.07-.16-.04-.1-.06-.14-.04-.08-.11-.15-.21-.18-.12-.06-.18.09-.2.18.02-.27-.16,1.15-.17,2.03-.03.98,0,1.98.07,2.97.04.51.08.97.16,1.43.07.46.17.92.28,1.38.45,1.83,1.21,3.57,2.28,5.03,1.09,1.43,2.48,2.66,4.11,3.61,3.22,1.88,7.26,2.78,10.79,2.21.85-.18,1.7-.4,2.36-.79.71-.36,1.21-.81,1.66-1.42.89-1.23,1.34-3.05,1.47-4.9.22-3.76-.75-7.77-2.43-11.33-1.68-3.57-4.2-6.77-7.36-8.95-3.16-2.15-7.09-3.26-11.09-3.43-3.99-.15-8.13.58-11.65,2.35-.63.31-1.54.85-2.37,1.46-.83.61-1.54,1.32-1.95,1.83-.9.95-1.59,2.05-1.93,3.27-.4,1.2-.46,2.54-.25,3.9.38,2.73,1.72,5.47,3.43,7.92-.63-.48-.3.67-.63.68-.16,0-.54-.28-1.23-1.25-.66-.98-1.79-2.65-2.6-5.63-.1.03-.29.08-.38.1.74,3.08,2.03,5.5,3.02,7.31,1,1.81,1.79,3.02,2.04,3.64.23.58-.05.64-1-.16-.92-.81-2.5-2.37-4.25-5.34-.96-1.68-1.82-3.57-2.32-5.72-.5-2.14-.61-4.61.12-7.03.72-2.41,2.22-4.57,4.06-6.19,1.83-1.66,3.98-2.85,6.22-3.74,4.49-1.74,9.4-2.28,14.21-1.71,2.41.31,4.8.89,7.07,1.84,2.28.92,4.4,2.28,6.24,3.84,2.67,2.31,4.77,5.15,6.36,8.21,1.58,3.07,2.66,6.38,3.12,9.84.22,1.73.28,3.51.09,5.33-.18,1.81-.65,3.67-1.61,5.47-.51.89-1.15,1.75-1.97,2.49-.42.33-.85.68-1.29.96-.45.24-.91.5-1.37.71-1.86.8-3.74,1.04-5.56,1.06-1.66,0-3.31-.18-4.9-.58-.81-.16-1.58-.45-2.37-.68-.76-.31-1.55-.58-2.28-.97-2.98-1.41-5.76-3.67-7.63-6.63-1.82-2.93-2.75-6.34-2.89-9.64-.09-1.62-.08-3.23.11-4.92l.04-.33c.02-.16.04-.33.08-.5l.21-1.01.31-.94c.14-.28.27-.57.42-.83.34-.48.7-.93,1.21-1.19.13-.07.27-.12.4-.18.14-.04.29-.04.44-.06.27-.08.57-.02.85-.04,1.19.21,2.37.73,3.28,1.71l.34.36.28.42c.18.28.4.55.52.86.26.55.38.94.52,1.41.47,1.79.52,3.44.49,5.05-.11,3.19-.61,6.19-1.18,9.1-.59,3.18-1.47,7.49-2.27,11.37-.2.97-.39,1.92-.57,2.81-.18.91-.37,1.79-.56,2.58-.38,1.58-.77,2.85-1.05,3.61-.78,2.2-1.03,2.22-1.15,1.81.79-2.53,1.45-5.1,1.98-7.69.54-2.55,1.08-5.1,1.61-7.64,1.05-5.11,2.18-10.21,2.4-15.54.06-1.64.02-3.31-.41-5.04-.13-.43-.24-.87-.45-1.3-.1-.25-.24-.52-.41-.76-.16-.24-.3-.51-.51-.7-.74-.89-1.76-1.41-2.81-1.62l-.58-.04c-.18.03-.4.01-.58.08-.38.14-.66.41-.91.7-.48.59-.77,1.41-.97,2.27l-.13.66c-.05.22-.07.45-.09.58-.05.32-.07.63-.1.94-.05.63-.08,1.25-.09,1.87-.01,1.24.04,2.46.17,3.72.15,1.27.42,2.52.81,3.73.76,2.42,2.07,4.76,3.9,6.63,1.81,1.89,4.03,3.27,6.38,4.26-2.3-.99-4.5-2.35-6.29-4.21-1.82-1.85-3.13-4.16-3.91-6.58-.39-1.21-.68-2.45-.83-3.73-.14-1.27-.19-2.48-.19-3.74,0-.62.03-1.25.08-1.88.03-.32.05-.63.1-.95l.08-.56.13-.66c.19-.86.47-1.69.95-2.29.25-.29.52-.57.9-.72.18-.08.4-.06.58-.09l.59.04c1.04.21,2.05.72,2.79,1.6.21.19.35.45.51.69.17.24.31.49.41.75.21.43.33.86.45,1.29.43,1.72.48,3.4.43,5.04-.25,5.32-1.4,10.37-2.46,15.42l-1.64,7.53c-.54,2.55-1.19,5.07-1.97,7.55-.08-.42-.18-.83-.55-.28,0,0-.24.76-.54,1.71-.31.95-.71,2.08-.98,2.83-1.35,2.9-2.14,3.85-2.4,3.74-.27-.12-.07-1.32.27-2.86.19-.79.4-1.69.63-2.63Z" style="fill: #1b1614;"/>
  </g>
</svg>